<?xml version="1.0" encoding="utf-8"?>
<svg xmlns="http://www.w3.org/2000/svg" xmlns:xlink="http://www.w3.org/1999/xlink" width="600" height="400" viewBox="0 0 2400 1600">
<defs>
  <clipPath id="clip860">
    <rect x="0" y="0" width="2400" height="1600"/>
  </clipPath>
</defs>
<path clip-path="url(#clip860)" d="M0 1600 L2400 1600 L2400 0 L0 0  Z" fill="#ffffff" fill-rule="evenodd" fill-opacity="1"/>
<defs>
  <clipPath id="clip861">
    <rect x="480" y="0" width="1681" height="1600"/>
  </clipPath>
</defs>
<path clip-path="url(#clip860)" d="M250.028 1423.18 L2352.76 1423.18 L2352.76 47.2441 L250.028 47.2441  Z" fill="#ffffff" fill-rule="evenodd" fill-opacity="1"/>
<defs>
  <clipPath id="clip862">
    <rect x="250" y="47" width="2104" height="1377"/>
  </clipPath>
</defs>
<polyline clip-path="url(#clip862)" style="stroke:#000000; stroke-linecap:round; stroke-linejoin:round; stroke-width:2; stroke-opacity:0.1; fill:none" points="309.539,1423.18 309.539,47.2441 "/>
<polyline clip-path="url(#clip862)" style="stroke:#000000; stroke-linecap:round; stroke-linejoin:round; stroke-width:2; stroke-opacity:0.1; fill:none" points="805.466,1423.18 805.466,47.2441 "/>
<polyline clip-path="url(#clip862)" style="stroke:#000000; stroke-linecap:round; stroke-linejoin:round; stroke-width:2; stroke-opacity:0.1; fill:none" points="1301.39,1423.18 1301.39,47.2441 "/>
<polyline clip-path="url(#clip862)" style="stroke:#000000; stroke-linecap:round; stroke-linejoin:round; stroke-width:2; stroke-opacity:0.1; fill:none" points="1797.32,1423.18 1797.32,47.2441 "/>
<polyline clip-path="url(#clip862)" style="stroke:#000000; stroke-linecap:round; stroke-linejoin:round; stroke-width:2; stroke-opacity:0.1; fill:none" points="2293.24,1423.18 2293.24,47.2441 "/>
<polyline clip-path="url(#clip862)" style="stroke:#000000; stroke-linecap:round; stroke-linejoin:round; stroke-width:2; stroke-opacity:0.1; fill:none" points="250.028,1237.61 2352.76,1237.61 "/>
<polyline clip-path="url(#clip862)" style="stroke:#000000; stroke-linecap:round; stroke-linejoin:round; stroke-width:2; stroke-opacity:0.1; fill:none" points="250.028,944.363 2352.76,944.363 "/>
<polyline clip-path="url(#clip862)" style="stroke:#000000; stroke-linecap:round; stroke-linejoin:round; stroke-width:2; stroke-opacity:0.1; fill:none" points="250.028,651.113 2352.76,651.113 "/>
<polyline clip-path="url(#clip862)" style="stroke:#000000; stroke-linecap:round; stroke-linejoin:round; stroke-width:2; stroke-opacity:0.1; fill:none" points="250.028,357.863 2352.76,357.863 "/>
<polyline clip-path="url(#clip862)" style="stroke:#000000; stroke-linecap:round; stroke-linejoin:round; stroke-width:2; stroke-opacity:0.1; fill:none" points="250.028,64.6124 2352.76,64.6124 "/>
<polyline clip-path="url(#clip860)" style="stroke:#000000; stroke-linecap:round; stroke-linejoin:round; stroke-width:4; stroke-opacity:1; fill:none" points="250.028,1423.18 2352.76,1423.18 "/>
<polyline clip-path="url(#clip860)" style="stroke:#000000; stroke-linecap:round; stroke-linejoin:round; stroke-width:4; stroke-opacity:1; fill:none" points="309.539,1423.18 309.539,1404.28 "/>
<polyline clip-path="url(#clip860)" style="stroke:#000000; stroke-linecap:round; stroke-linejoin:round; stroke-width:4; stroke-opacity:1; fill:none" points="805.466,1423.18 805.466,1404.28 "/>
<polyline clip-path="url(#clip860)" style="stroke:#000000; stroke-linecap:round; stroke-linejoin:round; stroke-width:4; stroke-opacity:1; fill:none" points="1301.39,1423.18 1301.39,1404.28 "/>
<polyline clip-path="url(#clip860)" style="stroke:#000000; stroke-linecap:round; stroke-linejoin:round; stroke-width:4; stroke-opacity:1; fill:none" points="1797.32,1423.18 1797.32,1404.28 "/>
<polyline clip-path="url(#clip860)" style="stroke:#000000; stroke-linecap:round; stroke-linejoin:round; stroke-width:4; stroke-opacity:1; fill:none" points="2293.24,1423.18 2293.24,1404.28 "/>
<path clip-path="url(#clip860)" d="M286.924 1454.1 Q283.313 1454.1 281.484 1457.66 Q279.678 1461.2 279.678 1468.33 Q279.678 1475.44 281.484 1479.01 Q283.313 1482.55 286.924 1482.55 Q290.558 1482.55 292.363 1479.01 Q294.192 1475.44 294.192 1468.33 Q294.192 1461.2 292.363 1457.66 Q290.558 1454.1 286.924 1454.1 M286.924 1450.39 Q292.734 1450.39 295.789 1455 Q298.868 1459.58 298.868 1468.33 Q298.868 1477.06 295.789 1481.67 Q292.734 1486.25 286.924 1486.25 Q281.114 1486.25 278.035 1481.67 Q274.979 1477.06 274.979 1468.33 Q274.979 1459.58 278.035 1455 Q281.114 1450.39 286.924 1450.39 Z" fill="#000000" fill-rule="nonzero" fill-opacity="1" /><path clip-path="url(#clip860)" d="M307.086 1479.7 L311.97 1479.7 L311.97 1485.58 L307.086 1485.58 L307.086 1479.7 Z" fill="#000000" fill-rule="nonzero" fill-opacity="1" /><path clip-path="url(#clip860)" d="M332.155 1454.1 Q328.544 1454.1 326.715 1457.66 Q324.91 1461.2 324.91 1468.33 Q324.91 1475.44 326.715 1479.01 Q328.544 1482.55 332.155 1482.55 Q335.789 1482.55 337.595 1479.01 Q339.423 1475.44 339.423 1468.33 Q339.423 1461.2 337.595 1457.66 Q335.789 1454.1 332.155 1454.1 M332.155 1450.39 Q337.965 1450.39 341.021 1455 Q344.099 1459.58 344.099 1468.33 Q344.099 1477.06 341.021 1481.67 Q337.965 1486.25 332.155 1486.25 Q326.345 1486.25 323.266 1481.67 Q320.211 1477.06 320.211 1468.33 Q320.211 1459.58 323.266 1455 Q326.345 1450.39 332.155 1450.39 Z" fill="#000000" fill-rule="nonzero" fill-opacity="1" /><path clip-path="url(#clip860)" d="M777.202 1481.64 L793.521 1481.64 L793.521 1485.58 L771.577 1485.58 L771.577 1481.64 Q774.239 1478.89 778.822 1474.26 Q783.429 1469.61 784.609 1468.27 Q786.855 1465.74 787.734 1464.01 Q788.637 1462.25 788.637 1460.56 Q788.637 1457.8 786.693 1456.07 Q784.771 1454.33 781.669 1454.33 Q779.47 1454.33 777.017 1455.09 Q774.586 1455.86 771.808 1457.41 L771.808 1452.69 Q774.632 1451.55 777.086 1450.97 Q779.54 1450.39 781.577 1450.39 Q786.947 1450.39 790.142 1453.08 Q793.336 1455.77 793.336 1460.26 Q793.336 1462.39 792.526 1464.31 Q791.739 1466.2 789.632 1468.8 Q789.054 1469.47 785.952 1472.69 Q782.85 1475.88 777.202 1481.64 Z" fill="#000000" fill-rule="nonzero" fill-opacity="1" /><path clip-path="url(#clip860)" d="M803.336 1479.7 L808.22 1479.7 L808.22 1485.58 L803.336 1485.58 L803.336 1479.7 Z" fill="#000000" fill-rule="nonzero" fill-opacity="1" /><path clip-path="url(#clip860)" d="M818.452 1451.02 L836.808 1451.02 L836.808 1454.96 L822.734 1454.96 L822.734 1463.43 Q823.753 1463.08 824.771 1462.92 Q825.79 1462.73 826.808 1462.73 Q832.595 1462.73 835.975 1465.9 Q839.354 1469.08 839.354 1474.49 Q839.354 1480.07 835.882 1483.17 Q832.41 1486.25 826.091 1486.25 Q823.915 1486.25 821.646 1485.88 Q819.401 1485.51 816.993 1484.77 L816.993 1480.07 Q819.077 1481.2 821.299 1481.76 Q823.521 1482.32 825.998 1482.32 Q830.003 1482.32 832.341 1480.21 Q834.678 1478.1 834.678 1474.49 Q834.678 1470.88 832.341 1468.77 Q830.003 1466.67 825.998 1466.67 Q824.123 1466.67 822.248 1467.08 Q820.396 1467.5 818.452 1468.38 L818.452 1451.02 Z" fill="#000000" fill-rule="nonzero" fill-opacity="1" /><path clip-path="url(#clip860)" d="M1268.56 1451.02 L1286.91 1451.02 L1286.91 1454.96 L1272.84 1454.96 L1272.84 1463.43 Q1273.86 1463.08 1274.88 1462.92 Q1275.89 1462.73 1276.91 1462.73 Q1282.7 1462.73 1286.08 1465.9 Q1289.46 1469.08 1289.46 1474.49 Q1289.46 1480.07 1285.99 1483.17 Q1282.51 1486.25 1276.2 1486.25 Q1274.02 1486.25 1271.75 1485.88 Q1269.51 1485.51 1267.1 1484.77 L1267.1 1480.07 Q1269.18 1481.2 1271.4 1481.76 Q1273.63 1482.32 1276.1 1482.32 Q1280.11 1482.32 1282.45 1480.21 Q1284.78 1478.1 1284.78 1474.49 Q1284.78 1470.88 1282.45 1468.77 Q1280.11 1466.67 1276.1 1466.67 Q1274.23 1466.67 1272.35 1467.08 Q1270.5 1467.5 1268.56 1468.38 L1268.56 1451.02 Z" fill="#000000" fill-rule="nonzero" fill-opacity="1" /><path clip-path="url(#clip860)" d="M1298.67 1479.7 L1303.56 1479.7 L1303.56 1485.58 L1298.67 1485.58 L1298.67 1479.7 Z" fill="#000000" fill-rule="nonzero" fill-opacity="1" /><path clip-path="url(#clip860)" d="M1323.74 1454.1 Q1320.13 1454.1 1318.3 1457.66 Q1316.5 1461.2 1316.5 1468.33 Q1316.5 1475.44 1318.3 1479.01 Q1320.13 1482.55 1323.74 1482.55 Q1327.38 1482.55 1329.18 1479.01 Q1331.01 1475.44 1331.01 1468.33 Q1331.01 1461.2 1329.18 1457.66 Q1327.38 1454.1 1323.74 1454.1 M1323.74 1450.39 Q1329.55 1450.39 1332.61 1455 Q1335.69 1459.58 1335.69 1468.33 Q1335.69 1477.06 1332.61 1481.67 Q1329.55 1486.25 1323.74 1486.25 Q1317.93 1486.25 1314.85 1481.67 Q1311.8 1477.06 1311.8 1468.33 Q1311.8 1459.58 1314.85 1455 Q1317.93 1450.39 1323.74 1450.39 Z" fill="#000000" fill-rule="nonzero" fill-opacity="1" /><path clip-path="url(#clip860)" d="M1763.64 1451.02 L1785.86 1451.02 L1785.86 1453.01 L1773.31 1485.58 L1768.43 1485.58 L1780.24 1454.96 L1763.64 1454.96 L1763.64 1451.02 Z" fill="#000000" fill-rule="nonzero" fill-opacity="1" /><path clip-path="url(#clip860)" d="M1794.98 1479.7 L1799.86 1479.7 L1799.86 1485.58 L1794.98 1485.58 L1794.98 1479.7 Z" fill="#000000" fill-rule="nonzero" fill-opacity="1" /><path clip-path="url(#clip860)" d="M1810.1 1451.02 L1828.45 1451.02 L1828.45 1454.96 L1814.38 1454.96 L1814.38 1463.43 Q1815.4 1463.08 1816.42 1462.92 Q1817.43 1462.73 1818.45 1462.73 Q1824.24 1462.73 1827.62 1465.9 Q1831 1469.08 1831 1474.49 Q1831 1480.07 1827.53 1483.17 Q1824.05 1486.25 1817.73 1486.25 Q1815.56 1486.25 1813.29 1485.88 Q1811.05 1485.51 1808.64 1484.77 L1808.64 1480.07 Q1810.72 1481.2 1812.94 1481.76 Q1815.17 1482.32 1817.64 1482.32 Q1821.65 1482.32 1823.98 1480.21 Q1826.32 1478.1 1826.32 1474.49 Q1826.32 1470.88 1823.98 1468.77 Q1821.65 1466.67 1817.64 1466.67 Q1815.77 1466.67 1813.89 1467.08 Q1812.04 1467.5 1810.1 1468.38 L1810.1 1451.02 Z" fill="#000000" fill-rule="nonzero" fill-opacity="1" /><path clip-path="url(#clip860)" d="M2245.32 1481.64 L2252.96 1481.64 L2252.96 1455.28 L2244.65 1456.95 L2244.65 1452.69 L2252.91 1451.02 L2257.59 1451.02 L2257.59 1481.64 L2265.22 1481.64 L2265.22 1485.58 L2245.32 1485.58 L2245.32 1481.64 Z" fill="#000000" fill-rule="nonzero" fill-opacity="1" /><path clip-path="url(#clip860)" d="M2284.67 1454.1 Q2281.06 1454.1 2279.23 1457.66 Q2277.42 1461.2 2277.42 1468.33 Q2277.42 1475.44 2279.23 1479.01 Q2281.06 1482.55 2284.67 1482.55 Q2288.3 1482.55 2290.11 1479.01 Q2291.94 1475.44 2291.94 1468.33 Q2291.94 1461.2 2290.11 1457.66 Q2288.3 1454.1 2284.67 1454.1 M2284.67 1450.39 Q2290.48 1450.39 2293.53 1455 Q2296.61 1459.58 2296.61 1468.33 Q2296.61 1477.06 2293.53 1481.67 Q2290.48 1486.25 2284.67 1486.25 Q2278.86 1486.25 2275.78 1481.67 Q2272.72 1477.06 2272.72 1468.33 Q2272.72 1459.58 2275.78 1455 Q2278.86 1450.39 2284.67 1450.39 Z" fill="#000000" fill-rule="nonzero" fill-opacity="1" /><path clip-path="url(#clip860)" d="M2304.83 1479.7 L2309.71 1479.7 L2309.71 1485.58 L2304.83 1485.58 L2304.83 1479.7 Z" fill="#000000" fill-rule="nonzero" fill-opacity="1" /><path clip-path="url(#clip860)" d="M2329.9 1454.1 Q2326.29 1454.1 2324.46 1457.66 Q2322.65 1461.2 2322.65 1468.33 Q2322.65 1475.44 2324.46 1479.01 Q2326.29 1482.55 2329.9 1482.55 Q2333.53 1482.55 2335.34 1479.01 Q2337.17 1475.44 2337.17 1468.33 Q2337.17 1461.2 2335.34 1457.66 Q2333.53 1454.1 2329.9 1454.1 M2329.9 1450.39 Q2335.71 1450.39 2338.77 1455 Q2341.84 1459.58 2341.84 1468.33 Q2341.84 1477.06 2338.77 1481.67 Q2335.71 1486.25 2329.9 1486.25 Q2324.09 1486.25 2321.01 1481.67 Q2317.96 1477.06 2317.96 1468.33 Q2317.96 1459.58 2321.01 1455 Q2324.09 1450.39 2329.9 1450.39 Z" fill="#000000" fill-rule="nonzero" fill-opacity="1" /><path clip-path="url(#clip860)" d="M1300.45 1522.27 L1300.45 1532.4 L1312.52 1532.4 L1312.52 1536.95 L1300.45 1536.95 L1300.45 1556.3 Q1300.45 1560.66 1301.63 1561.9 Q1302.84 1563.14 1306.5 1563.14 L1312.52 1563.14 L1312.52 1568.04 L1306.5 1568.04 Q1299.72 1568.04 1297.14 1565.53 Q1294.56 1562.98 1294.56 1556.3 L1294.56 1536.95 L1290.27 1536.95 L1290.27 1532.4 L1294.56 1532.4 L1294.56 1522.27 L1300.45 1522.27 Z" fill="#000000" fill-rule="nonzero" fill-opacity="1" /><polyline clip-path="url(#clip860)" style="stroke:#000000; stroke-linecap:round; stroke-linejoin:round; stroke-width:4; stroke-opacity:1; fill:none" points="250.028,1423.18 250.028,47.2441 "/>
<polyline clip-path="url(#clip860)" style="stroke:#000000; stroke-linecap:round; stroke-linejoin:round; stroke-width:4; stroke-opacity:1; fill:none" points="250.028,1237.61 268.926,1237.61 "/>
<polyline clip-path="url(#clip860)" style="stroke:#000000; stroke-linecap:round; stroke-linejoin:round; stroke-width:4; stroke-opacity:1; fill:none" points="250.028,944.363 268.926,944.363 "/>
<polyline clip-path="url(#clip860)" style="stroke:#000000; stroke-linecap:round; stroke-linejoin:round; stroke-width:4; stroke-opacity:1; fill:none" points="250.028,651.113 268.926,651.113 "/>
<polyline clip-path="url(#clip860)" style="stroke:#000000; stroke-linecap:round; stroke-linejoin:round; stroke-width:4; stroke-opacity:1; fill:none" points="250.028,357.863 268.926,357.863 "/>
<polyline clip-path="url(#clip860)" style="stroke:#000000; stroke-linecap:round; stroke-linejoin:round; stroke-width:4; stroke-opacity:1; fill:none" points="250.028,64.6124 268.926,64.6124 "/>
<path clip-path="url(#clip860)" d="M126.691 1223.41 Q123.08 1223.41 121.251 1226.98 Q119.445 1230.52 119.445 1237.65 Q119.445 1244.75 121.251 1248.32 Q123.08 1251.86 126.691 1251.86 Q130.325 1251.86 132.13 1248.32 Q133.959 1244.75 133.959 1237.65 Q133.959 1230.52 132.13 1226.98 Q130.325 1223.41 126.691 1223.41 M126.691 1219.71 Q132.501 1219.71 135.556 1224.31 Q138.635 1228.9 138.635 1237.65 Q138.635 1246.37 135.556 1250.98 Q132.501 1255.56 126.691 1255.56 Q120.88 1255.56 117.802 1250.98 Q114.746 1246.37 114.746 1237.65 Q114.746 1228.9 117.802 1224.31 Q120.88 1219.71 126.691 1219.71 Z" fill="#000000" fill-rule="nonzero" fill-opacity="1" /><path clip-path="url(#clip860)" d="M146.853 1249.01 L151.737 1249.01 L151.737 1254.89 L146.853 1254.89 L146.853 1249.01 Z" fill="#000000" fill-rule="nonzero" fill-opacity="1" /><path clip-path="url(#clip860)" d="M171.922 1223.41 Q168.311 1223.41 166.482 1226.98 Q164.677 1230.52 164.677 1237.65 Q164.677 1244.75 166.482 1248.32 Q168.311 1251.86 171.922 1251.86 Q175.556 1251.86 177.362 1248.32 Q179.19 1244.75 179.19 1237.65 Q179.19 1230.52 177.362 1226.98 Q175.556 1223.41 171.922 1223.41 M171.922 1219.71 Q177.732 1219.71 180.788 1224.31 Q183.866 1228.9 183.866 1237.65 Q183.866 1246.37 180.788 1250.98 Q177.732 1255.56 171.922 1255.56 Q166.112 1255.56 163.033 1250.98 Q159.978 1246.37 159.978 1237.65 Q159.978 1228.9 163.033 1224.31 Q166.112 1219.71 171.922 1219.71 Z" fill="#000000" fill-rule="nonzero" fill-opacity="1" /><path clip-path="url(#clip860)" d="M202.084 1223.41 Q198.473 1223.41 196.644 1226.98 Q194.838 1230.52 194.838 1237.65 Q194.838 1244.75 196.644 1248.32 Q198.473 1251.86 202.084 1251.86 Q205.718 1251.86 207.524 1248.32 Q209.352 1244.75 209.352 1237.65 Q209.352 1230.52 207.524 1226.98 Q205.718 1223.41 202.084 1223.41 M202.084 1219.71 Q207.894 1219.71 210.949 1224.31 Q214.028 1228.9 214.028 1237.65 Q214.028 1246.37 210.949 1250.98 Q207.894 1255.56 202.084 1255.56 Q196.274 1255.56 193.195 1250.98 Q190.139 1246.37 190.139 1237.65 Q190.139 1228.9 193.195 1224.31 Q196.274 1219.71 202.084 1219.71 Z" fill="#000000" fill-rule="nonzero" fill-opacity="1" /><path clip-path="url(#clip860)" d="M128.288 930.162 Q124.677 930.162 122.848 933.726 Q121.043 937.268 121.043 944.398 Q121.043 951.504 122.848 955.069 Q124.677 958.611 128.288 958.611 Q131.922 958.611 133.728 955.069 Q135.556 951.504 135.556 944.398 Q135.556 937.268 133.728 933.726 Q131.922 930.162 128.288 930.162 M128.288 926.458 Q134.098 926.458 137.154 931.064 Q140.232 935.648 140.232 944.398 Q140.232 953.125 137.154 957.731 Q134.098 962.314 128.288 962.314 Q122.478 962.314 119.399 957.731 Q116.343 953.125 116.343 944.398 Q116.343 935.648 119.399 931.064 Q122.478 926.458 128.288 926.458 Z" fill="#000000" fill-rule="nonzero" fill-opacity="1" /><path clip-path="url(#clip860)" d="M148.45 955.763 L153.334 955.763 L153.334 961.643 L148.45 961.643 L148.45 955.763 Z" fill="#000000" fill-rule="nonzero" fill-opacity="1" /><path clip-path="url(#clip860)" d="M173.519 930.162 Q169.908 930.162 168.079 933.726 Q166.274 937.268 166.274 944.398 Q166.274 951.504 168.079 955.069 Q169.908 958.611 173.519 958.611 Q177.153 958.611 178.959 955.069 Q180.788 951.504 180.788 944.398 Q180.788 937.268 178.959 933.726 Q177.153 930.162 173.519 930.162 M173.519 926.458 Q179.329 926.458 182.385 931.064 Q185.463 935.648 185.463 944.398 Q185.463 953.125 182.385 957.731 Q179.329 962.314 173.519 962.314 Q167.709 962.314 164.63 957.731 Q161.575 953.125 161.575 944.398 Q161.575 935.648 164.63 931.064 Q167.709 926.458 173.519 926.458 Z" fill="#000000" fill-rule="nonzero" fill-opacity="1" /><path clip-path="url(#clip860)" d="M197.709 957.708 L214.028 957.708 L214.028 961.643 L192.084 961.643 L192.084 957.708 Q194.746 954.953 199.329 950.324 Q203.936 945.671 205.116 944.328 Q207.362 941.805 208.241 940.069 Q209.144 938.31 209.144 936.62 Q209.144 933.865 207.199 932.129 Q205.278 930.393 202.176 930.393 Q199.977 930.393 197.524 931.157 Q195.093 931.921 192.315 933.472 L192.315 928.75 Q195.139 927.615 197.593 927.037 Q200.047 926.458 202.084 926.458 Q207.454 926.458 210.649 929.143 Q213.843 931.828 213.843 936.319 Q213.843 938.449 213.033 940.37 Q212.246 942.268 210.139 944.861 Q209.561 945.532 206.459 948.75 Q203.357 951.944 197.709 957.708 Z" fill="#000000" fill-rule="nonzero" fill-opacity="1" /><path clip-path="url(#clip860)" d="M126.205 636.911 Q122.593 636.911 120.765 640.476 Q118.959 644.018 118.959 651.148 Q118.959 658.254 120.765 661.819 Q122.593 665.36 126.205 665.36 Q129.839 665.36 131.644 661.819 Q133.473 658.254 133.473 651.148 Q133.473 644.018 131.644 640.476 Q129.839 636.911 126.205 636.911 M126.205 633.208 Q132.015 633.208 135.07 637.814 Q138.149 642.398 138.149 651.148 Q138.149 659.874 135.07 664.481 Q132.015 669.064 126.205 669.064 Q120.394 669.064 117.316 664.481 Q114.26 659.874 114.26 651.148 Q114.26 642.398 117.316 637.814 Q120.394 633.208 126.205 633.208 Z" fill="#000000" fill-rule="nonzero" fill-opacity="1" /><path clip-path="url(#clip860)" d="M146.366 662.513 L151.251 662.513 L151.251 668.393 L146.366 668.393 L146.366 662.513 Z" fill="#000000" fill-rule="nonzero" fill-opacity="1" /><path clip-path="url(#clip860)" d="M171.436 636.911 Q167.825 636.911 165.996 640.476 Q164.19 644.018 164.19 651.148 Q164.19 658.254 165.996 661.819 Q167.825 665.36 171.436 665.36 Q175.07 665.36 176.876 661.819 Q178.704 658.254 178.704 651.148 Q178.704 644.018 176.876 640.476 Q175.07 636.911 171.436 636.911 M171.436 633.208 Q177.246 633.208 180.301 637.814 Q183.38 642.398 183.38 651.148 Q183.38 659.874 180.301 664.481 Q177.246 669.064 171.436 669.064 Q165.626 669.064 162.547 664.481 Q159.491 659.874 159.491 651.148 Q159.491 642.398 162.547 637.814 Q165.626 633.208 171.436 633.208 Z" fill="#000000" fill-rule="nonzero" fill-opacity="1" /><path clip-path="url(#clip860)" d="M204.445 637.907 L192.639 656.356 L204.445 656.356 L204.445 637.907 M203.218 633.833 L209.098 633.833 L209.098 656.356 L214.028 656.356 L214.028 660.245 L209.098 660.245 L209.098 668.393 L204.445 668.393 L204.445 660.245 L188.843 660.245 L188.843 655.731 L203.218 633.833 Z" fill="#000000" fill-rule="nonzero" fill-opacity="1" /><path clip-path="url(#clip860)" d="M126.529 343.661 Q122.918 343.661 121.089 347.226 Q119.283 350.768 119.283 357.897 Q119.283 365.004 121.089 368.569 Q122.918 372.11 126.529 372.11 Q130.163 372.11 131.968 368.569 Q133.797 365.004 133.797 357.897 Q133.797 350.768 131.968 347.226 Q130.163 343.661 126.529 343.661 M126.529 339.958 Q132.339 339.958 135.394 344.564 Q138.473 349.147 138.473 357.897 Q138.473 366.624 135.394 371.231 Q132.339 375.814 126.529 375.814 Q120.718 375.814 117.64 371.231 Q114.584 366.624 114.584 357.897 Q114.584 349.147 117.64 344.564 Q120.718 339.958 126.529 339.958 Z" fill="#000000" fill-rule="nonzero" fill-opacity="1" /><path clip-path="url(#clip860)" d="M146.691 369.263 L151.575 369.263 L151.575 375.143 L146.691 375.143 L146.691 369.263 Z" fill="#000000" fill-rule="nonzero" fill-opacity="1" /><path clip-path="url(#clip860)" d="M171.76 343.661 Q168.149 343.661 166.32 347.226 Q164.515 350.768 164.515 357.897 Q164.515 365.004 166.32 368.569 Q168.149 372.11 171.76 372.11 Q175.394 372.11 177.2 368.569 Q179.028 365.004 179.028 357.897 Q179.028 350.768 177.2 347.226 Q175.394 343.661 171.76 343.661 M171.76 339.958 Q177.57 339.958 180.626 344.564 Q183.704 349.147 183.704 357.897 Q183.704 366.624 180.626 371.231 Q177.57 375.814 171.76 375.814 Q165.95 375.814 162.871 371.231 Q159.815 366.624 159.815 357.897 Q159.815 349.147 162.871 344.564 Q165.95 339.958 171.76 339.958 Z" fill="#000000" fill-rule="nonzero" fill-opacity="1" /><path clip-path="url(#clip860)" d="M202.5 355.999 Q199.352 355.999 197.5 358.152 Q195.672 360.305 195.672 364.055 Q195.672 367.782 197.5 369.957 Q199.352 372.11 202.5 372.11 Q205.649 372.11 207.477 369.957 Q209.329 367.782 209.329 364.055 Q209.329 360.305 207.477 358.152 Q205.649 355.999 202.5 355.999 M211.783 341.346 L211.783 345.606 Q210.024 344.772 208.218 344.333 Q206.436 343.893 204.676 343.893 Q200.047 343.893 197.593 347.018 Q195.163 350.143 194.815 356.462 Q196.181 354.448 198.241 353.383 Q200.301 352.296 202.778 352.296 Q207.987 352.296 210.996 355.467 Q214.028 358.615 214.028 364.055 Q214.028 369.379 210.88 372.596 Q207.732 375.814 202.5 375.814 Q196.505 375.814 193.334 371.231 Q190.163 366.624 190.163 357.897 Q190.163 349.703 194.051 344.842 Q197.94 339.958 204.491 339.958 Q206.25 339.958 208.033 340.305 Q209.838 340.652 211.783 341.346 Z" fill="#000000" fill-rule="nonzero" fill-opacity="1" /><path clip-path="url(#clip860)" d="M126.783 50.4111 Q123.172 50.4111 121.343 53.9759 Q119.538 57.5175 119.538 64.6471 Q119.538 71.7536 121.343 75.3184 Q123.172 78.86 126.783 78.86 Q130.417 78.86 132.223 75.3184 Q134.052 71.7536 134.052 64.6471 Q134.052 57.5175 132.223 53.9759 Q130.417 50.4111 126.783 50.4111 M126.783 46.7074 Q132.593 46.7074 135.649 51.3139 Q138.728 55.8972 138.728 64.6471 Q138.728 73.3739 135.649 77.9804 Q132.593 82.5637 126.783 82.5637 Q120.973 82.5637 117.894 77.9804 Q114.839 73.3739 114.839 64.6471 Q114.839 55.8972 117.894 51.3139 Q120.973 46.7074 126.783 46.7074 Z" fill="#000000" fill-rule="nonzero" fill-opacity="1" /><path clip-path="url(#clip860)" d="M146.945 76.0128 L151.829 76.0128 L151.829 81.8924 L146.945 81.8924 L146.945 76.0128 Z" fill="#000000" fill-rule="nonzero" fill-opacity="1" /><path clip-path="url(#clip860)" d="M172.014 50.4111 Q168.403 50.4111 166.575 53.9759 Q164.769 57.5175 164.769 64.6471 Q164.769 71.7536 166.575 75.3184 Q168.403 78.86 172.014 78.86 Q175.649 78.86 177.454 75.3184 Q179.283 71.7536 179.283 64.6471 Q179.283 57.5175 177.454 53.9759 Q175.649 50.4111 172.014 50.4111 M172.014 46.7074 Q177.825 46.7074 180.88 51.3139 Q183.959 55.8972 183.959 64.6471 Q183.959 73.3739 180.88 77.9804 Q177.825 82.5637 172.014 82.5637 Q166.204 82.5637 163.126 77.9804 Q160.07 73.3739 160.07 64.6471 Q160.07 55.8972 163.126 51.3139 Q166.204 46.7074 172.014 46.7074 Z" fill="#000000" fill-rule="nonzero" fill-opacity="1" /><path clip-path="url(#clip860)" d="M202.176 65.4805 Q198.843 65.4805 196.922 67.2629 Q195.024 69.0453 195.024 72.1702 Q195.024 75.2952 196.922 77.0776 Q198.843 78.86 202.176 78.86 Q205.51 78.86 207.431 77.0776 Q209.352 75.2721 209.352 72.1702 Q209.352 69.0453 207.431 67.2629 Q205.533 65.4805 202.176 65.4805 M197.5 63.4897 Q194.491 62.749 192.801 60.6888 Q191.135 58.6287 191.135 55.6657 Q191.135 51.5222 194.075 49.1148 Q197.037 46.7074 202.176 46.7074 Q207.338 46.7074 210.278 49.1148 Q213.218 51.5222 213.218 55.6657 Q213.218 58.6287 211.528 60.6888 Q209.861 62.749 206.875 63.4897 Q210.255 64.2768 212.13 66.5684 Q214.028 68.8601 214.028 72.1702 Q214.028 77.1934 210.949 79.8785 Q207.894 82.5637 202.176 82.5637 Q196.459 82.5637 193.38 79.8785 Q190.325 77.1934 190.325 72.1702 Q190.325 68.8601 192.223 66.5684 Q194.121 64.2768 197.5 63.4897 M195.787 56.1055 Q195.787 58.7907 197.454 60.2953 Q199.144 61.7999 202.176 61.7999 Q205.186 61.7999 206.875 60.2953 Q208.588 58.7907 208.588 56.1055 Q208.588 53.4203 206.875 51.9157 Q205.186 50.4111 202.176 50.4111 Q199.144 50.4111 197.454 51.9157 Q195.787 53.4203 195.787 56.1055 Z" fill="#000000" fill-rule="nonzero" fill-opacity="1" /><path clip-path="url(#clip860)" d="M20.1444 753.227 L26.9239 753.227 Q23.9002 756.473 22.4043 760.166 Q20.9083 763.826 20.9083 767.964 Q20.9083 776.112 25.9054 780.44 Q30.8707 784.769 40.2919 784.769 Q49.6813 784.769 54.6784 780.44 Q59.6436 776.112 59.6436 767.964 Q59.6436 763.826 58.1477 760.166 Q56.6518 756.473 53.6281 753.227 L60.3439 753.227 Q62.6355 756.601 63.7814 760.388 Q64.9272 764.144 64.9272 768.345 Q64.9272 779.135 58.3387 785.342 Q51.7183 791.548 40.2919 791.548 Q28.8336 791.548 22.2451 785.342 Q15.6248 779.135 15.6248 768.345 Q15.6248 764.08 16.7706 760.325 Q17.8846 756.537 20.1444 753.227 Z" fill="#000000" fill-rule="nonzero" fill-opacity="1" /><path clip-path="url(#clip860)" d="M14.5426 729.483 Q21.8632 733.748 29.0246 735.817 Q36.186 737.886 43.5384 737.886 Q50.8908 737.886 58.1159 735.817 Q65.3091 733.716 72.5979 729.483 L72.5979 734.575 Q65.1182 739.35 57.8931 741.737 Q50.668 744.092 43.5384 744.092 Q36.4406 744.092 29.2474 741.737 Q22.0542 739.382 14.5426 734.575 L14.5426 729.483 Z" fill="#000000" fill-rule="nonzero" fill-opacity="1" /><path clip-path="url(#clip860)" d="M18.2347 712.327 L28.3562 712.327 L28.3562 700.264 L32.9077 700.264 L32.9077 712.327 L52.2594 712.327 Q56.6199 712.327 57.8613 711.15 Q59.1026 709.94 59.1026 706.28 L59.1026 700.264 L64.0042 700.264 L64.0042 706.28 Q64.0042 713.059 61.4897 715.637 Q58.9434 718.216 52.2594 718.216 L32.9077 718.216 L32.9077 722.512 L28.3562 722.512 L28.3562 718.216 L18.2347 718.216 L18.2347 712.327 Z" fill="#000000" fill-rule="nonzero" fill-opacity="1" /><path clip-path="url(#clip860)" d="M14.5426 693.485 L14.5426 688.392 Q22.0542 683.618 29.2474 681.263 Q36.4406 678.875 43.5384 678.875 Q50.668 678.875 57.8931 681.263 Q65.1182 683.618 72.5979 688.392 L72.5979 693.485 Q65.3091 689.252 58.1159 687.183 Q50.8908 685.082 43.5384 685.082 Q36.186 685.082 29.0246 687.183 Q21.8632 689.252 14.5426 693.485 Z" fill="#000000" fill-rule="nonzero" fill-opacity="1" /><polyline clip-path="url(#clip862)" style="stroke:#009af9; stroke-linecap:round; stroke-linejoin:round; stroke-width:12; stroke-opacity:1; fill:none" stroke-dasharray="48, 30" points="309.539,809.792 329.376,1073.9 349.213,1136.8 369.05,1169.93 388.888,1191.77 408.725,1207.19 428.562,1218.5 448.399,1226.97 468.236,1233.42 488.073,1238.35 507.91,1242.13 527.747,1245.02 547.584,1247.2 567.421,1248.84 587.258,1250.04 607.095,1250.88 626.932,1251.44 646.769,1251.78 666.606,1251.94 686.443,1251.95 706.28,1251.85 726.117,1251.66 745.955,1251.4 765.792,1251.09 785.629,1250.74 805.466,1250.36 825.303,1249.96 845.14,1249.54 864.977,1249.12 884.814,1248.7 904.651,1248.27 924.488,1247.86 944.325,1247.45 964.162,1247.05 983.999,1246.66 1003.84,1246.28 1023.67,1245.91 1043.51,1245.56 1063.35,1245.22 1083.18,1244.89 1103.02,1244.58 1122.86,1244.28 1142.7,1243.99 1162.53,1243.71 1182.37,1243.45 1202.21,1243.2 1222.04,1242.96 1241.88,1242.73 1261.72,1242.51 1281.55,1242.31 1301.39,1242.11 1321.23,1241.92 1341.07,1241.75 1360.9,1241.58 1380.74,1241.41 1400.58,1241.26 1420.41,1241.11 1440.25,1240.98 1460.09,1240.84 1479.93,1240.72 1499.76,1240.6 1519.6,1240.48 1539.44,1240.38 1559.27,1240.27 1579.11,1240.17 1598.95,1240.08 1618.78,1239.99 1638.62,1239.91 1658.46,1239.82 1678.3,1239.75 1698.13,1239.67 1717.97,1239.6 1737.81,1239.53 1757.64,1239.47 1777.48,1239.41 1797.32,1239.35 1817.16,1239.29 1836.99,1239.24 1856.83,1239.19 1876.67,1239.14 1896.5,1239.09 1916.34,1239.04 1936.18,1239 1956.01,1238.96 1975.85,1238.92 1995.69,1238.88 2015.53,1238.84 2035.36,1238.81 2055.2,1238.77 2075.04,1238.74 2094.87,1238.71 2114.71,1238.68 2134.55,1238.65 2154.39,1238.62 2174.22,1238.59 2194.06,1238.57 2213.9,1238.54 2233.73,1238.52 2253.57,1238.5 2273.41,1238.47 2293.24,1238.45 "/>
<polyline clip-path="url(#clip862)" style="stroke:#e26f46; stroke-linecap:round; stroke-linejoin:round; stroke-width:12; stroke-opacity:1; fill:none" points="309.539,86.1857 329.376,1074.86 349.213,1136.32 369.05,1169.9 388.888,1191.79 408.725,1207.21 428.562,1218.5 448.399,1226.97 468.236,1233.42 488.073,1238.35 507.91,1242.13 527.747,1245.02 547.584,1247.2 567.421,1248.84 587.258,1250.04 607.095,1250.88 626.932,1251.44 646.769,1251.78 666.606,1251.94 686.443,1251.95 706.28,1251.85 726.117,1251.66 745.955,1251.4 765.792,1251.09 785.629,1250.74 805.466,1250.36 825.303,1249.96 845.14,1249.54 864.977,1249.12 884.814,1248.7 904.651,1248.27 924.488,1247.86 944.325,1247.45 964.162,1247.05 983.999,1246.66 1003.84,1246.28 1023.67,1245.91 1043.51,1245.56 1063.35,1245.22 1083.18,1244.89 1103.02,1244.58 1122.86,1244.28 1142.7,1243.99 1162.53,1243.71 1182.37,1243.45 1202.21,1243.2 1222.04,1242.96 1241.88,1242.73 1261.72,1242.51 1281.55,1242.31 1301.39,1242.11 1321.23,1241.92 1341.07,1241.75 1360.9,1241.58 1380.74,1241.41 1400.58,1241.26 1420.41,1241.11 1440.25,1240.98 1460.09,1240.84 1479.93,1240.72 1499.76,1240.6 1519.6,1240.48 1539.44,1240.38 1559.27,1240.27 1579.11,1240.17 1598.95,1240.08 1618.78,1239.99 1638.62,1239.91 1658.46,1239.82 1678.3,1239.75 1698.13,1239.67 1717.97,1239.6 1737.81,1239.53 1757.64,1239.47 1777.48,1239.41 1797.32,1239.35 1817.16,1239.29 1836.99,1239.24 1856.83,1239.19 1876.67,1239.14 1896.5,1239.09 1916.34,1239.04 1936.18,1239 1956.01,1238.96 1975.85,1238.92 1995.69,1238.88 2015.53,1238.84 2035.36,1238.81 2055.2,1238.77 2075.04,1238.74 2094.87,1238.71 2114.71,1238.68 2134.55,1238.65 2154.39,1238.62 2174.22,1238.59 2194.06,1238.57 2213.9,1238.54 2233.73,1238.52 2253.57,1238.5 2273.41,1238.47 2293.24,1238.45 "/>
<polyline clip-path="url(#clip862)" style="stroke:#3da44d; stroke-linecap:round; stroke-linejoin:round; stroke-width:12; stroke-opacity:1; fill:none" stroke-dasharray="48, 30" points="309.539,1384.24 329.376,1370.29 349.213,1357.66 369.05,1346.24 388.888,1335.9 408.725,1326.55 428.562,1318.08 448.399,1310.43 468.236,1303.5 488.073,1297.23 507.91,1291.55 527.747,1286.42 547.584,1281.78 567.421,1277.57 587.258,1273.77 607.095,1270.33 626.932,1267.22 646.769,1264.4 666.606,1261.85 686.443,1259.54 706.28,1257.46 726.117,1255.57 745.955,1253.86 765.792,1252.31 785.629,1250.91 805.466,1249.65 825.303,1248.5 845.14,1247.47 864.977,1246.53 884.814,1245.68 904.651,1244.91 924.488,1244.22 944.325,1243.59 964.162,1243.02 983.999,1242.51 1003.84,1242.04 1023.67,1241.62 1043.51,1241.24 1063.35,1240.89 1083.18,1240.58 1103.02,1240.3 1122.86,1240.04 1142.7,1239.81 1162.53,1239.6 1182.37,1239.41 1202.21,1239.24 1222.04,1239.09 1241.88,1238.95 1261.72,1238.82 1281.55,1238.71 1301.39,1238.6 1321.23,1238.51 1341.07,1238.42 1360.9,1238.35 1380.74,1238.28 1400.58,1238.21 1420.41,1238.16 1440.25,1238.1 1460.09,1238.06 1479.93,1238.01 1499.76,1237.98 1519.6,1237.94 1539.44,1237.91 1559.27,1237.88 1579.11,1237.86 1598.95,1237.83 1618.78,1237.81 1638.62,1237.79 1658.46,1237.78 1678.3,1237.76 1698.13,1237.75 1717.97,1237.73 1737.81,1237.72 1757.64,1237.71 1777.48,1237.7 1797.32,1237.69 1817.16,1237.69 1836.99,1237.68 1856.83,1237.67 1876.67,1237.67 1896.5,1237.66 1916.34,1237.66 1936.18,1237.65 1956.01,1237.65 1975.85,1237.65 1995.69,1237.64 2015.53,1237.64 2035.36,1237.64 2055.2,1237.64 2075.04,1237.63 2094.87,1237.63 2114.71,1237.63 2134.55,1237.63 2154.39,1237.63 2174.22,1237.63 2194.06,1237.62 2213.9,1237.62 2233.73,1237.62 2253.57,1237.62 2273.41,1237.62 2293.24,1237.62 "/>
<polyline clip-path="url(#clip862)" style="stroke:#c271d2; stroke-linecap:round; stroke-linejoin:round; stroke-width:12; stroke-opacity:1; fill:none" points="309.539,1384.24 329.376,1370.29 349.213,1357.66 369.05,1346.24 388.888,1335.9 408.725,1326.55 428.562,1318.08 448.399,1310.43 468.236,1303.5 488.073,1297.23 507.91,1291.55 527.747,1286.42 547.584,1281.78 567.421,1277.57 587.258,1273.77 607.095,1270.33 626.932,1267.22 646.769,1264.4 666.606,1261.85 686.443,1259.54 706.28,1257.46 726.117,1255.57 745.955,1253.86 765.792,1252.31 785.629,1250.91 805.466,1249.65 825.303,1248.5 845.14,1247.47 864.977,1246.53 884.814,1245.68 904.651,1244.91 924.488,1244.22 944.325,1243.59 964.162,1243.02 983.999,1242.51 1003.84,1242.04 1023.67,1241.62 1043.51,1241.24 1063.35,1240.89 1083.18,1240.58 1103.02,1240.3 1122.86,1240.04 1142.7,1239.81 1162.53,1239.6 1182.37,1239.41 1202.21,1239.24 1222.04,1239.09 1241.88,1238.95 1261.72,1238.82 1281.55,1238.71 1301.39,1238.6 1321.23,1238.51 1341.07,1238.42 1360.9,1238.35 1380.74,1238.28 1400.58,1238.21 1420.41,1238.16 1440.25,1238.1 1460.09,1238.06 1479.93,1238.01 1499.76,1237.98 1519.6,1237.94 1539.44,1237.91 1559.27,1237.88 1579.11,1237.86 1598.95,1237.83 1618.78,1237.81 1638.62,1237.79 1658.46,1237.78 1678.3,1237.76 1698.13,1237.75 1717.97,1237.73 1737.81,1237.72 1757.64,1237.71 1777.48,1237.7 1797.32,1237.69 1817.16,1237.69 1836.99,1237.68 1856.83,1237.67 1876.67,1237.67 1896.5,1237.66 1916.34,1237.66 1936.18,1237.65 1956.01,1237.65 1975.85,1237.65 1995.69,1237.64 2015.53,1237.64 2035.36,1237.64 2055.2,1237.64 2075.04,1237.63 2094.87,1237.63 2114.71,1237.63 2134.55,1237.63 2154.39,1237.63 2174.22,1237.63 2194.06,1237.62 2213.9,1237.62 2233.73,1237.62 2253.57,1237.62 2273.41,1237.62 2293.24,1237.62 "/>
<path clip-path="url(#clip860)" d="M1602.44 352.309 L2282.66 352.309 L2282.66 93.1086 L1602.44 93.1086  Z" fill="#ffffff" fill-rule="evenodd" fill-opacity="1"/>
<polyline clip-path="url(#clip860)" style="stroke:#000000; stroke-linecap:round; stroke-linejoin:round; stroke-width:4; stroke-opacity:1; fill:none" points="1602.44,352.309 2282.66,352.309 2282.66,93.1086 1602.44,93.1086 1602.44,352.309 "/>
<polyline clip-path="url(#clip860)" style="stroke:#009af9; stroke-linecap:round; stroke-linejoin:round; stroke-width:12; stroke-opacity:1; fill:none" stroke-dasharray="48, 30" points="1625.8,144.949 1765.99,144.949 "/>
<path clip-path="url(#clip860)" d="M1789.35 127.669 L1795.65 127.669 L1810.97 156.581 L1810.97 127.669 L1815.51 127.669 L1815.51 162.229 L1809.21 162.229 L1793.89 133.317 L1793.89 162.229 L1789.35 162.229 L1789.35 127.669 Z" fill="#000000" fill-rule="nonzero" fill-opacity="1" /><path clip-path="url(#clip860)" d="M1825.18 140.701 L1854.86 140.701 L1854.86 144.59 L1825.18 144.59 L1825.18 140.701 M1825.18 150.145 L1854.86 150.145 L1854.86 154.081 L1825.18 154.081 L1825.18 150.145 Z" fill="#000000" fill-rule="nonzero" fill-opacity="1" /><path clip-path="url(#clip860)" d="M1868.98 158.293 L1885.3 158.293 L1885.3 162.229 L1863.35 162.229 L1863.35 158.293 Q1866.02 155.539 1870.6 150.909 Q1875.21 146.256 1876.39 144.914 Q1878.63 142.391 1879.51 140.655 Q1880.41 138.895 1880.41 137.206 Q1880.41 134.451 1878.47 132.715 Q1876.55 130.979 1873.45 130.979 Q1871.25 130.979 1868.79 131.743 Q1866.36 132.507 1863.59 134.057 L1863.59 129.335 Q1866.41 128.201 1868.86 127.622 Q1871.32 127.044 1873.35 127.044 Q1878.72 127.044 1881.92 129.729 Q1885.11 132.414 1885.11 136.905 Q1885.11 139.034 1884.3 140.956 Q1883.52 142.854 1881.41 145.446 Q1880.83 146.118 1877.73 149.335 Q1874.63 152.53 1868.98 158.293 Z" fill="#000000" fill-rule="nonzero" fill-opacity="1" /><path clip-path="url(#clip860)" d="M1905.11 130.747 Q1901.5 130.747 1899.67 134.312 Q1897.87 137.854 1897.87 144.983 Q1897.87 152.09 1899.67 155.655 Q1901.5 159.196 1905.11 159.196 Q1908.75 159.196 1910.55 155.655 Q1912.38 152.09 1912.38 144.983 Q1912.38 137.854 1910.55 134.312 Q1908.75 130.747 1905.11 130.747 M1905.11 127.044 Q1910.92 127.044 1913.98 131.65 Q1917.06 136.233 1917.06 144.983 Q1917.06 153.71 1913.98 158.317 Q1910.92 162.9 1905.11 162.9 Q1899.3 162.9 1896.22 158.317 Q1893.17 153.71 1893.17 144.983 Q1893.17 136.233 1896.22 131.65 Q1899.3 127.044 1905.11 127.044 Z" fill="#000000" fill-rule="nonzero" fill-opacity="1" /><path clip-path="url(#clip860)" d="M1949.97 126.257 Q1946.87 131.581 1945.37 136.789 Q1943.86 141.997 1943.86 147.344 Q1943.86 152.692 1945.37 157.946 Q1946.9 163.178 1949.97 168.479 L1946.27 168.479 Q1942.8 163.039 1941.06 157.784 Q1939.35 152.53 1939.35 147.344 Q1939.35 142.182 1941.06 136.951 Q1942.78 131.72 1946.27 126.257 L1949.97 126.257 Z" fill="#000000" fill-rule="nonzero" fill-opacity="1" /><path clip-path="url(#clip860)" d="M1973.26 140.284 Q1972.54 139.868 1971.69 139.682 Q1970.85 139.474 1969.84 139.474 Q1966.22 139.474 1964.28 141.835 Q1962.36 144.173 1962.36 148.571 L1962.36 162.229 L1958.08 162.229 L1958.08 136.303 L1962.36 136.303 L1962.36 140.331 Q1963.7 137.969 1965.85 136.835 Q1968.01 135.678 1971.09 135.678 Q1971.53 135.678 1972.06 135.747 Q1972.59 135.794 1973.24 135.909 L1973.26 140.284 Z" fill="#000000" fill-rule="nonzero" fill-opacity="1" /><path clip-path="url(#clip860)" d="M1998.86 148.201 L1998.86 150.284 L1979.28 150.284 Q1979.56 154.682 1981.92 156.997 Q1984.3 159.289 1988.54 159.289 Q1990.99 159.289 1993.28 158.687 Q1995.6 158.085 1997.87 156.881 L1997.87 160.909 Q1995.58 161.881 1993.17 162.391 Q1990.76 162.9 1988.28 162.9 Q1982.08 162.9 1978.45 159.289 Q1974.84 155.678 1974.84 149.52 Q1974.84 143.155 1978.26 139.428 Q1981.71 135.678 1987.54 135.678 Q1992.77 135.678 1995.81 139.057 Q1998.86 142.414 1998.86 148.201 M1994.6 146.951 Q1994.56 143.456 1992.64 141.372 Q1990.74 139.289 1987.59 139.289 Q1984.03 139.289 1981.87 141.303 Q1979.74 143.317 1979.42 146.974 L1994.6 146.951 Z" fill="#000000" fill-rule="nonzero" fill-opacity="1" /><path clip-path="url(#clip860)" d="M2017.64 149.196 Q2012.47 149.196 2010.48 150.377 Q2008.49 151.557 2008.49 154.405 Q2008.49 156.673 2009.97 158.016 Q2011.48 159.335 2014.05 159.335 Q2017.59 159.335 2019.72 156.835 Q2021.87 154.312 2021.87 150.145 L2021.87 149.196 L2017.64 149.196 M2026.13 147.437 L2026.13 162.229 L2021.87 162.229 L2021.87 158.293 Q2020.41 160.655 2018.24 161.789 Q2016.06 162.9 2012.91 162.9 Q2008.93 162.9 2006.57 160.678 Q2004.23 158.432 2004.23 154.682 Q2004.23 150.307 2007.15 148.085 Q2010.09 145.863 2015.9 145.863 L2021.87 145.863 L2021.87 145.446 Q2021.87 142.507 2019.93 140.909 Q2018.01 139.289 2014.51 139.289 Q2012.29 139.289 2010.18 139.821 Q2008.08 140.354 2006.13 141.419 L2006.13 137.483 Q2008.47 136.581 2010.67 136.141 Q2012.87 135.678 2014.95 135.678 Q2020.58 135.678 2023.35 138.594 Q2026.13 141.511 2026.13 147.437 Z" fill="#000000" fill-rule="nonzero" fill-opacity="1" /><path clip-path="url(#clip860)" d="M2034.9 126.21 L2039.16 126.21 L2039.16 162.229 L2034.9 162.229 L2034.9 126.21 Z" fill="#000000" fill-rule="nonzero" fill-opacity="1" /><path clip-path="url(#clip860)" d="M2067.27 158.34 L2067.27 172.09 L2062.98 172.09 L2062.98 136.303 L2067.27 136.303 L2067.27 140.238 Q2068.61 137.923 2070.64 136.812 Q2072.71 135.678 2075.55 135.678 Q2080.27 135.678 2083.21 139.428 Q2086.18 143.178 2086.18 149.289 Q2086.18 155.4 2083.21 159.15 Q2080.27 162.9 2075.55 162.9 Q2072.71 162.9 2070.64 161.789 Q2068.61 160.655 2067.27 158.34 M2081.76 149.289 Q2081.76 144.59 2079.81 141.928 Q2077.89 139.243 2074.51 139.243 Q2071.13 139.243 2069.19 141.928 Q2067.27 144.59 2067.27 149.289 Q2067.27 153.988 2069.19 156.673 Q2071.13 159.335 2074.51 159.335 Q2077.89 159.335 2079.81 156.673 Q2081.76 153.988 2081.76 149.289 Z" fill="#000000" fill-rule="nonzero" fill-opacity="1" /><path clip-path="url(#clip860)" d="M2105.02 149.196 Q2099.86 149.196 2097.87 150.377 Q2095.88 151.557 2095.88 154.405 Q2095.88 156.673 2097.36 158.016 Q2098.86 159.335 2101.43 159.335 Q2104.97 159.335 2107.1 156.835 Q2109.26 154.312 2109.26 150.145 L2109.26 149.196 L2105.02 149.196 M2113.52 147.437 L2113.52 162.229 L2109.26 162.229 L2109.26 158.293 Q2107.8 160.655 2105.62 161.789 Q2103.45 162.9 2100.3 162.9 Q2096.32 162.9 2093.96 160.678 Q2091.62 158.432 2091.62 154.682 Q2091.62 150.307 2094.53 148.085 Q2097.47 145.863 2103.28 145.863 L2109.26 145.863 L2109.26 145.446 Q2109.26 142.507 2107.31 140.909 Q2105.39 139.289 2101.89 139.289 Q2099.67 139.289 2097.57 139.821 Q2095.46 140.354 2093.52 141.419 L2093.52 137.483 Q2095.85 136.581 2098.05 136.141 Q2100.25 135.678 2102.33 135.678 Q2107.96 135.678 2110.74 138.594 Q2113.52 141.511 2113.52 147.437 Z" fill="#000000" fill-rule="nonzero" fill-opacity="1" /><path clip-path="url(#clip860)" d="M2137.31 140.284 Q2136.59 139.868 2135.74 139.682 Q2134.9 139.474 2133.89 139.474 Q2130.27 139.474 2128.33 141.835 Q2126.41 144.173 2126.41 148.571 L2126.41 162.229 L2122.13 162.229 L2122.13 136.303 L2126.41 136.303 L2126.41 140.331 Q2127.75 137.969 2129.9 136.835 Q2132.06 135.678 2135.14 135.678 Q2135.58 135.678 2136.11 135.747 Q2136.64 135.794 2137.29 135.909 L2137.31 140.284 Z" fill="#000000" fill-rule="nonzero" fill-opacity="1" /><path clip-path="url(#clip860)" d="M2145.99 128.942 L2145.99 136.303 L2154.76 136.303 L2154.76 139.613 L2145.99 139.613 L2145.99 153.687 Q2145.99 156.858 2146.85 157.761 Q2147.73 158.664 2150.39 158.664 L2154.76 158.664 L2154.76 162.229 L2150.39 162.229 Q2145.46 162.229 2143.58 160.4 Q2141.71 158.548 2141.71 153.687 L2141.71 139.613 L2138.58 139.613 L2138.58 136.303 L2141.71 136.303 L2141.71 128.942 L2145.99 128.942 Z" fill="#000000" fill-rule="nonzero" fill-opacity="1" /><path clip-path="url(#clip860)" d="M2174.76 126.257 L2178.47 126.257 Q2181.94 131.72 2183.65 136.951 Q2185.39 142.182 2185.39 147.344 Q2185.39 152.53 2183.65 157.784 Q2181.94 163.039 2178.47 168.479 L2174.76 168.479 Q2177.84 163.178 2179.35 157.946 Q2180.88 152.692 2180.88 147.344 Q2180.88 141.997 2179.35 136.789 Q2177.84 131.581 2174.76 126.257 Z" fill="#000000" fill-rule="nonzero" fill-opacity="1" /><polyline clip-path="url(#clip860)" style="stroke:#e26f46; stroke-linecap:round; stroke-linejoin:round; stroke-width:12; stroke-opacity:1; fill:none" points="1625.8,196.789 1765.99,196.789 "/>
<path clip-path="url(#clip860)" d="M1789.35 179.509 L1795.65 179.509 L1810.97 208.421 L1810.97 179.509 L1815.51 179.509 L1815.51 214.069 L1809.21 214.069 L1793.89 185.157 L1793.89 214.069 L1789.35 214.069 L1789.35 179.509 Z" fill="#000000" fill-rule="nonzero" fill-opacity="1" /><path clip-path="url(#clip860)" d="M1825.18 192.541 L1854.86 192.541 L1854.86 196.43 L1825.18 196.43 L1825.18 192.541 M1825.18 201.985 L1854.86 201.985 L1854.86 205.921 L1825.18 205.921 L1825.18 201.985 Z" fill="#000000" fill-rule="nonzero" fill-opacity="1" /><path clip-path="url(#clip860)" d="M1865.76 210.133 L1873.4 210.133 L1873.4 183.768 L1865.09 185.435 L1865.09 181.175 L1873.35 179.509 L1878.03 179.509 L1878.03 210.133 L1885.67 210.133 L1885.67 214.069 L1865.76 214.069 L1865.76 210.133 Z" fill="#000000" fill-rule="nonzero" fill-opacity="1" /><path clip-path="url(#clip860)" d="M1905.11 182.587 Q1901.5 182.587 1899.67 186.152 Q1897.87 189.694 1897.87 196.823 Q1897.87 203.93 1899.67 207.495 Q1901.5 211.036 1905.11 211.036 Q1908.75 211.036 1910.55 207.495 Q1912.38 203.93 1912.38 196.823 Q1912.38 189.694 1910.55 186.152 Q1908.75 182.587 1905.11 182.587 M1905.11 178.884 Q1910.92 178.884 1913.98 183.49 Q1917.06 188.073 1917.06 196.823 Q1917.06 205.55 1913.98 210.157 Q1910.92 214.74 1905.11 214.74 Q1899.3 214.74 1896.22 210.157 Q1893.17 205.55 1893.17 196.823 Q1893.17 188.073 1896.22 183.49 Q1899.3 178.884 1905.11 178.884 Z" fill="#000000" fill-rule="nonzero" fill-opacity="1" /><path clip-path="url(#clip860)" d="M1935.28 182.587 Q1931.66 182.587 1929.84 186.152 Q1928.03 189.694 1928.03 196.823 Q1928.03 203.93 1929.84 207.495 Q1931.66 211.036 1935.28 211.036 Q1938.91 211.036 1940.72 207.495 Q1942.54 203.93 1942.54 196.823 Q1942.54 189.694 1940.72 186.152 Q1938.91 182.587 1935.28 182.587 M1935.28 178.884 Q1941.09 178.884 1944.14 183.49 Q1947.22 188.073 1947.22 196.823 Q1947.22 205.55 1944.14 210.157 Q1941.09 214.74 1935.28 214.74 Q1929.47 214.74 1926.39 210.157 Q1923.33 205.55 1923.33 196.823 Q1923.33 188.073 1926.39 183.49 Q1929.47 178.884 1935.28 178.884 Z" fill="#000000" fill-rule="nonzero" fill-opacity="1" /><path clip-path="url(#clip860)" d="M1965.44 182.587 Q1961.83 182.587 1960 186.152 Q1958.19 189.694 1958.19 196.823 Q1958.19 203.93 1960 207.495 Q1961.83 211.036 1965.44 211.036 Q1969.07 211.036 1970.88 207.495 Q1972.71 203.93 1972.71 196.823 Q1972.71 189.694 1970.88 186.152 Q1969.07 182.587 1965.44 182.587 M1965.44 178.884 Q1971.25 178.884 1974.3 183.49 Q1977.38 188.073 1977.38 196.823 Q1977.38 205.55 1974.3 210.157 Q1971.25 214.74 1965.44 214.74 Q1959.63 214.74 1956.55 210.157 Q1953.49 205.55 1953.49 196.823 Q1953.49 188.073 1956.55 183.49 Q1959.63 178.884 1965.44 178.884 Z" fill="#000000" fill-rule="nonzero" fill-opacity="1" /><path clip-path="url(#clip860)" d="M2010.3 178.097 Q2007.2 183.421 2005.69 188.629 Q2004.19 193.837 2004.19 199.184 Q2004.19 204.532 2005.69 209.786 Q2007.22 215.018 2010.3 220.319 L2006.59 220.319 Q2003.12 214.879 2001.39 209.624 Q1999.67 204.37 1999.67 199.184 Q1999.67 194.022 2001.39 188.791 Q2003.1 183.56 2006.59 178.097 L2010.3 178.097 Z" fill="#000000" fill-rule="nonzero" fill-opacity="1" /><path clip-path="url(#clip860)" d="M2033.58 192.124 Q2032.87 191.708 2032.01 191.522 Q2031.18 191.314 2030.16 191.314 Q2026.55 191.314 2024.6 193.675 Q2022.68 196.013 2022.68 200.411 L2022.68 214.069 L2018.4 214.069 L2018.4 188.143 L2022.68 188.143 L2022.68 192.171 Q2024.02 189.809 2026.18 188.675 Q2028.33 187.518 2031.41 187.518 Q2031.85 187.518 2032.38 187.587 Q2032.91 187.634 2033.56 187.749 L2033.58 192.124 Z" fill="#000000" fill-rule="nonzero" fill-opacity="1" /><path clip-path="url(#clip860)" d="M2059.19 200.041 L2059.19 202.124 L2039.6 202.124 Q2039.88 206.522 2042.24 208.837 Q2044.63 211.129 2048.86 211.129 Q2051.32 211.129 2053.61 210.527 Q2055.92 209.925 2058.19 208.721 L2058.19 212.749 Q2055.9 213.721 2053.49 214.231 Q2051.08 214.74 2048.61 214.74 Q2042.4 214.74 2038.77 211.129 Q2035.16 207.518 2035.16 201.36 Q2035.16 194.995 2038.58 191.268 Q2042.03 187.518 2047.87 187.518 Q2053.1 187.518 2056.13 190.897 Q2059.19 194.254 2059.19 200.041 M2054.93 198.791 Q2054.88 195.296 2052.96 193.212 Q2051.06 191.129 2047.91 191.129 Q2044.35 191.129 2042.2 193.143 Q2040.07 195.157 2039.74 198.814 L2054.93 198.791 Z" fill="#000000" fill-rule="nonzero" fill-opacity="1" /><path clip-path="url(#clip860)" d="M2077.96 201.036 Q2072.8 201.036 2070.81 202.217 Q2068.82 203.397 2068.82 206.245 Q2068.82 208.513 2070.3 209.856 Q2071.8 211.175 2074.37 211.175 Q2077.91 211.175 2080.04 208.675 Q2082.2 206.152 2082.2 201.985 L2082.2 201.036 L2077.96 201.036 M2086.46 199.277 L2086.46 214.069 L2082.2 214.069 L2082.2 210.133 Q2080.74 212.495 2078.56 213.629 Q2076.39 214.74 2073.24 214.74 Q2069.26 214.74 2066.89 212.518 Q2064.56 210.272 2064.56 206.522 Q2064.56 202.147 2067.47 199.925 Q2070.41 197.703 2076.22 197.703 L2082.2 197.703 L2082.2 197.286 Q2082.2 194.347 2080.25 192.749 Q2078.33 191.129 2074.83 191.129 Q2072.61 191.129 2070.51 191.661 Q2068.4 192.194 2066.46 193.259 L2066.46 189.323 Q2068.79 188.421 2070.99 187.981 Q2073.19 187.518 2075.27 187.518 Q2080.9 187.518 2083.68 190.434 Q2086.46 193.351 2086.46 199.277 Z" fill="#000000" fill-rule="nonzero" fill-opacity="1" /><path clip-path="url(#clip860)" d="M2095.23 178.05 L2099.49 178.05 L2099.49 214.069 L2095.23 214.069 L2095.23 178.05 Z" fill="#000000" fill-rule="nonzero" fill-opacity="1" /><path clip-path="url(#clip860)" d="M2127.59 210.18 L2127.59 223.93 L2123.31 223.93 L2123.31 188.143 L2127.59 188.143 L2127.59 192.078 Q2128.93 189.763 2130.97 188.652 Q2133.03 187.518 2135.88 187.518 Q2140.6 187.518 2143.54 191.268 Q2146.5 195.018 2146.5 201.129 Q2146.5 207.24 2143.54 210.99 Q2140.6 214.74 2135.88 214.74 Q2133.03 214.74 2130.97 213.629 Q2128.93 212.495 2127.59 210.18 M2142.08 201.129 Q2142.08 196.43 2140.14 193.768 Q2138.21 191.083 2134.83 191.083 Q2131.45 191.083 2129.51 193.768 Q2127.59 196.43 2127.59 201.129 Q2127.59 205.828 2129.51 208.513 Q2131.45 211.175 2134.83 211.175 Q2138.21 211.175 2140.14 208.513 Q2142.08 205.828 2142.08 201.129 Z" fill="#000000" fill-rule="nonzero" fill-opacity="1" /><path clip-path="url(#clip860)" d="M2165.34 201.036 Q2160.18 201.036 2158.19 202.217 Q2156.2 203.397 2156.2 206.245 Q2156.2 208.513 2157.68 209.856 Q2159.19 211.175 2161.76 211.175 Q2165.3 211.175 2167.43 208.675 Q2169.58 206.152 2169.58 201.985 L2169.58 201.036 L2165.34 201.036 M2173.84 199.277 L2173.84 214.069 L2169.58 214.069 L2169.58 210.133 Q2168.12 212.495 2165.95 213.629 Q2163.77 214.74 2160.62 214.74 Q2156.64 214.74 2154.28 212.518 Q2151.94 210.272 2151.94 206.522 Q2151.94 202.147 2154.86 199.925 Q2157.8 197.703 2163.61 197.703 L2169.58 197.703 L2169.58 197.286 Q2169.58 194.347 2167.64 192.749 Q2165.71 191.129 2162.22 191.129 Q2160 191.129 2157.89 191.661 Q2155.78 192.194 2153.84 193.259 L2153.84 189.323 Q2156.18 188.421 2158.38 187.981 Q2160.58 187.518 2162.66 187.518 Q2168.28 187.518 2171.06 190.434 Q2173.84 193.351 2173.84 199.277 Z" fill="#000000" fill-rule="nonzero" fill-opacity="1" /><path clip-path="url(#clip860)" d="M2197.64 192.124 Q2196.92 191.708 2196.06 191.522 Q2195.23 191.314 2194.21 191.314 Q2190.6 191.314 2188.65 193.675 Q2186.73 196.013 2186.73 200.411 L2186.73 214.069 L2182.45 214.069 L2182.45 188.143 L2186.73 188.143 L2186.73 192.171 Q2188.07 189.809 2190.23 188.675 Q2192.38 187.518 2195.46 187.518 Q2195.9 187.518 2196.43 187.587 Q2196.96 187.634 2197.61 187.749 L2197.64 192.124 Z" fill="#000000" fill-rule="nonzero" fill-opacity="1" /><path clip-path="url(#clip860)" d="M2206.32 180.782 L2206.32 188.143 L2215.09 188.143 L2215.09 191.453 L2206.32 191.453 L2206.32 205.527 Q2206.32 208.698 2207.17 209.601 Q2208.05 210.504 2210.71 210.504 L2215.09 210.504 L2215.09 214.069 L2210.71 214.069 Q2205.78 214.069 2203.91 212.24 Q2202.03 210.388 2202.03 205.527 L2202.03 191.453 L2198.91 191.453 L2198.91 188.143 L2202.03 188.143 L2202.03 180.782 L2206.32 180.782 Z" fill="#000000" fill-rule="nonzero" fill-opacity="1" /><path clip-path="url(#clip860)" d="M2220.02 178.097 L2223.72 178.097 Q2227.2 183.56 2228.91 188.791 Q2230.64 194.022 2230.64 199.184 Q2230.64 204.37 2228.91 209.624 Q2227.2 214.879 2223.72 220.319 L2220.02 220.319 Q2223.1 215.018 2224.6 209.786 Q2226.13 204.532 2226.13 199.184 Q2226.13 193.837 2224.6 188.629 Q2223.1 183.421 2220.02 178.097 Z" fill="#000000" fill-rule="nonzero" fill-opacity="1" /><polyline clip-path="url(#clip860)" style="stroke:#3da44d; stroke-linecap:round; stroke-linejoin:round; stroke-width:12; stroke-opacity:1; fill:none" stroke-dasharray="48, 30" points="1625.8,248.629 1765.99,248.629 "/>
<path clip-path="url(#clip860)" d="M1789.35 231.349 L1795.65 231.349 L1810.97 260.261 L1810.97 231.349 L1815.51 231.349 L1815.51 265.909 L1809.21 265.909 L1793.89 236.997 L1793.89 265.909 L1789.35 265.909 L1789.35 231.349 Z" fill="#000000" fill-rule="nonzero" fill-opacity="1" /><path clip-path="url(#clip860)" d="M1825.18 244.381 L1854.86 244.381 L1854.86 248.27 L1825.18 248.27 L1825.18 244.381 M1825.18 253.825 L1854.86 253.825 L1854.86 257.761 L1825.18 257.761 L1825.18 253.825 Z" fill="#000000" fill-rule="nonzero" fill-opacity="1" /><path clip-path="url(#clip860)" d="M1868.98 261.973 L1885.3 261.973 L1885.3 265.909 L1863.35 265.909 L1863.35 261.973 Q1866.02 259.219 1870.6 254.589 Q1875.21 249.936 1876.39 248.594 Q1878.63 246.071 1879.51 244.335 Q1880.41 242.575 1880.41 240.886 Q1880.41 238.131 1878.47 236.395 Q1876.55 234.659 1873.45 234.659 Q1871.25 234.659 1868.79 235.423 Q1866.36 236.187 1863.59 237.737 L1863.59 233.015 Q1866.41 231.881 1868.86 231.302 Q1871.32 230.724 1873.35 230.724 Q1878.72 230.724 1881.92 233.409 Q1885.11 236.094 1885.11 240.585 Q1885.11 242.714 1884.3 244.636 Q1883.52 246.534 1881.41 249.126 Q1880.83 249.798 1877.73 253.015 Q1874.63 256.21 1868.98 261.973 Z" fill="#000000" fill-rule="nonzero" fill-opacity="1" /><path clip-path="url(#clip860)" d="M1905.11 234.427 Q1901.5 234.427 1899.67 237.992 Q1897.87 241.534 1897.87 248.663 Q1897.87 255.77 1899.67 259.335 Q1901.5 262.876 1905.11 262.876 Q1908.75 262.876 1910.55 259.335 Q1912.38 255.77 1912.38 248.663 Q1912.38 241.534 1910.55 237.992 Q1908.75 234.427 1905.11 234.427 M1905.11 230.724 Q1910.92 230.724 1913.98 235.33 Q1917.06 239.913 1917.06 248.663 Q1917.06 257.39 1913.98 261.997 Q1910.92 266.58 1905.11 266.58 Q1899.3 266.58 1896.22 261.997 Q1893.17 257.39 1893.17 248.663 Q1893.17 239.913 1896.22 235.33 Q1899.3 230.724 1905.11 230.724 Z" fill="#000000" fill-rule="nonzero" fill-opacity="1" /><path clip-path="url(#clip860)" d="M1949.97 229.937 Q1946.87 235.261 1945.37 240.469 Q1943.86 245.677 1943.86 251.024 Q1943.86 256.372 1945.37 261.626 Q1946.9 266.858 1949.97 272.159 L1946.27 272.159 Q1942.8 266.719 1941.06 261.464 Q1939.35 256.21 1939.35 251.024 Q1939.35 245.862 1941.06 240.631 Q1942.78 235.4 1946.27 229.937 L1949.97 229.937 Z" fill="#000000" fill-rule="nonzero" fill-opacity="1" /><path clip-path="url(#clip860)" d="M1958.24 239.983 L1962.5 239.983 L1962.5 265.909 L1958.24 265.909 L1958.24 239.983 M1958.24 229.89 L1962.5 229.89 L1962.5 235.284 L1958.24 235.284 L1958.24 229.89 Z" fill="#000000" fill-rule="nonzero" fill-opacity="1" /><path clip-path="url(#clip860)" d="M1991.59 244.96 Q1993.19 242.089 1995.41 240.724 Q1997.64 239.358 2000.65 239.358 Q2004.7 239.358 2006.9 242.205 Q2009.09 245.029 2009.09 250.261 L2009.09 265.909 L2004.81 265.909 L2004.81 250.399 Q2004.81 246.673 2003.49 244.867 Q2002.17 243.062 1999.46 243.062 Q1996.15 243.062 1994.23 245.261 Q1992.31 247.46 1992.31 251.256 L1992.31 265.909 L1988.03 265.909 L1988.03 250.399 Q1988.03 246.649 1986.71 244.867 Q1985.39 243.062 1982.64 243.062 Q1979.37 243.062 1977.45 245.284 Q1975.53 247.483 1975.53 251.256 L1975.53 265.909 L1971.25 265.909 L1971.25 239.983 L1975.53 239.983 L1975.53 244.011 Q1976.99 241.626 1979.03 240.492 Q1981.06 239.358 1983.86 239.358 Q1986.69 239.358 1988.65 240.793 Q1990.65 242.228 1991.59 244.96 Z" fill="#000000" fill-rule="nonzero" fill-opacity="1" /><path clip-path="url(#clip860)" d="M2029.37 252.876 Q2024.21 252.876 2022.22 254.057 Q2020.23 255.237 2020.23 258.085 Q2020.23 260.353 2021.71 261.696 Q2023.21 263.015 2025.78 263.015 Q2029.33 263.015 2031.46 260.515 Q2033.61 257.992 2033.61 253.825 L2033.61 252.876 L2029.37 252.876 M2037.87 251.117 L2037.87 265.909 L2033.61 265.909 L2033.61 261.973 Q2032.15 264.335 2029.97 265.469 Q2027.8 266.58 2024.65 266.58 Q2020.67 266.58 2018.31 264.358 Q2015.97 262.112 2015.97 258.362 Q2015.97 253.987 2018.89 251.765 Q2021.83 249.543 2027.64 249.543 L2033.61 249.543 L2033.61 249.126 Q2033.61 246.187 2031.66 244.589 Q2029.74 242.969 2026.25 242.969 Q2024.02 242.969 2021.92 243.501 Q2019.81 244.034 2017.87 245.099 L2017.87 241.163 Q2020.21 240.261 2022.4 239.821 Q2024.6 239.358 2026.69 239.358 Q2032.31 239.358 2035.09 242.274 Q2037.87 245.191 2037.87 251.117 Z" fill="#000000" fill-rule="nonzero" fill-opacity="1" /><path clip-path="url(#clip860)" d="M2063.7 252.645 Q2063.7 248.015 2061.78 245.469 Q2059.88 242.923 2056.43 242.923 Q2053.01 242.923 2051.08 245.469 Q2049.19 248.015 2049.19 252.645 Q2049.19 257.251 2051.08 259.798 Q2053.01 262.344 2056.43 262.344 Q2059.88 262.344 2061.78 259.798 Q2063.7 257.251 2063.7 252.645 M2067.96 262.691 Q2067.96 269.311 2065.02 272.529 Q2062.08 275.77 2056.02 275.77 Q2053.77 275.77 2051.78 275.422 Q2049.79 275.098 2047.91 274.404 L2047.91 270.26 Q2049.79 271.279 2051.62 271.765 Q2053.45 272.251 2055.34 272.251 Q2059.53 272.251 2061.62 270.052 Q2063.7 267.876 2063.7 263.455 L2063.7 261.348 Q2062.38 263.64 2060.32 264.774 Q2058.26 265.909 2055.39 265.909 Q2050.62 265.909 2047.71 262.274 Q2044.79 258.64 2044.79 252.645 Q2044.79 246.626 2047.71 242.992 Q2050.62 239.358 2055.39 239.358 Q2058.26 239.358 2060.32 240.492 Q2062.38 241.626 2063.7 243.918 L2063.7 239.983 L2067.96 239.983 L2067.96 262.691 Z" fill="#000000" fill-rule="nonzero" fill-opacity="1" /><path clip-path="url(#clip860)" d="M2095.92 262.02 L2095.92 275.77 L2091.64 275.77 L2091.64 239.983 L2095.92 239.983 L2095.92 243.918 Q2097.27 241.603 2099.3 240.492 Q2101.36 239.358 2104.21 239.358 Q2108.93 239.358 2111.87 243.108 Q2114.83 246.858 2114.83 252.969 Q2114.83 259.08 2111.87 262.83 Q2108.93 266.58 2104.21 266.58 Q2101.36 266.58 2099.3 265.469 Q2097.27 264.335 2095.92 262.02 M2110.41 252.969 Q2110.41 248.27 2108.47 245.608 Q2106.55 242.923 2103.17 242.923 Q2099.79 242.923 2097.84 245.608 Q2095.92 248.27 2095.92 252.969 Q2095.92 257.668 2097.84 260.353 Q2099.79 263.015 2103.17 263.015 Q2106.55 263.015 2108.47 260.353 Q2110.41 257.668 2110.41 252.969 Z" fill="#000000" fill-rule="nonzero" fill-opacity="1" /><path clip-path="url(#clip860)" d="M2133.68 252.876 Q2128.52 252.876 2126.52 254.057 Q2124.53 255.237 2124.53 258.085 Q2124.53 260.353 2126.02 261.696 Q2127.52 263.015 2130.09 263.015 Q2133.63 263.015 2135.76 260.515 Q2137.91 257.992 2137.91 253.825 L2137.91 252.876 L2133.68 252.876 M2142.17 251.117 L2142.17 265.909 L2137.91 265.909 L2137.91 261.973 Q2136.45 264.335 2134.28 265.469 Q2132.1 266.58 2128.95 266.58 Q2124.97 266.58 2122.61 264.358 Q2120.27 262.112 2120.27 258.362 Q2120.27 253.987 2123.19 251.765 Q2126.13 249.543 2131.94 249.543 L2137.91 249.543 L2137.91 249.126 Q2137.91 246.187 2135.97 244.589 Q2134.05 242.969 2130.55 242.969 Q2128.33 242.969 2126.22 243.501 Q2124.12 244.034 2122.17 245.099 L2122.17 241.163 Q2124.51 240.261 2126.71 239.821 Q2128.91 239.358 2130.99 239.358 Q2136.62 239.358 2139.39 242.274 Q2142.17 245.191 2142.17 251.117 Z" fill="#000000" fill-rule="nonzero" fill-opacity="1" /><path clip-path="url(#clip860)" d="M2165.97 243.964 Q2165.25 243.548 2164.39 243.362 Q2163.56 243.154 2162.54 243.154 Q2158.93 243.154 2156.99 245.515 Q2155.07 247.853 2155.07 252.251 L2155.07 265.909 L2150.78 265.909 L2150.78 239.983 L2155.07 239.983 L2155.07 244.011 Q2156.41 241.649 2158.56 240.515 Q2160.71 239.358 2163.79 239.358 Q2164.23 239.358 2164.76 239.427 Q2165.3 239.474 2165.95 239.589 L2165.97 243.964 Z" fill="#000000" fill-rule="nonzero" fill-opacity="1" /><path clip-path="url(#clip860)" d="M2174.65 232.622 L2174.65 239.983 L2183.42 239.983 L2183.42 243.293 L2174.65 243.293 L2174.65 257.367 Q2174.65 260.538 2175.51 261.441 Q2176.39 262.344 2179.05 262.344 L2183.42 262.344 L2183.42 265.909 L2179.05 265.909 Q2174.12 265.909 2172.24 264.08 Q2170.37 262.228 2170.37 257.367 L2170.37 243.293 L2167.24 243.293 L2167.24 239.983 L2170.37 239.983 L2170.37 232.622 L2174.65 232.622 Z" fill="#000000" fill-rule="nonzero" fill-opacity="1" /><path clip-path="url(#clip860)" d="M2188.35 229.937 L2192.06 229.937 Q2195.53 235.4 2197.24 240.631 Q2198.98 245.862 2198.98 251.024 Q2198.98 256.21 2197.24 261.464 Q2195.53 266.719 2192.06 272.159 L2188.35 272.159 Q2191.43 266.858 2192.94 261.626 Q2194.46 256.372 2194.46 251.024 Q2194.46 245.677 2192.94 240.469 Q2191.43 235.261 2188.35 229.937 Z" fill="#000000" fill-rule="nonzero" fill-opacity="1" /><polyline clip-path="url(#clip860)" style="stroke:#c271d2; stroke-linecap:round; stroke-linejoin:round; stroke-width:12; stroke-opacity:1; fill:none" points="1625.8,300.469 1765.99,300.469 "/>
<path clip-path="url(#clip860)" d="M1789.35 283.189 L1795.65 283.189 L1810.97 312.101 L1810.97 283.189 L1815.51 283.189 L1815.51 317.749 L1809.21 317.749 L1793.89 288.837 L1793.89 317.749 L1789.35 317.749 L1789.35 283.189 Z" fill="#000000" fill-rule="nonzero" fill-opacity="1" /><path clip-path="url(#clip860)" d="M1825.18 296.221 L1854.86 296.221 L1854.86 300.11 L1825.18 300.11 L1825.18 296.221 M1825.18 305.665 L1854.86 305.665 L1854.86 309.601 L1825.18 309.601 L1825.18 305.665 Z" fill="#000000" fill-rule="nonzero" fill-opacity="1" /><path clip-path="url(#clip860)" d="M1865.76 313.813 L1873.4 313.813 L1873.4 287.448 L1865.09 289.115 L1865.09 284.855 L1873.35 283.189 L1878.03 283.189 L1878.03 313.813 L1885.67 313.813 L1885.67 317.749 L1865.76 317.749 L1865.76 313.813 Z" fill="#000000" fill-rule="nonzero" fill-opacity="1" /><path clip-path="url(#clip860)" d="M1905.11 286.267 Q1901.5 286.267 1899.67 289.832 Q1897.87 293.374 1897.87 300.503 Q1897.87 307.61 1899.67 311.175 Q1901.5 314.716 1905.11 314.716 Q1908.75 314.716 1910.55 311.175 Q1912.38 307.61 1912.38 300.503 Q1912.38 293.374 1910.55 289.832 Q1908.75 286.267 1905.11 286.267 M1905.11 282.564 Q1910.92 282.564 1913.98 287.17 Q1917.06 291.753 1917.06 300.503 Q1917.06 309.23 1913.98 313.837 Q1910.92 318.42 1905.11 318.42 Q1899.3 318.42 1896.22 313.837 Q1893.17 309.23 1893.17 300.503 Q1893.17 291.753 1896.22 287.17 Q1899.3 282.564 1905.11 282.564 Z" fill="#000000" fill-rule="nonzero" fill-opacity="1" /><path clip-path="url(#clip860)" d="M1935.28 286.267 Q1931.66 286.267 1929.84 289.832 Q1928.03 293.374 1928.03 300.503 Q1928.03 307.61 1929.84 311.175 Q1931.66 314.716 1935.28 314.716 Q1938.91 314.716 1940.72 311.175 Q1942.54 307.61 1942.54 300.503 Q1942.54 293.374 1940.72 289.832 Q1938.91 286.267 1935.28 286.267 M1935.28 282.564 Q1941.09 282.564 1944.14 287.17 Q1947.22 291.753 1947.22 300.503 Q1947.22 309.23 1944.14 313.837 Q1941.09 318.42 1935.28 318.42 Q1929.47 318.42 1926.39 313.837 Q1923.33 309.23 1923.33 300.503 Q1923.33 291.753 1926.39 287.17 Q1929.47 282.564 1935.28 282.564 Z" fill="#000000" fill-rule="nonzero" fill-opacity="1" /><path clip-path="url(#clip860)" d="M1965.44 286.267 Q1961.83 286.267 1960 289.832 Q1958.19 293.374 1958.19 300.503 Q1958.19 307.61 1960 311.175 Q1961.83 314.716 1965.44 314.716 Q1969.07 314.716 1970.88 311.175 Q1972.71 307.61 1972.71 300.503 Q1972.71 293.374 1970.88 289.832 Q1969.07 286.267 1965.44 286.267 M1965.44 282.564 Q1971.25 282.564 1974.3 287.17 Q1977.38 291.753 1977.38 300.503 Q1977.38 309.23 1974.3 313.837 Q1971.25 318.42 1965.44 318.42 Q1959.63 318.42 1956.55 313.837 Q1953.49 309.23 1953.49 300.503 Q1953.49 291.753 1956.55 287.17 Q1959.63 282.564 1965.44 282.564 Z" fill="#000000" fill-rule="nonzero" fill-opacity="1" /><path clip-path="url(#clip860)" d="M2010.3 281.777 Q2007.2 287.101 2005.69 292.309 Q2004.19 297.517 2004.19 302.864 Q2004.19 308.212 2005.69 313.466 Q2007.22 318.698 2010.3 323.999 L2006.59 323.999 Q2003.12 318.559 2001.39 313.304 Q1999.67 308.05 1999.67 302.864 Q1999.67 297.702 2001.39 292.471 Q2003.1 287.24 2006.59 281.777 L2010.3 281.777 Z" fill="#000000" fill-rule="nonzero" fill-opacity="1" /><path clip-path="url(#clip860)" d="M2018.56 291.823 L2022.82 291.823 L2022.82 317.749 L2018.56 317.749 L2018.56 291.823 M2018.56 281.73 L2022.82 281.73 L2022.82 287.124 L2018.56 287.124 L2018.56 281.73 Z" fill="#000000" fill-rule="nonzero" fill-opacity="1" /><path clip-path="url(#clip860)" d="M2051.92 296.8 Q2053.52 293.929 2055.74 292.564 Q2057.96 291.198 2060.97 291.198 Q2065.02 291.198 2067.22 294.045 Q2069.42 296.869 2069.42 302.101 L2069.42 317.749 L2065.14 317.749 L2065.14 302.239 Q2065.14 298.513 2063.82 296.707 Q2062.5 294.902 2059.79 294.902 Q2056.48 294.902 2054.56 297.101 Q2052.64 299.3 2052.64 303.096 L2052.64 317.749 L2048.35 317.749 L2048.35 302.239 Q2048.35 298.489 2047.03 296.707 Q2045.71 294.902 2042.96 294.902 Q2039.7 294.902 2037.77 297.124 Q2035.85 299.323 2035.85 303.096 L2035.85 317.749 L2031.57 317.749 L2031.57 291.823 L2035.85 291.823 L2035.85 295.851 Q2037.31 293.466 2039.35 292.332 Q2041.39 291.198 2044.19 291.198 Q2047.01 291.198 2048.98 292.633 Q2050.97 294.068 2051.92 296.8 Z" fill="#000000" fill-rule="nonzero" fill-opacity="1" /><path clip-path="url(#clip860)" d="M2089.7 304.716 Q2084.53 304.716 2082.54 305.897 Q2080.55 307.077 2080.55 309.925 Q2080.55 312.193 2082.03 313.536 Q2083.54 314.855 2086.11 314.855 Q2089.65 314.855 2091.78 312.355 Q2093.93 309.832 2093.93 305.665 L2093.93 304.716 L2089.7 304.716 M2098.19 302.957 L2098.19 317.749 L2093.93 317.749 L2093.93 313.813 Q2092.47 316.175 2090.3 317.309 Q2088.12 318.42 2084.97 318.42 Q2080.99 318.42 2078.63 316.198 Q2076.29 313.952 2076.29 310.202 Q2076.29 305.827 2079.21 303.605 Q2082.15 301.383 2087.96 301.383 L2093.93 301.383 L2093.93 300.966 Q2093.93 298.027 2091.99 296.429 Q2090.07 294.809 2086.57 294.809 Q2084.35 294.809 2082.24 295.341 Q2080.14 295.874 2078.19 296.939 L2078.19 293.003 Q2080.53 292.101 2082.73 291.661 Q2084.93 291.198 2087.01 291.198 Q2092.64 291.198 2095.41 294.114 Q2098.19 297.031 2098.19 302.957 Z" fill="#000000" fill-rule="nonzero" fill-opacity="1" /><path clip-path="url(#clip860)" d="M2124.02 304.485 Q2124.02 299.855 2122.1 297.309 Q2120.2 294.763 2116.76 294.763 Q2113.33 294.763 2111.41 297.309 Q2109.51 299.855 2109.51 304.485 Q2109.51 309.091 2111.41 311.638 Q2113.33 314.184 2116.76 314.184 Q2120.2 314.184 2122.1 311.638 Q2124.02 309.091 2124.02 304.485 M2128.28 314.531 Q2128.28 321.151 2125.34 324.369 Q2122.4 327.61 2116.34 327.61 Q2114.09 327.61 2112.1 327.262 Q2110.11 326.938 2108.24 326.244 L2108.24 322.1 Q2110.11 323.119 2111.94 323.605 Q2113.77 324.091 2115.67 324.091 Q2119.86 324.091 2121.94 321.892 Q2124.02 319.716 2124.02 315.295 L2124.02 313.188 Q2122.7 315.48 2120.64 316.614 Q2118.58 317.749 2115.71 317.749 Q2110.95 317.749 2108.03 314.114 Q2105.11 310.48 2105.11 304.485 Q2105.11 298.466 2108.03 294.832 Q2110.95 291.198 2115.71 291.198 Q2118.58 291.198 2120.64 292.332 Q2122.7 293.466 2124.02 295.758 L2124.02 291.823 L2128.28 291.823 L2128.28 314.531 Z" fill="#000000" fill-rule="nonzero" fill-opacity="1" /><path clip-path="url(#clip860)" d="M2156.25 313.86 L2156.25 327.61 L2151.96 327.61 L2151.96 291.823 L2156.25 291.823 L2156.25 295.758 Q2157.59 293.443 2159.63 292.332 Q2161.69 291.198 2164.53 291.198 Q2169.26 291.198 2172.2 294.948 Q2175.16 298.698 2175.16 304.809 Q2175.16 310.92 2172.2 314.67 Q2169.26 318.42 2164.53 318.42 Q2161.69 318.42 2159.63 317.309 Q2157.59 316.175 2156.25 313.86 M2170.74 304.809 Q2170.74 300.11 2168.79 297.448 Q2166.87 294.763 2163.49 294.763 Q2160.11 294.763 2158.17 297.448 Q2156.25 300.11 2156.25 304.809 Q2156.25 309.508 2158.17 312.193 Q2160.11 314.855 2163.49 314.855 Q2166.87 314.855 2168.79 312.193 Q2170.74 309.508 2170.74 304.809 Z" fill="#000000" fill-rule="nonzero" fill-opacity="1" /><path clip-path="url(#clip860)" d="M2194 304.716 Q2188.84 304.716 2186.85 305.897 Q2184.86 307.077 2184.86 309.925 Q2184.86 312.193 2186.34 313.536 Q2187.84 314.855 2190.41 314.855 Q2193.95 314.855 2196.08 312.355 Q2198.24 309.832 2198.24 305.665 L2198.24 304.716 L2194 304.716 M2202.5 302.957 L2202.5 317.749 L2198.24 317.749 L2198.24 313.813 Q2196.78 316.175 2194.6 317.309 Q2192.43 318.42 2189.28 318.42 Q2185.3 318.42 2182.94 316.198 Q2180.6 313.952 2180.6 310.202 Q2180.6 305.827 2183.51 303.605 Q2186.45 301.383 2192.26 301.383 L2198.24 301.383 L2198.24 300.966 Q2198.24 298.027 2196.29 296.429 Q2194.37 294.809 2190.88 294.809 Q2188.65 294.809 2186.55 295.341 Q2184.44 295.874 2182.5 296.939 L2182.5 293.003 Q2184.83 292.101 2187.03 291.661 Q2189.23 291.198 2191.32 291.198 Q2196.94 291.198 2199.72 294.114 Q2202.5 297.031 2202.5 302.957 Z" fill="#000000" fill-rule="nonzero" fill-opacity="1" /><path clip-path="url(#clip860)" d="M2226.29 295.804 Q2225.57 295.388 2224.72 295.202 Q2223.88 294.994 2222.87 294.994 Q2219.26 294.994 2217.31 297.355 Q2215.39 299.693 2215.39 304.091 L2215.39 317.749 L2211.11 317.749 L2211.11 291.823 L2215.39 291.823 L2215.39 295.851 Q2216.73 293.489 2218.88 292.355 Q2221.04 291.198 2224.12 291.198 Q2224.56 291.198 2225.09 291.267 Q2225.62 291.314 2226.27 291.429 L2226.29 295.804 Z" fill="#000000" fill-rule="nonzero" fill-opacity="1" /><path clip-path="url(#clip860)" d="M2234.97 284.462 L2234.97 291.823 L2243.75 291.823 L2243.75 295.133 L2234.97 295.133 L2234.97 309.207 Q2234.97 312.378 2235.83 313.281 Q2236.71 314.184 2239.37 314.184 L2243.75 314.184 L2243.75 317.749 L2239.37 317.749 Q2234.44 317.749 2232.57 315.92 Q2230.69 314.068 2230.69 309.207 L2230.69 295.133 L2227.57 295.133 L2227.57 291.823 L2230.69 291.823 L2230.69 284.462 L2234.97 284.462 Z" fill="#000000" fill-rule="nonzero" fill-opacity="1" /><path clip-path="url(#clip860)" d="M2248.68 281.777 L2252.38 281.777 Q2255.85 287.24 2257.57 292.471 Q2259.3 297.702 2259.3 302.864 Q2259.3 308.05 2257.57 313.304 Q2255.85 318.559 2252.38 323.999 L2248.68 323.999 Q2251.76 318.698 2253.26 313.466 Q2254.79 308.212 2254.79 302.864 Q2254.79 297.517 2253.26 292.309 Q2251.76 287.101 2248.68 281.777 Z" fill="#000000" fill-rule="nonzero" fill-opacity="1" /></svg>
