<?xml version="1.0" encoding="utf-8"?>
<svg xmlns="http://www.w3.org/2000/svg" xmlns:xlink="http://www.w3.org/1999/xlink" width="600" height="400" viewBox="0 0 2400 1600">
<defs>
  <clipPath id="clip920">
    <rect x="0" y="0" width="2400" height="1600"/>
  </clipPath>
</defs>
<path clip-path="url(#clip920)" d="M0 1600 L2400 1600 L2400 0 L0 0  Z" fill="#ffffff" fill-rule="evenodd" fill-opacity="1"/>
<defs>
  <clipPath id="clip921">
    <rect x="480" y="0" width="1681" height="1600"/>
  </clipPath>
</defs>
<path clip-path="url(#clip920)" d="M287.366 1423.18 L2352.76 1423.18 L2352.76 47.2441 L287.366 47.2441  Z" fill="#ffffff" fill-rule="evenodd" fill-opacity="1"/>
<defs>
  <clipPath id="clip922">
    <rect x="287" y="47" width="2066" height="1377"/>
  </clipPath>
</defs>
<polyline clip-path="url(#clip920)" style="stroke:#000000; stroke-linecap:round; stroke-linejoin:round; stroke-width:4; stroke-opacity:1; fill:none" points="287.366,1423.18 2352.76,1423.18 "/>
<polyline clip-path="url(#clip920)" style="stroke:#000000; stroke-linecap:round; stroke-linejoin:round; stroke-width:4; stroke-opacity:1; fill:none" points="345.82,1423.18 345.82,1404.28 "/>
<polyline clip-path="url(#clip920)" style="stroke:#000000; stroke-linecap:round; stroke-linejoin:round; stroke-width:4; stroke-opacity:1; fill:none" points="832.941,1423.18 832.941,1404.28 "/>
<polyline clip-path="url(#clip920)" style="stroke:#000000; stroke-linecap:round; stroke-linejoin:round; stroke-width:4; stroke-opacity:1; fill:none" points="1320.06,1423.18 1320.06,1404.28 "/>
<polyline clip-path="url(#clip920)" style="stroke:#000000; stroke-linecap:round; stroke-linejoin:round; stroke-width:4; stroke-opacity:1; fill:none" points="1807.18,1423.18 1807.18,1404.28 "/>
<polyline clip-path="url(#clip920)" style="stroke:#000000; stroke-linecap:round; stroke-linejoin:round; stroke-width:4; stroke-opacity:1; fill:none" points="2294.3,1423.18 2294.3,1404.28 "/>
<path clip-path="url(#clip920)" d="M345.82 1454.1 Q342.209 1454.1 340.381 1457.66 Q338.575 1461.2 338.575 1468.33 Q338.575 1475.44 340.381 1479.01 Q342.209 1482.55 345.82 1482.55 Q349.455 1482.55 351.26 1479.01 Q353.089 1475.44 353.089 1468.33 Q353.089 1461.2 351.26 1457.66 Q349.455 1454.1 345.82 1454.1 M345.82 1450.39 Q351.63 1450.39 354.686 1455 Q357.765 1459.58 357.765 1468.33 Q357.765 1477.06 354.686 1481.67 Q351.63 1486.25 345.82 1486.25 Q340.01 1486.25 336.931 1481.67 Q333.876 1477.06 333.876 1468.33 Q333.876 1459.58 336.931 1455 Q340.01 1450.39 345.82 1450.39 Z" fill="#000000" fill-rule="nonzero" fill-opacity="1" /><path clip-path="url(#clip920)" d="M812.212 1481.64 L828.531 1481.64 L828.531 1485.58 L806.587 1485.58 L806.587 1481.64 Q809.249 1478.89 813.832 1474.26 Q818.438 1469.61 819.619 1468.27 Q821.864 1465.74 822.744 1464.01 Q823.647 1462.25 823.647 1460.56 Q823.647 1457.8 821.702 1456.07 Q819.781 1454.33 816.679 1454.33 Q814.48 1454.33 812.026 1455.09 Q809.596 1455.86 806.818 1457.41 L806.818 1452.69 Q809.642 1451.55 812.096 1450.97 Q814.55 1450.39 816.587 1450.39 Q821.957 1450.39 825.151 1453.08 Q828.346 1455.77 828.346 1460.26 Q828.346 1462.39 827.536 1464.31 Q826.749 1466.2 824.642 1468.8 Q824.063 1469.47 820.962 1472.69 Q817.86 1475.88 812.212 1481.64 Z" fill="#000000" fill-rule="nonzero" fill-opacity="1" /><path clip-path="url(#clip920)" d="M838.392 1451.02 L856.748 1451.02 L856.748 1454.96 L842.674 1454.96 L842.674 1463.43 Q843.693 1463.08 844.711 1462.92 Q845.73 1462.73 846.748 1462.73 Q852.535 1462.73 855.915 1465.9 Q859.295 1469.08 859.295 1474.49 Q859.295 1480.07 855.822 1483.17 Q852.35 1486.25 846.031 1486.25 Q843.855 1486.25 841.586 1485.88 Q839.341 1485.51 836.934 1484.77 L836.934 1480.07 Q839.017 1481.2 841.239 1481.76 Q843.461 1482.32 845.938 1482.32 Q849.943 1482.32 852.281 1480.21 Q854.619 1478.1 854.619 1474.49 Q854.619 1470.88 852.281 1468.77 Q849.943 1466.67 845.938 1466.67 Q844.063 1466.67 842.188 1467.08 Q840.336 1467.5 838.392 1468.38 L838.392 1451.02 Z" fill="#000000" fill-rule="nonzero" fill-opacity="1" /><path clip-path="url(#clip920)" d="M1294.76 1451.02 L1313.12 1451.02 L1313.12 1454.96 L1299.04 1454.96 L1299.04 1463.43 Q1300.06 1463.08 1301.08 1462.92 Q1302.1 1462.73 1303.12 1462.73 Q1308.9 1462.73 1312.28 1465.9 Q1315.66 1469.08 1315.66 1474.49 Q1315.66 1480.07 1312.19 1483.17 Q1308.72 1486.25 1302.4 1486.25 Q1300.22 1486.25 1297.95 1485.88 Q1295.71 1485.51 1293.3 1484.77 L1293.3 1480.07 Q1295.39 1481.2 1297.61 1481.76 Q1299.83 1482.32 1302.31 1482.32 Q1306.31 1482.32 1308.65 1480.21 Q1310.99 1478.1 1310.99 1474.49 Q1310.99 1470.88 1308.65 1468.77 Q1306.31 1466.67 1302.31 1466.67 Q1300.43 1466.67 1298.56 1467.08 Q1296.7 1467.5 1294.76 1468.38 L1294.76 1451.02 Z" fill="#000000" fill-rule="nonzero" fill-opacity="1" /><path clip-path="url(#clip920)" d="M1334.88 1454.1 Q1331.26 1454.1 1329.44 1457.66 Q1327.63 1461.2 1327.63 1468.33 Q1327.63 1475.44 1329.44 1479.01 Q1331.26 1482.55 1334.88 1482.55 Q1338.51 1482.55 1340.32 1479.01 Q1342.14 1475.44 1342.14 1468.33 Q1342.14 1461.2 1340.32 1457.66 Q1338.51 1454.1 1334.88 1454.1 M1334.88 1450.39 Q1340.69 1450.39 1343.74 1455 Q1346.82 1459.58 1346.82 1468.33 Q1346.82 1477.06 1343.74 1481.67 Q1340.69 1486.25 1334.88 1486.25 Q1329.07 1486.25 1325.99 1481.67 Q1322.93 1477.06 1322.93 1468.33 Q1322.93 1459.58 1325.99 1455 Q1329.07 1450.39 1334.88 1450.39 Z" fill="#000000" fill-rule="nonzero" fill-opacity="1" /><path clip-path="url(#clip920)" d="M1781.04 1451.02 L1803.26 1451.02 L1803.26 1453.01 L1790.71 1485.58 L1785.83 1485.58 L1797.63 1454.96 L1781.04 1454.96 L1781.04 1451.02 Z" fill="#000000" fill-rule="nonzero" fill-opacity="1" /><path clip-path="url(#clip920)" d="M1812.42 1451.02 L1830.78 1451.02 L1830.78 1454.96 L1816.71 1454.96 L1816.71 1463.43 Q1817.73 1463.08 1818.74 1462.92 Q1819.76 1462.73 1820.78 1462.73 Q1826.57 1462.73 1829.95 1465.9 Q1833.33 1469.08 1833.33 1474.49 Q1833.33 1480.07 1829.85 1483.17 Q1826.38 1486.25 1820.06 1486.25 Q1817.89 1486.25 1815.62 1485.88 Q1813.37 1485.51 1810.97 1484.77 L1810.97 1480.07 Q1813.05 1481.2 1815.27 1481.76 Q1817.49 1482.32 1819.97 1482.32 Q1823.98 1482.32 1826.31 1480.21 Q1828.65 1478.1 1828.65 1474.49 Q1828.65 1470.88 1826.31 1468.77 Q1823.98 1466.67 1819.97 1466.67 Q1818.1 1466.67 1816.22 1467.08 Q1814.37 1467.5 1812.42 1468.38 L1812.42 1451.02 Z" fill="#000000" fill-rule="nonzero" fill-opacity="1" /><path clip-path="url(#clip920)" d="M2253.91 1481.64 L2261.55 1481.64 L2261.55 1455.28 L2253.24 1456.95 L2253.24 1452.69 L2261.5 1451.02 L2266.18 1451.02 L2266.18 1481.64 L2273.82 1481.64 L2273.82 1485.58 L2253.91 1485.58 L2253.91 1481.64 Z" fill="#000000" fill-rule="nonzero" fill-opacity="1" /><path clip-path="url(#clip920)" d="M2293.26 1454.1 Q2289.65 1454.1 2287.82 1457.66 Q2286.01 1461.2 2286.01 1468.33 Q2286.01 1475.44 2287.82 1479.01 Q2289.65 1482.55 2293.26 1482.55 Q2296.89 1482.55 2298.7 1479.01 Q2300.53 1475.44 2300.53 1468.33 Q2300.53 1461.2 2298.7 1457.66 Q2296.89 1454.1 2293.26 1454.1 M2293.26 1450.39 Q2299.07 1450.39 2302.13 1455 Q2305.2 1459.58 2305.2 1468.33 Q2305.2 1477.06 2302.13 1481.67 Q2299.07 1486.25 2293.26 1486.25 Q2287.45 1486.25 2284.37 1481.67 Q2281.32 1477.06 2281.32 1468.33 Q2281.32 1459.58 2284.37 1455 Q2287.45 1450.39 2293.26 1450.39 Z" fill="#000000" fill-rule="nonzero" fill-opacity="1" /><path clip-path="url(#clip920)" d="M2323.42 1454.1 Q2319.81 1454.1 2317.98 1457.66 Q2316.18 1461.2 2316.18 1468.33 Q2316.18 1475.44 2317.98 1479.01 Q2319.81 1482.55 2323.42 1482.55 Q2327.06 1482.55 2328.86 1479.01 Q2330.69 1475.44 2330.69 1468.33 Q2330.69 1461.2 2328.86 1457.66 Q2327.06 1454.1 2323.42 1454.1 M2323.42 1450.39 Q2329.23 1450.39 2332.29 1455 Q2335.37 1459.58 2335.37 1468.33 Q2335.37 1477.06 2332.29 1481.67 Q2329.23 1486.25 2323.42 1486.25 Q2317.61 1486.25 2314.53 1481.67 Q2311.48 1477.06 2311.48 1468.33 Q2311.48 1459.58 2314.53 1455 Q2317.61 1450.39 2323.42 1450.39 Z" fill="#000000" fill-rule="nonzero" fill-opacity="1" /><path clip-path="url(#clip920)" d="M1259.22 1522.27 L1259.22 1532.4 L1271.28 1532.4 L1271.28 1536.95 L1259.22 1536.95 L1259.22 1556.3 Q1259.22 1560.66 1260.4 1561.9 Q1261.61 1563.14 1265.27 1563.14 L1271.28 1563.14 L1271.28 1568.04 L1265.27 1568.04 Q1258.49 1568.04 1255.91 1565.53 Q1253.33 1562.98 1253.33 1556.3 L1253.33 1536.95 L1249.04 1536.95 L1249.04 1532.4 L1253.33 1532.4 L1253.33 1522.27 L1259.22 1522.27 Z" fill="#000000" fill-rule="nonzero" fill-opacity="1" /><path clip-path="url(#clip920)" d="M1278.99 1532.4 L1284.84 1532.4 L1284.84 1568.04 L1278.99 1568.04 L1278.99 1532.4 M1278.99 1518.52 L1284.84 1518.52 L1284.84 1525.93 L1278.99 1525.93 L1278.99 1518.52 Z" fill="#000000" fill-rule="nonzero" fill-opacity="1" /><path clip-path="url(#clip920)" d="M1324.85 1539.24 Q1327.05 1535.29 1330.1 1533.41 Q1333.16 1531.54 1337.3 1531.54 Q1342.87 1531.54 1345.89 1535.45 Q1348.91 1539.33 1348.91 1546.53 L1348.91 1568.04 L1343.03 1568.04 L1343.03 1546.72 Q1343.03 1541.59 1341.21 1539.11 Q1339.4 1536.63 1335.67 1536.63 Q1331.12 1536.63 1328.48 1539.65 Q1325.84 1542.68 1325.84 1547.9 L1325.84 1568.04 L1319.95 1568.04 L1319.95 1546.72 Q1319.95 1541.56 1318.14 1539.11 Q1316.32 1536.63 1312.53 1536.63 Q1308.05 1536.63 1305.4 1539.68 Q1302.76 1542.71 1302.76 1547.9 L1302.76 1568.04 L1296.87 1568.04 L1296.87 1532.4 L1302.76 1532.4 L1302.76 1537.93 Q1304.77 1534.66 1307.57 1533.1 Q1310.37 1531.54 1314.22 1531.54 Q1318.1 1531.54 1320.81 1533.51 Q1323.55 1535.48 1324.85 1539.24 Z" fill="#000000" fill-rule="nonzero" fill-opacity="1" /><path clip-path="url(#clip920)" d="M1391.09 1548.76 L1391.09 1551.62 L1364.16 1551.62 Q1364.54 1557.67 1367.79 1560.85 Q1371.07 1564 1376.89 1564 Q1380.26 1564 1383.42 1563.17 Q1386.6 1562.35 1389.72 1560.69 L1389.72 1566.23 Q1386.57 1567.57 1383.26 1568.27 Q1379.95 1568.97 1376.54 1568.97 Q1368.01 1568.97 1363.01 1564 Q1358.05 1559.04 1358.05 1550.57 Q1358.05 1541.82 1362.76 1536.69 Q1367.5 1531.54 1375.52 1531.54 Q1382.72 1531.54 1386.88 1536.18 Q1391.09 1540.8 1391.09 1548.76 M1385.23 1547.04 Q1385.17 1542.23 1382.52 1539.37 Q1379.91 1536.5 1375.59 1536.5 Q1370.68 1536.5 1367.72 1539.27 Q1364.8 1542.04 1364.35 1547.07 L1385.23 1547.04 Z" fill="#000000" fill-rule="nonzero" fill-opacity="1" /><polyline clip-path="url(#clip920)" style="stroke:#000000; stroke-linecap:round; stroke-linejoin:round; stroke-width:4; stroke-opacity:1; fill:none" points="287.366,1423.18 287.366,47.2441 "/>
<polyline clip-path="url(#clip920)" style="stroke:#000000; stroke-linecap:round; stroke-linejoin:round; stroke-width:4; stroke-opacity:1; fill:none" points="287.366,1213.72 306.264,1213.72 "/>
<polyline clip-path="url(#clip920)" style="stroke:#000000; stroke-linecap:round; stroke-linejoin:round; stroke-width:4; stroke-opacity:1; fill:none" points="287.366,944.319 306.264,944.319 "/>
<polyline clip-path="url(#clip920)" style="stroke:#000000; stroke-linecap:round; stroke-linejoin:round; stroke-width:4; stroke-opacity:1; fill:none" points="287.366,674.916 306.264,674.916 "/>
<polyline clip-path="url(#clip920)" style="stroke:#000000; stroke-linecap:round; stroke-linejoin:round; stroke-width:4; stroke-opacity:1; fill:none" points="287.366,405.513 306.264,405.513 "/>
<polyline clip-path="url(#clip920)" style="stroke:#000000; stroke-linecap:round; stroke-linejoin:round; stroke-width:4; stroke-opacity:1; fill:none" points="287.366,136.11 306.264,136.11 "/>
<path clip-path="url(#clip920)" d="M114.26 1214.17 L143.936 1214.17 L143.936 1218.11 L114.26 1218.11 L114.26 1214.17 Z" fill="#000000" fill-rule="nonzero" fill-opacity="1" /><path clip-path="url(#clip920)" d="M154.839 1227.07 L162.477 1227.07 L162.477 1200.7 L154.167 1202.37 L154.167 1198.11 L162.431 1196.44 L167.107 1196.44 L167.107 1227.07 L174.746 1227.07 L174.746 1231 L154.839 1231 L154.839 1227.07 Z" fill="#000000" fill-rule="nonzero" fill-opacity="1" /><path clip-path="url(#clip920)" d="M184.19 1225.12 L189.075 1225.12 L189.075 1231 L184.19 1231 L184.19 1225.12 Z" fill="#000000" fill-rule="nonzero" fill-opacity="1" /><path clip-path="url(#clip920)" d="M209.26 1199.52 Q205.649 1199.52 203.82 1203.09 Q202.014 1206.63 202.014 1213.76 Q202.014 1220.86 203.82 1224.43 Q205.649 1227.97 209.26 1227.97 Q212.894 1227.97 214.699 1224.43 Q216.528 1220.86 216.528 1213.76 Q216.528 1206.63 214.699 1203.09 Q212.894 1199.52 209.26 1199.52 M209.26 1195.82 Q215.07 1195.82 218.125 1200.42 Q221.204 1205.01 221.204 1213.76 Q221.204 1222.48 218.125 1227.09 Q215.07 1231.67 209.26 1231.67 Q203.449 1231.67 200.371 1227.09 Q197.315 1222.48 197.315 1213.76 Q197.315 1205.01 200.371 1200.42 Q203.449 1195.82 209.26 1195.82 Z" fill="#000000" fill-rule="nonzero" fill-opacity="1" /><path clip-path="url(#clip920)" d="M239.422 1199.52 Q235.81 1199.52 233.982 1203.09 Q232.176 1206.63 232.176 1213.76 Q232.176 1220.86 233.982 1224.43 Q235.81 1227.97 239.422 1227.97 Q243.056 1227.97 244.861 1224.43 Q246.69 1220.86 246.69 1213.76 Q246.69 1206.63 244.861 1203.09 Q243.056 1199.52 239.422 1199.52 M239.422 1195.82 Q245.232 1195.82 248.287 1200.42 Q251.366 1205.01 251.366 1213.76 Q251.366 1222.48 248.287 1227.09 Q245.232 1231.67 239.422 1231.67 Q233.611 1231.67 230.533 1227.09 Q227.477 1222.48 227.477 1213.76 Q227.477 1205.01 230.533 1200.42 Q233.611 1195.82 239.422 1195.82 Z" fill="#000000" fill-rule="nonzero" fill-opacity="1" /><path clip-path="url(#clip920)" d="M115.256 944.771 L144.931 944.771 L144.931 948.706 L115.256 948.706 L115.256 944.771 Z" fill="#000000" fill-rule="nonzero" fill-opacity="1" /><path clip-path="url(#clip920)" d="M165.024 930.118 Q161.413 930.118 159.584 933.683 Q157.778 937.225 157.778 944.354 Q157.778 951.461 159.584 955.025 Q161.413 958.567 165.024 958.567 Q168.658 958.567 170.464 955.025 Q172.292 951.461 172.292 944.354 Q172.292 937.225 170.464 933.683 Q168.658 930.118 165.024 930.118 M165.024 926.414 Q170.834 926.414 173.889 931.021 Q176.968 935.604 176.968 944.354 Q176.968 953.081 173.889 957.687 Q170.834 962.271 165.024 962.271 Q159.214 962.271 156.135 957.687 Q153.079 953.081 153.079 944.354 Q153.079 935.604 156.135 931.021 Q159.214 926.414 165.024 926.414 Z" fill="#000000" fill-rule="nonzero" fill-opacity="1" /><path clip-path="url(#clip920)" d="M185.186 955.72 L190.07 955.72 L190.07 961.599 L185.186 961.599 L185.186 955.72 Z" fill="#000000" fill-rule="nonzero" fill-opacity="1" /><path clip-path="url(#clip920)" d="M199.075 927.039 L221.297 927.039 L221.297 929.03 L208.75 961.599 L203.866 961.599 L215.672 930.975 L199.075 930.975 L199.075 927.039 Z" fill="#000000" fill-rule="nonzero" fill-opacity="1" /><path clip-path="url(#clip920)" d="M230.463 927.039 L248.82 927.039 L248.82 930.975 L234.746 930.975 L234.746 939.447 Q235.764 939.1 236.783 938.938 Q237.801 938.752 238.82 938.752 Q244.607 938.752 247.986 941.924 Q251.366 945.095 251.366 950.512 Q251.366 956.09 247.894 959.192 Q244.421 962.271 238.102 962.271 Q235.926 962.271 233.658 961.9 Q231.412 961.53 229.005 960.789 L229.005 956.09 Q231.088 957.225 233.31 957.78 Q235.533 958.336 238.009 958.336 Q242.014 958.336 244.352 956.229 Q246.69 954.123 246.69 950.512 Q246.69 946.9 244.352 944.794 Q242.014 942.688 238.009 942.688 Q236.135 942.688 234.26 943.104 Q232.408 943.521 230.463 944.401 L230.463 927.039 Z" fill="#000000" fill-rule="nonzero" fill-opacity="1" /><path clip-path="url(#clip920)" d="M114.26 675.368 L143.936 675.368 L143.936 679.303 L114.26 679.303 L114.26 675.368 Z" fill="#000000" fill-rule="nonzero" fill-opacity="1" /><path clip-path="url(#clip920)" d="M164.028 660.715 Q160.417 660.715 158.589 664.28 Q156.783 667.821 156.783 674.951 Q156.783 682.057 158.589 685.622 Q160.417 689.164 164.028 689.164 Q167.663 689.164 169.468 685.622 Q171.297 682.057 171.297 674.951 Q171.297 667.821 169.468 664.28 Q167.663 660.715 164.028 660.715 M164.028 657.011 Q169.839 657.011 172.894 661.618 Q175.973 666.201 175.973 674.951 Q175.973 683.678 172.894 688.284 Q169.839 692.868 164.028 692.868 Q158.218 692.868 155.14 688.284 Q152.084 683.678 152.084 674.951 Q152.084 666.201 155.14 661.618 Q158.218 657.011 164.028 657.011 Z" fill="#000000" fill-rule="nonzero" fill-opacity="1" /><path clip-path="url(#clip920)" d="M184.19 686.317 L189.075 686.317 L189.075 692.196 L184.19 692.196 L184.19 686.317 Z" fill="#000000" fill-rule="nonzero" fill-opacity="1" /><path clip-path="url(#clip920)" d="M199.306 657.636 L217.662 657.636 L217.662 661.571 L203.588 661.571 L203.588 670.044 Q204.607 669.696 205.625 669.534 Q206.644 669.349 207.662 669.349 Q213.449 669.349 216.829 672.52 Q220.209 675.692 220.209 681.108 Q220.209 686.687 216.736 689.789 Q213.264 692.868 206.945 692.868 Q204.769 692.868 202.5 692.497 Q200.255 692.127 197.848 691.386 L197.848 686.687 Q199.931 687.821 202.153 688.377 Q204.375 688.932 206.852 688.932 Q210.857 688.932 213.195 686.826 Q215.533 684.719 215.533 681.108 Q215.533 677.497 213.195 675.391 Q210.857 673.284 206.852 673.284 Q204.977 673.284 203.102 673.701 Q201.25 674.118 199.306 674.997 L199.306 657.636 Z" fill="#000000" fill-rule="nonzero" fill-opacity="1" /><path clip-path="url(#clip920)" d="M239.422 660.715 Q235.81 660.715 233.982 664.28 Q232.176 667.821 232.176 674.951 Q232.176 682.057 233.982 685.622 Q235.81 689.164 239.422 689.164 Q243.056 689.164 244.861 685.622 Q246.69 682.057 246.69 674.951 Q246.69 667.821 244.861 664.28 Q243.056 660.715 239.422 660.715 M239.422 657.011 Q245.232 657.011 248.287 661.618 Q251.366 666.201 251.366 674.951 Q251.366 683.678 248.287 688.284 Q245.232 692.868 239.422 692.868 Q233.611 692.868 230.533 688.284 Q227.477 683.678 227.477 674.951 Q227.477 666.201 230.533 661.618 Q233.611 657.011 239.422 657.011 Z" fill="#000000" fill-rule="nonzero" fill-opacity="1" /><path clip-path="url(#clip920)" d="M115.256 405.964 L144.931 405.964 L144.931 409.9 L115.256 409.9 L115.256 405.964 Z" fill="#000000" fill-rule="nonzero" fill-opacity="1" /><path clip-path="url(#clip920)" d="M165.024 391.312 Q161.413 391.312 159.584 394.877 Q157.778 398.418 157.778 405.548 Q157.778 412.654 159.584 416.219 Q161.413 419.761 165.024 419.761 Q168.658 419.761 170.464 416.219 Q172.292 412.654 172.292 405.548 Q172.292 398.418 170.464 394.877 Q168.658 391.312 165.024 391.312 M165.024 387.608 Q170.834 387.608 173.889 392.215 Q176.968 396.798 176.968 405.548 Q176.968 414.275 173.889 418.881 Q170.834 423.464 165.024 423.464 Q159.214 423.464 156.135 418.881 Q153.079 414.275 153.079 405.548 Q153.079 396.798 156.135 392.215 Q159.214 387.608 165.024 387.608 Z" fill="#000000" fill-rule="nonzero" fill-opacity="1" /><path clip-path="url(#clip920)" d="M185.186 416.914 L190.07 416.914 L190.07 422.793 L185.186 422.793 L185.186 416.914 Z" fill="#000000" fill-rule="nonzero" fill-opacity="1" /><path clip-path="url(#clip920)" d="M204.283 418.858 L220.602 418.858 L220.602 422.793 L198.658 422.793 L198.658 418.858 Q201.32 416.103 205.903 411.474 Q210.51 406.821 211.69 405.478 Q213.936 402.955 214.815 401.219 Q215.718 399.46 215.718 397.77 Q215.718 395.015 213.774 393.279 Q211.852 391.543 208.75 391.543 Q206.551 391.543 204.098 392.307 Q201.667 393.071 198.889 394.622 L198.889 389.9 Q201.713 388.766 204.167 388.187 Q206.621 387.608 208.658 387.608 Q214.028 387.608 217.223 390.293 Q220.417 392.978 220.417 397.469 Q220.417 399.599 219.607 401.52 Q218.82 403.418 216.713 406.011 Q216.135 406.682 213.033 409.9 Q209.931 413.094 204.283 418.858 Z" fill="#000000" fill-rule="nonzero" fill-opacity="1" /><path clip-path="url(#clip920)" d="M230.463 388.233 L248.82 388.233 L248.82 392.168 L234.746 392.168 L234.746 400.64 Q235.764 400.293 236.783 400.131 Q237.801 399.946 238.82 399.946 Q244.607 399.946 247.986 403.117 Q251.366 406.289 251.366 411.705 Q251.366 417.284 247.894 420.386 Q244.421 423.464 238.102 423.464 Q235.926 423.464 233.658 423.094 Q231.412 422.724 229.005 421.983 L229.005 417.284 Q231.088 418.418 233.31 418.974 Q235.533 419.529 238.009 419.529 Q242.014 419.529 244.352 417.423 Q246.69 415.316 246.69 411.705 Q246.69 408.094 244.352 405.988 Q242.014 403.881 238.009 403.881 Q236.135 403.881 234.26 404.298 Q232.408 404.714 230.463 405.594 L230.463 388.233 Z" fill="#000000" fill-rule="nonzero" fill-opacity="1" /><path clip-path="url(#clip920)" d="M164.028 121.909 Q160.417 121.909 158.589 125.473 Q156.783 129.015 156.783 136.145 Q156.783 143.251 158.589 146.816 Q160.417 150.358 164.028 150.358 Q167.663 150.358 169.468 146.816 Q171.297 143.251 171.297 136.145 Q171.297 129.015 169.468 125.473 Q167.663 121.909 164.028 121.909 M164.028 118.205 Q169.839 118.205 172.894 122.811 Q175.973 127.395 175.973 136.145 Q175.973 144.871 172.894 149.478 Q169.839 154.061 164.028 154.061 Q158.218 154.061 155.14 149.478 Q152.084 144.871 152.084 136.145 Q152.084 127.395 155.14 122.811 Q158.218 118.205 164.028 118.205 Z" fill="#000000" fill-rule="nonzero" fill-opacity="1" /><path clip-path="url(#clip920)" d="M184.19 147.51 L189.075 147.51 L189.075 153.39 L184.19 153.39 L184.19 147.51 Z" fill="#000000" fill-rule="nonzero" fill-opacity="1" /><path clip-path="url(#clip920)" d="M209.26 121.909 Q205.649 121.909 203.82 125.473 Q202.014 129.015 202.014 136.145 Q202.014 143.251 203.82 146.816 Q205.649 150.358 209.26 150.358 Q212.894 150.358 214.699 146.816 Q216.528 143.251 216.528 136.145 Q216.528 129.015 214.699 125.473 Q212.894 121.909 209.26 121.909 M209.26 118.205 Q215.07 118.205 218.125 122.811 Q221.204 127.395 221.204 136.145 Q221.204 144.871 218.125 149.478 Q215.07 154.061 209.26 154.061 Q203.449 154.061 200.371 149.478 Q197.315 144.871 197.315 136.145 Q197.315 127.395 200.371 122.811 Q203.449 118.205 209.26 118.205 Z" fill="#000000" fill-rule="nonzero" fill-opacity="1" /><path clip-path="url(#clip920)" d="M239.422 121.909 Q235.81 121.909 233.982 125.473 Q232.176 129.015 232.176 136.145 Q232.176 143.251 233.982 146.816 Q235.81 150.358 239.422 150.358 Q243.056 150.358 244.861 146.816 Q246.69 143.251 246.69 136.145 Q246.69 129.015 244.861 125.473 Q243.056 121.909 239.422 121.909 M239.422 118.205 Q245.232 118.205 248.287 122.811 Q251.366 127.395 251.366 136.145 Q251.366 144.871 248.287 149.478 Q245.232 154.061 239.422 154.061 Q233.611 154.061 230.533 149.478 Q227.477 144.871 227.477 136.145 Q227.477 127.395 230.533 122.811 Q233.611 118.205 239.422 118.205 Z" fill="#000000" fill-rule="nonzero" fill-opacity="1" /><path clip-path="url(#clip920)" d="M20.1444 816.693 L26.9239 816.693 Q23.9002 819.94 22.4043 823.632 Q20.9083 827.292 20.9083 831.43 Q20.9083 839.578 25.9054 843.906 Q30.8707 848.235 40.2919 848.235 Q49.6813 848.235 54.6784 843.906 Q59.6436 839.578 59.6436 831.43 Q59.6436 827.292 58.1477 823.632 Q56.6518 819.94 53.6281 816.693 L60.3439 816.693 Q62.6355 820.067 63.7814 823.854 Q64.9272 827.61 64.9272 831.812 Q64.9272 842.601 58.3387 848.808 Q51.7183 855.015 40.2919 855.015 Q28.8336 855.015 22.2451 848.808 Q15.6248 842.601 15.6248 831.812 Q15.6248 827.547 16.7706 823.791 Q17.8846 820.003 20.1444 816.693 Z" fill="#000000" fill-rule="nonzero" fill-opacity="1" /><path clip-path="url(#clip920)" d="M49.9359 807.622 L28.3562 807.622 L28.3562 801.765 L49.7131 801.765 Q54.7739 801.765 57.3202 799.792 Q59.8346 797.819 59.8346 793.872 Q59.8346 789.13 56.8109 786.392 Q53.7872 783.623 48.5673 783.623 L28.3562 783.623 L28.3562 777.767 L64.0042 777.767 L64.0042 783.623 L58.5296 783.623 Q61.7762 785.756 63.3676 788.588 Q64.9272 791.389 64.9272 795.113 Q64.9272 801.256 61.1078 804.439 Q57.2883 807.622 49.9359 807.622 M27.4968 792.885 L27.4968 792.885 Z" fill="#000000" fill-rule="nonzero" fill-opacity="1" /><path clip-path="url(#clip920)" d="M33.8307 745.047 Q33.2578 746.034 33.0032 747.211 Q32.7167 748.357 32.7167 749.758 Q32.7167 754.723 35.9632 757.396 Q39.1779 760.038 45.2253 760.038 L64.0042 760.038 L64.0042 765.927 L28.3562 765.927 L28.3562 760.038 L33.8944 760.038 Q30.6479 758.192 29.0883 755.232 Q27.4968 752.272 27.4968 748.039 Q27.4968 747.434 27.5923 746.702 Q27.656 745.97 27.8151 745.079 L33.8307 745.047 Z" fill="#000000" fill-rule="nonzero" fill-opacity="1" /><path clip-path="url(#clip920)" d="M33.8307 719.393 Q33.2578 720.38 33.0032 721.558 Q32.7167 722.703 32.7167 724.104 Q32.7167 729.069 35.9632 731.743 Q39.1779 734.384 45.2253 734.384 L64.0042 734.384 L64.0042 740.273 L28.3562 740.273 L28.3562 734.384 L33.8944 734.384 Q30.6479 732.538 29.0883 729.578 Q27.4968 726.618 27.4968 722.385 Q27.4968 721.78 27.5923 721.048 Q27.656 720.316 27.8151 719.425 L33.8307 719.393 Z" fill="#000000" fill-rule="nonzero" fill-opacity="1" /><path clip-path="url(#clip920)" d="M44.7161 684.191 L47.5806 684.191 L47.5806 711.118 Q53.6281 710.736 56.8109 707.489 Q59.9619 704.211 59.9619 698.386 Q59.9619 695.013 59.1344 691.862 Q58.3069 688.679 56.6518 685.559 L62.1899 685.559 Q63.5267 688.71 64.227 692.021 Q64.9272 695.331 64.9272 698.736 Q64.9272 707.267 59.9619 712.264 Q54.9967 717.229 46.5303 717.229 Q37.7774 717.229 32.6531 712.518 Q27.4968 707.776 27.4968 699.755 Q27.4968 692.562 32.1438 688.392 Q36.7589 684.191 44.7161 684.191 M42.9973 690.047 Q38.1912 690.111 35.3266 692.753 Q32.4621 695.363 32.4621 699.691 Q32.4621 704.593 35.2312 707.553 Q38.0002 710.481 43.0292 710.927 L42.9973 690.047 Z" fill="#000000" fill-rule="nonzero" fill-opacity="1" /><path clip-path="url(#clip920)" d="M42.4881 644.946 L64.0042 644.946 L64.0042 650.803 L42.679 650.803 Q37.6183 650.803 35.1038 652.776 Q32.5894 654.749 32.5894 658.696 Q32.5894 663.439 35.6131 666.176 Q38.6368 668.913 43.8567 668.913 L64.0042 668.913 L64.0042 674.801 L28.3562 674.801 L28.3562 668.913 L33.8944 668.913 Q30.6797 666.812 29.0883 663.98 Q27.4968 661.115 27.4968 657.391 Q27.4968 651.248 31.3163 648.097 Q35.1038 644.946 42.4881 644.946 Z" fill="#000000" fill-rule="nonzero" fill-opacity="1" /><path clip-path="url(#clip920)" d="M18.2347 627.472 L28.3562 627.472 L28.3562 615.409 L32.9077 615.409 L32.9077 627.472 L52.2594 627.472 Q56.6199 627.472 57.8613 626.295 Q59.1026 625.085 59.1026 621.425 L59.1026 615.409 L64.0042 615.409 L64.0042 621.425 Q64.0042 628.204 61.4897 630.783 Q58.9434 633.361 52.2594 633.361 L32.9077 633.361 L32.9077 637.658 L28.3562 637.658 L28.3562 633.361 L18.2347 633.361 L18.2347 627.472 Z" fill="#000000" fill-rule="nonzero" fill-opacity="1" /><polyline clip-path="url(#clip922)" style="stroke:#0000ff; stroke-linecap:round; stroke-linejoin:round; stroke-width:12; stroke-opacity:1; fill:none" points="345.82,136.11 355.563,651.413 365.305,961.095 375.048,1145.52 384.79,1254.27 394.532,1317.56 404.275,1353.52 414.017,1372.84 423.76,1381.79 433.502,1384.24 443.244,1382.75 452.987,1379.09 462.729,1374.31 472.472,1368.91 482.214,1363 491.956,1356.63 501.699,1349.96 511.441,1343.18 521.184,1336.48 530.926,1329.88 540.668,1323.29 550.411,1316.63 560.153,1309.89 569.896,1303.13 579.638,1296.45 589.38,1289.88 599.123,1283.37 608.865,1276.84 618.608,1270.27 628.35,1263.69 638.093,1257.16 647.835,1250.72 657.577,1244.34 667.32,1237.97 677.062,1231.58 686.805,1225.18 696.547,1218.82 706.289,1212.53 716.032,1206.29 725.774,1200.09 735.517,1193.88 745.259,1187.66 755.001,1181.47 764.744,1175.33 774.486,1169.24 784.229,1163.19 793.971,1157.15 803.713,1151.11 813.456,1145.09 823.198,1139.1 832.941,1133.17 842.683,1127.27 852.425,1121.4 862.168,1115.52 871.91,1109.67 881.653,1103.84 891.395,1098.06 901.137,1092.32 910.88,1086.6 920.622,1080.89 930.365,1075.2 940.107,1069.53 949.849,1063.9 959.592,1058.31 969.334,1052.75 979.077,1047.2 988.819,1041.67 998.562,1036.16 1008.3,1030.69 1018.05,1025.25 1027.79,1019.84 1037.53,1014.46 1047.27,1009.08 1057.02,1003.74 1066.76,998.418 1076.5,993.134 1086.24,987.88 1095.99,982.65 1105.73,977.438 1115.47,972.249 1125.21,967.086 1134.96,961.956 1144.7,956.855 1154.44,951.781 1164.18,946.727 1173.92,941.695 1183.67,936.688 1193.41,931.711 1203.15,926.763 1212.89,921.843 1222.64,916.944 1232.38,912.068 1242.12,907.216 1251.86,902.392 1261.61,897.596 1271.35,892.828 1281.09,888.083 1290.83,883.36 1300.58,878.662 1310.32,873.989 1320.06,869.344 1329.8,864.726 1339.55,860.132 1349.29,855.561 1359.03,851.013 1368.77,846.49 1378.52,841.993 1388.26,837.523 1398,833.078 1407.74,828.655 1417.48,824.256 1427.23,819.88 1436.97,815.53 1446.71,811.205 1456.45,806.905 1466.2,802.628 1475.94,798.374 1485.68,794.143 1495.42,789.936 1505.17,785.755 1514.91,781.597 1524.65,777.462 1534.39,773.35 1544.14,769.261 1553.88,765.194 1563.62,761.152 1573.36,757.134 1583.11,753.138 1592.85,749.164 1602.59,745.213 1612.33,741.284 1622.08,737.378 1631.82,733.495 1641.56,729.635 1651.3,725.796 1661.05,721.979 1670.79,718.184 1680.53,714.411 1690.27,710.661 1700.01,706.932 1709.76,703.225 1719.5,699.539 1729.24,695.874 1738.98,692.23 1748.73,688.608 1758.47,685.007 1768.21,681.428 1777.95,677.868 1787.7,674.33 1797.44,670.812 1807.18,667.315 1816.92,663.838 1826.67,660.382 1836.41,656.946 1846.15,653.53 1855.89,650.134 1865.64,646.758 1875.38,643.403 1885.12,640.067 1894.86,636.75 1904.61,633.453 1914.35,630.175 1924.09,626.917 1933.83,623.678 1943.57,620.458 1953.32,617.257 1963.06,614.075 1972.8,610.912 1982.54,607.767 1992.29,604.641 2002.03,601.534 2011.77,598.445 2021.51,595.374 2031.26,592.322 2041,589.287 2050.74,586.271 2060.48,583.273 2070.23,580.292 2079.97,577.329 2089.71,574.384 2099.45,571.456 2109.2,568.546 2118.94,565.653 2128.68,562.777 2138.42,559.918 2148.17,557.076 2157.91,554.251 2167.65,551.443 2177.39,548.652 2187.14,545.878 2196.88,543.12 2206.62,540.378 2216.36,537.653 2226.1,534.944 2235.85,532.251 2245.59,529.574 2255.33,526.913 2265.07,524.268 2274.82,521.639 2284.56,519.026 2294.3,516.428 "/>
<polyline clip-path="url(#clip922)" style="stroke:#ff0000; stroke-linecap:round; stroke-linejoin:round; stroke-width:12; stroke-opacity:1; fill:none" points="345.82,136.11 355.563,611.244 365.305,760.998 375.048,704.553 384.79,543.312 394.532,376.56 404.275,301.568 414.017,352.777 423.76,470.033 433.502,550.291 443.244,535.674 452.987,454.476 462.729,384.265 472.472,379.718 482.214,431.477 491.956,485.058 501.699,493.875 511.441,456.7 521.184,411.204 530.926,396.135 540.668,418.552 550.411,452.609 560.153,466.208 569.896,449.148 579.638,418.887 589.38,402.018 599.123,410.309 608.865,432.379 618.608,446.233 628.35,439.487 638.093,419.036 647.835,402.984 657.577,403.718 667.32,417.7 677.062,430.161 686.805,429.122 696.547,415.596 706.289,401.471 716.032,398.054 725.774,406.195 735.517,416.506 745.259,418.546 755.001,410.103 764.744,398.405 774.486,392.914 784.229,396.794 793.971,404.674 803.713,408.124 813.456,403.364 823.198,394.19 832.941,387.976 842.683,388.856 852.425,394.352 862.168,398.126 871.91,395.906 881.653,389.086 891.395,383.01 901.137,381.919 910.88,385.296 920.622,388.725 930.365,388.124 940.107,383.32 949.849,377.878 959.592,375.631 969.334,377.272 979.077,380.004 988.819,380.308 998.562,377.111 1008.3,372.532 1018.05,369.738 1027.79,370.06 1037.53,371.966 1047.27,372.66 1057.02,370.656 1066.76,366.984 1076.5,364.068 1086.24,363.465 1095.99,364.564 1105.73,365.304 1115.47,364.12 1125.21,361.286 1134.96,358.516 1144.7,357.329 1154.44,357.723 1164.18,358.304 1173.92,357.634 1183.67,355.508 1193.41,353.029 1203.15,351.526 1212.89,351.359 1222.64,351.682 1232.38,351.29 1242.12,349.719 1251.86,347.59 1261.61,345.969 1271.35,345.391 1281.09,345.428 1290.83,345.149 1300.58,343.986 1310.32,342.204 1320.06,340.599 1329.8,339.749 1339.55,339.519 1349.29,339.244 1359.03,338.359 1368.77,336.889 1378.52,335.381 1388.26,334.372 1398,333.92 1407.74,333.589 1417.48,332.877 1427.23,331.667 1436.97,330.295 1446.71,329.218 1456.45,328.598 1466.2,328.184 1475.94,327.568 1485.68,326.559 1495.42,325.336 1505.17,324.253 1514.91,323.518 1524.65,323.018 1534.39,322.444 1544.14,321.585 1553.88,320.503 1563.62,319.456 1573.36,318.654 1583.11,318.077 1592.85,317.512 1602.59,316.758 1612.33,315.8 1622.08,314.812 1631.82,313.982 1641.56,313.346 1651.3,312.772 1661.05,312.086 1670.79,311.233 1680.53,310.313 1690.27,309.482 1700.01,308.808 1709.76,308.218 1719.5,307.575 1729.24,306.804 1738.98,305.954 1748.73,305.143 1758.47,304.448 1768.21,303.842 1777.95,303.224 1787.7,302.518 1797.44,301.733 1807.18,300.953 1816.92,300.254 1826.67,299.636 1836.41,299.033 1846.15,298.374 1855.89,297.647 1865.64,296.905 1875.38,296.213 1885.12,295.591 1894.86,294.997 1904.61,294.373 1914.35,293.696 1924.09,292.993 1933.83,292.318 1943.57,291.697 1953.32,291.111 1963.06,290.514 1972.8,289.877 1982.54,289.213 1992.29,288.56 2002.03,287.947 2011.77,287.369 2021.51,286.792 2031.26,286.189 2041,285.561 2050.74,284.933 2060.48,284.333 2070.23,283.764 2079.97,283.204 2089.71,282.63 2099.45,282.034 2109.2,281.433 2118.94,280.849 2128.68,280.291 2138.42,279.747 2148.17,279.196 2157.91,278.629 2167.65,278.054 2177.39,277.489 2187.14,276.944 2196.88,276.414 2206.62,275.883 2216.36,275.342 2226.1,274.792 2235.85,274.247 2245.59,273.717 2255.33,273.201 2265.07,272.689 2274.82,272.17 2284.56,271.645 2294.3,271.12 "/>
<polyline clip-path="url(#clip922)" style="stroke:#0000ff; stroke-linecap:round; stroke-linejoin:round; stroke-width:12; stroke-opacity:1; fill:none" stroke-dasharray="48, 30" points="345.82,86.1857 355.563,86.1857 365.305,86.1857 375.048,86.1857 384.79,86.1857 394.532,86.1857 404.275,86.1857 414.017,86.1857 423.76,86.1857 433.502,86.1857 443.244,86.1857 452.987,86.1857 462.729,86.1857 472.472,86.1857 482.214,86.1857 491.956,86.1857 501.699,86.1857 511.441,86.1857 521.184,86.1857 530.926,86.1857 540.668,86.1857 550.411,86.1857 560.153,86.1857 569.896,86.1857 579.638,86.1857 589.38,86.1857 599.123,86.1857 608.865,86.1857 618.608,86.1857 628.35,86.1857 638.093,86.1857 647.835,86.1857 657.577,86.1857 667.32,86.1857 677.062,86.1857 686.805,86.1857 696.547,86.1857 706.289,86.1857 716.032,86.1857 725.774,86.1857 735.517,86.1857 745.259,86.1857 755.001,86.1857 764.744,86.1857 774.486,86.1857 784.229,86.1857 793.971,86.1857 803.713,86.1857 813.456,86.1857 823.198,86.1857 832.941,86.1857 842.683,86.1857 852.425,86.1857 862.168,86.1857 871.91,86.1857 881.653,86.1857 891.395,86.1857 901.137,86.1857 910.88,86.1857 920.622,86.1857 930.365,86.1857 940.107,86.1857 949.849,86.1857 959.592,86.1857 969.334,86.1857 979.077,86.1857 988.819,86.1857 998.562,86.1857 1008.3,86.1857 1018.05,86.1857 1027.79,86.1857 1037.53,86.1857 1047.27,86.1857 1057.02,86.1857 1066.76,86.1857 1076.5,86.1857 1086.24,86.1857 1095.99,86.1857 1105.73,86.1857 1115.47,86.1857 1125.21,86.1857 1134.96,86.1857 1144.7,86.1857 1154.44,86.1857 1164.18,86.1857 1173.92,86.1857 1183.67,86.1857 1193.41,86.1857 1203.15,86.1857 1212.89,86.1857 1222.64,86.1857 1232.38,86.1857 1242.12,86.1857 1251.86,86.1857 1261.61,86.1857 1271.35,86.1857 1281.09,86.1857 1290.83,86.1857 1300.58,86.1857 1310.32,86.1857 1320.06,86.1857 1329.8,86.1857 1339.55,86.1857 1349.29,86.1857 1359.03,86.1857 1368.77,86.1857 1378.52,86.1857 1388.26,86.1857 1398,86.1857 1407.74,86.1857 1417.48,86.1857 1427.23,86.1857 1436.97,86.1857 1446.71,86.1857 1456.45,86.1857 1466.2,86.1857 1475.94,86.1857 1485.68,86.1857 1495.42,86.1857 1505.17,86.1857 1514.91,86.1857 1524.65,86.1857 1534.39,86.1857 1544.14,86.1857 1553.88,86.1857 1563.62,86.1857 1573.36,86.1857 1583.11,86.1857 1592.85,86.1857 1602.59,86.1857 1612.33,86.1857 1622.08,86.1857 1631.82,86.1857 1641.56,86.1857 1651.3,86.1857 1661.05,86.1857 1670.79,86.1857 1680.53,86.1857 1690.27,86.1857 1700.01,86.1857 1709.76,86.1857 1719.5,86.1857 1729.24,86.1857 1738.98,86.1857 1748.73,86.1857 1758.47,86.1857 1768.21,86.1857 1777.95,86.1857 1787.7,86.1857 1797.44,86.1857 1807.18,86.1857 1816.92,86.1857 1826.67,86.1857 1836.41,86.1857 1846.15,86.1857 1855.89,86.1857 1865.64,86.1857 1875.38,86.1857 1885.12,86.1857 1894.86,86.1857 1904.61,86.1857 1914.35,86.1857 1924.09,86.1857 1933.83,86.1857 1943.57,86.1857 1953.32,86.1857 1963.06,86.1857 1972.8,86.1857 1982.54,86.1857 1992.29,86.1857 2002.03,86.1857 2011.77,86.1857 2021.51,86.1857 2031.26,86.1857 2041,86.1857 2050.74,86.1857 2060.48,86.1857 2070.23,86.1857 2079.97,86.1857 2089.71,86.1857 2099.45,86.1857 2109.2,86.1857 2118.94,86.1857 2128.68,86.1857 2138.42,86.1857 2148.17,86.1857 2157.91,86.1857 2167.65,86.1857 2177.39,86.1857 2187.14,86.1857 2196.88,86.1857 2206.62,86.1857 2216.36,86.1857 2226.1,86.1857 2235.85,86.1857 2245.59,86.1857 2255.33,86.1857 2265.07,86.1857 2274.82,86.1857 2284.56,86.1857 2294.3,86.1857 "/>
<polyline clip-path="url(#clip922)" style="stroke:#ff0000; stroke-linecap:round; stroke-linejoin:round; stroke-width:12; stroke-opacity:1; fill:none" stroke-dasharray="48, 30" points="345.82,186.034 355.563,186.034 365.305,186.034 375.048,186.034 384.79,186.034 394.532,186.034 404.275,186.034 414.017,186.034 423.76,186.034 433.502,186.034 443.244,186.034 452.987,186.034 462.729,186.034 472.472,186.034 482.214,186.034 491.956,186.034 501.699,186.034 511.441,186.034 521.184,186.034 530.926,186.034 540.668,186.034 550.411,186.034 560.153,186.034 569.896,186.034 579.638,186.034 589.38,186.034 599.123,186.034 608.865,186.034 618.608,186.034 628.35,186.034 638.093,186.034 647.835,186.034 657.577,186.034 667.32,186.034 677.062,186.034 686.805,186.034 696.547,186.034 706.289,186.034 716.032,186.034 725.774,186.034 735.517,186.034 745.259,186.034 755.001,186.034 764.744,186.034 774.486,186.034 784.229,186.034 793.971,186.034 803.713,186.034 813.456,186.034 823.198,186.034 832.941,186.034 842.683,186.034 852.425,186.034 862.168,186.034 871.91,186.034 881.653,186.034 891.395,186.034 901.137,186.034 910.88,186.034 920.622,186.034 930.365,186.034 940.107,186.034 949.849,186.034 959.592,186.034 969.334,186.034 979.077,186.034 988.819,186.034 998.562,186.034 1008.3,186.034 1018.05,186.034 1027.79,186.034 1037.53,186.034 1047.27,186.034 1057.02,186.034 1066.76,186.034 1076.5,186.034 1086.24,186.034 1095.99,186.034 1105.73,186.034 1115.47,186.034 1125.21,186.034 1134.96,186.034 1144.7,186.034 1154.44,186.034 1164.18,186.034 1173.92,186.034 1183.67,186.034 1193.41,186.034 1203.15,186.034 1212.89,186.034 1222.64,186.034 1232.38,186.034 1242.12,186.034 1251.86,186.034 1261.61,186.034 1271.35,186.034 1281.09,186.034 1290.83,186.034 1300.58,186.034 1310.32,186.034 1320.06,186.034 1329.8,186.034 1339.55,186.034 1349.29,186.034 1359.03,186.034 1368.77,186.034 1378.52,186.034 1388.26,186.034 1398,186.034 1407.74,186.034 1417.48,186.034 1427.23,186.034 1436.97,186.034 1446.71,186.034 1456.45,186.034 1466.2,186.034 1475.94,186.034 1485.68,186.034 1495.42,186.034 1505.17,186.034 1514.91,186.034 1524.65,186.034 1534.39,186.034 1544.14,186.034 1553.88,186.034 1563.62,186.034 1573.36,186.034 1583.11,186.034 1592.85,186.034 1602.59,186.034 1612.33,186.034 1622.08,186.034 1631.82,186.034 1641.56,186.034 1651.3,186.034 1661.05,186.034 1670.79,186.034 1680.53,186.034 1690.27,186.034 1700.01,186.034 1709.76,186.034 1719.5,186.034 1729.24,186.034 1738.98,186.034 1748.73,186.034 1758.47,186.034 1768.21,186.034 1777.95,186.034 1787.7,186.034 1797.44,186.034 1807.18,186.034 1816.92,186.034 1826.67,186.034 1836.41,186.034 1846.15,186.034 1855.89,186.034 1865.64,186.034 1875.38,186.034 1885.12,186.034 1894.86,186.034 1904.61,186.034 1914.35,186.034 1924.09,186.034 1933.83,186.034 1943.57,186.034 1953.32,186.034 1963.06,186.034 1972.8,186.034 1982.54,186.034 1992.29,186.034 2002.03,186.034 2011.77,186.034 2021.51,186.034 2031.26,186.034 2041,186.034 2050.74,186.034 2060.48,186.034 2070.23,186.034 2079.97,186.034 2089.71,186.034 2099.45,186.034 2109.2,186.034 2118.94,186.034 2128.68,186.034 2138.42,186.034 2148.17,186.034 2157.91,186.034 2167.65,186.034 2177.39,186.034 2187.14,186.034 2196.88,186.034 2206.62,186.034 2216.36,186.034 2226.1,186.034 2235.85,186.034 2245.59,186.034 2255.33,186.034 2265.07,186.034 2274.82,186.034 2284.56,186.034 2294.3,186.034 "/>
<path clip-path="url(#clip920)" d="M1570.22 1377.32 L2283.91 1377.32 L2283.91 1118.12 L1570.22 1118.12  Z" fill="#ffffff" fill-rule="evenodd" fill-opacity="1"/>
<polyline clip-path="url(#clip920)" style="stroke:#000000; stroke-linecap:round; stroke-linejoin:round; stroke-width:4; stroke-opacity:1; fill:none" points="1570.22,1377.32 2283.91,1377.32 2283.91,1118.12 1570.22,1118.12 1570.22,1377.32 "/>
<polyline clip-path="url(#clip920)" style="stroke:#0000ff; stroke-linecap:round; stroke-linejoin:round; stroke-width:12; stroke-opacity:1; fill:none" points="1593.17,1169.96 1730.86,1169.96 "/>
<path clip-path="url(#clip920)" d="M1758.49 1170.73 L1758.49 1183.39 L1765.99 1183.39 Q1769.76 1183.39 1771.57 1181.84 Q1773.39 1180.27 1773.39 1177.05 Q1773.39 1173.81 1771.57 1172.28 Q1769.76 1170.73 1765.99 1170.73 L1758.49 1170.73 M1758.49 1156.52 L1758.49 1166.93 L1765.41 1166.93 Q1768.83 1166.93 1770.5 1165.66 Q1772.19 1164.37 1772.19 1161.73 Q1772.19 1159.11 1770.5 1157.81 Q1768.83 1156.52 1765.41 1156.52 L1758.49 1156.52 M1753.81 1152.68 L1765.76 1152.68 Q1771.1 1152.68 1774 1154.9 Q1776.89 1157.12 1776.89 1161.22 Q1776.89 1164.39 1775.41 1166.26 Q1773.93 1168.14 1771.06 1168.6 Q1774.51 1169.34 1776.4 1171.7 Q1778.32 1174.04 1778.32 1177.56 Q1778.32 1182.19 1775.18 1184.71 Q1772.03 1187.24 1766.22 1187.24 L1753.81 1187.24 L1753.81 1152.68 Z" fill="#000000" fill-rule="nonzero" fill-opacity="1" /><path clip-path="url(#clip920)" d="M1797.93 1174.2 Q1792.77 1174.2 1790.78 1175.38 Q1788.79 1176.56 1788.79 1179.41 Q1788.79 1181.68 1790.27 1183.02 Q1791.77 1184.34 1794.34 1184.34 Q1797.88 1184.34 1800.01 1181.84 Q1802.17 1179.32 1802.17 1175.15 L1802.17 1174.2 L1797.93 1174.2 M1806.43 1172.44 L1806.43 1187.24 L1802.17 1187.24 L1802.17 1183.3 Q1800.71 1185.66 1798.53 1186.8 Q1796.36 1187.91 1793.21 1187.91 Q1789.23 1187.91 1786.87 1185.68 Q1784.53 1183.44 1784.53 1179.69 Q1784.53 1175.31 1787.44 1173.09 Q1790.38 1170.87 1796.19 1170.87 L1802.17 1170.87 L1802.17 1170.45 Q1802.17 1167.51 1800.22 1165.92 Q1798.3 1164.3 1794.81 1164.3 Q1792.58 1164.3 1790.48 1164.83 Q1788.37 1165.36 1786.43 1166.43 L1786.43 1162.49 Q1788.76 1161.59 1790.96 1161.15 Q1793.16 1160.68 1795.25 1160.68 Q1800.87 1160.68 1803.65 1163.6 Q1806.43 1166.52 1806.43 1172.44 Z" fill="#000000" fill-rule="nonzero" fill-opacity="1" /><path clip-path="url(#clip920)" d="M1819.41 1153.95 L1819.41 1161.31 L1828.19 1161.31 L1828.19 1164.62 L1819.41 1164.62 L1819.41 1178.69 Q1819.41 1181.86 1820.27 1182.77 Q1821.15 1183.67 1823.81 1183.67 L1828.19 1183.67 L1828.19 1187.24 L1823.81 1187.24 Q1818.88 1187.24 1817 1185.41 Q1815.13 1183.55 1815.13 1178.69 L1815.13 1164.62 L1812 1164.62 L1812 1161.31 L1815.13 1161.31 L1815.13 1153.95 L1819.41 1153.95 Z" fill="#000000" fill-rule="nonzero" fill-opacity="1" /><path clip-path="url(#clip920)" d="M1855.34 1171.59 L1855.34 1187.24 L1851.08 1187.24 L1851.08 1171.73 Q1851.08 1168.05 1849.64 1166.22 Q1848.21 1164.39 1845.34 1164.39 Q1841.89 1164.39 1839.9 1166.59 Q1837.91 1168.79 1837.91 1172.58 L1837.91 1187.24 L1833.63 1187.24 L1833.63 1151.22 L1837.91 1151.22 L1837.91 1165.34 Q1839.44 1163 1841.5 1161.84 Q1843.58 1160.68 1846.29 1160.68 Q1850.75 1160.68 1853.05 1163.46 Q1855.34 1166.22 1855.34 1171.59 Z" fill="#000000" fill-rule="nonzero" fill-opacity="1" /><path clip-path="url(#clip920)" d="M1879.09 1152.68 L1883.76 1152.68 L1883.76 1183.3 L1900.59 1183.3 L1900.59 1187.24 L1879.09 1187.24 L1879.09 1152.68 Z" fill="#000000" fill-rule="nonzero" fill-opacity="1" /><polyline clip-path="url(#clip920)" style="stroke:#ff0000; stroke-linecap:round; stroke-linejoin:round; stroke-width:12; stroke-opacity:1; fill:none" points="1593.17,1221.8 1730.86,1221.8 "/>
<path clip-path="url(#clip920)" d="M1758.49 1222.57 L1758.49 1235.23 L1765.99 1235.23 Q1769.76 1235.23 1771.57 1233.68 Q1773.39 1232.11 1773.39 1228.89 Q1773.39 1225.65 1771.57 1224.12 Q1769.76 1222.57 1765.99 1222.57 L1758.49 1222.57 M1758.49 1208.36 L1758.49 1218.77 L1765.41 1218.77 Q1768.83 1218.77 1770.5 1217.5 Q1772.19 1216.21 1772.19 1213.57 Q1772.19 1210.95 1770.5 1209.65 Q1768.83 1208.36 1765.41 1208.36 L1758.49 1208.36 M1753.81 1204.52 L1765.76 1204.52 Q1771.1 1204.52 1774 1206.74 Q1776.89 1208.96 1776.89 1213.06 Q1776.89 1216.23 1775.41 1218.1 Q1773.93 1219.98 1771.06 1220.44 Q1774.51 1221.18 1776.4 1223.54 Q1778.32 1225.88 1778.32 1229.4 Q1778.32 1234.03 1775.18 1236.55 Q1772.03 1239.08 1766.22 1239.08 L1753.81 1239.08 L1753.81 1204.52 Z" fill="#000000" fill-rule="nonzero" fill-opacity="1" /><path clip-path="url(#clip920)" d="M1797.93 1226.04 Q1792.77 1226.04 1790.78 1227.22 Q1788.79 1228.4 1788.79 1231.25 Q1788.79 1233.52 1790.27 1234.86 Q1791.77 1236.18 1794.34 1236.18 Q1797.88 1236.18 1800.01 1233.68 Q1802.17 1231.16 1802.17 1226.99 L1802.17 1226.04 L1797.93 1226.04 M1806.43 1224.28 L1806.43 1239.08 L1802.17 1239.08 L1802.17 1235.14 Q1800.71 1237.5 1798.53 1238.64 Q1796.36 1239.75 1793.21 1239.75 Q1789.23 1239.75 1786.87 1237.52 Q1784.53 1235.28 1784.53 1231.53 Q1784.53 1227.15 1787.44 1224.93 Q1790.38 1222.71 1796.19 1222.71 L1802.17 1222.71 L1802.17 1222.29 Q1802.17 1219.35 1800.22 1217.76 Q1798.3 1216.14 1794.81 1216.14 Q1792.58 1216.14 1790.48 1216.67 Q1788.37 1217.2 1786.43 1218.27 L1786.43 1214.33 Q1788.76 1213.43 1790.96 1212.99 Q1793.16 1212.52 1795.25 1212.52 Q1800.87 1212.52 1803.65 1215.44 Q1806.43 1218.36 1806.43 1224.28 Z" fill="#000000" fill-rule="nonzero" fill-opacity="1" /><path clip-path="url(#clip920)" d="M1819.41 1205.79 L1819.41 1213.15 L1828.19 1213.15 L1828.19 1216.46 L1819.41 1216.46 L1819.41 1230.53 Q1819.41 1233.7 1820.27 1234.61 Q1821.15 1235.51 1823.81 1235.51 L1828.19 1235.51 L1828.19 1239.08 L1823.81 1239.08 Q1818.88 1239.08 1817 1237.25 Q1815.13 1235.39 1815.13 1230.53 L1815.13 1216.46 L1812 1216.46 L1812 1213.15 L1815.13 1213.15 L1815.13 1205.79 L1819.41 1205.79 Z" fill="#000000" fill-rule="nonzero" fill-opacity="1" /><path clip-path="url(#clip920)" d="M1855.34 1223.43 L1855.34 1239.08 L1851.08 1239.08 L1851.08 1223.57 Q1851.08 1219.89 1849.64 1218.06 Q1848.21 1216.23 1845.34 1216.23 Q1841.89 1216.23 1839.9 1218.43 Q1837.91 1220.63 1837.91 1224.42 L1837.91 1239.08 L1833.63 1239.08 L1833.63 1203.06 L1837.91 1203.06 L1837.91 1217.18 Q1839.44 1214.84 1841.5 1213.68 Q1843.58 1212.52 1846.29 1212.52 Q1850.75 1212.52 1853.05 1215.3 Q1855.34 1218.06 1855.34 1223.43 Z" fill="#000000" fill-rule="nonzero" fill-opacity="1" /><path clip-path="url(#clip920)" d="M1895.48 1222.87 Q1896.98 1223.38 1898.39 1225.05 Q1899.83 1226.71 1901.26 1229.63 L1906.01 1239.08 L1900.99 1239.08 L1896.56 1230.21 Q1894.85 1226.74 1893.23 1225.6 Q1891.63 1224.47 1888.86 1224.47 L1883.76 1224.47 L1883.76 1239.08 L1879.09 1239.08 L1879.09 1204.52 L1889.64 1204.52 Q1895.57 1204.52 1898.49 1206.99 Q1901.4 1209.47 1901.4 1214.47 Q1901.4 1217.73 1899.87 1219.89 Q1898.37 1222.04 1895.48 1222.87 M1883.76 1208.36 L1883.76 1220.63 L1889.64 1220.63 Q1893.02 1220.63 1894.74 1219.08 Q1896.47 1217.5 1896.47 1214.47 Q1896.47 1211.44 1894.74 1209.91 Q1893.02 1208.36 1889.64 1208.36 L1883.76 1208.36 Z" fill="#000000" fill-rule="nonzero" fill-opacity="1" /><polyline clip-path="url(#clip920)" style="stroke:#0000ff; stroke-linecap:round; stroke-linejoin:round; stroke-width:12; stroke-opacity:1; fill:none" stroke-dasharray="48, 30" points="1593.17,1273.64 1730.86,1273.64 "/>
<path clip-path="url(#clip920)" d="M1758.49 1274.41 L1758.49 1287.07 L1765.99 1287.07 Q1769.76 1287.07 1771.57 1285.52 Q1773.39 1283.95 1773.39 1280.73 Q1773.39 1277.49 1771.57 1275.96 Q1769.76 1274.41 1765.99 1274.41 L1758.49 1274.41 M1758.49 1260.2 L1758.49 1270.61 L1765.41 1270.61 Q1768.83 1270.61 1770.5 1269.34 Q1772.19 1268.05 1772.19 1265.41 Q1772.19 1262.79 1770.5 1261.49 Q1768.83 1260.2 1765.41 1260.2 L1758.49 1260.2 M1753.81 1256.36 L1765.76 1256.36 Q1771.1 1256.36 1774 1258.58 Q1776.89 1260.8 1776.89 1264.9 Q1776.89 1268.07 1775.41 1269.94 Q1773.93 1271.82 1771.06 1272.28 Q1774.51 1273.02 1776.4 1275.38 Q1778.32 1277.72 1778.32 1281.24 Q1778.32 1285.87 1775.18 1288.39 Q1772.03 1290.92 1766.22 1290.92 L1753.81 1290.92 L1753.81 1256.36 Z" fill="#000000" fill-rule="nonzero" fill-opacity="1" /><path clip-path="url(#clip920)" d="M1797.93 1277.88 Q1792.77 1277.88 1790.78 1279.06 Q1788.79 1280.24 1788.79 1283.09 Q1788.79 1285.36 1790.27 1286.7 Q1791.77 1288.02 1794.34 1288.02 Q1797.88 1288.02 1800.01 1285.52 Q1802.17 1283 1802.17 1278.83 L1802.17 1277.88 L1797.93 1277.88 M1806.43 1276.12 L1806.43 1290.92 L1802.17 1290.92 L1802.17 1286.98 Q1800.71 1289.34 1798.53 1290.48 Q1796.36 1291.59 1793.21 1291.59 Q1789.23 1291.59 1786.87 1289.36 Q1784.53 1287.12 1784.53 1283.37 Q1784.53 1278.99 1787.44 1276.77 Q1790.38 1274.55 1796.19 1274.55 L1802.17 1274.55 L1802.17 1274.13 Q1802.17 1271.19 1800.22 1269.6 Q1798.3 1267.98 1794.81 1267.98 Q1792.58 1267.98 1790.48 1268.51 Q1788.37 1269.04 1786.43 1270.11 L1786.43 1266.17 Q1788.76 1265.27 1790.96 1264.83 Q1793.16 1264.36 1795.25 1264.36 Q1800.87 1264.36 1803.65 1267.28 Q1806.43 1270.2 1806.43 1276.12 Z" fill="#000000" fill-rule="nonzero" fill-opacity="1" /><path clip-path="url(#clip920)" d="M1819.41 1257.63 L1819.41 1264.99 L1828.19 1264.99 L1828.19 1268.3 L1819.41 1268.3 L1819.41 1282.37 Q1819.41 1285.54 1820.27 1286.45 Q1821.15 1287.35 1823.81 1287.35 L1828.19 1287.35 L1828.19 1290.92 L1823.81 1290.92 Q1818.88 1290.92 1817 1289.09 Q1815.13 1287.23 1815.13 1282.37 L1815.13 1268.3 L1812 1268.3 L1812 1264.99 L1815.13 1264.99 L1815.13 1257.63 L1819.41 1257.63 Z" fill="#000000" fill-rule="nonzero" fill-opacity="1" /><path clip-path="url(#clip920)" d="M1855.34 1275.27 L1855.34 1290.92 L1851.08 1290.92 L1851.08 1275.41 Q1851.08 1271.73 1849.64 1269.9 Q1848.21 1268.07 1845.34 1268.07 Q1841.89 1268.07 1839.9 1270.27 Q1837.91 1272.47 1837.91 1276.26 L1837.91 1290.92 L1833.63 1290.92 L1833.63 1254.9 L1837.91 1254.9 L1837.91 1269.02 Q1839.44 1266.68 1841.5 1265.52 Q1843.58 1264.36 1846.29 1264.36 Q1850.75 1264.36 1853.05 1267.14 Q1855.34 1269.9 1855.34 1275.27 Z" fill="#000000" fill-rule="nonzero" fill-opacity="1" /><path clip-path="url(#clip920)" d="M1879.09 1256.36 L1883.76 1256.36 L1883.76 1286.98 L1900.59 1286.98 L1900.59 1290.92 L1879.09 1290.92 L1879.09 1256.36 Z" fill="#000000" fill-rule="nonzero" fill-opacity="1" /><path clip-path="url(#clip920)" d="M1930.62 1254.94 Q1927.51 1260.27 1926.01 1265.48 Q1924.5 1270.68 1924.5 1276.03 Q1924.5 1281.38 1926.01 1286.63 Q1927.54 1291.86 1930.62 1297.17 L1926.91 1297.17 Q1923.44 1291.73 1921.7 1286.47 Q1919.99 1281.22 1919.99 1276.03 Q1919.99 1270.87 1921.7 1265.64 Q1923.42 1260.41 1926.91 1254.94 L1930.62 1254.94 Z" fill="#000000" fill-rule="nonzero" fill-opacity="1" /><path clip-path="url(#clip920)" d="M1959.78 1257.49 L1959.78 1262.05 Q1957.12 1260.78 1954.76 1260.15 Q1952.4 1259.53 1950.2 1259.53 Q1946.38 1259.53 1944.3 1261.01 Q1942.24 1262.49 1942.24 1265.22 Q1942.24 1267.51 1943.6 1268.69 Q1944.99 1269.85 1948.83 1270.57 L1951.66 1271.15 Q1956.89 1272.14 1959.37 1274.67 Q1961.87 1277.17 1961.87 1281.38 Q1961.87 1286.4 1958.49 1288.99 Q1955.13 1291.59 1948.62 1291.59 Q1946.17 1291.59 1943.39 1291.03 Q1940.64 1290.48 1937.68 1289.39 L1937.68 1284.57 Q1940.52 1286.17 1943.25 1286.98 Q1945.99 1287.79 1948.62 1287.79 Q1952.63 1287.79 1954.81 1286.22 Q1956.98 1284.64 1956.98 1281.73 Q1956.98 1279.18 1955.41 1277.74 Q1953.86 1276.31 1950.29 1275.59 L1947.44 1275.04 Q1942.21 1273.99 1939.87 1271.77 Q1937.54 1269.55 1937.54 1265.59 Q1937.54 1261.01 1940.75 1258.37 Q1943.99 1255.73 1949.67 1255.73 Q1952.1 1255.73 1954.62 1256.17 Q1957.14 1256.61 1959.78 1257.49 Z" fill="#000000" fill-rule="nonzero" fill-opacity="1" /><path clip-path="url(#clip920)" d="M1973.18 1257.63 L1973.18 1264.99 L1981.96 1264.99 L1981.96 1268.3 L1973.18 1268.3 L1973.18 1282.37 Q1973.18 1285.54 1974.04 1286.45 Q1974.92 1287.35 1977.58 1287.35 L1981.96 1287.35 L1981.96 1290.92 L1977.58 1290.92 Q1972.65 1290.92 1970.78 1289.09 Q1968.9 1287.23 1968.9 1282.37 L1968.9 1268.3 L1965.78 1268.3 L1965.78 1264.99 L1968.9 1264.99 L1968.9 1257.63 L1973.18 1257.63 Z" fill="#000000" fill-rule="nonzero" fill-opacity="1" /><path clip-path="url(#clip920)" d="M2009.74 1276.89 L2009.74 1278.97 L1990.15 1278.97 Q1990.43 1283.37 1992.79 1285.68 Q1995.18 1287.98 1999.41 1287.98 Q2001.86 1287.98 2004.16 1287.37 Q2006.47 1286.77 2008.74 1285.57 L2008.74 1289.6 Q2006.45 1290.57 2004.04 1291.08 Q2001.63 1291.59 1999.16 1291.59 Q1992.95 1291.59 1989.32 1287.98 Q1985.71 1284.36 1985.71 1278.21 Q1985.71 1271.84 1989.13 1268.11 Q1992.58 1264.36 1998.42 1264.36 Q2003.65 1264.36 2006.68 1267.74 Q2009.74 1271.1 2009.74 1276.89 M2005.48 1275.64 Q2005.43 1272.14 2003.51 1270.06 Q2001.61 1267.98 1998.46 1267.98 Q1994.9 1267.98 1992.74 1269.99 Q1990.62 1272 1990.29 1275.66 L2005.48 1275.64 Z" fill="#000000" fill-rule="nonzero" fill-opacity="1" /><path clip-path="url(#clip920)" d="M2028.51 1277.88 Q2023.35 1277.88 2021.36 1279.06 Q2019.36 1280.24 2019.36 1283.09 Q2019.36 1285.36 2020.85 1286.7 Q2022.35 1288.02 2024.92 1288.02 Q2028.46 1288.02 2030.59 1285.52 Q2032.74 1283 2032.74 1278.83 L2032.74 1277.88 L2028.51 1277.88 M2037 1276.12 L2037 1290.92 L2032.74 1290.92 L2032.74 1286.98 Q2031.29 1289.34 2029.11 1290.48 Q2026.93 1291.59 2023.79 1291.59 Q2019.8 1291.59 2017.44 1289.36 Q2015.11 1287.12 2015.11 1283.37 Q2015.11 1278.99 2018.02 1276.77 Q2020.96 1274.55 2026.77 1274.55 L2032.74 1274.55 L2032.74 1274.13 Q2032.74 1271.19 2030.8 1269.6 Q2028.88 1267.98 2025.38 1267.98 Q2023.16 1267.98 2021.05 1268.51 Q2018.95 1269.04 2017 1270.11 L2017 1266.17 Q2019.34 1265.27 2021.54 1264.83 Q2023.74 1264.36 2025.82 1264.36 Q2031.45 1264.36 2034.23 1267.28 Q2037 1270.2 2037 1276.12 Z" fill="#000000" fill-rule="nonzero" fill-opacity="1" /><path clip-path="url(#clip920)" d="M2062.84 1268.92 L2062.84 1254.9 L2067.1 1254.9 L2067.1 1290.92 L2062.84 1290.92 L2062.84 1287.03 Q2061.49 1289.34 2059.43 1290.48 Q2057.4 1291.59 2054.53 1291.59 Q2049.83 1291.59 2046.86 1287.84 Q2043.92 1284.09 2043.92 1277.98 Q2043.92 1271.86 2046.86 1268.11 Q2049.83 1264.36 2054.53 1264.36 Q2057.4 1264.36 2059.43 1265.5 Q2061.49 1266.61 2062.84 1268.92 M2048.32 1277.98 Q2048.32 1282.67 2050.24 1285.36 Q2052.19 1288.02 2055.57 1288.02 Q2058.95 1288.02 2060.89 1285.36 Q2062.84 1282.67 2062.84 1277.98 Q2062.84 1273.28 2060.89 1270.61 Q2058.95 1267.93 2055.57 1267.93 Q2052.19 1267.93 2050.24 1270.61 Q2048.32 1273.28 2048.32 1277.98 Z" fill="#000000" fill-rule="nonzero" fill-opacity="1" /><path clip-path="url(#clip920)" d="M2086.66 1293.32 Q2084.85 1297.95 2083.14 1299.36 Q2081.42 1300.78 2078.55 1300.78 L2075.15 1300.78 L2075.15 1297.21 L2077.65 1297.21 Q2079.41 1297.21 2080.38 1296.38 Q2081.36 1295.54 2082.54 1292.44 L2083.3 1290.5 L2072.81 1264.99 L2077.33 1264.99 L2085.43 1285.27 L2093.53 1264.99 L2098.05 1264.99 L2086.66 1293.32 Z" fill="#000000" fill-rule="nonzero" fill-opacity="1" /><path clip-path="url(#clip920)" d="M2139.9 1257.49 L2139.9 1262.05 Q2137.23 1260.78 2134.87 1260.15 Q2132.51 1259.53 2130.31 1259.53 Q2126.49 1259.53 2124.41 1261.01 Q2122.35 1262.49 2122.35 1265.22 Q2122.35 1267.51 2123.72 1268.69 Q2125.11 1269.85 2128.95 1270.57 L2131.77 1271.15 Q2137 1272.14 2139.48 1274.67 Q2141.98 1277.17 2141.98 1281.38 Q2141.98 1286.4 2138.6 1288.99 Q2135.24 1291.59 2128.74 1291.59 Q2126.29 1291.59 2123.51 1291.03 Q2120.75 1290.48 2117.79 1289.39 L2117.79 1284.57 Q2120.64 1286.17 2123.37 1286.98 Q2126.1 1287.79 2128.74 1287.79 Q2132.74 1287.79 2134.92 1286.22 Q2137.1 1284.64 2137.1 1281.73 Q2137.1 1279.18 2135.52 1277.74 Q2133.97 1276.31 2130.41 1275.59 L2127.56 1275.04 Q2122.33 1273.99 2119.99 1271.77 Q2117.65 1269.55 2117.65 1265.59 Q2117.65 1261.01 2120.87 1258.37 Q2124.11 1255.73 2129.78 1255.73 Q2132.21 1255.73 2134.73 1256.17 Q2137.26 1256.61 2139.9 1257.49 Z" fill="#000000" fill-rule="nonzero" fill-opacity="1" /><path clip-path="url(#clip920)" d="M2153.3 1257.63 L2153.3 1264.99 L2162.07 1264.99 L2162.07 1268.3 L2153.3 1268.3 L2153.3 1282.37 Q2153.3 1285.54 2154.16 1286.45 Q2155.04 1287.35 2157.7 1287.35 L2162.07 1287.35 L2162.07 1290.92 L2157.7 1290.92 Q2152.77 1290.92 2150.89 1289.09 Q2149.02 1287.23 2149.02 1282.37 L2149.02 1268.3 L2145.89 1268.3 L2145.89 1264.99 L2149.02 1264.99 L2149.02 1257.63 L2153.3 1257.63 Z" fill="#000000" fill-rule="nonzero" fill-opacity="1" /><path clip-path="url(#clip920)" d="M2179.46 1277.88 Q2174.29 1277.88 2172.3 1279.06 Q2170.31 1280.24 2170.31 1283.09 Q2170.31 1285.36 2171.79 1286.7 Q2173.3 1288.02 2175.87 1288.02 Q2179.41 1288.02 2181.54 1285.52 Q2183.69 1283 2183.69 1278.83 L2183.69 1277.88 L2179.46 1277.88 M2187.95 1276.12 L2187.95 1290.92 L2183.69 1290.92 L2183.69 1286.98 Q2182.23 1289.34 2180.06 1290.48 Q2177.88 1291.59 2174.73 1291.59 Q2170.75 1291.59 2168.39 1289.36 Q2166.05 1287.12 2166.05 1283.37 Q2166.05 1278.99 2168.97 1276.77 Q2171.91 1274.55 2177.72 1274.55 L2183.69 1274.55 L2183.69 1274.13 Q2183.69 1271.19 2181.75 1269.6 Q2179.83 1267.98 2176.33 1267.98 Q2174.11 1267.98 2172 1268.51 Q2169.9 1269.04 2167.95 1270.11 L2167.95 1266.17 Q2170.29 1265.27 2172.49 1264.83 Q2174.69 1264.36 2176.77 1264.36 Q2182.4 1264.36 2185.17 1267.28 Q2187.95 1270.2 2187.95 1276.12 Z" fill="#000000" fill-rule="nonzero" fill-opacity="1" /><path clip-path="url(#clip920)" d="M2200.94 1257.63 L2200.94 1264.99 L2209.71 1264.99 L2209.71 1268.3 L2200.94 1268.3 L2200.94 1282.37 Q2200.94 1285.54 2201.79 1286.45 Q2202.67 1287.35 2205.34 1287.35 L2209.71 1287.35 L2209.71 1290.92 L2205.34 1290.92 Q2200.41 1290.92 2198.53 1289.09 Q2196.66 1287.23 2196.66 1282.37 L2196.66 1268.3 L2193.53 1268.3 L2193.53 1264.99 L2196.66 1264.99 L2196.66 1257.63 L2200.94 1257.63 Z" fill="#000000" fill-rule="nonzero" fill-opacity="1" /><path clip-path="url(#clip920)" d="M2237.49 1276.89 L2237.49 1278.97 L2217.91 1278.97 Q2218.18 1283.37 2220.54 1285.68 Q2222.93 1287.98 2227.16 1287.98 Q2229.62 1287.98 2231.91 1287.37 Q2234.22 1286.77 2236.49 1285.57 L2236.49 1289.6 Q2234.2 1290.57 2231.79 1291.08 Q2229.39 1291.59 2226.91 1291.59 Q2220.71 1291.59 2217.07 1287.98 Q2213.46 1284.36 2213.46 1278.21 Q2213.46 1271.84 2216.89 1268.11 Q2220.34 1264.36 2226.17 1264.36 Q2231.4 1264.36 2234.43 1267.74 Q2237.49 1271.1 2237.49 1276.89 M2233.23 1275.64 Q2233.18 1272.14 2231.26 1270.06 Q2229.36 1267.98 2226.22 1267.98 Q2222.65 1267.98 2220.5 1269.99 Q2218.37 1272 2218.04 1275.66 L2233.23 1275.64 Z" fill="#000000" fill-rule="nonzero" fill-opacity="1" /><path clip-path="url(#clip920)" d="M2243.81 1254.94 L2247.51 1254.94 Q2250.98 1260.41 2252.7 1265.64 Q2254.43 1270.87 2254.43 1276.03 Q2254.43 1281.22 2252.7 1286.47 Q2250.98 1291.73 2247.51 1297.17 L2243.81 1297.17 Q2246.89 1291.86 2248.39 1286.63 Q2249.92 1281.38 2249.92 1276.03 Q2249.92 1270.68 2248.39 1265.48 Q2246.89 1260.27 2243.81 1254.94 Z" fill="#000000" fill-rule="nonzero" fill-opacity="1" /><polyline clip-path="url(#clip920)" style="stroke:#ff0000; stroke-linecap:round; stroke-linejoin:round; stroke-width:12; stroke-opacity:1; fill:none" stroke-dasharray="48, 30" points="1593.17,1325.48 1730.86,1325.48 "/>
<path clip-path="url(#clip920)" d="M1758.49 1326.25 L1758.49 1338.91 L1765.99 1338.91 Q1769.76 1338.91 1771.57 1337.36 Q1773.39 1335.79 1773.39 1332.57 Q1773.39 1329.33 1771.57 1327.8 Q1769.76 1326.25 1765.99 1326.25 L1758.49 1326.25 M1758.49 1312.04 L1758.49 1322.45 L1765.41 1322.45 Q1768.83 1322.45 1770.5 1321.18 Q1772.19 1319.89 1772.19 1317.25 Q1772.19 1314.63 1770.5 1313.33 Q1768.83 1312.04 1765.41 1312.04 L1758.49 1312.04 M1753.81 1308.2 L1765.76 1308.2 Q1771.1 1308.2 1774 1310.42 Q1776.89 1312.64 1776.89 1316.74 Q1776.89 1319.91 1775.41 1321.78 Q1773.93 1323.66 1771.06 1324.12 Q1774.51 1324.86 1776.4 1327.22 Q1778.32 1329.56 1778.32 1333.08 Q1778.32 1337.71 1775.18 1340.23 Q1772.03 1342.76 1766.22 1342.76 L1753.81 1342.76 L1753.81 1308.2 Z" fill="#000000" fill-rule="nonzero" fill-opacity="1" /><path clip-path="url(#clip920)" d="M1797.93 1329.72 Q1792.77 1329.72 1790.78 1330.9 Q1788.79 1332.08 1788.79 1334.93 Q1788.79 1337.2 1790.27 1338.54 Q1791.77 1339.86 1794.34 1339.86 Q1797.88 1339.86 1800.01 1337.36 Q1802.17 1334.84 1802.17 1330.67 L1802.17 1329.72 L1797.93 1329.72 M1806.43 1327.96 L1806.43 1342.76 L1802.17 1342.76 L1802.17 1338.82 Q1800.71 1341.18 1798.53 1342.32 Q1796.36 1343.43 1793.21 1343.43 Q1789.23 1343.43 1786.87 1341.2 Q1784.53 1338.96 1784.53 1335.21 Q1784.53 1330.83 1787.44 1328.61 Q1790.38 1326.39 1796.19 1326.39 L1802.17 1326.39 L1802.17 1325.97 Q1802.17 1323.03 1800.22 1321.44 Q1798.3 1319.82 1794.81 1319.82 Q1792.58 1319.82 1790.48 1320.35 Q1788.37 1320.88 1786.43 1321.95 L1786.43 1318.01 Q1788.76 1317.11 1790.96 1316.67 Q1793.16 1316.2 1795.25 1316.2 Q1800.87 1316.2 1803.65 1319.12 Q1806.43 1322.04 1806.43 1327.96 Z" fill="#000000" fill-rule="nonzero" fill-opacity="1" /><path clip-path="url(#clip920)" d="M1819.41 1309.47 L1819.41 1316.83 L1828.19 1316.83 L1828.19 1320.14 L1819.41 1320.14 L1819.41 1334.21 Q1819.41 1337.38 1820.27 1338.29 Q1821.15 1339.19 1823.81 1339.19 L1828.19 1339.19 L1828.19 1342.76 L1823.81 1342.76 Q1818.88 1342.76 1817 1340.93 Q1815.13 1339.07 1815.13 1334.21 L1815.13 1320.14 L1812 1320.14 L1812 1316.83 L1815.13 1316.83 L1815.13 1309.47 L1819.41 1309.47 Z" fill="#000000" fill-rule="nonzero" fill-opacity="1" /><path clip-path="url(#clip920)" d="M1855.34 1327.11 L1855.34 1342.76 L1851.08 1342.76 L1851.08 1327.25 Q1851.08 1323.57 1849.64 1321.74 Q1848.21 1319.91 1845.34 1319.91 Q1841.89 1319.91 1839.9 1322.11 Q1837.91 1324.31 1837.91 1328.1 L1837.91 1342.76 L1833.63 1342.76 L1833.63 1306.74 L1837.91 1306.74 L1837.91 1320.86 Q1839.44 1318.52 1841.5 1317.36 Q1843.58 1316.2 1846.29 1316.2 Q1850.75 1316.2 1853.05 1318.98 Q1855.34 1321.74 1855.34 1327.11 Z" fill="#000000" fill-rule="nonzero" fill-opacity="1" /><path clip-path="url(#clip920)" d="M1895.48 1326.55 Q1896.98 1327.06 1898.39 1328.73 Q1899.83 1330.39 1901.26 1333.31 L1906.01 1342.76 L1900.99 1342.76 L1896.56 1333.89 Q1894.85 1330.42 1893.23 1329.28 Q1891.63 1328.15 1888.86 1328.15 L1883.76 1328.15 L1883.76 1342.76 L1879.09 1342.76 L1879.09 1308.2 L1889.64 1308.2 Q1895.57 1308.2 1898.49 1310.67 Q1901.4 1313.15 1901.4 1318.15 Q1901.4 1321.41 1899.87 1323.57 Q1898.37 1325.72 1895.48 1326.55 M1883.76 1312.04 L1883.76 1324.31 L1889.64 1324.31 Q1893.02 1324.31 1894.74 1322.76 Q1896.47 1321.18 1896.47 1318.15 Q1896.47 1315.12 1894.74 1313.59 Q1893.02 1312.04 1889.64 1312.04 L1883.76 1312.04 Z" fill="#000000" fill-rule="nonzero" fill-opacity="1" /><path clip-path="url(#clip920)" d="M1937.14 1306.78 Q1934.04 1312.11 1932.54 1317.32 Q1931.03 1322.52 1931.03 1327.87 Q1931.03 1333.22 1932.54 1338.47 Q1934.06 1343.7 1937.14 1349.01 L1933.44 1349.01 Q1929.97 1343.57 1928.23 1338.31 Q1926.52 1333.06 1926.52 1327.87 Q1926.52 1322.71 1928.23 1317.48 Q1929.94 1312.25 1933.44 1306.78 L1937.14 1306.78 Z" fill="#000000" fill-rule="nonzero" fill-opacity="1" /><path clip-path="url(#clip920)" d="M1966.31 1309.33 L1966.31 1313.89 Q1963.65 1312.62 1961.29 1311.99 Q1958.93 1311.37 1956.73 1311.37 Q1952.91 1311.37 1950.82 1312.85 Q1948.76 1314.33 1948.76 1317.06 Q1948.76 1319.35 1950.13 1320.53 Q1951.52 1321.69 1955.36 1322.41 L1958.18 1322.99 Q1963.42 1323.98 1965.89 1326.51 Q1968.39 1329.01 1968.39 1333.22 Q1968.39 1338.24 1965.01 1340.83 Q1961.66 1343.43 1955.15 1343.43 Q1952.7 1343.43 1949.92 1342.87 Q1947.17 1342.32 1944.2 1341.23 L1944.2 1336.41 Q1947.05 1338.01 1949.78 1338.82 Q1952.51 1339.63 1955.15 1339.63 Q1959.16 1339.63 1961.33 1338.06 Q1963.51 1336.48 1963.51 1333.57 Q1963.51 1331.02 1961.93 1329.58 Q1960.38 1328.15 1956.82 1327.43 L1953.97 1326.88 Q1948.74 1325.83 1946.4 1323.61 Q1944.06 1321.39 1944.06 1317.43 Q1944.06 1312.85 1947.28 1310.21 Q1950.52 1307.57 1956.19 1307.57 Q1958.62 1307.57 1961.15 1308.01 Q1963.67 1308.45 1966.31 1309.33 Z" fill="#000000" fill-rule="nonzero" fill-opacity="1" /><path clip-path="url(#clip920)" d="M1979.71 1309.47 L1979.71 1316.83 L1988.49 1316.83 L1988.49 1320.14 L1979.71 1320.14 L1979.71 1334.21 Q1979.71 1337.38 1980.57 1338.29 Q1981.45 1339.19 1984.11 1339.19 L1988.49 1339.19 L1988.49 1342.76 L1984.11 1342.76 Q1979.18 1342.76 1977.3 1340.93 Q1975.43 1339.07 1975.43 1334.21 L1975.43 1320.14 L1972.3 1320.14 L1972.3 1316.83 L1975.43 1316.83 L1975.43 1309.47 L1979.71 1309.47 Z" fill="#000000" fill-rule="nonzero" fill-opacity="1" /><path clip-path="url(#clip920)" d="M2016.26 1328.73 L2016.26 1330.81 L1996.68 1330.81 Q1996.96 1335.21 1999.32 1337.52 Q2001.7 1339.82 2005.94 1339.82 Q2008.39 1339.82 2010.68 1339.21 Q2013 1338.61 2015.27 1337.41 L2015.27 1341.44 Q2012.98 1342.41 2010.57 1342.92 Q2008.16 1343.43 2005.68 1343.43 Q1999.48 1343.43 1995.85 1339.82 Q1992.24 1336.2 1992.24 1330.05 Q1992.24 1323.68 1995.66 1319.95 Q1999.11 1316.2 2004.94 1316.2 Q2010.18 1316.2 2013.21 1319.58 Q2016.26 1322.94 2016.26 1328.73 M2012 1327.48 Q2011.96 1323.98 2010.04 1321.9 Q2008.14 1319.82 2004.99 1319.82 Q2001.43 1319.82 1999.27 1321.83 Q1997.14 1323.84 1996.82 1327.5 L2012 1327.48 Z" fill="#000000" fill-rule="nonzero" fill-opacity="1" /><path clip-path="url(#clip920)" d="M2035.04 1329.72 Q2029.87 1329.72 2027.88 1330.9 Q2025.89 1332.08 2025.89 1334.93 Q2025.89 1337.2 2027.37 1338.54 Q2028.88 1339.86 2031.45 1339.86 Q2034.99 1339.86 2037.12 1337.36 Q2039.27 1334.84 2039.27 1330.67 L2039.27 1329.72 L2035.04 1329.72 M2043.53 1327.96 L2043.53 1342.76 L2039.27 1342.76 L2039.27 1338.82 Q2037.81 1341.18 2035.64 1342.32 Q2033.46 1343.43 2030.31 1343.43 Q2026.33 1343.43 2023.97 1341.2 Q2021.63 1338.96 2021.63 1335.21 Q2021.63 1330.83 2024.55 1328.61 Q2027.49 1326.39 2033.3 1326.39 L2039.27 1326.39 L2039.27 1325.97 Q2039.27 1323.03 2037.33 1321.44 Q2035.41 1319.82 2031.91 1319.82 Q2029.69 1319.82 2027.58 1320.35 Q2025.48 1320.88 2023.53 1321.95 L2023.53 1318.01 Q2025.87 1317.11 2028.07 1316.67 Q2030.27 1316.2 2032.35 1316.2 Q2037.98 1316.2 2040.75 1319.12 Q2043.53 1322.04 2043.53 1327.96 Z" fill="#000000" fill-rule="nonzero" fill-opacity="1" /><path clip-path="url(#clip920)" d="M2069.36 1320.76 L2069.36 1306.74 L2073.62 1306.74 L2073.62 1342.76 L2069.36 1342.76 L2069.36 1338.87 Q2068.02 1341.18 2065.96 1342.32 Q2063.92 1343.43 2061.05 1343.43 Q2056.36 1343.43 2053.39 1339.68 Q2050.45 1335.93 2050.45 1329.82 Q2050.45 1323.7 2053.39 1319.95 Q2056.36 1316.2 2061.05 1316.2 Q2063.92 1316.2 2065.96 1317.34 Q2068.02 1318.45 2069.36 1320.76 M2054.85 1329.82 Q2054.85 1334.51 2056.77 1337.2 Q2058.72 1339.86 2062.1 1339.86 Q2065.48 1339.86 2067.42 1337.2 Q2069.36 1334.51 2069.36 1329.82 Q2069.36 1325.12 2067.42 1322.45 Q2065.48 1319.77 2062.1 1319.77 Q2058.72 1319.77 2056.77 1322.45 Q2054.85 1325.12 2054.85 1329.82 Z" fill="#000000" fill-rule="nonzero" fill-opacity="1" /><path clip-path="url(#clip920)" d="M2093.18 1345.16 Q2091.38 1349.79 2089.67 1351.2 Q2087.95 1352.62 2085.08 1352.62 L2081.68 1352.62 L2081.68 1349.05 L2084.18 1349.05 Q2085.94 1349.05 2086.91 1348.22 Q2087.88 1347.38 2089.06 1344.28 L2089.83 1342.34 L2079.34 1316.83 L2083.86 1316.83 L2091.96 1337.11 L2100.06 1316.83 L2104.57 1316.83 L2093.18 1345.16 Z" fill="#000000" fill-rule="nonzero" fill-opacity="1" /><path clip-path="url(#clip920)" d="M2146.42 1309.33 L2146.42 1313.89 Q2143.76 1312.62 2141.4 1311.99 Q2139.04 1311.37 2136.84 1311.37 Q2133.02 1311.37 2130.94 1312.85 Q2128.88 1314.33 2128.88 1317.06 Q2128.88 1319.35 2130.24 1320.53 Q2131.63 1321.69 2135.48 1322.41 L2138.3 1322.99 Q2143.53 1323.98 2146.01 1326.51 Q2148.51 1329.01 2148.51 1333.22 Q2148.51 1338.24 2145.13 1340.83 Q2141.77 1343.43 2135.27 1343.43 Q2132.81 1343.43 2130.04 1342.87 Q2127.28 1342.32 2124.32 1341.23 L2124.32 1336.41 Q2127.17 1338.01 2129.9 1338.82 Q2132.63 1339.63 2135.27 1339.63 Q2139.27 1339.63 2141.45 1338.06 Q2143.62 1336.48 2143.62 1333.57 Q2143.62 1331.02 2142.05 1329.58 Q2140.5 1328.15 2136.93 1327.43 L2134.09 1326.88 Q2128.86 1325.83 2126.52 1323.61 Q2124.18 1321.39 2124.18 1317.43 Q2124.18 1312.85 2127.4 1310.21 Q2130.64 1307.57 2136.31 1307.57 Q2138.74 1307.57 2141.26 1308.01 Q2143.79 1308.45 2146.42 1309.33 Z" fill="#000000" fill-rule="nonzero" fill-opacity="1" /><path clip-path="url(#clip920)" d="M2159.83 1309.47 L2159.83 1316.83 L2168.6 1316.83 L2168.6 1320.14 L2159.83 1320.14 L2159.83 1334.21 Q2159.83 1337.38 2160.68 1338.29 Q2161.56 1339.19 2164.23 1339.19 L2168.6 1339.19 L2168.6 1342.76 L2164.23 1342.76 Q2159.29 1342.76 2157.42 1340.93 Q2155.54 1339.07 2155.54 1334.21 L2155.54 1320.14 L2152.42 1320.14 L2152.42 1316.83 L2155.54 1316.83 L2155.54 1309.47 L2159.83 1309.47 Z" fill="#000000" fill-rule="nonzero" fill-opacity="1" /><path clip-path="url(#clip920)" d="M2185.98 1329.72 Q2180.82 1329.72 2178.83 1330.9 Q2176.84 1332.08 2176.84 1334.93 Q2176.84 1337.2 2178.32 1338.54 Q2179.83 1339.86 2182.4 1339.86 Q2185.94 1339.86 2188.07 1337.36 Q2190.22 1334.84 2190.22 1330.67 L2190.22 1329.72 L2185.98 1329.72 M2194.48 1327.96 L2194.48 1342.76 L2190.22 1342.76 L2190.22 1338.82 Q2188.76 1341.18 2186.59 1342.32 Q2184.41 1343.43 2181.26 1343.43 Q2177.28 1343.43 2174.92 1341.2 Q2172.58 1338.96 2172.58 1335.21 Q2172.58 1330.83 2175.5 1328.61 Q2178.44 1326.39 2184.25 1326.39 L2190.22 1326.39 L2190.22 1325.97 Q2190.22 1323.03 2188.28 1321.44 Q2186.35 1319.82 2182.86 1319.82 Q2180.64 1319.82 2178.53 1320.35 Q2176.42 1320.88 2174.48 1321.95 L2174.48 1318.01 Q2176.82 1317.11 2179.02 1316.67 Q2181.22 1316.2 2183.3 1316.2 Q2188.92 1316.2 2191.7 1319.12 Q2194.48 1322.04 2194.48 1327.96 Z" fill="#000000" fill-rule="nonzero" fill-opacity="1" /><path clip-path="url(#clip920)" d="M2207.47 1309.47 L2207.47 1316.83 L2216.24 1316.83 L2216.24 1320.14 L2207.47 1320.14 L2207.47 1334.21 Q2207.47 1337.38 2208.32 1338.29 Q2209.2 1339.19 2211.86 1339.19 L2216.24 1339.19 L2216.24 1342.76 L2211.86 1342.76 Q2206.93 1342.76 2205.06 1340.93 Q2203.18 1339.07 2203.18 1334.21 L2203.18 1320.14 L2200.06 1320.14 L2200.06 1316.83 L2203.18 1316.83 L2203.18 1309.47 L2207.47 1309.47 Z" fill="#000000" fill-rule="nonzero" fill-opacity="1" /><path clip-path="url(#clip920)" d="M2244.02 1328.73 L2244.02 1330.81 L2224.43 1330.81 Q2224.71 1335.21 2227.07 1337.52 Q2229.46 1339.82 2233.69 1339.82 Q2236.15 1339.82 2238.44 1339.21 Q2240.75 1338.61 2243.02 1337.41 L2243.02 1341.44 Q2240.73 1342.41 2238.32 1342.92 Q2235.91 1343.43 2233.44 1343.43 Q2227.23 1343.43 2223.6 1339.82 Q2219.99 1336.2 2219.99 1330.05 Q2219.99 1323.68 2223.41 1319.95 Q2226.86 1316.2 2232.7 1316.2 Q2237.93 1316.2 2240.96 1319.58 Q2244.02 1322.94 2244.02 1328.73 M2239.76 1327.48 Q2239.71 1323.98 2237.79 1321.9 Q2235.89 1319.82 2232.74 1319.82 Q2229.18 1319.82 2227.03 1321.83 Q2224.9 1323.84 2224.57 1327.5 L2239.76 1327.48 Z" fill="#000000" fill-rule="nonzero" fill-opacity="1" /><path clip-path="url(#clip920)" d="M2250.34 1306.78 L2254.04 1306.78 Q2257.51 1312.25 2259.22 1317.48 Q2260.96 1322.71 2260.96 1327.87 Q2260.96 1333.06 2259.22 1338.31 Q2257.51 1343.57 2254.04 1349.01 L2250.34 1349.01 Q2253.41 1343.7 2254.92 1338.47 Q2256.45 1333.22 2256.45 1327.87 Q2256.45 1322.52 2254.92 1317.32 Q2253.41 1312.11 2250.34 1306.78 Z" fill="#000000" fill-rule="nonzero" fill-opacity="1" /></svg>
