<?xml version="1.0" encoding="utf-8"?>
<svg xmlns="http://www.w3.org/2000/svg" xmlns:xlink="http://www.w3.org/1999/xlink" width="600" height="400" viewBox="0 0 2400 1600">
<defs>
  <clipPath id="clip650">
    <rect x="0" y="0" width="2400" height="1600"/>
  </clipPath>
</defs>
<path clip-path="url(#clip650)" d="M0 1600 L2400 1600 L2400 0 L0 0  Z" fill="#ffffff" fill-rule="evenodd" fill-opacity="1"/>
<defs>
  <clipPath id="clip651">
    <rect x="480" y="0" width="1681" height="1600"/>
  </clipPath>
</defs>
<path clip-path="url(#clip650)" d="M249.542 1423.18 L2352.76 1423.18 L2352.76 47.2441 L249.542 47.2441  Z" fill="#ffffff" fill-rule="evenodd" fill-opacity="1"/>
<defs>
  <clipPath id="clip652">
    <rect x="249" y="47" width="2104" height="1377"/>
  </clipPath>
</defs>
<polyline clip-path="url(#clip650)" style="stroke:#000000; stroke-linecap:round; stroke-linejoin:round; stroke-width:4; stroke-opacity:1; fill:none" points="249.542,1423.18 2352.76,1423.18 "/>
<polyline clip-path="url(#clip650)" style="stroke:#000000; stroke-linecap:round; stroke-linejoin:round; stroke-width:4; stroke-opacity:1; fill:none" points="309.067,1423.18 309.067,1404.28 "/>
<polyline clip-path="url(#clip650)" style="stroke:#000000; stroke-linecap:round; stroke-linejoin:round; stroke-width:4; stroke-opacity:1; fill:none" points="805.108,1423.18 805.108,1404.28 "/>
<polyline clip-path="url(#clip650)" style="stroke:#000000; stroke-linecap:round; stroke-linejoin:round; stroke-width:4; stroke-opacity:1; fill:none" points="1301.15,1423.18 1301.15,1404.28 "/>
<polyline clip-path="url(#clip650)" style="stroke:#000000; stroke-linecap:round; stroke-linejoin:round; stroke-width:4; stroke-opacity:1; fill:none" points="1797.19,1423.18 1797.19,1404.28 "/>
<polyline clip-path="url(#clip650)" style="stroke:#000000; stroke-linecap:round; stroke-linejoin:round; stroke-width:4; stroke-opacity:1; fill:none" points="2293.23,1423.18 2293.23,1404.28 "/>
<path clip-path="url(#clip650)" d="M309.067 1454.1 Q305.456 1454.1 303.627 1457.66 Q301.822 1461.2 301.822 1468.33 Q301.822 1475.44 303.627 1479.01 Q305.456 1482.55 309.067 1482.55 Q312.701 1482.55 314.507 1479.01 Q316.335 1475.44 316.335 1468.33 Q316.335 1461.2 314.507 1457.66 Q312.701 1454.1 309.067 1454.1 M309.067 1450.39 Q314.877 1450.39 317.933 1455 Q321.011 1459.58 321.011 1468.33 Q321.011 1477.06 317.933 1481.67 Q314.877 1486.25 309.067 1486.25 Q303.257 1486.25 300.178 1481.67 Q297.123 1477.06 297.123 1468.33 Q297.123 1459.58 300.178 1455 Q303.257 1450.39 309.067 1450.39 Z" fill="#000000" fill-rule="nonzero" fill-opacity="1" /><path clip-path="url(#clip650)" d="M784.379 1481.64 L800.698 1481.64 L800.698 1485.58 L778.754 1485.58 L778.754 1481.64 Q781.416 1478.89 785.999 1474.26 Q790.606 1469.61 791.786 1468.27 Q794.032 1465.74 794.911 1464.01 Q795.814 1462.25 795.814 1460.56 Q795.814 1457.8 793.87 1456.07 Q791.948 1454.33 788.846 1454.33 Q786.647 1454.33 784.194 1455.09 Q781.763 1455.86 778.985 1457.41 L778.985 1452.69 Q781.809 1451.55 784.263 1450.97 Q786.717 1450.39 788.754 1450.39 Q794.124 1450.39 797.319 1453.08 Q800.513 1455.77 800.513 1460.26 Q800.513 1462.39 799.703 1464.31 Q798.916 1466.2 796.809 1468.8 Q796.231 1469.47 793.129 1472.69 Q790.027 1475.88 784.379 1481.64 Z" fill="#000000" fill-rule="nonzero" fill-opacity="1" /><path clip-path="url(#clip650)" d="M810.559 1451.02 L828.916 1451.02 L828.916 1454.96 L814.842 1454.96 L814.842 1463.43 Q815.86 1463.08 816.879 1462.92 Q817.897 1462.73 818.916 1462.73 Q824.703 1462.73 828.082 1465.9 Q831.462 1469.08 831.462 1474.49 Q831.462 1480.07 827.99 1483.17 Q824.518 1486.25 818.198 1486.25 Q816.022 1486.25 813.754 1485.88 Q811.508 1485.51 809.101 1484.77 L809.101 1480.07 Q811.184 1481.2 813.407 1481.76 Q815.629 1482.32 818.106 1482.32 Q822.11 1482.32 824.448 1480.21 Q826.786 1478.1 826.786 1474.49 Q826.786 1470.88 824.448 1468.77 Q822.11 1466.67 818.106 1466.67 Q816.231 1466.67 814.356 1467.08 Q812.504 1467.5 810.559 1468.38 L810.559 1451.02 Z" fill="#000000" fill-rule="nonzero" fill-opacity="1" /><path clip-path="url(#clip650)" d="M1275.85 1451.02 L1294.2 1451.02 L1294.2 1454.96 L1280.13 1454.96 L1280.13 1463.43 Q1281.15 1463.08 1282.17 1462.92 Q1283.19 1462.73 1284.2 1462.73 Q1289.99 1462.73 1293.37 1465.9 Q1296.75 1469.08 1296.75 1474.49 Q1296.75 1480.07 1293.28 1483.17 Q1289.81 1486.25 1283.49 1486.25 Q1281.31 1486.25 1279.04 1485.88 Q1276.8 1485.51 1274.39 1484.77 L1274.39 1480.07 Q1276.47 1481.2 1278.7 1481.76 Q1280.92 1482.32 1283.39 1482.32 Q1287.4 1482.32 1289.74 1480.21 Q1292.07 1478.1 1292.07 1474.49 Q1292.07 1470.88 1289.74 1468.77 Q1287.4 1466.67 1283.39 1466.67 Q1281.52 1466.67 1279.64 1467.08 Q1277.79 1467.5 1275.85 1468.38 L1275.85 1451.02 Z" fill="#000000" fill-rule="nonzero" fill-opacity="1" /><path clip-path="url(#clip650)" d="M1315.96 1454.1 Q1312.35 1454.1 1310.52 1457.66 Q1308.72 1461.2 1308.72 1468.33 Q1308.72 1475.44 1310.52 1479.01 Q1312.35 1482.55 1315.96 1482.55 Q1319.6 1482.55 1321.4 1479.01 Q1323.23 1475.44 1323.23 1468.33 Q1323.23 1461.2 1321.4 1457.66 Q1319.6 1454.1 1315.96 1454.1 M1315.96 1450.39 Q1321.77 1450.39 1324.83 1455 Q1327.91 1459.58 1327.91 1468.33 Q1327.91 1477.06 1324.83 1481.67 Q1321.77 1486.25 1315.96 1486.25 Q1310.15 1486.25 1307.07 1481.67 Q1304.02 1477.06 1304.02 1468.33 Q1304.02 1459.58 1307.07 1455 Q1310.15 1450.39 1315.96 1450.39 Z" fill="#000000" fill-rule="nonzero" fill-opacity="1" /><path clip-path="url(#clip650)" d="M1771.04 1451.02 L1793.27 1451.02 L1793.27 1453.01 L1780.72 1485.58 L1775.84 1485.58 L1787.64 1454.96 L1771.04 1454.96 L1771.04 1451.02 Z" fill="#000000" fill-rule="nonzero" fill-opacity="1" /><path clip-path="url(#clip650)" d="M1802.43 1451.02 L1820.79 1451.02 L1820.79 1454.96 L1806.72 1454.96 L1806.72 1463.43 Q1807.73 1463.08 1808.75 1462.92 Q1809.77 1462.73 1810.79 1462.73 Q1816.58 1462.73 1819.96 1465.9 Q1823.34 1469.08 1823.34 1474.49 Q1823.34 1480.07 1819.86 1483.17 Q1816.39 1486.25 1810.07 1486.25 Q1807.9 1486.25 1805.63 1485.88 Q1803.38 1485.51 1800.97 1484.77 L1800.97 1480.07 Q1803.06 1481.2 1805.28 1481.76 Q1807.5 1482.32 1809.98 1482.32 Q1813.98 1482.32 1816.32 1480.21 Q1818.66 1478.1 1818.66 1474.49 Q1818.66 1470.88 1816.32 1468.77 Q1813.98 1466.67 1809.98 1466.67 Q1808.1 1466.67 1806.23 1467.08 Q1804.38 1467.5 1802.43 1468.38 L1802.43 1451.02 Z" fill="#000000" fill-rule="nonzero" fill-opacity="1" /><path clip-path="url(#clip650)" d="M2252.84 1481.64 L2260.48 1481.64 L2260.48 1455.28 L2252.17 1456.95 L2252.17 1452.69 L2260.43 1451.02 L2265.11 1451.02 L2265.11 1481.64 L2272.74 1481.64 L2272.74 1485.58 L2252.84 1485.58 L2252.84 1481.64 Z" fill="#000000" fill-rule="nonzero" fill-opacity="1" /><path clip-path="url(#clip650)" d="M2292.19 1454.1 Q2288.58 1454.1 2286.75 1457.66 Q2284.94 1461.2 2284.94 1468.33 Q2284.94 1475.44 2286.75 1479.01 Q2288.58 1482.55 2292.19 1482.55 Q2295.82 1482.55 2297.63 1479.01 Q2299.46 1475.44 2299.46 1468.33 Q2299.46 1461.2 2297.63 1457.66 Q2295.82 1454.1 2292.19 1454.1 M2292.19 1450.39 Q2298 1450.39 2301.06 1455 Q2304.13 1459.58 2304.13 1468.33 Q2304.13 1477.06 2301.06 1481.67 Q2298 1486.25 2292.19 1486.25 Q2286.38 1486.25 2283.3 1481.67 Q2280.24 1477.06 2280.24 1468.33 Q2280.24 1459.58 2283.3 1455 Q2286.38 1450.39 2292.19 1450.39 Z" fill="#000000" fill-rule="nonzero" fill-opacity="1" /><path clip-path="url(#clip650)" d="M2322.35 1454.1 Q2318.74 1454.1 2316.91 1457.66 Q2315.11 1461.2 2315.11 1468.33 Q2315.11 1475.44 2316.91 1479.01 Q2318.74 1482.55 2322.35 1482.55 Q2325.99 1482.55 2327.79 1479.01 Q2329.62 1475.44 2329.62 1468.33 Q2329.62 1461.2 2327.79 1457.66 Q2325.99 1454.1 2322.35 1454.1 M2322.35 1450.39 Q2328.16 1450.39 2331.22 1455 Q2334.3 1459.58 2334.3 1468.33 Q2334.3 1477.06 2331.22 1481.67 Q2328.16 1486.25 2322.35 1486.25 Q2316.54 1486.25 2313.46 1481.67 Q2310.41 1477.06 2310.41 1468.33 Q2310.41 1459.58 2313.46 1455 Q2316.54 1450.39 2322.35 1450.39 Z" fill="#000000" fill-rule="nonzero" fill-opacity="1" /><path clip-path="url(#clip650)" d="M1240.31 1522.27 L1240.31 1532.4 L1252.37 1532.4 L1252.37 1536.95 L1240.31 1536.95 L1240.31 1556.3 Q1240.31 1560.66 1241.49 1561.9 Q1242.7 1563.14 1246.36 1563.14 L1252.37 1563.14 L1252.37 1568.04 L1246.36 1568.04 Q1239.58 1568.04 1237 1565.53 Q1234.42 1562.98 1234.42 1556.3 L1234.42 1536.95 L1230.12 1536.95 L1230.12 1532.4 L1234.42 1532.4 L1234.42 1522.27 L1240.31 1522.27 Z" fill="#000000" fill-rule="nonzero" fill-opacity="1" /><path clip-path="url(#clip650)" d="M1260.07 1532.4 L1265.93 1532.4 L1265.93 1568.04 L1260.07 1568.04 L1260.07 1532.4 M1260.07 1518.52 L1265.93 1518.52 L1265.93 1525.93 L1260.07 1525.93 L1260.07 1518.52 Z" fill="#000000" fill-rule="nonzero" fill-opacity="1" /><path clip-path="url(#clip650)" d="M1305.94 1539.24 Q1308.14 1535.29 1311.19 1533.41 Q1314.25 1531.54 1318.38 1531.54 Q1323.95 1531.54 1326.98 1535.45 Q1330 1539.33 1330 1546.53 L1330 1568.04 L1324.11 1568.04 L1324.11 1546.72 Q1324.11 1541.59 1322.3 1539.11 Q1320.48 1536.63 1316.76 1536.63 Q1312.21 1536.63 1309.57 1539.65 Q1306.93 1542.68 1306.93 1547.9 L1306.93 1568.04 L1301.04 1568.04 L1301.04 1546.72 Q1301.04 1541.56 1299.22 1539.11 Q1297.41 1536.63 1293.62 1536.63 Q1289.13 1536.63 1286.49 1539.68 Q1283.85 1542.71 1283.85 1547.9 L1283.85 1568.04 L1277.96 1568.04 L1277.96 1532.4 L1283.85 1532.4 L1283.85 1537.93 Q1285.86 1534.66 1288.66 1533.1 Q1291.46 1531.54 1295.31 1531.54 Q1299.19 1531.54 1301.9 1533.51 Q1304.63 1535.48 1305.94 1539.24 Z" fill="#000000" fill-rule="nonzero" fill-opacity="1" /><path clip-path="url(#clip650)" d="M1372.17 1548.76 L1372.17 1551.62 L1345.25 1551.62 Q1345.63 1557.67 1348.88 1560.85 Q1352.15 1564 1357.98 1564 Q1361.35 1564 1364.5 1563.17 Q1367.69 1562.35 1370.81 1560.69 L1370.81 1566.23 Q1367.65 1567.57 1364.34 1568.27 Q1361.03 1568.97 1357.63 1568.97 Q1349.1 1568.97 1344.1 1564 Q1339.14 1559.04 1339.14 1550.57 Q1339.14 1541.82 1343.85 1536.69 Q1348.59 1531.54 1356.61 1531.54 Q1363.8 1531.54 1367.97 1536.18 Q1372.17 1540.8 1372.17 1548.76 M1366.32 1547.04 Q1366.25 1542.23 1363.61 1539.37 Q1361 1536.5 1356.67 1536.5 Q1351.77 1536.5 1348.81 1539.27 Q1345.88 1542.04 1345.44 1547.07 L1366.32 1547.04 Z" fill="#000000" fill-rule="nonzero" fill-opacity="1" /><polyline clip-path="url(#clip650)" style="stroke:#000000; stroke-linecap:round; stroke-linejoin:round; stroke-width:4; stroke-opacity:1; fill:none" points="249.542,1423.18 249.542,47.2441 "/>
<polyline clip-path="url(#clip650)" style="stroke:#000000; stroke-linecap:round; stroke-linejoin:round; stroke-width:4; stroke-opacity:1; fill:none" points="249.542,1334.17 268.44,1334.17 "/>
<polyline clip-path="url(#clip650)" style="stroke:#000000; stroke-linecap:round; stroke-linejoin:round; stroke-width:4; stroke-opacity:1; fill:none" points="249.542,1063.99 268.44,1063.99 "/>
<polyline clip-path="url(#clip650)" style="stroke:#000000; stroke-linecap:round; stroke-linejoin:round; stroke-width:4; stroke-opacity:1; fill:none" points="249.542,793.807 268.44,793.807 "/>
<polyline clip-path="url(#clip650)" style="stroke:#000000; stroke-linecap:round; stroke-linejoin:round; stroke-width:4; stroke-opacity:1; fill:none" points="249.542,523.626 268.44,523.626 "/>
<polyline clip-path="url(#clip650)" style="stroke:#000000; stroke-linecap:round; stroke-linejoin:round; stroke-width:4; stroke-opacity:1; fill:none" points="249.542,253.444 268.44,253.444 "/>
<path clip-path="url(#clip650)" d="M126.205 1319.97 Q122.593 1319.97 120.765 1323.53 Q118.959 1327.07 118.959 1334.2 Q118.959 1341.31 120.765 1344.88 Q122.593 1348.42 126.205 1348.42 Q129.839 1348.42 131.644 1344.88 Q133.473 1341.31 133.473 1334.2 Q133.473 1327.07 131.644 1323.53 Q129.839 1319.97 126.205 1319.97 M126.205 1316.26 Q132.015 1316.26 135.07 1320.87 Q138.149 1325.45 138.149 1334.2 Q138.149 1342.93 135.07 1347.54 Q132.015 1352.12 126.205 1352.12 Q120.394 1352.12 117.316 1347.54 Q114.26 1342.93 114.26 1334.2 Q114.26 1325.45 117.316 1320.87 Q120.394 1316.26 126.205 1316.26 Z" fill="#000000" fill-rule="nonzero" fill-opacity="1" /><path clip-path="url(#clip650)" d="M146.366 1345.57 L151.251 1345.57 L151.251 1351.45 L146.366 1351.45 L146.366 1345.57 Z" fill="#000000" fill-rule="nonzero" fill-opacity="1" /><path clip-path="url(#clip650)" d="M171.436 1319.97 Q167.825 1319.97 165.996 1323.53 Q164.19 1327.07 164.19 1334.2 Q164.19 1341.31 165.996 1344.88 Q167.825 1348.42 171.436 1348.42 Q175.07 1348.42 176.876 1344.88 Q178.704 1341.31 178.704 1334.2 Q178.704 1327.07 176.876 1323.53 Q175.07 1319.97 171.436 1319.97 M171.436 1316.26 Q177.246 1316.26 180.301 1320.87 Q183.38 1325.45 183.38 1334.2 Q183.38 1342.93 180.301 1347.54 Q177.246 1352.12 171.436 1352.12 Q165.626 1352.12 162.547 1347.54 Q159.491 1342.93 159.491 1334.2 Q159.491 1325.45 162.547 1320.87 Q165.626 1316.26 171.436 1316.26 Z" fill="#000000" fill-rule="nonzero" fill-opacity="1" /><path clip-path="url(#clip650)" d="M201.598 1319.97 Q197.987 1319.97 196.158 1323.53 Q194.352 1327.07 194.352 1334.2 Q194.352 1341.31 196.158 1344.88 Q197.987 1348.42 201.598 1348.42 Q205.232 1348.42 207.037 1344.88 Q208.866 1341.31 208.866 1334.2 Q208.866 1327.07 207.037 1323.53 Q205.232 1319.97 201.598 1319.97 M201.598 1316.26 Q207.408 1316.26 210.463 1320.87 Q213.542 1325.45 213.542 1334.2 Q213.542 1342.93 210.463 1347.54 Q207.408 1352.12 201.598 1352.12 Q195.787 1352.12 192.709 1347.54 Q189.653 1342.93 189.653 1334.2 Q189.653 1325.45 192.709 1320.87 Q195.787 1316.26 201.598 1316.26 Z" fill="#000000" fill-rule="nonzero" fill-opacity="1" /><path clip-path="url(#clip650)" d="M127.2 1049.79 Q123.589 1049.79 121.76 1053.35 Q119.955 1056.89 119.955 1064.02 Q119.955 1071.13 121.76 1074.69 Q123.589 1078.24 127.2 1078.24 Q130.834 1078.24 132.64 1074.69 Q134.468 1071.13 134.468 1064.02 Q134.468 1056.89 132.64 1053.35 Q130.834 1049.79 127.2 1049.79 M127.2 1046.08 Q133.01 1046.08 136.066 1050.69 Q139.144 1055.27 139.144 1064.02 Q139.144 1072.75 136.066 1077.36 Q133.01 1081.94 127.2 1081.94 Q121.39 1081.94 118.311 1077.36 Q115.256 1072.75 115.256 1064.02 Q115.256 1055.27 118.311 1050.69 Q121.39 1046.08 127.2 1046.08 Z" fill="#000000" fill-rule="nonzero" fill-opacity="1" /><path clip-path="url(#clip650)" d="M147.362 1075.39 L152.246 1075.39 L152.246 1081.27 L147.362 1081.27 L147.362 1075.39 Z" fill="#000000" fill-rule="nonzero" fill-opacity="1" /><path clip-path="url(#clip650)" d="M166.459 1077.33 L182.778 1077.33 L182.778 1081.27 L160.834 1081.27 L160.834 1077.33 Q163.496 1074.58 168.079 1069.95 Q172.686 1065.3 173.866 1063.95 Q176.112 1061.43 176.991 1059.69 Q177.894 1057.94 177.894 1056.25 Q177.894 1053.49 175.95 1051.75 Q174.028 1050.02 170.927 1050.02 Q168.727 1050.02 166.274 1050.78 Q163.843 1051.55 161.065 1053.1 L161.065 1048.38 Q163.89 1047.24 166.343 1046.66 Q168.797 1046.08 170.834 1046.08 Q176.204 1046.08 179.399 1048.77 Q182.593 1051.45 182.593 1055.94 Q182.593 1058.07 181.783 1060 Q180.996 1061.89 178.889 1064.49 Q178.311 1065.16 175.209 1068.37 Q172.107 1071.57 166.459 1077.33 Z" fill="#000000" fill-rule="nonzero" fill-opacity="1" /><path clip-path="url(#clip650)" d="M192.639 1046.71 L210.996 1046.71 L210.996 1050.64 L196.922 1050.64 L196.922 1059.12 Q197.94 1058.77 198.959 1058.61 Q199.977 1058.42 200.996 1058.42 Q206.783 1058.42 210.162 1061.59 Q213.542 1064.76 213.542 1070.18 Q213.542 1075.76 210.07 1078.86 Q206.598 1081.94 200.278 1081.94 Q198.102 1081.94 195.834 1081.57 Q193.588 1081.2 191.181 1080.46 L191.181 1075.76 Q193.264 1076.89 195.487 1077.45 Q197.709 1078 200.186 1078 Q204.19 1078 206.528 1075.9 Q208.866 1073.79 208.866 1070.18 Q208.866 1066.57 206.528 1064.46 Q204.19 1062.36 200.186 1062.36 Q198.311 1062.36 196.436 1062.77 Q194.584 1063.19 192.639 1064.07 L192.639 1046.71 Z" fill="#000000" fill-rule="nonzero" fill-opacity="1" /><path clip-path="url(#clip650)" d="M126.205 779.606 Q122.593 779.606 120.765 783.17 Q118.959 786.712 118.959 793.842 Q118.959 800.948 120.765 804.513 Q122.593 808.055 126.205 808.055 Q129.839 808.055 131.644 804.513 Q133.473 800.948 133.473 793.842 Q133.473 786.712 131.644 783.17 Q129.839 779.606 126.205 779.606 M126.205 775.902 Q132.015 775.902 135.07 780.508 Q138.149 785.092 138.149 793.842 Q138.149 802.568 135.07 807.175 Q132.015 811.758 126.205 811.758 Q120.394 811.758 117.316 807.175 Q114.26 802.568 114.26 793.842 Q114.26 785.092 117.316 780.508 Q120.394 775.902 126.205 775.902 Z" fill="#000000" fill-rule="nonzero" fill-opacity="1" /><path clip-path="url(#clip650)" d="M146.366 805.207 L151.251 805.207 L151.251 811.087 L146.366 811.087 L146.366 805.207 Z" fill="#000000" fill-rule="nonzero" fill-opacity="1" /><path clip-path="url(#clip650)" d="M161.482 776.527 L179.839 776.527 L179.839 780.462 L165.765 780.462 L165.765 788.934 Q166.783 788.587 167.802 788.425 Q168.82 788.24 169.839 788.24 Q175.626 788.24 179.005 791.411 Q182.385 794.582 182.385 799.999 Q182.385 805.578 178.913 808.68 Q175.44 811.758 169.121 811.758 Q166.945 811.758 164.677 811.388 Q162.431 811.018 160.024 810.277 L160.024 805.578 Q162.107 806.712 164.329 807.268 Q166.552 807.823 169.028 807.823 Q173.033 807.823 175.371 805.717 Q177.709 803.61 177.709 799.999 Q177.709 796.388 175.371 794.282 Q173.033 792.175 169.028 792.175 Q167.153 792.175 165.278 792.592 Q163.427 793.008 161.482 793.888 L161.482 776.527 Z" fill="#000000" fill-rule="nonzero" fill-opacity="1" /><path clip-path="url(#clip650)" d="M201.598 779.606 Q197.987 779.606 196.158 783.17 Q194.352 786.712 194.352 793.842 Q194.352 800.948 196.158 804.513 Q197.987 808.055 201.598 808.055 Q205.232 808.055 207.037 804.513 Q208.866 800.948 208.866 793.842 Q208.866 786.712 207.037 783.17 Q205.232 779.606 201.598 779.606 M201.598 775.902 Q207.408 775.902 210.463 780.508 Q213.542 785.092 213.542 793.842 Q213.542 802.568 210.463 807.175 Q207.408 811.758 201.598 811.758 Q195.787 811.758 192.709 807.175 Q189.653 802.568 189.653 793.842 Q189.653 785.092 192.709 780.508 Q195.787 775.902 201.598 775.902 Z" fill="#000000" fill-rule="nonzero" fill-opacity="1" /><path clip-path="url(#clip650)" d="M127.2 509.424 Q123.589 509.424 121.76 512.989 Q119.955 516.531 119.955 523.66 Q119.955 530.767 121.76 534.332 Q123.589 537.873 127.2 537.873 Q130.834 537.873 132.64 534.332 Q134.468 530.767 134.468 523.66 Q134.468 516.531 132.64 512.989 Q130.834 509.424 127.2 509.424 M127.2 505.721 Q133.01 505.721 136.066 510.327 Q139.144 514.91 139.144 523.66 Q139.144 532.387 136.066 536.994 Q133.01 541.577 127.2 541.577 Q121.39 541.577 118.311 536.994 Q115.256 532.387 115.256 523.66 Q115.256 514.91 118.311 510.327 Q121.39 505.721 127.2 505.721 Z" fill="#000000" fill-rule="nonzero" fill-opacity="1" /><path clip-path="url(#clip650)" d="M147.362 535.026 L152.246 535.026 L152.246 540.906 L147.362 540.906 L147.362 535.026 Z" fill="#000000" fill-rule="nonzero" fill-opacity="1" /><path clip-path="url(#clip650)" d="M161.251 506.346 L183.473 506.346 L183.473 508.336 L170.927 540.906 L166.042 540.906 L177.848 510.281 L161.251 510.281 L161.251 506.346 Z" fill="#000000" fill-rule="nonzero" fill-opacity="1" /><path clip-path="url(#clip650)" d="M192.639 506.346 L210.996 506.346 L210.996 510.281 L196.922 510.281 L196.922 518.753 Q197.94 518.406 198.959 518.244 Q199.977 518.058 200.996 518.058 Q206.783 518.058 210.162 521.23 Q213.542 524.401 213.542 529.818 Q213.542 535.396 210.07 538.498 Q206.598 541.577 200.278 541.577 Q198.102 541.577 195.834 541.206 Q193.588 540.836 191.181 540.095 L191.181 535.396 Q193.264 536.531 195.487 537.086 Q197.709 537.642 200.186 537.642 Q204.19 537.642 206.528 535.535 Q208.866 533.429 208.866 529.818 Q208.866 526.207 206.528 524.1 Q204.19 521.994 200.186 521.994 Q198.311 521.994 196.436 522.41 Q194.584 522.827 192.639 523.707 L192.639 506.346 Z" fill="#000000" fill-rule="nonzero" fill-opacity="1" /><path clip-path="url(#clip650)" d="M117.015 266.789 L124.654 266.789 L124.654 240.423 L116.343 242.09 L116.343 237.831 L124.607 236.164 L129.283 236.164 L129.283 266.789 L136.922 266.789 L136.922 270.724 L117.015 270.724 L117.015 266.789 Z" fill="#000000" fill-rule="nonzero" fill-opacity="1" /><path clip-path="url(#clip650)" d="M146.366 264.845 L151.251 264.845 L151.251 270.724 L146.366 270.724 L146.366 264.845 Z" fill="#000000" fill-rule="nonzero" fill-opacity="1" /><path clip-path="url(#clip650)" d="M171.436 239.243 Q167.825 239.243 165.996 242.808 Q164.19 246.349 164.19 253.479 Q164.19 260.585 165.996 264.15 Q167.825 267.692 171.436 267.692 Q175.07 267.692 176.876 264.15 Q178.704 260.585 178.704 253.479 Q178.704 246.349 176.876 242.808 Q175.07 239.243 171.436 239.243 M171.436 235.539 Q177.246 235.539 180.301 240.146 Q183.38 244.729 183.38 253.479 Q183.38 262.206 180.301 266.812 Q177.246 271.395 171.436 271.395 Q165.626 271.395 162.547 266.812 Q159.491 262.206 159.491 253.479 Q159.491 244.729 162.547 240.146 Q165.626 235.539 171.436 235.539 Z" fill="#000000" fill-rule="nonzero" fill-opacity="1" /><path clip-path="url(#clip650)" d="M201.598 239.243 Q197.987 239.243 196.158 242.808 Q194.352 246.349 194.352 253.479 Q194.352 260.585 196.158 264.15 Q197.987 267.692 201.598 267.692 Q205.232 267.692 207.037 264.15 Q208.866 260.585 208.866 253.479 Q208.866 246.349 207.037 242.808 Q205.232 239.243 201.598 239.243 M201.598 235.539 Q207.408 235.539 210.463 240.146 Q213.542 244.729 213.542 253.479 Q213.542 262.206 210.463 266.812 Q207.408 271.395 201.598 271.395 Q195.787 271.395 192.709 266.812 Q189.653 262.206 189.653 253.479 Q189.653 244.729 192.709 240.146 Q195.787 235.539 201.598 235.539 Z" fill="#000000" fill-rule="nonzero" fill-opacity="1" /><path clip-path="url(#clip650)" d="M20.1444 816.693 L26.9239 816.693 Q23.9002 819.94 22.4043 823.632 Q20.9083 827.292 20.9083 831.43 Q20.9083 839.578 25.9054 843.906 Q30.8707 848.235 40.2919 848.235 Q49.6813 848.235 54.6784 843.906 Q59.6436 839.578 59.6436 831.43 Q59.6436 827.292 58.1477 823.632 Q56.6518 819.94 53.6281 816.693 L60.3439 816.693 Q62.6355 820.067 63.7814 823.854 Q64.9272 827.61 64.9272 831.812 Q64.9272 842.601 58.3387 848.808 Q51.7183 855.015 40.2919 855.015 Q28.8336 855.015 22.2451 848.808 Q15.6248 842.601 15.6248 831.812 Q15.6248 827.547 16.7706 823.791 Q17.8846 820.003 20.1444 816.693 Z" fill="#000000" fill-rule="nonzero" fill-opacity="1" /><path clip-path="url(#clip650)" d="M49.9359 807.622 L28.3562 807.622 L28.3562 801.765 L49.7131 801.765 Q54.7739 801.765 57.3202 799.792 Q59.8346 797.819 59.8346 793.872 Q59.8346 789.13 56.8109 786.392 Q53.7872 783.623 48.5673 783.623 L28.3562 783.623 L28.3562 777.767 L64.0042 777.767 L64.0042 783.623 L58.5296 783.623 Q61.7762 785.756 63.3676 788.588 Q64.9272 791.389 64.9272 795.113 Q64.9272 801.256 61.1078 804.439 Q57.2883 807.622 49.9359 807.622 M27.4968 792.885 L27.4968 792.885 Z" fill="#000000" fill-rule="nonzero" fill-opacity="1" /><path clip-path="url(#clip650)" d="M33.8307 745.047 Q33.2578 746.034 33.0032 747.211 Q32.7167 748.357 32.7167 749.758 Q32.7167 754.723 35.9632 757.396 Q39.1779 760.038 45.2253 760.038 L64.0042 760.038 L64.0042 765.927 L28.3562 765.927 L28.3562 760.038 L33.8944 760.038 Q30.6479 758.192 29.0883 755.232 Q27.4968 752.272 27.4968 748.039 Q27.4968 747.434 27.5923 746.702 Q27.656 745.97 27.8151 745.079 L33.8307 745.047 Z" fill="#000000" fill-rule="nonzero" fill-opacity="1" /><path clip-path="url(#clip650)" d="M33.8307 719.393 Q33.2578 720.38 33.0032 721.558 Q32.7167 722.703 32.7167 724.104 Q32.7167 729.069 35.9632 731.743 Q39.1779 734.384 45.2253 734.384 L64.0042 734.384 L64.0042 740.273 L28.3562 740.273 L28.3562 734.384 L33.8944 734.384 Q30.6479 732.538 29.0883 729.578 Q27.4968 726.618 27.4968 722.385 Q27.4968 721.78 27.5923 721.048 Q27.656 720.316 27.8151 719.425 L33.8307 719.393 Z" fill="#000000" fill-rule="nonzero" fill-opacity="1" /><path clip-path="url(#clip650)" d="M44.7161 684.191 L47.5806 684.191 L47.5806 711.118 Q53.6281 710.736 56.8109 707.489 Q59.9619 704.211 59.9619 698.386 Q59.9619 695.013 59.1344 691.862 Q58.3069 688.679 56.6518 685.559 L62.1899 685.559 Q63.5267 688.71 64.227 692.021 Q64.9272 695.331 64.9272 698.736 Q64.9272 707.267 59.9619 712.264 Q54.9967 717.229 46.5303 717.229 Q37.7774 717.229 32.6531 712.518 Q27.4968 707.776 27.4968 699.755 Q27.4968 692.562 32.1438 688.392 Q36.7589 684.191 44.7161 684.191 M42.9973 690.047 Q38.1912 690.111 35.3266 692.753 Q32.4621 695.363 32.4621 699.691 Q32.4621 704.593 35.2312 707.553 Q38.0002 710.481 43.0292 710.927 L42.9973 690.047 Z" fill="#000000" fill-rule="nonzero" fill-opacity="1" /><path clip-path="url(#clip650)" d="M42.4881 644.946 L64.0042 644.946 L64.0042 650.803 L42.679 650.803 Q37.6183 650.803 35.1038 652.776 Q32.5894 654.749 32.5894 658.696 Q32.5894 663.439 35.6131 666.176 Q38.6368 668.913 43.8567 668.913 L64.0042 668.913 L64.0042 674.801 L28.3562 674.801 L28.3562 668.913 L33.8944 668.913 Q30.6797 666.812 29.0883 663.98 Q27.4968 661.115 27.4968 657.391 Q27.4968 651.248 31.3163 648.097 Q35.1038 644.946 42.4881 644.946 Z" fill="#000000" fill-rule="nonzero" fill-opacity="1" /><path clip-path="url(#clip650)" d="M18.2347 627.472 L28.3562 627.472 L28.3562 615.409 L32.9077 615.409 L32.9077 627.472 L52.2594 627.472 Q56.6199 627.472 57.8613 626.295 Q59.1026 625.085 59.1026 621.425 L59.1026 615.409 L64.0042 615.409 L64.0042 621.425 Q64.0042 628.204 61.4897 630.783 Q58.9434 633.361 52.2594 633.361 L32.9077 633.361 L32.9077 637.658 L28.3562 637.658 L28.3562 633.361 L18.2347 633.361 L18.2347 627.472 Z" fill="#000000" fill-rule="nonzero" fill-opacity="1" /><polyline clip-path="url(#clip652)" style="stroke:#0000ff; stroke-linecap:round; stroke-linejoin:round; stroke-width:12; stroke-opacity:1; fill:none" points="309.067,1334.17 318.988,817.367 328.909,506.584 338.829,320.993 348.75,211.21 358.671,147.725 368.592,112.731 378.513,95.0813 388.434,87.6747 398.354,86.1857 408.275,88.2273 418.196,92.5735 428.117,98.4951 438.038,105.387 447.958,112.713 457.879,120.12 467.8,127.501 477.721,134.922 487.642,142.463 497.563,150.103 507.483,157.727 517.404,165.221 527.325,172.561 537.246,179.816 547.167,187.072 557.087,194.356 567.008,201.618 576.929,208.784 586.85,215.825 596.771,222.775 606.692,229.695 616.612,236.62 626.533,243.53 636.454,250.372 646.375,257.114 656.296,263.769 666.216,270.378 676.137,276.977 686.058,283.561 695.979,290.095 705.9,296.548 715.821,302.919 725.741,309.238 735.662,315.533 745.583,321.811 755.504,328.049 765.425,334.222 775.346,340.321 785.266,346.364 795.187,352.374 805.108,358.364 815.029,364.32 824.95,370.222 834.87,376.059 844.791,381.839 854.712,387.582 864.633,393.3 874.554,398.988 884.475,404.63 894.395,410.216 904.316,415.747 914.237,421.238 924.158,426.701 934.079,432.135 943.999,437.53 953.92,442.876 963.841,448.171 973.762,453.425 983.683,458.648 993.604,463.843 1003.52,469.004 1013.45,474.122 1023.37,479.194 1033.29,484.225 1043.21,489.223 1053.13,494.194 1063.05,499.134 1072.97,504.035 1082.89,508.896 1092.81,513.717 1102.73,518.505 1112.65,523.265 1122.57,527.996 1132.5,532.694 1142.42,537.354 1152.34,541.977 1162.26,546.567 1172.18,551.13 1182.1,555.665 1192.02,560.169 1201.94,564.64 1211.86,569.076 1221.78,573.48 1231.7,577.857 1241.62,582.207 1251.54,586.529 1261.47,590.82 1271.39,595.08 1281.31,599.308 1291.23,603.51 1301.15,607.686 1311.07,611.835 1320.99,615.957 1330.91,620.048 1340.83,624.111 1350.75,628.147 1360.67,632.158 1370.59,636.145 1380.52,640.105 1390.44,644.037 1400.36,647.943 1410.28,651.822 1420.2,655.677 1430.12,659.509 1440.04,663.316 1449.96,667.098 1459.88,670.854 1469.8,674.584 1479.72,678.292 1489.64,681.977 1499.57,685.638 1509.49,689.276 1519.41,692.89 1529.33,696.479 1539.25,700.046 1549.17,703.591 1559.09,707.114 1569.01,710.615 1578.93,714.093 1588.85,717.548 1598.77,720.981 1608.69,724.393 1618.62,727.784 1628.54,731.154 1638.46,734.502 1648.38,737.829 1658.3,741.134 1668.22,744.419 1678.14,747.684 1688.06,750.929 1697.98,754.153 1707.9,757.357 1717.82,760.541 1727.74,763.704 1737.67,766.849 1747.59,769.974 1757.51,773.08 1767.43,776.166 1777.35,779.233 1787.27,782.28 1797.19,785.31 1807.11,788.32 1817.03,791.312 1826.95,794.286 1836.87,797.241 1846.79,800.177 1856.71,803.096 1866.64,805.997 1876.56,808.88 1886.48,811.745 1896.4,814.592 1906.32,817.422 1916.24,820.235 1926.16,823.031 1936.08,825.809 1946,828.571 1955.92,831.315 1965.84,834.043 1975.76,836.754 1985.69,839.448 1995.61,842.126 2005.53,844.788 2015.45,847.433 2025.37,850.062 2035.29,852.676 2045.21,855.273 2055.13,857.855 2065.05,860.42 2074.97,862.971 2084.89,865.505 2094.81,868.024 2104.74,870.528 2114.66,873.017 2124.58,875.491 2134.5,877.949 2144.42,880.393 2154.34,882.822 2164.26,885.236 2174.18,887.636 2184.1,890.02 2194.02,892.391 2203.94,894.747 2213.86,897.089 2223.79,899.417 2233.71,901.73 2243.63,904.03 2253.55,906.315 2263.47,908.587 2273.39,910.845 2283.31,913.09 2293.23,915.321 "/>
<polyline clip-path="url(#clip652)" style="stroke:#ff0000; stroke-linecap:round; stroke-linejoin:round; stroke-width:12; stroke-opacity:1; fill:none" points="309.067,1334.17 318.988,921.293 328.909,1008.14 338.829,1238.72 348.75,1289.51 358.671,1157.65 368.592,1029.81 378.513,1036.03 388.434,1145.62 398.354,1239.55 408.275,1238.73 418.196,1163.52 428.117,1094.22 438.038,1090.21 447.958,1144.17 457.879,1201.12 467.8,1213.38 477.721,1179.2 487.642,1136.4 497.563,1124.02 507.483,1149.27 517.404,1186.25 527.325,1202.7 537.246,1188.39 547.167,1160.8 557.087,1146.62 567.008,1157.66 576.929,1182.51 586.85,1199.1 596.771,1195.01 606.692,1177.17 616.612,1163.71 626.533,1167.08 636.454,1183.72 646.375,1198.82 656.296,1200.36 666.216,1189.36 676.137,1177.75 686.058,1176.86 695.979,1187.55 705.9,1200.4 715.821,1204.94 725.741,1198.95 735.662,1189.68 745.583,1186.62 755.504,1192.95 765.425,1203.27 775.346,1209.13 785.266,1206.75 795.187,1199.92 805.108,1196.05 815.029,1199.28 824.95,1207.13 834.87,1213.23 844.791,1213.31 854.712,1208.76 864.633,1204.94 874.554,1206.11 884.475,1211.75 894.395,1217.43 904.316,1219.04 914.237,1216.44 924.158,1213.18 934.079,1213.11 943.999,1216.92 953.92,1221.82 963.841,1224.27 973.762,1223.19 983.683,1220.72 993.604,1220.02 1003.52,1222.44 1013.45,1226.43 1023.37,1229.19 1033.29,1229.24 1043.21,1227.6 1053.13,1226.71 1063.05,1228.12 1072.97,1231.23 1082.89,1233.97 1092.81,1234.76 1102.73,1233.89 1112.65,1233.07 1122.57,1233.83 1132.5,1236.16 1142.42,1238.67 1152.34,1239.91 1162.26,1239.67 1172.18,1239.08 1182.1,1239.45 1192.02,1241.15 1201.94,1243.33 1211.86,1244.78 1221.78,1245.04 1231.7,1244.72 1241.62,1244.91 1251.54,1246.13 1261.47,1247.96 1271.39,1249.46 1281.31,1250.06 1291.23,1250.03 1301.15,1250.17 1311.07,1251.05 1320.99,1252.54 1330.91,1253.98 1340.83,1254.8 1350.75,1255.02 1360.67,1255.2 1370.59,1255.86 1380.52,1257.07 1390.44,1258.39 1400.36,1259.32 1410.28,1259.75 1420.2,1259.99 1430.12,1260.53 1440.04,1261.51 1449.96,1262.69 1459.88,1263.66 1469.8,1264.23 1479.72,1264.57 1489.64,1265.04 1499.57,1265.85 1509.49,1266.89 1519.41,1267.84 1529.33,1268.5 1539.25,1268.93 1549.17,1269.38 1559.09,1270.07 1569.01,1270.98 1578.93,1271.89 1588.85,1272.6 1598.77,1273.1 1608.69,1273.56 1618.62,1274.16 1628.54,1274.96 1638.46,1275.81 1648.38,1276.53 1658.3,1277.08 1668.22,1277.56 1678.14,1278.11 1688.06,1278.82 1697.98,1279.6 1707.9,1280.32 1717.82,1280.9 1727.74,1281.4 1737.67,1281.93 1747.59,1282.56 1757.51,1283.28 1767.43,1283.97 1777.35,1284.57 1787.27,1285.09 1797.19,1285.6 1807.11,1286.18 1817.03,1286.84 1826.95,1287.5 1836.87,1288.1 1846.79,1288.63 1856.71,1289.13 1866.64,1289.68 1876.56,1290.29 1886.48,1290.91 1896.4,1291.51 1906.32,1292.04 1916.24,1292.53 1926.16,1293.05 1936.08,1293.62 1946,1294.21 1955.92,1294.79 1965.84,1295.31 1975.76,1295.81 1985.69,1296.31 1995.61,1296.84 2005.53,1297.4 2015.45,1297.95 2025.37,1298.47 2035.29,1298.96 2045.21,1299.44 2055.13,1299.94 2065.05,1300.47 2074.97,1301 2084.89,1301.51 2094.81,1301.99 2104.74,1302.46 2114.66,1302.94 2124.58,1303.44 2134.5,1303.95 2144.42,1304.44 2154.34,1304.92 2164.26,1305.37 2174.18,1305.84 2184.1,1306.31 2194.02,1306.79 2203.94,1307.27 2213.86,1307.73 2223.79,1308.18 2233.71,1308.62 2243.63,1309.08 2253.55,1309.54 2263.47,1310 2273.39,1310.45 2283.31,1310.88 2293.23,1311.31 "/>
<polyline clip-path="url(#clip652)" style="stroke:#0000ff; stroke-linecap:round; stroke-linejoin:round; stroke-width:12; stroke-opacity:1; fill:none" stroke-dasharray="48, 30" points="309.067,1284.1 318.988,1284.1 328.909,1284.1 338.829,1284.1 348.75,1284.1 358.671,1284.1 368.592,1284.1 378.513,1284.1 388.434,1284.1 398.354,1284.1 408.275,1284.1 418.196,1284.1 428.117,1284.1 438.038,1284.1 447.958,1284.1 457.879,1284.1 467.8,1284.1 477.721,1284.1 487.642,1284.1 497.563,1284.1 507.483,1284.1 517.404,1284.1 527.325,1284.1 537.246,1284.1 547.167,1284.1 557.087,1284.1 567.008,1284.1 576.929,1284.1 586.85,1284.1 596.771,1284.1 606.692,1284.1 616.612,1284.1 626.533,1284.1 636.454,1284.1 646.375,1284.1 656.296,1284.1 666.216,1284.1 676.137,1284.1 686.058,1284.1 695.979,1284.1 705.9,1284.1 715.821,1284.1 725.741,1284.1 735.662,1284.1 745.583,1284.1 755.504,1284.1 765.425,1284.1 775.346,1284.1 785.266,1284.1 795.187,1284.1 805.108,1284.1 815.029,1284.1 824.95,1284.1 834.87,1284.1 844.791,1284.1 854.712,1284.1 864.633,1284.1 874.554,1284.1 884.475,1284.1 894.395,1284.1 904.316,1284.1 914.237,1284.1 924.158,1284.1 934.079,1284.1 943.999,1284.1 953.92,1284.1 963.841,1284.1 973.762,1284.1 983.683,1284.1 993.604,1284.1 1003.52,1284.1 1013.45,1284.1 1023.37,1284.1 1033.29,1284.1 1043.21,1284.1 1053.13,1284.1 1063.05,1284.1 1072.97,1284.1 1082.89,1284.1 1092.81,1284.1 1102.73,1284.1 1112.65,1284.1 1122.57,1284.1 1132.5,1284.1 1142.42,1284.1 1152.34,1284.1 1162.26,1284.1 1172.18,1284.1 1182.1,1284.1 1192.02,1284.1 1201.94,1284.1 1211.86,1284.1 1221.78,1284.1 1231.7,1284.1 1241.62,1284.1 1251.54,1284.1 1261.47,1284.1 1271.39,1284.1 1281.31,1284.1 1291.23,1284.1 1301.15,1284.1 1311.07,1284.1 1320.99,1284.1 1330.91,1284.1 1340.83,1284.1 1350.75,1284.1 1360.67,1284.1 1370.59,1284.1 1380.52,1284.1 1390.44,1284.1 1400.36,1284.1 1410.28,1284.1 1420.2,1284.1 1430.12,1284.1 1440.04,1284.1 1449.96,1284.1 1459.88,1284.1 1469.8,1284.1 1479.72,1284.1 1489.64,1284.1 1499.57,1284.1 1509.49,1284.1 1519.41,1284.1 1529.33,1284.1 1539.25,1284.1 1549.17,1284.1 1559.09,1284.1 1569.01,1284.1 1578.93,1284.1 1588.85,1284.1 1598.77,1284.1 1608.69,1284.1 1618.62,1284.1 1628.54,1284.1 1638.46,1284.1 1648.38,1284.1 1658.3,1284.1 1668.22,1284.1 1678.14,1284.1 1688.06,1284.1 1697.98,1284.1 1707.9,1284.1 1717.82,1284.1 1727.74,1284.1 1737.67,1284.1 1747.59,1284.1 1757.51,1284.1 1767.43,1284.1 1777.35,1284.1 1787.27,1284.1 1797.19,1284.1 1807.11,1284.1 1817.03,1284.1 1826.95,1284.1 1836.87,1284.1 1846.79,1284.1 1856.71,1284.1 1866.64,1284.1 1876.56,1284.1 1886.48,1284.1 1896.4,1284.1 1906.32,1284.1 1916.24,1284.1 1926.16,1284.1 1936.08,1284.1 1946,1284.1 1955.92,1284.1 1965.84,1284.1 1975.76,1284.1 1985.69,1284.1 1995.61,1284.1 2005.53,1284.1 2015.45,1284.1 2025.37,1284.1 2035.29,1284.1 2045.21,1284.1 2055.13,1284.1 2065.05,1284.1 2074.97,1284.1 2084.89,1284.1 2094.81,1284.1 2104.74,1284.1 2114.66,1284.1 2124.58,1284.1 2134.5,1284.1 2144.42,1284.1 2154.34,1284.1 2164.26,1284.1 2174.18,1284.1 2184.1,1284.1 2194.02,1284.1 2203.94,1284.1 2213.86,1284.1 2223.79,1284.1 2233.71,1284.1 2243.63,1284.1 2253.55,1284.1 2263.47,1284.1 2273.39,1284.1 2283.31,1284.1 2293.23,1284.1 "/>
<polyline clip-path="url(#clip652)" style="stroke:#ff0000; stroke-linecap:round; stroke-linejoin:round; stroke-width:12; stroke-opacity:1; fill:none" stroke-dasharray="48, 30" points="309.067,1384.24 318.988,1384.24 328.909,1384.24 338.829,1384.24 348.75,1384.24 358.671,1384.24 368.592,1384.24 378.513,1384.24 388.434,1384.24 398.354,1384.24 408.275,1384.24 418.196,1384.24 428.117,1384.24 438.038,1384.24 447.958,1384.24 457.879,1384.24 467.8,1384.24 477.721,1384.24 487.642,1384.24 497.563,1384.24 507.483,1384.24 517.404,1384.24 527.325,1384.24 537.246,1384.24 547.167,1384.24 557.087,1384.24 567.008,1384.24 576.929,1384.24 586.85,1384.24 596.771,1384.24 606.692,1384.24 616.612,1384.24 626.533,1384.24 636.454,1384.24 646.375,1384.24 656.296,1384.24 666.216,1384.24 676.137,1384.24 686.058,1384.24 695.979,1384.24 705.9,1384.24 715.821,1384.24 725.741,1384.24 735.662,1384.24 745.583,1384.24 755.504,1384.24 765.425,1384.24 775.346,1384.24 785.266,1384.24 795.187,1384.24 805.108,1384.24 815.029,1384.24 824.95,1384.24 834.87,1384.24 844.791,1384.24 854.712,1384.24 864.633,1384.24 874.554,1384.24 884.475,1384.24 894.395,1384.24 904.316,1384.24 914.237,1384.24 924.158,1384.24 934.079,1384.24 943.999,1384.24 953.92,1384.24 963.841,1384.24 973.762,1384.24 983.683,1384.24 993.604,1384.24 1003.52,1384.24 1013.45,1384.24 1023.37,1384.24 1033.29,1384.24 1043.21,1384.24 1053.13,1384.24 1063.05,1384.24 1072.97,1384.24 1082.89,1384.24 1092.81,1384.24 1102.73,1384.24 1112.65,1384.24 1122.57,1384.24 1132.5,1384.24 1142.42,1384.24 1152.34,1384.24 1162.26,1384.24 1172.18,1384.24 1182.1,1384.24 1192.02,1384.24 1201.94,1384.24 1211.86,1384.24 1221.78,1384.24 1231.7,1384.24 1241.62,1384.24 1251.54,1384.24 1261.47,1384.24 1271.39,1384.24 1281.31,1384.24 1291.23,1384.24 1301.15,1384.24 1311.07,1384.24 1320.99,1384.24 1330.91,1384.24 1340.83,1384.24 1350.75,1384.24 1360.67,1384.24 1370.59,1384.24 1380.52,1384.24 1390.44,1384.24 1400.36,1384.24 1410.28,1384.24 1420.2,1384.24 1430.12,1384.24 1440.04,1384.24 1449.96,1384.24 1459.88,1384.24 1469.8,1384.24 1479.72,1384.24 1489.64,1384.24 1499.57,1384.24 1509.49,1384.24 1519.41,1384.24 1529.33,1384.24 1539.25,1384.24 1549.17,1384.24 1559.09,1384.24 1569.01,1384.24 1578.93,1384.24 1588.85,1384.24 1598.77,1384.24 1608.69,1384.24 1618.62,1384.24 1628.54,1384.24 1638.46,1384.24 1648.38,1384.24 1658.3,1384.24 1668.22,1384.24 1678.14,1384.24 1688.06,1384.24 1697.98,1384.24 1707.9,1384.24 1717.82,1384.24 1727.74,1384.24 1737.67,1384.24 1747.59,1384.24 1757.51,1384.24 1767.43,1384.24 1777.35,1384.24 1787.27,1384.24 1797.19,1384.24 1807.11,1384.24 1817.03,1384.24 1826.95,1384.24 1836.87,1384.24 1846.79,1384.24 1856.71,1384.24 1866.64,1384.24 1876.56,1384.24 1886.48,1384.24 1896.4,1384.24 1906.32,1384.24 1916.24,1384.24 1926.16,1384.24 1936.08,1384.24 1946,1384.24 1955.92,1384.24 1965.84,1384.24 1975.76,1384.24 1985.69,1384.24 1995.61,1384.24 2005.53,1384.24 2015.45,1384.24 2025.37,1384.24 2035.29,1384.24 2045.21,1384.24 2055.13,1384.24 2065.05,1384.24 2074.97,1384.24 2084.89,1384.24 2094.81,1384.24 2104.74,1384.24 2114.66,1384.24 2124.58,1384.24 2134.5,1384.24 2144.42,1384.24 2154.34,1384.24 2164.26,1384.24 2174.18,1384.24 2184.1,1384.24 2194.02,1384.24 2203.94,1384.24 2213.86,1384.24 2223.79,1384.24 2233.71,1384.24 2243.63,1384.24 2253.55,1384.24 2263.47,1384.24 2273.39,1384.24 2283.31,1384.24 2293.23,1384.24 "/>
<path clip-path="url(#clip650)" d="M1565.18 352.309 L2282.65 352.309 L2282.65 93.1086 L1565.18 93.1086  Z" fill="#ffffff" fill-rule="evenodd" fill-opacity="1"/>
<polyline clip-path="url(#clip650)" style="stroke:#000000; stroke-linecap:round; stroke-linejoin:round; stroke-width:4; stroke-opacity:1; fill:none" points="1565.18,352.309 2282.65,352.309 2282.65,93.1086 1565.18,93.1086 1565.18,352.309 "/>
<polyline clip-path="url(#clip650)" style="stroke:#0000ff; stroke-linecap:round; stroke-linejoin:round; stroke-width:12; stroke-opacity:1; fill:none" points="1588.55,144.949 1728.76,144.949 "/>
<path clip-path="url(#clip650)" d="M1756.81 145.724 L1756.81 158.386 L1764.31 158.386 Q1768.08 158.386 1769.88 156.835 Q1771.71 155.261 1771.71 152.043 Q1771.71 148.803 1769.88 147.275 Q1768.08 145.724 1764.31 145.724 L1756.81 145.724 M1756.81 131.511 L1756.81 141.928 L1763.73 141.928 Q1767.15 141.928 1768.82 140.655 Q1770.51 139.358 1770.51 136.719 Q1770.51 134.104 1768.82 132.807 Q1767.15 131.511 1763.73 131.511 L1756.81 131.511 M1752.13 127.669 L1764.07 127.669 Q1769.42 127.669 1772.31 129.891 Q1775.21 132.113 1775.21 136.21 Q1775.21 139.382 1773.73 141.257 Q1772.25 143.131 1769.37 143.594 Q1772.82 144.335 1774.72 146.696 Q1776.64 149.034 1776.64 152.553 Q1776.64 157.182 1773.5 159.705 Q1770.35 162.229 1764.54 162.229 L1752.13 162.229 L1752.13 127.669 Z" fill="#000000" fill-rule="nonzero" fill-opacity="1" /><path clip-path="url(#clip650)" d="M1796.25 149.196 Q1791.09 149.196 1789.1 150.377 Q1787.11 151.557 1787.11 154.405 Q1787.11 156.673 1788.59 158.016 Q1790.09 159.335 1792.66 159.335 Q1796.2 159.335 1798.33 156.835 Q1800.49 154.312 1800.49 150.145 L1800.49 149.196 L1796.25 149.196 M1804.75 147.437 L1804.75 162.229 L1800.49 162.229 L1800.49 158.293 Q1799.03 160.655 1796.85 161.789 Q1794.68 162.9 1791.53 162.9 Q1787.55 162.9 1785.19 160.678 Q1782.85 158.432 1782.85 154.682 Q1782.85 150.307 1785.76 148.085 Q1788.7 145.863 1794.51 145.863 L1800.49 145.863 L1800.49 145.446 Q1800.49 142.507 1798.54 140.909 Q1796.62 139.289 1793.12 139.289 Q1790.9 139.289 1788.8 139.821 Q1786.69 140.354 1784.75 141.419 L1784.75 137.483 Q1787.08 136.581 1789.28 136.141 Q1791.48 135.678 1793.56 135.678 Q1799.19 135.678 1801.97 138.594 Q1804.75 141.511 1804.75 147.437 Z" fill="#000000" fill-rule="nonzero" fill-opacity="1" /><path clip-path="url(#clip650)" d="M1817.73 128.942 L1817.73 136.303 L1826.5 136.303 L1826.5 139.613 L1817.73 139.613 L1817.73 153.687 Q1817.73 156.858 1818.59 157.761 Q1819.47 158.664 1822.13 158.664 L1826.5 158.664 L1826.5 162.229 L1822.13 162.229 Q1817.2 162.229 1815.32 160.4 Q1813.45 158.548 1813.45 153.687 L1813.45 139.613 L1810.32 139.613 L1810.32 136.303 L1813.45 136.303 L1813.45 128.942 L1817.73 128.942 Z" fill="#000000" fill-rule="nonzero" fill-opacity="1" /><path clip-path="url(#clip650)" d="M1853.66 146.581 L1853.66 162.229 L1849.4 162.229 L1849.4 146.719 Q1849.4 143.039 1847.96 141.21 Q1846.53 139.382 1843.66 139.382 Q1840.21 139.382 1838.22 141.581 Q1836.23 143.78 1836.23 147.576 L1836.23 162.229 L1831.94 162.229 L1831.94 126.21 L1836.23 126.21 L1836.23 140.331 Q1837.75 137.993 1839.81 136.835 Q1841.9 135.678 1844.61 135.678 Q1849.07 135.678 1851.37 138.456 Q1853.66 141.21 1853.66 146.581 Z" fill="#000000" fill-rule="nonzero" fill-opacity="1" /><path clip-path="url(#clip650)" d="M1877.41 127.669 L1882.08 127.669 L1882.08 158.293 L1898.91 158.293 L1898.91 162.229 L1877.41 162.229 L1877.41 127.669 Z" fill="#000000" fill-rule="nonzero" fill-opacity="1" /><polyline clip-path="url(#clip650)" style="stroke:#ff0000; stroke-linecap:round; stroke-linejoin:round; stroke-width:12; stroke-opacity:1; fill:none" points="1588.55,196.789 1728.76,196.789 "/>
<path clip-path="url(#clip650)" d="M1756.81 197.564 L1756.81 210.226 L1764.31 210.226 Q1768.08 210.226 1769.88 208.675 Q1771.71 207.101 1771.71 203.883 Q1771.71 200.643 1769.88 199.115 Q1768.08 197.564 1764.31 197.564 L1756.81 197.564 M1756.81 183.351 L1756.81 193.768 L1763.73 193.768 Q1767.15 193.768 1768.82 192.495 Q1770.51 191.198 1770.51 188.559 Q1770.51 185.944 1768.82 184.647 Q1767.15 183.351 1763.73 183.351 L1756.81 183.351 M1752.13 179.509 L1764.07 179.509 Q1769.42 179.509 1772.31 181.731 Q1775.21 183.953 1775.21 188.05 Q1775.21 191.222 1773.73 193.097 Q1772.25 194.971 1769.37 195.434 Q1772.82 196.175 1774.72 198.536 Q1776.64 200.874 1776.64 204.393 Q1776.64 209.022 1773.5 211.545 Q1770.35 214.069 1764.54 214.069 L1752.13 214.069 L1752.13 179.509 Z" fill="#000000" fill-rule="nonzero" fill-opacity="1" /><path clip-path="url(#clip650)" d="M1796.25 201.036 Q1791.09 201.036 1789.1 202.217 Q1787.11 203.397 1787.11 206.245 Q1787.11 208.513 1788.59 209.856 Q1790.09 211.175 1792.66 211.175 Q1796.2 211.175 1798.33 208.675 Q1800.49 206.152 1800.49 201.985 L1800.49 201.036 L1796.25 201.036 M1804.75 199.277 L1804.75 214.069 L1800.49 214.069 L1800.49 210.133 Q1799.03 212.495 1796.85 213.629 Q1794.68 214.74 1791.53 214.74 Q1787.55 214.74 1785.19 212.518 Q1782.85 210.272 1782.85 206.522 Q1782.85 202.147 1785.76 199.925 Q1788.7 197.703 1794.51 197.703 L1800.49 197.703 L1800.49 197.286 Q1800.49 194.347 1798.54 192.749 Q1796.62 191.129 1793.12 191.129 Q1790.9 191.129 1788.8 191.661 Q1786.69 192.194 1784.75 193.259 L1784.75 189.323 Q1787.08 188.421 1789.28 187.981 Q1791.48 187.518 1793.56 187.518 Q1799.19 187.518 1801.97 190.434 Q1804.75 193.351 1804.75 199.277 Z" fill="#000000" fill-rule="nonzero" fill-opacity="1" /><path clip-path="url(#clip650)" d="M1817.73 180.782 L1817.73 188.143 L1826.5 188.143 L1826.5 191.453 L1817.73 191.453 L1817.73 205.527 Q1817.73 208.698 1818.59 209.601 Q1819.47 210.504 1822.13 210.504 L1826.5 210.504 L1826.5 214.069 L1822.13 214.069 Q1817.2 214.069 1815.32 212.24 Q1813.45 210.388 1813.45 205.527 L1813.45 191.453 L1810.32 191.453 L1810.32 188.143 L1813.45 188.143 L1813.45 180.782 L1817.73 180.782 Z" fill="#000000" fill-rule="nonzero" fill-opacity="1" /><path clip-path="url(#clip650)" d="M1853.66 198.421 L1853.66 214.069 L1849.4 214.069 L1849.4 198.559 Q1849.4 194.879 1847.96 193.05 Q1846.53 191.222 1843.66 191.222 Q1840.21 191.222 1838.22 193.421 Q1836.23 195.62 1836.23 199.416 L1836.23 214.069 L1831.94 214.069 L1831.94 178.05 L1836.23 178.05 L1836.23 192.171 Q1837.75 189.833 1839.81 188.675 Q1841.9 187.518 1844.61 187.518 Q1849.07 187.518 1851.37 190.296 Q1853.66 193.05 1853.66 198.421 Z" fill="#000000" fill-rule="nonzero" fill-opacity="1" /><path clip-path="url(#clip650)" d="M1893.8 197.865 Q1895.3 198.374 1896.71 200.041 Q1898.15 201.708 1899.58 204.624 L1904.33 214.069 L1899.3 214.069 L1894.88 205.203 Q1893.17 201.731 1891.55 200.596 Q1889.95 199.462 1887.18 199.462 L1882.08 199.462 L1882.08 214.069 L1877.41 214.069 L1877.41 179.509 L1887.96 179.509 Q1893.89 179.509 1896.8 181.985 Q1899.72 184.462 1899.72 189.462 Q1899.72 192.726 1898.19 194.879 Q1896.69 197.032 1893.8 197.865 M1882.08 183.351 L1882.08 195.62 L1887.96 195.62 Q1891.34 195.62 1893.05 194.069 Q1894.79 192.495 1894.79 189.462 Q1894.79 186.43 1893.05 184.902 Q1891.34 183.351 1887.96 183.351 L1882.08 183.351 Z" fill="#000000" fill-rule="nonzero" fill-opacity="1" /><polyline clip-path="url(#clip650)" style="stroke:#0000ff; stroke-linecap:round; stroke-linejoin:round; stroke-width:12; stroke-opacity:1; fill:none" stroke-dasharray="48, 30" points="1588.55,248.629 1728.76,248.629 "/>
<path clip-path="url(#clip650)" d="M1756.81 249.404 L1756.81 262.066 L1764.31 262.066 Q1768.08 262.066 1769.88 260.515 Q1771.71 258.941 1771.71 255.723 Q1771.71 252.483 1769.88 250.955 Q1768.08 249.404 1764.31 249.404 L1756.81 249.404 M1756.81 235.191 L1756.81 245.608 L1763.73 245.608 Q1767.15 245.608 1768.82 244.335 Q1770.51 243.038 1770.51 240.399 Q1770.51 237.784 1768.82 236.487 Q1767.15 235.191 1763.73 235.191 L1756.81 235.191 M1752.13 231.349 L1764.07 231.349 Q1769.42 231.349 1772.31 233.571 Q1775.21 235.793 1775.21 239.89 Q1775.21 243.062 1773.73 244.937 Q1772.25 246.811 1769.37 247.274 Q1772.82 248.015 1774.72 250.376 Q1776.64 252.714 1776.64 256.233 Q1776.64 260.862 1773.5 263.385 Q1770.35 265.909 1764.54 265.909 L1752.13 265.909 L1752.13 231.349 Z" fill="#000000" fill-rule="nonzero" fill-opacity="1" /><path clip-path="url(#clip650)" d="M1796.25 252.876 Q1791.09 252.876 1789.1 254.057 Q1787.11 255.237 1787.11 258.085 Q1787.11 260.353 1788.59 261.696 Q1790.09 263.015 1792.66 263.015 Q1796.2 263.015 1798.33 260.515 Q1800.49 257.992 1800.49 253.825 L1800.49 252.876 L1796.25 252.876 M1804.75 251.117 L1804.75 265.909 L1800.49 265.909 L1800.49 261.973 Q1799.03 264.335 1796.85 265.469 Q1794.68 266.58 1791.53 266.58 Q1787.55 266.58 1785.19 264.358 Q1782.85 262.112 1782.85 258.362 Q1782.85 253.987 1785.76 251.765 Q1788.7 249.543 1794.51 249.543 L1800.49 249.543 L1800.49 249.126 Q1800.49 246.187 1798.54 244.589 Q1796.62 242.969 1793.12 242.969 Q1790.9 242.969 1788.8 243.501 Q1786.69 244.034 1784.75 245.099 L1784.75 241.163 Q1787.08 240.261 1789.28 239.821 Q1791.48 239.358 1793.56 239.358 Q1799.19 239.358 1801.97 242.274 Q1804.75 245.191 1804.75 251.117 Z" fill="#000000" fill-rule="nonzero" fill-opacity="1" /><path clip-path="url(#clip650)" d="M1817.73 232.622 L1817.73 239.983 L1826.5 239.983 L1826.5 243.293 L1817.73 243.293 L1817.73 257.367 Q1817.73 260.538 1818.59 261.441 Q1819.47 262.344 1822.13 262.344 L1826.5 262.344 L1826.5 265.909 L1822.13 265.909 Q1817.2 265.909 1815.32 264.08 Q1813.45 262.228 1813.45 257.367 L1813.45 243.293 L1810.32 243.293 L1810.32 239.983 L1813.45 239.983 L1813.45 232.622 L1817.73 232.622 Z" fill="#000000" fill-rule="nonzero" fill-opacity="1" /><path clip-path="url(#clip650)" d="M1853.66 250.261 L1853.66 265.909 L1849.4 265.909 L1849.4 250.399 Q1849.4 246.719 1847.96 244.89 Q1846.53 243.062 1843.66 243.062 Q1840.21 243.062 1838.22 245.261 Q1836.23 247.46 1836.23 251.256 L1836.23 265.909 L1831.94 265.909 L1831.94 229.89 L1836.23 229.89 L1836.23 244.011 Q1837.75 241.673 1839.81 240.515 Q1841.9 239.358 1844.61 239.358 Q1849.07 239.358 1851.37 242.136 Q1853.66 244.89 1853.66 250.261 Z" fill="#000000" fill-rule="nonzero" fill-opacity="1" /><path clip-path="url(#clip650)" d="M1877.41 231.349 L1882.08 231.349 L1882.08 261.973 L1898.91 261.973 L1898.91 265.909 L1877.41 265.909 L1877.41 231.349 Z" fill="#000000" fill-rule="nonzero" fill-opacity="1" /><path clip-path="url(#clip650)" d="M1928.93 229.937 Q1925.83 235.261 1924.33 240.469 Q1922.82 245.677 1922.82 251.024 Q1922.82 256.372 1924.33 261.626 Q1925.86 266.858 1928.93 272.159 L1925.23 272.159 Q1921.76 266.719 1920.02 261.464 Q1918.31 256.21 1918.31 251.024 Q1918.31 245.862 1920.02 240.631 Q1921.74 235.4 1925.23 229.937 L1928.93 229.937 Z" fill="#000000" fill-rule="nonzero" fill-opacity="1" /><path clip-path="url(#clip650)" d="M1958.1 232.483 L1958.1 237.043 Q1955.44 235.77 1953.08 235.145 Q1950.72 234.52 1948.52 234.52 Q1944.7 234.52 1942.61 236.001 Q1940.55 237.483 1940.55 240.214 Q1940.55 242.506 1941.92 243.687 Q1943.31 244.844 1947.15 245.562 L1949.98 246.14 Q1955.21 247.136 1957.68 249.659 Q1960.18 252.159 1960.18 256.372 Q1960.18 261.395 1956.8 263.987 Q1953.45 266.58 1946.94 266.58 Q1944.49 266.58 1941.71 266.024 Q1938.96 265.469 1935.99 264.381 L1935.99 259.566 Q1938.84 261.163 1941.57 261.973 Q1944.3 262.784 1946.94 262.784 Q1950.95 262.784 1953.12 261.21 Q1955.3 259.636 1955.3 256.719 Q1955.3 254.173 1953.73 252.737 Q1952.17 251.302 1948.61 250.585 L1945.76 250.029 Q1940.53 248.987 1938.19 246.765 Q1935.86 244.543 1935.86 240.585 Q1935.86 236.001 1939.07 233.362 Q1942.31 230.724 1947.99 230.724 Q1950.42 230.724 1952.94 231.163 Q1955.46 231.603 1958.1 232.483 Z" fill="#000000" fill-rule="nonzero" fill-opacity="1" /><path clip-path="url(#clip650)" d="M1971.5 232.622 L1971.5 239.983 L1980.28 239.983 L1980.28 243.293 L1971.5 243.293 L1971.5 257.367 Q1971.5 260.538 1972.36 261.441 Q1973.24 262.344 1975.9 262.344 L1980.28 262.344 L1980.28 265.909 L1975.9 265.909 Q1970.97 265.909 1969.1 264.08 Q1967.22 262.228 1967.22 257.367 L1967.22 243.293 L1964.1 243.293 L1964.1 239.983 L1967.22 239.983 L1967.22 232.622 L1971.5 232.622 Z" fill="#000000" fill-rule="nonzero" fill-opacity="1" /><path clip-path="url(#clip650)" d="M2008.05 251.881 L2008.05 253.964 L1988.47 253.964 Q1988.75 258.362 1991.11 260.677 Q1993.49 262.969 1997.73 262.969 Q2000.18 262.969 2002.48 262.367 Q2004.79 261.765 2007.06 260.561 L2007.06 264.589 Q2004.77 265.561 2002.36 266.071 Q1999.95 266.58 1997.48 266.58 Q1991.27 266.58 1987.64 262.969 Q1984.03 259.358 1984.03 253.2 Q1984.03 246.835 1987.45 243.108 Q1990.9 239.358 1996.73 239.358 Q2001.97 239.358 2005 242.737 Q2008.05 246.094 2008.05 251.881 M2003.79 250.631 Q2003.75 247.136 2001.83 245.052 Q1999.93 242.969 1996.78 242.969 Q1993.22 242.969 1991.06 244.983 Q1988.93 246.997 1988.61 250.654 L2003.79 250.631 Z" fill="#000000" fill-rule="nonzero" fill-opacity="1" /><path clip-path="url(#clip650)" d="M2026.83 252.876 Q2021.67 252.876 2019.67 254.057 Q2017.68 255.237 2017.68 258.085 Q2017.68 260.353 2019.17 261.696 Q2020.67 263.015 2023.24 263.015 Q2026.78 263.015 2028.91 260.515 Q2031.06 257.992 2031.06 253.825 L2031.06 252.876 L2026.83 252.876 M2035.32 251.117 L2035.32 265.909 L2031.06 265.909 L2031.06 261.973 Q2029.61 264.335 2027.43 265.469 Q2025.25 266.58 2022.11 266.58 Q2018.12 266.58 2015.76 264.358 Q2013.42 262.112 2013.42 258.362 Q2013.42 253.987 2016.34 251.765 Q2019.28 249.543 2025.09 249.543 L2031.06 249.543 L2031.06 249.126 Q2031.06 246.187 2029.12 244.589 Q2027.2 242.969 2023.7 242.969 Q2021.48 242.969 2019.37 243.501 Q2017.27 244.034 2015.32 245.099 L2015.32 241.163 Q2017.66 240.261 2019.86 239.821 Q2022.06 239.358 2024.14 239.358 Q2029.77 239.358 2032.54 242.274 Q2035.32 245.191 2035.32 251.117 Z" fill="#000000" fill-rule="nonzero" fill-opacity="1" /><path clip-path="url(#clip650)" d="M2061.16 243.918 L2061.16 229.89 L2065.42 229.89 L2065.42 265.909 L2061.16 265.909 L2061.16 262.02 Q2059.81 264.335 2057.75 265.469 Q2055.72 266.58 2052.85 266.58 Q2048.15 266.58 2045.18 262.83 Q2042.24 259.08 2042.24 252.969 Q2042.24 246.858 2045.18 243.108 Q2048.15 239.358 2052.85 239.358 Q2055.72 239.358 2057.75 240.492 Q2059.81 241.603 2061.16 243.918 M2046.64 252.969 Q2046.64 257.668 2048.56 260.353 Q2050.51 263.015 2053.89 263.015 Q2057.27 263.015 2059.21 260.353 Q2061.16 257.668 2061.16 252.969 Q2061.16 248.27 2059.21 245.608 Q2057.27 242.923 2053.89 242.923 Q2050.51 242.923 2048.56 245.608 Q2046.64 248.27 2046.64 252.969 Z" fill="#000000" fill-rule="nonzero" fill-opacity="1" /><path clip-path="url(#clip650)" d="M2084.98 268.316 Q2083.17 272.946 2081.46 274.358 Q2079.74 275.77 2076.87 275.77 L2073.47 275.77 L2073.47 272.205 L2075.97 272.205 Q2077.73 272.205 2078.7 271.372 Q2079.67 270.538 2080.85 267.436 L2081.62 265.492 L2071.13 239.983 L2075.65 239.983 L2083.75 260.261 L2091.85 239.983 L2096.36 239.983 L2084.98 268.316 Z" fill="#000000" fill-rule="nonzero" fill-opacity="1" /><path clip-path="url(#clip650)" d="M2138.22 232.483 L2138.22 237.043 Q2135.55 235.77 2133.19 235.145 Q2130.83 234.52 2128.63 234.52 Q2124.81 234.52 2122.73 236.001 Q2120.67 237.483 2120.67 240.214 Q2120.67 242.506 2122.04 243.687 Q2123.42 244.844 2127.27 245.562 L2130.09 246.14 Q2135.32 247.136 2137.8 249.659 Q2140.3 252.159 2140.3 256.372 Q2140.3 261.395 2136.92 263.987 Q2133.56 266.58 2127.06 266.58 Q2124.6 266.58 2121.83 266.024 Q2119.07 265.469 2116.11 264.381 L2116.11 259.566 Q2118.96 261.163 2121.69 261.973 Q2124.42 262.784 2127.06 262.784 Q2131.06 262.784 2133.24 261.21 Q2135.41 259.636 2135.41 256.719 Q2135.41 254.173 2133.84 252.737 Q2132.29 251.302 2128.72 250.585 L2125.88 250.029 Q2120.65 248.987 2118.31 246.765 Q2115.97 244.543 2115.97 240.585 Q2115.97 236.001 2119.19 233.362 Q2122.43 230.724 2128.1 230.724 Q2130.53 230.724 2133.05 231.163 Q2135.58 231.603 2138.22 232.483 Z" fill="#000000" fill-rule="nonzero" fill-opacity="1" /><path clip-path="url(#clip650)" d="M2151.62 232.622 L2151.62 239.983 L2160.39 239.983 L2160.39 243.293 L2151.62 243.293 L2151.62 257.367 Q2151.62 260.538 2152.47 261.441 Q2153.35 262.344 2156.02 262.344 L2160.39 262.344 L2160.39 265.909 L2156.02 265.909 Q2151.09 265.909 2149.21 264.08 Q2147.34 262.228 2147.34 257.367 L2147.34 243.293 L2144.21 243.293 L2144.21 239.983 L2147.34 239.983 L2147.34 232.622 L2151.62 232.622 Z" fill="#000000" fill-rule="nonzero" fill-opacity="1" /><path clip-path="url(#clip650)" d="M2177.78 252.876 Q2172.61 252.876 2170.62 254.057 Q2168.63 255.237 2168.63 258.085 Q2168.63 260.353 2170.11 261.696 Q2171.62 263.015 2174.19 263.015 Q2177.73 263.015 2179.86 260.515 Q2182.01 257.992 2182.01 253.825 L2182.01 252.876 L2177.78 252.876 M2186.27 251.117 L2186.27 265.909 L2182.01 265.909 L2182.01 261.973 Q2180.55 264.335 2178.38 265.469 Q2176.2 266.58 2173.05 266.58 Q2169.07 266.58 2166.71 264.358 Q2164.37 262.112 2164.37 258.362 Q2164.37 253.987 2167.29 251.765 Q2170.23 249.543 2176.04 249.543 L2182.01 249.543 L2182.01 249.126 Q2182.01 246.187 2180.07 244.589 Q2178.15 242.969 2174.65 242.969 Q2172.43 242.969 2170.32 243.501 Q2168.22 244.034 2166.27 245.099 L2166.27 241.163 Q2168.61 240.261 2170.81 239.821 Q2173.01 239.358 2175.09 239.358 Q2180.72 239.358 2183.49 242.274 Q2186.27 245.191 2186.27 251.117 Z" fill="#000000" fill-rule="nonzero" fill-opacity="1" /><path clip-path="url(#clip650)" d="M2199.26 232.622 L2199.26 239.983 L2208.03 239.983 L2208.03 243.293 L2199.26 243.293 L2199.26 257.367 Q2199.26 260.538 2200.11 261.441 Q2200.99 262.344 2203.66 262.344 L2208.03 262.344 L2208.03 265.909 L2203.66 265.909 Q2198.72 265.909 2196.85 264.08 Q2194.97 262.228 2194.97 257.367 L2194.97 243.293 L2191.85 243.293 L2191.85 239.983 L2194.97 239.983 L2194.97 232.622 L2199.26 232.622 Z" fill="#000000" fill-rule="nonzero" fill-opacity="1" /><path clip-path="url(#clip650)" d="M2235.81 251.881 L2235.81 253.964 L2216.22 253.964 Q2216.5 258.362 2218.86 260.677 Q2221.25 262.969 2225.48 262.969 Q2227.94 262.969 2230.23 262.367 Q2232.54 261.765 2234.81 260.561 L2234.81 264.589 Q2232.52 265.561 2230.11 266.071 Q2227.71 266.58 2225.23 266.58 Q2219.03 266.58 2215.39 262.969 Q2211.78 259.358 2211.78 253.2 Q2211.78 246.835 2215.21 243.108 Q2218.65 239.358 2224.49 239.358 Q2229.72 239.358 2232.75 242.737 Q2235.81 246.094 2235.81 251.881 M2231.55 250.631 Q2231.5 247.136 2229.58 245.052 Q2227.68 242.969 2224.53 242.969 Q2220.97 242.969 2218.82 244.983 Q2216.69 246.997 2216.36 250.654 L2231.55 250.631 Z" fill="#000000" fill-rule="nonzero" fill-opacity="1" /><path clip-path="url(#clip650)" d="M2242.13 229.937 L2245.83 229.937 Q2249.3 235.4 2251.02 240.631 Q2252.75 245.862 2252.75 251.024 Q2252.75 256.21 2251.02 261.464 Q2249.3 266.719 2245.83 272.159 L2242.13 272.159 Q2245.21 266.858 2246.71 261.626 Q2248.24 256.372 2248.24 251.024 Q2248.24 245.677 2246.71 240.469 Q2245.21 235.261 2242.13 229.937 Z" fill="#000000" fill-rule="nonzero" fill-opacity="1" /><polyline clip-path="url(#clip650)" style="stroke:#ff0000; stroke-linecap:round; stroke-linejoin:round; stroke-width:12; stroke-opacity:1; fill:none" stroke-dasharray="48, 30" points="1588.55,300.469 1728.76,300.469 "/>
<path clip-path="url(#clip650)" d="M1756.81 301.244 L1756.81 313.906 L1764.31 313.906 Q1768.08 313.906 1769.88 312.355 Q1771.71 310.781 1771.71 307.563 Q1771.71 304.323 1769.88 302.795 Q1768.08 301.244 1764.31 301.244 L1756.81 301.244 M1756.81 287.031 L1756.81 297.448 L1763.73 297.448 Q1767.15 297.448 1768.82 296.175 Q1770.51 294.878 1770.51 292.239 Q1770.51 289.624 1768.82 288.327 Q1767.15 287.031 1763.73 287.031 L1756.81 287.031 M1752.13 283.189 L1764.07 283.189 Q1769.42 283.189 1772.31 285.411 Q1775.21 287.633 1775.21 291.73 Q1775.21 294.902 1773.73 296.777 Q1772.25 298.651 1769.37 299.114 Q1772.82 299.855 1774.72 302.216 Q1776.64 304.554 1776.64 308.073 Q1776.64 312.702 1773.5 315.225 Q1770.35 317.749 1764.54 317.749 L1752.13 317.749 L1752.13 283.189 Z" fill="#000000" fill-rule="nonzero" fill-opacity="1" /><path clip-path="url(#clip650)" d="M1796.25 304.716 Q1791.09 304.716 1789.1 305.897 Q1787.11 307.077 1787.11 309.925 Q1787.11 312.193 1788.59 313.536 Q1790.09 314.855 1792.66 314.855 Q1796.2 314.855 1798.33 312.355 Q1800.49 309.832 1800.49 305.665 L1800.49 304.716 L1796.25 304.716 M1804.75 302.957 L1804.75 317.749 L1800.49 317.749 L1800.49 313.813 Q1799.03 316.175 1796.85 317.309 Q1794.68 318.42 1791.53 318.42 Q1787.55 318.42 1785.19 316.198 Q1782.85 313.952 1782.85 310.202 Q1782.85 305.827 1785.76 303.605 Q1788.7 301.383 1794.51 301.383 L1800.49 301.383 L1800.49 300.966 Q1800.49 298.027 1798.54 296.429 Q1796.62 294.809 1793.12 294.809 Q1790.9 294.809 1788.8 295.341 Q1786.69 295.874 1784.75 296.939 L1784.75 293.003 Q1787.08 292.101 1789.28 291.661 Q1791.48 291.198 1793.56 291.198 Q1799.19 291.198 1801.97 294.114 Q1804.75 297.031 1804.75 302.957 Z" fill="#000000" fill-rule="nonzero" fill-opacity="1" /><path clip-path="url(#clip650)" d="M1817.73 284.462 L1817.73 291.823 L1826.5 291.823 L1826.5 295.133 L1817.73 295.133 L1817.73 309.207 Q1817.73 312.378 1818.59 313.281 Q1819.47 314.184 1822.13 314.184 L1826.5 314.184 L1826.5 317.749 L1822.13 317.749 Q1817.2 317.749 1815.32 315.92 Q1813.45 314.068 1813.45 309.207 L1813.45 295.133 L1810.32 295.133 L1810.32 291.823 L1813.45 291.823 L1813.45 284.462 L1817.73 284.462 Z" fill="#000000" fill-rule="nonzero" fill-opacity="1" /><path clip-path="url(#clip650)" d="M1853.66 302.101 L1853.66 317.749 L1849.4 317.749 L1849.4 302.239 Q1849.4 298.559 1847.96 296.73 Q1846.53 294.902 1843.66 294.902 Q1840.21 294.902 1838.22 297.101 Q1836.23 299.3 1836.23 303.096 L1836.23 317.749 L1831.94 317.749 L1831.94 281.73 L1836.23 281.73 L1836.23 295.851 Q1837.75 293.513 1839.81 292.355 Q1841.9 291.198 1844.61 291.198 Q1849.07 291.198 1851.37 293.976 Q1853.66 296.73 1853.66 302.101 Z" fill="#000000" fill-rule="nonzero" fill-opacity="1" /><path clip-path="url(#clip650)" d="M1893.8 301.545 Q1895.3 302.054 1896.71 303.721 Q1898.15 305.388 1899.58 308.304 L1904.33 317.749 L1899.3 317.749 L1894.88 308.883 Q1893.17 305.411 1891.55 304.276 Q1889.95 303.142 1887.18 303.142 L1882.08 303.142 L1882.08 317.749 L1877.41 317.749 L1877.41 283.189 L1887.96 283.189 Q1893.89 283.189 1896.8 285.665 Q1899.72 288.142 1899.72 293.142 Q1899.72 296.406 1898.19 298.559 Q1896.69 300.712 1893.8 301.545 M1882.08 287.031 L1882.08 299.3 L1887.96 299.3 Q1891.34 299.3 1893.05 297.749 Q1894.79 296.175 1894.79 293.142 Q1894.79 290.11 1893.05 288.582 Q1891.34 287.031 1887.96 287.031 L1882.08 287.031 Z" fill="#000000" fill-rule="nonzero" fill-opacity="1" /><path clip-path="url(#clip650)" d="M1935.46 281.777 Q1932.36 287.101 1930.86 292.309 Q1929.35 297.517 1929.35 302.864 Q1929.35 308.212 1930.86 313.466 Q1932.38 318.698 1935.46 323.999 L1931.76 323.999 Q1928.29 318.559 1926.55 313.304 Q1924.84 308.05 1924.84 302.864 Q1924.84 297.702 1926.55 292.471 Q1928.26 287.24 1931.76 281.777 L1935.46 281.777 Z" fill="#000000" fill-rule="nonzero" fill-opacity="1" /><path clip-path="url(#clip650)" d="M1964.63 284.323 L1964.63 288.883 Q1961.97 287.61 1959.61 286.985 Q1957.24 286.36 1955.05 286.36 Q1951.23 286.36 1949.14 287.841 Q1947.08 289.323 1947.08 292.054 Q1947.08 294.346 1948.45 295.527 Q1949.84 296.684 1953.68 297.402 L1956.5 297.98 Q1961.74 298.976 1964.21 301.499 Q1966.71 303.999 1966.71 308.212 Q1966.71 313.235 1963.33 315.827 Q1959.98 318.42 1953.47 318.42 Q1951.02 318.42 1948.24 317.864 Q1945.49 317.309 1942.52 316.221 L1942.52 311.406 Q1945.37 313.003 1948.1 313.813 Q1950.83 314.624 1953.47 314.624 Q1957.48 314.624 1959.65 313.05 Q1961.83 311.476 1961.83 308.559 Q1961.83 306.013 1960.25 304.577 Q1958.7 303.142 1955.14 302.425 L1952.29 301.869 Q1947.06 300.827 1944.72 298.605 Q1942.38 296.383 1942.38 292.425 Q1942.38 287.841 1945.6 285.202 Q1948.84 282.564 1954.51 282.564 Q1956.94 282.564 1959.47 283.003 Q1961.99 283.443 1964.63 284.323 Z" fill="#000000" fill-rule="nonzero" fill-opacity="1" /><path clip-path="url(#clip650)" d="M1978.03 284.462 L1978.03 291.823 L1986.8 291.823 L1986.8 295.133 L1978.03 295.133 L1978.03 309.207 Q1978.03 312.378 1978.89 313.281 Q1979.77 314.184 1982.43 314.184 L1986.8 314.184 L1986.8 317.749 L1982.43 317.749 Q1977.5 317.749 1975.62 315.92 Q1973.75 314.068 1973.75 309.207 L1973.75 295.133 L1970.62 295.133 L1970.62 291.823 L1973.75 291.823 L1973.75 284.462 L1978.03 284.462 Z" fill="#000000" fill-rule="nonzero" fill-opacity="1" /><path clip-path="url(#clip650)" d="M2014.58 303.721 L2014.58 305.804 L1995 305.804 Q1995.28 310.202 1997.64 312.517 Q2000.02 314.809 2004.26 314.809 Q2006.71 314.809 2009 314.207 Q2011.32 313.605 2013.59 312.401 L2013.59 316.429 Q2011.29 317.401 2008.89 317.911 Q2006.48 318.42 2004 318.42 Q1997.8 318.42 1994.17 314.809 Q1990.55 311.198 1990.55 305.04 Q1990.55 298.675 1993.98 294.948 Q1997.43 291.198 2003.26 291.198 Q2008.49 291.198 2011.53 294.577 Q2014.58 297.934 2014.58 303.721 M2010.32 302.471 Q2010.28 298.976 2008.36 296.892 Q2006.46 294.809 2003.31 294.809 Q1999.74 294.809 1997.59 296.823 Q1995.46 298.837 1995.14 302.494 L2010.32 302.471 Z" fill="#000000" fill-rule="nonzero" fill-opacity="1" /><path clip-path="url(#clip650)" d="M2033.36 304.716 Q2028.19 304.716 2026.2 305.897 Q2024.21 307.077 2024.21 309.925 Q2024.21 312.193 2025.69 313.536 Q2027.2 314.855 2029.77 314.855 Q2033.31 314.855 2035.44 312.355 Q2037.59 309.832 2037.59 305.665 L2037.59 304.716 L2033.36 304.716 M2041.85 302.957 L2041.85 317.749 L2037.59 317.749 L2037.59 313.813 Q2036.13 316.175 2033.96 317.309 Q2031.78 318.42 2028.63 318.42 Q2024.65 318.42 2022.29 316.198 Q2019.95 313.952 2019.95 310.202 Q2019.95 305.827 2022.87 303.605 Q2025.81 301.383 2031.62 301.383 L2037.59 301.383 L2037.59 300.966 Q2037.59 298.027 2035.65 296.429 Q2033.73 294.809 2030.23 294.809 Q2028.01 294.809 2025.9 295.341 Q2023.79 295.874 2021.85 296.939 L2021.85 293.003 Q2024.19 292.101 2026.39 291.661 Q2028.59 291.198 2030.67 291.198 Q2036.29 291.198 2039.07 294.114 Q2041.85 297.031 2041.85 302.957 Z" fill="#000000" fill-rule="nonzero" fill-opacity="1" /><path clip-path="url(#clip650)" d="M2067.68 295.758 L2067.68 281.73 L2071.94 281.73 L2071.94 317.749 L2067.68 317.749 L2067.68 313.86 Q2066.34 316.175 2064.28 317.309 Q2062.24 318.42 2059.37 318.42 Q2054.67 318.42 2051.71 314.67 Q2048.77 310.92 2048.77 304.809 Q2048.77 298.698 2051.71 294.948 Q2054.67 291.198 2059.37 291.198 Q2062.24 291.198 2064.28 292.332 Q2066.34 293.443 2067.68 295.758 M2053.17 304.809 Q2053.17 309.508 2055.09 312.193 Q2057.04 314.855 2060.42 314.855 Q2063.79 314.855 2065.74 312.193 Q2067.68 309.508 2067.68 304.809 Q2067.68 300.11 2065.74 297.448 Q2063.79 294.763 2060.42 294.763 Q2057.04 294.763 2055.09 297.448 Q2053.17 300.11 2053.17 304.809 Z" fill="#000000" fill-rule="nonzero" fill-opacity="1" /><path clip-path="url(#clip650)" d="M2091.5 320.156 Q2089.7 324.786 2087.98 326.198 Q2086.27 327.61 2083.4 327.61 L2080 327.61 L2080 324.045 L2082.5 324.045 Q2084.26 324.045 2085.23 323.212 Q2086.2 322.378 2087.38 319.276 L2088.15 317.332 L2077.66 291.823 L2082.17 291.823 L2090.28 312.101 L2098.38 291.823 L2102.89 291.823 L2091.5 320.156 Z" fill="#000000" fill-rule="nonzero" fill-opacity="1" /><path clip-path="url(#clip650)" d="M2144.74 284.323 L2144.74 288.883 Q2142.08 287.61 2139.72 286.985 Q2137.36 286.36 2135.16 286.36 Q2131.34 286.36 2129.26 287.841 Q2127.2 289.323 2127.2 292.054 Q2127.2 294.346 2128.56 295.527 Q2129.95 296.684 2133.79 297.402 L2136.62 297.98 Q2141.85 298.976 2144.33 301.499 Q2146.83 303.999 2146.83 308.212 Q2146.83 313.235 2143.45 315.827 Q2140.09 318.42 2133.59 318.42 Q2131.13 318.42 2128.35 317.864 Q2125.6 317.309 2122.64 316.221 L2122.64 311.406 Q2125.48 313.003 2128.22 313.813 Q2130.95 314.624 2133.59 314.624 Q2137.59 314.624 2139.77 313.05 Q2141.94 311.476 2141.94 308.559 Q2141.94 306.013 2140.37 304.577 Q2138.82 303.142 2135.25 302.425 L2132.41 301.869 Q2127.17 300.827 2124.84 298.605 Q2122.5 296.383 2122.5 292.425 Q2122.5 287.841 2125.72 285.202 Q2128.96 282.564 2134.63 282.564 Q2137.06 282.564 2139.58 283.003 Q2142.1 283.443 2144.74 284.323 Z" fill="#000000" fill-rule="nonzero" fill-opacity="1" /><path clip-path="url(#clip650)" d="M2158.15 284.462 L2158.15 291.823 L2166.92 291.823 L2166.92 295.133 L2158.15 295.133 L2158.15 309.207 Q2158.15 312.378 2159 313.281 Q2159.88 314.184 2162.54 314.184 L2166.92 314.184 L2166.92 317.749 L2162.54 317.749 Q2157.61 317.749 2155.74 315.92 Q2153.86 314.068 2153.86 309.207 L2153.86 295.133 L2150.74 295.133 L2150.74 291.823 L2153.86 291.823 L2153.86 284.462 L2158.15 284.462 Z" fill="#000000" fill-rule="nonzero" fill-opacity="1" /><path clip-path="url(#clip650)" d="M2184.3 304.716 Q2179.14 304.716 2177.15 305.897 Q2175.16 307.077 2175.16 309.925 Q2175.16 312.193 2176.64 313.536 Q2178.15 314.855 2180.72 314.855 Q2184.26 314.855 2186.39 312.355 Q2188.54 309.832 2188.54 305.665 L2188.54 304.716 L2184.3 304.716 M2192.8 302.957 L2192.8 317.749 L2188.54 317.749 L2188.54 313.813 Q2187.08 316.175 2184.91 317.309 Q2182.73 318.42 2179.58 318.42 Q2175.6 318.42 2173.24 316.198 Q2170.9 313.952 2170.9 310.202 Q2170.9 305.827 2173.82 303.605 Q2176.76 301.383 2182.57 301.383 L2188.54 301.383 L2188.54 300.966 Q2188.54 298.027 2186.59 296.429 Q2184.67 294.809 2181.18 294.809 Q2178.96 294.809 2176.85 295.341 Q2174.74 295.874 2172.8 296.939 L2172.8 293.003 Q2175.14 292.101 2177.34 291.661 Q2179.53 291.198 2181.62 291.198 Q2187.24 291.198 2190.02 294.114 Q2192.8 297.031 2192.8 302.957 Z" fill="#000000" fill-rule="nonzero" fill-opacity="1" /><path clip-path="url(#clip650)" d="M2205.78 284.462 L2205.78 291.823 L2214.56 291.823 L2214.56 295.133 L2205.78 295.133 L2205.78 309.207 Q2205.78 312.378 2206.64 313.281 Q2207.52 314.184 2210.18 314.184 L2214.56 314.184 L2214.56 317.749 L2210.18 317.749 Q2205.25 317.749 2203.38 315.92 Q2201.5 314.068 2201.5 309.207 L2201.5 295.133 L2198.38 295.133 L2198.38 291.823 L2201.5 291.823 L2201.5 284.462 L2205.78 284.462 Z" fill="#000000" fill-rule="nonzero" fill-opacity="1" /><path clip-path="url(#clip650)" d="M2242.34 303.721 L2242.34 305.804 L2222.75 305.804 Q2223.03 310.202 2225.39 312.517 Q2227.78 314.809 2232.01 314.809 Q2234.47 314.809 2236.76 314.207 Q2239.07 313.605 2241.34 312.401 L2241.34 316.429 Q2239.05 317.401 2236.64 317.911 Q2234.23 318.42 2231.76 318.42 Q2225.55 318.42 2221.92 314.809 Q2218.31 311.198 2218.31 305.04 Q2218.31 298.675 2221.73 294.948 Q2225.18 291.198 2231.02 291.198 Q2236.25 291.198 2239.28 294.577 Q2242.34 297.934 2242.34 303.721 M2238.08 302.471 Q2238.03 298.976 2236.11 296.892 Q2234.21 294.809 2231.06 294.809 Q2227.5 294.809 2225.34 296.823 Q2223.22 298.837 2222.89 302.494 L2238.08 302.471 Z" fill="#000000" fill-rule="nonzero" fill-opacity="1" /><path clip-path="url(#clip650)" d="M2248.65 281.777 L2252.36 281.777 Q2255.83 287.24 2257.54 292.471 Q2259.28 297.702 2259.28 302.864 Q2259.28 308.05 2257.54 313.304 Q2255.83 318.559 2252.36 323.999 L2248.65 323.999 Q2251.73 318.698 2253.24 313.466 Q2254.77 308.212 2254.77 302.864 Q2254.77 297.517 2253.24 292.309 Q2251.73 287.101 2248.65 281.777 Z" fill="#000000" fill-rule="nonzero" fill-opacity="1" /></svg>
