<?xml version="1.0" encoding="UTF-8" standalone="no"?>
<svg
   xmlns:dc="http://purl.org/dc/elements/1.1/"
   xmlns:cc="http://creativecommons.org/ns#"
   xmlns:rdf="http://www.w3.org/1999/02/22-rdf-syntax-ns#"
   xmlns:svg="http://www.w3.org/2000/svg"
   xmlns="http://www.w3.org/2000/svg"
   xmlns:sodipodi="http://sodipodi.sourceforge.net/DTD/sodipodi-0.dtd"
   xmlns:inkscape="http://www.inkscape.org/namespaces/inkscape"
   inkscape:version="1.0 (4035a4f, 2020-05-01)"
   sodipodi:docname="julia-logo-color.svg"
   id="svg21"
   version="1.1"
   viewBox="0 0 320 135"
   height="135pt"
   width="320pt">
  <metadata
     id="metadata27">
    <rdf:RDF>
      <cc:Work
         rdf:about="">
        <dc:format>image/svg+xml</dc:format>
        <dc:type
           rdf:resource="http://purl.org/dc/dcmitype/StillImage" />
        <dc:title></dc:title>
      </cc:Work>
    </rdf:RDF>
  </metadata>
  <defs
     id="defs25" />
  <sodipodi:namedview
     inkscape:current-layer="g94"
     inkscape:window-maximized="1"
     inkscape:window-y="25"
     inkscape:window-x="1920"
     inkscape:cy="-20.726551"
     inkscape:cx="145.66891"
     inkscape:zoom="0.97999832"
     showgrid="false"
     id="namedview23"
     inkscape:window-height="1027"
     inkscape:window-width="1920"
     inkscape:pageshadow="2"
     inkscape:pageopacity="0"
     guidetolerance="10"
     gridtolerance="10"
     objecttolerance="10"
     borderopacity="1"
     bordercolor="#666666"
     pagecolor="#ffffff" />
  <g
     transform="translate(1.7881394e-8,-9)"
     id="g94">
    <g
       id="g105">
      <path
         style="fill:#ca3a33;fill-opacity:1;fill-rule:nonzero;stroke:none"
         d="m 271.24996,63.469802 c 0,9.667968 -7.83594,17.5 -17.5,17.5 -9.66797,0 -17.5,-7.832032 -17.5,-17.5 0,-9.664063 7.83203,-17.5 17.5,-17.5 9.66406,0 17.5,7.835937 17.5,17.5"
         id="path12" />
      <path
         style="fill:#9457b0;fill-opacity:1;fill-rule:nonzero;stroke:none"
         d="m 313.29683,63.469802 c 0,9.667968 -7.83594,17.5 -17.5,17.5 -9.66406,0 -17.5,-7.832032 -17.5,-17.5 0,-9.664063 7.83594,-17.5 17.5,-17.5 9.66406,0 17.5,7.835937 17.5,17.5"
         id="path16" />
      <path
         style="fill:#389723;fill-opacity:1;fill-rule:nonzero;stroke:none"
         d="m 292.2773,27.051833 c 0,9.664063 -7.83594,17.5 -17.5,17.5 -9.66797,0 -17.5,-7.835937 -17.5,-17.5 0,-9.664063 7.83203,-17.5000003 17.5,-17.5000003 9.66406,0 17.5,7.8359373 17.5,17.5000003"
         id="path18" />
    </g>
    <path
       style="fill:#3f61d7;fill-opacity:1;fill-rule:nonzero;stroke:none;stroke-width:1.31283"
       d="m 205.09548,114.37843 c 0,14.18608 -9.20413,25.67824 -20.55557,25.67824 -11.35144,0 -20.55555,-11.49216 -20.55555,-25.67824 0,-14.18034 9.20411,-25.678238 20.55555,-25.678238 11.35144,0 20.55557,11.497898 20.55557,25.678238"
       id="path14-8" />
    <text
       xml:space="preserve"
       style="font-style:normal;font-weight:normal;font-size:115px;line-height:1.45;font-family:sans-serif;fill:#000000;fill-opacity:1;stroke:none;stroke-width:0.75"
       x="-7.7101426"
       y="142.10413"
       id="text31-5"><tspan
         sodipodi:role="line"
         id="tspan29-2"
         x="-7.7101426"
         y="142.10413"
         style="font-style:normal;font-variant:normal;font-weight:bold;font-stretch:normal;font-size:115px;font-family:'Tamil MN';-inkscape-font-specification:'Tamil MN';stroke-width:0.75">Heom</tspan></text>
  </g>
</svg>
