<?xml version="1.0" encoding="utf-8"?>
<svg xmlns="http://www.w3.org/2000/svg" xmlns:xlink="http://www.w3.org/1999/xlink" width="600" height="400" viewBox="0 0 2400 1600">
<defs>
  <clipPath id="clip170">
    <rect x="0" y="0" width="2400" height="1600"/>
  </clipPath>
</defs>
<path clip-path="url(#clip170)" d="M0 1600 L2400 1600 L2400 0 L0 0  Z" fill="#ffffff" fill-rule="evenodd" fill-opacity="1"/>
<defs>
  <clipPath id="clip171">
    <rect x="480" y="0" width="1681" height="1600"/>
  </clipPath>
</defs>
<path clip-path="url(#clip170)" d="M186.274 1486.45 L2352.76 1486.45 L2352.76 47.2441 L186.274 47.2441  Z" fill="#ffffff" fill-rule="evenodd" fill-opacity="1"/>
<defs>
  <clipPath id="clip172">
    <rect x="186" y="47" width="2167" height="1440"/>
  </clipPath>
</defs>
<polyline clip-path="url(#clip172)" style="stroke:#000000; stroke-linecap:round; stroke-linejoin:round; stroke-width:2; stroke-opacity:0.1; fill:none" points="247.59,1486.45 247.59,47.2441 "/>
<polyline clip-path="url(#clip172)" style="stroke:#000000; stroke-linecap:round; stroke-linejoin:round; stroke-width:2; stroke-opacity:0.1; fill:none" points="758.552,1486.45 758.552,47.2441 "/>
<polyline clip-path="url(#clip172)" style="stroke:#000000; stroke-linecap:round; stroke-linejoin:round; stroke-width:2; stroke-opacity:0.1; fill:none" points="1269.51,1486.45 1269.51,47.2441 "/>
<polyline clip-path="url(#clip172)" style="stroke:#000000; stroke-linecap:round; stroke-linejoin:round; stroke-width:2; stroke-opacity:0.1; fill:none" points="1780.48,1486.45 1780.48,47.2441 "/>
<polyline clip-path="url(#clip172)" style="stroke:#000000; stroke-linecap:round; stroke-linejoin:round; stroke-width:2; stroke-opacity:0.1; fill:none" points="2291.44,1486.45 2291.44,47.2441 "/>
<polyline clip-path="url(#clip172)" style="stroke:#000000; stroke-linecap:round; stroke-linejoin:round; stroke-width:2; stroke-opacity:0.1; fill:none" points="186.274,1316.29 2352.76,1316.29 "/>
<polyline clip-path="url(#clip172)" style="stroke:#000000; stroke-linecap:round; stroke-linejoin:round; stroke-width:2; stroke-opacity:0.1; fill:none" points="186.274,1064.09 2352.76,1064.09 "/>
<polyline clip-path="url(#clip172)" style="stroke:#000000; stroke-linecap:round; stroke-linejoin:round; stroke-width:2; stroke-opacity:0.1; fill:none" points="186.274,811.882 2352.76,811.882 "/>
<polyline clip-path="url(#clip172)" style="stroke:#000000; stroke-linecap:round; stroke-linejoin:round; stroke-width:2; stroke-opacity:0.1; fill:none" points="186.274,559.677 2352.76,559.677 "/>
<polyline clip-path="url(#clip172)" style="stroke:#000000; stroke-linecap:round; stroke-linejoin:round; stroke-width:2; stroke-opacity:0.1; fill:none" points="186.274,307.472 2352.76,307.472 "/>
<polyline clip-path="url(#clip172)" style="stroke:#000000; stroke-linecap:round; stroke-linejoin:round; stroke-width:2; stroke-opacity:0.1; fill:none" points="186.274,55.2671 2352.76,55.2671 "/>
<polyline clip-path="url(#clip170)" style="stroke:#000000; stroke-linecap:round; stroke-linejoin:round; stroke-width:4; stroke-opacity:1; fill:none" points="186.274,1486.45 2352.76,1486.45 "/>
<polyline clip-path="url(#clip170)" style="stroke:#000000; stroke-linecap:round; stroke-linejoin:round; stroke-width:4; stroke-opacity:1; fill:none" points="247.59,1486.45 247.59,1467.55 "/>
<polyline clip-path="url(#clip170)" style="stroke:#000000; stroke-linecap:round; stroke-linejoin:round; stroke-width:4; stroke-opacity:1; fill:none" points="758.552,1486.45 758.552,1467.55 "/>
<polyline clip-path="url(#clip170)" style="stroke:#000000; stroke-linecap:round; stroke-linejoin:round; stroke-width:4; stroke-opacity:1; fill:none" points="1269.51,1486.45 1269.51,1467.55 "/>
<polyline clip-path="url(#clip170)" style="stroke:#000000; stroke-linecap:round; stroke-linejoin:round; stroke-width:4; stroke-opacity:1; fill:none" points="1780.48,1486.45 1780.48,1467.55 "/>
<polyline clip-path="url(#clip170)" style="stroke:#000000; stroke-linecap:round; stroke-linejoin:round; stroke-width:4; stroke-opacity:1; fill:none" points="2291.44,1486.45 2291.44,1467.55 "/>
<path clip-path="url(#clip170)" d="M201.652 1532.02 L231.328 1532.02 L231.328 1535.95 L201.652 1535.95 L201.652 1532.02 Z" fill="#000000" fill-rule="nonzero" fill-opacity="1" /><path clip-path="url(#clip170)" d="M242.231 1544.91 L249.87 1544.91 L249.87 1518.55 L241.559 1520.21 L241.559 1515.95 L249.823 1514.29 L254.499 1514.29 L254.499 1544.91 L262.138 1544.91 L262.138 1548.85 L242.231 1548.85 L242.231 1544.91 Z" fill="#000000" fill-rule="nonzero" fill-opacity="1" /><path clip-path="url(#clip170)" d="M281.582 1517.37 Q277.971 1517.37 276.143 1520.93 Q274.337 1524.47 274.337 1531.6 Q274.337 1538.71 276.143 1542.27 Q277.971 1545.82 281.582 1545.82 Q285.217 1545.82 287.022 1542.27 Q288.851 1538.71 288.851 1531.6 Q288.851 1524.47 287.022 1520.93 Q285.217 1517.37 281.582 1517.37 M281.582 1513.66 Q287.393 1513.66 290.448 1518.27 Q293.527 1522.85 293.527 1531.6 Q293.527 1540.33 290.448 1544.94 Q287.393 1549.52 281.582 1549.52 Q275.772 1549.52 272.694 1544.94 Q269.638 1540.33 269.638 1531.6 Q269.638 1522.85 272.694 1518.27 Q275.772 1513.66 281.582 1513.66 Z" fill="#000000" fill-rule="nonzero" fill-opacity="1" /><path clip-path="url(#clip170)" d="M728.194 1532.02 L757.869 1532.02 L757.869 1535.95 L728.194 1535.95 L728.194 1532.02 Z" fill="#000000" fill-rule="nonzero" fill-opacity="1" /><path clip-path="url(#clip170)" d="M768.008 1514.29 L786.365 1514.29 L786.365 1518.22 L772.291 1518.22 L772.291 1526.7 Q773.309 1526.35 774.328 1526.19 Q775.346 1526 776.365 1526 Q782.152 1526 785.531 1529.17 Q788.911 1532.34 788.911 1537.76 Q788.911 1543.34 785.439 1546.44 Q781.966 1549.52 775.647 1549.52 Q773.471 1549.52 771.203 1549.15 Q768.957 1548.78 766.55 1548.04 L766.55 1543.34 Q768.633 1544.47 770.855 1545.03 Q773.078 1545.58 775.554 1545.58 Q779.559 1545.58 781.897 1543.48 Q784.235 1541.37 784.235 1537.76 Q784.235 1534.15 781.897 1532.04 Q779.559 1529.94 775.554 1529.94 Q773.679 1529.94 771.804 1530.35 Q769.953 1530.77 768.008 1531.65 L768.008 1514.29 Z" fill="#000000" fill-rule="nonzero" fill-opacity="1" /><path clip-path="url(#clip170)" d="M1269.51 1517.37 Q1265.9 1517.37 1264.08 1520.93 Q1262.27 1524.47 1262.27 1531.6 Q1262.27 1538.71 1264.08 1542.27 Q1265.9 1545.82 1269.51 1545.82 Q1273.15 1545.82 1274.95 1542.27 Q1276.78 1538.71 1276.78 1531.6 Q1276.78 1524.47 1274.95 1520.93 Q1273.15 1517.37 1269.51 1517.37 M1269.51 1513.66 Q1275.33 1513.66 1278.38 1518.27 Q1281.46 1522.85 1281.46 1531.6 Q1281.46 1540.33 1278.38 1544.94 Q1275.33 1549.52 1269.51 1549.52 Q1263.7 1549.52 1260.63 1544.94 Q1257.57 1540.33 1257.57 1531.6 Q1257.57 1522.85 1260.63 1518.27 Q1263.7 1513.66 1269.51 1513.66 Z" fill="#000000" fill-rule="nonzero" fill-opacity="1" /><path clip-path="url(#clip170)" d="M1770.76 1514.29 L1789.11 1514.29 L1789.11 1518.22 L1775.04 1518.22 L1775.04 1526.7 Q1776.06 1526.35 1777.07 1526.19 Q1778.09 1526 1779.11 1526 Q1784.9 1526 1788.28 1529.17 Q1791.66 1532.34 1791.66 1537.76 Q1791.66 1543.34 1788.19 1546.44 Q1784.71 1549.52 1778.39 1549.52 Q1776.22 1549.52 1773.95 1549.15 Q1771.7 1548.78 1769.3 1548.04 L1769.3 1543.34 Q1771.38 1544.47 1773.6 1545.03 Q1775.82 1545.58 1778.3 1545.58 Q1782.31 1545.58 1784.64 1543.48 Q1786.98 1541.37 1786.98 1537.76 Q1786.98 1534.15 1784.64 1532.04 Q1782.31 1529.94 1778.3 1529.94 Q1776.43 1529.94 1774.55 1530.35 Q1772.7 1530.77 1770.76 1531.65 L1770.76 1514.29 Z" fill="#000000" fill-rule="nonzero" fill-opacity="1" /><path clip-path="url(#clip170)" d="M2266.13 1544.91 L2273.77 1544.91 L2273.77 1518.55 L2265.46 1520.21 L2265.46 1515.95 L2273.72 1514.29 L2278.4 1514.29 L2278.4 1544.91 L2286.04 1544.91 L2286.04 1548.85 L2266.13 1548.85 L2266.13 1544.91 Z" fill="#000000" fill-rule="nonzero" fill-opacity="1" /><path clip-path="url(#clip170)" d="M2305.48 1517.37 Q2301.87 1517.37 2300.04 1520.93 Q2298.23 1524.47 2298.23 1531.6 Q2298.23 1538.71 2300.04 1542.27 Q2301.87 1545.82 2305.48 1545.82 Q2309.11 1545.82 2310.92 1542.27 Q2312.75 1538.71 2312.75 1531.6 Q2312.75 1524.47 2310.92 1520.93 Q2309.11 1517.37 2305.48 1517.37 M2305.48 1513.66 Q2311.29 1513.66 2314.35 1518.27 Q2317.42 1522.85 2317.42 1531.6 Q2317.42 1540.33 2314.35 1544.94 Q2311.29 1549.52 2305.48 1549.52 Q2299.67 1549.52 2296.59 1544.94 Q2293.54 1540.33 2293.54 1531.6 Q2293.54 1522.85 2296.59 1518.27 Q2299.67 1513.66 2305.48 1513.66 Z" fill="#000000" fill-rule="nonzero" fill-opacity="1" /><polyline clip-path="url(#clip170)" style="stroke:#000000; stroke-linecap:round; stroke-linejoin:round; stroke-width:4; stroke-opacity:1; fill:none" points="186.274,1486.45 186.274,47.2441 "/>
<polyline clip-path="url(#clip170)" style="stroke:#000000; stroke-linecap:round; stroke-linejoin:round; stroke-width:4; stroke-opacity:1; fill:none" points="186.274,1316.29 205.172,1316.29 "/>
<polyline clip-path="url(#clip170)" style="stroke:#000000; stroke-linecap:round; stroke-linejoin:round; stroke-width:4; stroke-opacity:1; fill:none" points="186.274,1064.09 205.172,1064.09 "/>
<polyline clip-path="url(#clip170)" style="stroke:#000000; stroke-linecap:round; stroke-linejoin:round; stroke-width:4; stroke-opacity:1; fill:none" points="186.274,811.882 205.172,811.882 "/>
<polyline clip-path="url(#clip170)" style="stroke:#000000; stroke-linecap:round; stroke-linejoin:round; stroke-width:4; stroke-opacity:1; fill:none" points="186.274,559.677 205.172,559.677 "/>
<polyline clip-path="url(#clip170)" style="stroke:#000000; stroke-linecap:round; stroke-linejoin:round; stroke-width:4; stroke-opacity:1; fill:none" points="186.274,307.472 205.172,307.472 "/>
<polyline clip-path="url(#clip170)" style="stroke:#000000; stroke-linecap:round; stroke-linejoin:round; stroke-width:4; stroke-opacity:1; fill:none" points="186.274,55.2671 205.172,55.2671 "/>
<path clip-path="url(#clip170)" d="M63.9319 1302.09 Q60.3208 1302.09 58.4921 1305.66 Q56.6865 1309.2 56.6865 1316.33 Q56.6865 1323.43 58.4921 1327 Q60.3208 1330.54 63.9319 1330.54 Q67.5661 1330.54 69.3717 1327 Q71.2004 1323.43 71.2004 1316.33 Q71.2004 1309.2 69.3717 1305.66 Q67.5661 1302.09 63.9319 1302.09 M63.9319 1298.39 Q69.742 1298.39 72.7976 1302.99 Q75.8763 1307.58 75.8763 1316.33 Q75.8763 1325.05 72.7976 1329.66 Q69.742 1334.24 63.9319 1334.24 Q58.1217 1334.24 55.043 1329.66 Q51.9875 1325.05 51.9875 1316.33 Q51.9875 1307.58 55.043 1302.99 Q58.1217 1298.39 63.9319 1298.39 Z" fill="#000000" fill-rule="nonzero" fill-opacity="1" /><path clip-path="url(#clip170)" d="M84.0938 1327.69 L88.978 1327.69 L88.978 1333.57 L84.0938 1333.57 L84.0938 1327.69 Z" fill="#000000" fill-rule="nonzero" fill-opacity="1" /><path clip-path="url(#clip170)" d="M109.163 1302.09 Q105.552 1302.09 103.723 1305.66 Q101.918 1309.2 101.918 1316.33 Q101.918 1323.43 103.723 1327 Q105.552 1330.54 109.163 1330.54 Q112.797 1330.54 114.603 1327 Q116.432 1323.43 116.432 1316.33 Q116.432 1309.2 114.603 1305.66 Q112.797 1302.09 109.163 1302.09 M109.163 1298.39 Q114.973 1298.39 118.029 1302.99 Q121.107 1307.58 121.107 1316.33 Q121.107 1325.05 118.029 1329.66 Q114.973 1334.24 109.163 1334.24 Q103.353 1334.24 100.274 1329.66 Q97.2187 1325.05 97.2187 1316.33 Q97.2187 1307.58 100.274 1302.99 Q103.353 1298.39 109.163 1298.39 Z" fill="#000000" fill-rule="nonzero" fill-opacity="1" /><path clip-path="url(#clip170)" d="M129.371 1299.01 L147.728 1299.01 L147.728 1302.95 L133.654 1302.95 L133.654 1311.42 Q134.672 1311.07 135.691 1310.91 Q136.709 1310.73 137.728 1310.73 Q143.515 1310.73 146.894 1313.9 Q150.274 1317.07 150.274 1322.48 Q150.274 1328.06 146.802 1331.16 Q143.33 1334.24 137.01 1334.24 Q134.834 1334.24 132.566 1333.87 Q130.32 1333.5 127.913 1332.76 L127.913 1328.06 Q129.996 1329.2 132.219 1329.75 Q134.441 1330.31 136.918 1330.31 Q140.922 1330.31 143.26 1328.2 Q145.598 1326.1 145.598 1322.48 Q145.598 1318.87 143.26 1316.77 Q140.922 1314.66 136.918 1314.66 Q135.043 1314.66 133.168 1315.08 Q131.316 1315.49 129.371 1316.37 L129.371 1299.01 Z" fill="#000000" fill-rule="nonzero" fill-opacity="1" /><path clip-path="url(#clip170)" d="M62.9365 1049.89 Q59.3254 1049.89 57.4967 1053.45 Q55.6912 1056.99 55.6912 1064.12 Q55.6912 1071.23 57.4967 1074.79 Q59.3254 1078.33 62.9365 1078.33 Q66.5707 1078.33 68.3763 1074.79 Q70.205 1071.23 70.205 1064.12 Q70.205 1056.99 68.3763 1053.45 Q66.5707 1049.89 62.9365 1049.89 M62.9365 1046.18 Q68.7467 1046.18 71.8022 1050.79 Q74.8809 1055.37 74.8809 1064.12 Q74.8809 1072.85 71.8022 1077.46 Q68.7467 1082.04 62.9365 1082.04 Q57.1264 1082.04 54.0477 1077.46 Q50.9921 1072.85 50.9921 1064.12 Q50.9921 1055.37 54.0477 1050.79 Q57.1264 1046.18 62.9365 1046.18 Z" fill="#000000" fill-rule="nonzero" fill-opacity="1" /><path clip-path="url(#clip170)" d="M83.0984 1075.49 L87.9827 1075.49 L87.9827 1081.37 L83.0984 1081.37 L83.0984 1075.49 Z" fill="#000000" fill-rule="nonzero" fill-opacity="1" /><path clip-path="url(#clip170)" d="M98.978 1077.43 L106.617 1077.43 L106.617 1051.07 L98.3067 1052.73 L98.3067 1048.47 L106.571 1046.81 L111.246 1046.81 L111.246 1077.43 L118.885 1077.43 L118.885 1081.37 L98.978 1081.37 L98.978 1077.43 Z" fill="#000000" fill-rule="nonzero" fill-opacity="1" /><path clip-path="url(#clip170)" d="M138.33 1049.89 Q134.719 1049.89 132.89 1053.45 Q131.084 1056.99 131.084 1064.12 Q131.084 1071.23 132.89 1074.79 Q134.719 1078.33 138.33 1078.33 Q141.964 1078.33 143.769 1074.79 Q145.598 1071.23 145.598 1064.12 Q145.598 1056.99 143.769 1053.45 Q141.964 1049.89 138.33 1049.89 M138.33 1046.18 Q144.14 1046.18 147.195 1050.79 Q150.274 1055.37 150.274 1064.12 Q150.274 1072.85 147.195 1077.46 Q144.14 1082.04 138.33 1082.04 Q132.519 1082.04 129.441 1077.46 Q126.385 1072.85 126.385 1064.12 Q126.385 1055.37 129.441 1050.79 Q132.519 1046.18 138.33 1046.18 Z" fill="#000000" fill-rule="nonzero" fill-opacity="1" /><path clip-path="url(#clip170)" d="M63.9319 797.681 Q60.3208 797.681 58.4921 801.246 Q56.6865 804.787 56.6865 811.917 Q56.6865 819.023 58.4921 822.588 Q60.3208 826.13 63.9319 826.13 Q67.5661 826.13 69.3717 822.588 Q71.2004 819.023 71.2004 811.917 Q71.2004 804.787 69.3717 801.246 Q67.5661 797.681 63.9319 797.681 M63.9319 793.977 Q69.742 793.977 72.7976 798.584 Q75.8763 803.167 75.8763 811.917 Q75.8763 820.644 72.7976 825.25 Q69.742 829.834 63.9319 829.834 Q58.1217 829.834 55.043 825.25 Q51.9875 820.644 51.9875 811.917 Q51.9875 803.167 55.043 798.584 Q58.1217 793.977 63.9319 793.977 Z" fill="#000000" fill-rule="nonzero" fill-opacity="1" /><path clip-path="url(#clip170)" d="M84.0938 823.283 L88.978 823.283 L88.978 829.162 L84.0938 829.162 L84.0938 823.283 Z" fill="#000000" fill-rule="nonzero" fill-opacity="1" /><path clip-path="url(#clip170)" d="M99.9733 825.227 L107.612 825.227 L107.612 798.861 L99.3021 800.528 L99.3021 796.269 L107.566 794.602 L112.242 794.602 L112.242 825.227 L119.881 825.227 L119.881 829.162 L99.9733 829.162 L99.9733 825.227 Z" fill="#000000" fill-rule="nonzero" fill-opacity="1" /><path clip-path="url(#clip170)" d="M129.371 794.602 L147.728 794.602 L147.728 798.537 L133.654 798.537 L133.654 807.01 Q134.672 806.662 135.691 806.5 Q136.709 806.315 137.728 806.315 Q143.515 806.315 146.894 809.486 Q150.274 812.658 150.274 818.074 Q150.274 823.653 146.802 826.755 Q143.33 829.834 137.01 829.834 Q134.834 829.834 132.566 829.463 Q130.32 829.093 127.913 828.352 L127.913 823.653 Q129.996 824.787 132.219 825.343 Q134.441 825.898 136.918 825.898 Q140.922 825.898 143.26 823.792 Q145.598 821.685 145.598 818.074 Q145.598 814.463 143.26 812.357 Q140.922 810.25 136.918 810.25 Q135.043 810.25 133.168 810.667 Q131.316 811.084 129.371 811.963 L129.371 794.602 Z" fill="#000000" fill-rule="nonzero" fill-opacity="1" /><path clip-path="url(#clip170)" d="M62.9365 545.476 Q59.3254 545.476 57.4967 549.041 Q55.6912 552.582 55.6912 559.712 Q55.6912 566.818 57.4967 570.383 Q59.3254 573.925 62.9365 573.925 Q66.5707 573.925 68.3763 570.383 Q70.205 566.818 70.205 559.712 Q70.205 552.582 68.3763 549.041 Q66.5707 545.476 62.9365 545.476 M62.9365 541.772 Q68.7467 541.772 71.8022 546.379 Q74.8809 550.962 74.8809 559.712 Q74.8809 568.439 71.8022 573.045 Q68.7467 577.628 62.9365 577.628 Q57.1264 577.628 54.0477 573.045 Q50.9921 568.439 50.9921 559.712 Q50.9921 550.962 54.0477 546.379 Q57.1264 541.772 62.9365 541.772 Z" fill="#000000" fill-rule="nonzero" fill-opacity="1" /><path clip-path="url(#clip170)" d="M83.0984 571.078 L87.9827 571.078 L87.9827 576.957 L83.0984 576.957 L83.0984 571.078 Z" fill="#000000" fill-rule="nonzero" fill-opacity="1" /><path clip-path="url(#clip170)" d="M102.196 573.022 L118.515 573.022 L118.515 576.957 L96.5706 576.957 L96.5706 573.022 Q99.2326 570.267 103.816 565.638 Q108.422 560.985 109.603 559.642 Q111.848 557.119 112.728 555.383 Q113.631 553.624 113.631 551.934 Q113.631 549.18 111.686 547.443 Q109.765 545.707 106.663 545.707 Q104.464 545.707 102.01 546.471 Q99.5798 547.235 96.8021 548.786 L96.8021 544.064 Q99.6261 542.93 102.08 542.351 Q104.534 541.772 106.571 541.772 Q111.941 541.772 115.135 544.457 Q118.33 547.143 118.33 551.633 Q118.33 553.763 117.52 555.684 Q116.733 557.582 114.626 560.175 Q114.047 560.846 110.946 564.064 Q107.844 567.258 102.196 573.022 Z" fill="#000000" fill-rule="nonzero" fill-opacity="1" /><path clip-path="url(#clip170)" d="M138.33 545.476 Q134.719 545.476 132.89 549.041 Q131.084 552.582 131.084 559.712 Q131.084 566.818 132.89 570.383 Q134.719 573.925 138.33 573.925 Q141.964 573.925 143.769 570.383 Q145.598 566.818 145.598 559.712 Q145.598 552.582 143.769 549.041 Q141.964 545.476 138.33 545.476 M138.33 541.772 Q144.14 541.772 147.195 546.379 Q150.274 550.962 150.274 559.712 Q150.274 568.439 147.195 573.045 Q144.14 577.628 138.33 577.628 Q132.519 577.628 129.441 573.045 Q126.385 568.439 126.385 559.712 Q126.385 550.962 129.441 546.379 Q132.519 541.772 138.33 541.772 Z" fill="#000000" fill-rule="nonzero" fill-opacity="1" /><path clip-path="url(#clip170)" d="M63.9319 293.271 Q60.3208 293.271 58.4921 296.836 Q56.6865 300.377 56.6865 307.507 Q56.6865 314.613 58.4921 318.178 Q60.3208 321.72 63.9319 321.72 Q67.5661 321.72 69.3717 318.178 Q71.2004 314.613 71.2004 307.507 Q71.2004 300.377 69.3717 296.836 Q67.5661 293.271 63.9319 293.271 M63.9319 289.567 Q69.742 289.567 72.7976 294.174 Q75.8763 298.757 75.8763 307.507 Q75.8763 316.234 72.7976 320.84 Q69.742 325.423 63.9319 325.423 Q58.1217 325.423 55.043 320.84 Q51.9875 316.234 51.9875 307.507 Q51.9875 298.757 55.043 294.174 Q58.1217 289.567 63.9319 289.567 Z" fill="#000000" fill-rule="nonzero" fill-opacity="1" /><path clip-path="url(#clip170)" d="M84.0938 318.873 L88.978 318.873 L88.978 324.752 L84.0938 324.752 L84.0938 318.873 Z" fill="#000000" fill-rule="nonzero" fill-opacity="1" /><path clip-path="url(#clip170)" d="M103.191 320.817 L119.51 320.817 L119.51 324.752 L97.566 324.752 L97.566 320.817 Q100.228 318.062 104.811 313.433 Q109.418 308.78 110.598 307.437 Q112.844 304.914 113.723 303.178 Q114.626 301.419 114.626 299.729 Q114.626 296.975 112.682 295.238 Q110.76 293.502 107.658 293.502 Q105.459 293.502 103.006 294.266 Q100.575 295.03 97.7974 296.581 L97.7974 291.859 Q100.621 290.725 103.075 290.146 Q105.529 289.567 107.566 289.567 Q112.936 289.567 116.131 292.252 Q119.325 294.938 119.325 299.428 Q119.325 301.558 118.515 303.479 Q117.728 305.377 115.621 307.97 Q115.043 308.641 111.941 311.859 Q108.839 315.053 103.191 320.817 Z" fill="#000000" fill-rule="nonzero" fill-opacity="1" /><path clip-path="url(#clip170)" d="M129.371 290.192 L147.728 290.192 L147.728 294.127 L133.654 294.127 L133.654 302.6 Q134.672 302.252 135.691 302.09 Q136.709 301.905 137.728 301.905 Q143.515 301.905 146.894 305.076 Q150.274 308.248 150.274 313.664 Q150.274 319.243 146.802 322.345 Q143.33 325.423 137.01 325.423 Q134.834 325.423 132.566 325.053 Q130.32 324.683 127.913 323.942 L127.913 319.243 Q129.996 320.377 132.219 320.933 Q134.441 321.488 136.918 321.488 Q140.922 321.488 143.26 319.382 Q145.598 317.275 145.598 313.664 Q145.598 310.053 143.26 307.947 Q140.922 305.84 136.918 305.84 Q135.043 305.84 133.168 306.257 Q131.316 306.674 129.371 307.553 L129.371 290.192 Z" fill="#000000" fill-rule="nonzero" fill-opacity="1" /><path clip-path="url(#clip170)" d="M62.9365 41.0658 Q59.3254 41.0658 57.4967 44.6306 Q55.6912 48.1723 55.6912 55.3019 Q55.6912 62.4083 57.4967 65.9731 Q59.3254 69.5148 62.9365 69.5148 Q66.5707 69.5148 68.3763 65.9731 Q70.205 62.4083 70.205 55.3019 Q70.205 48.1723 68.3763 44.6306 Q66.5707 41.0658 62.9365 41.0658 M62.9365 37.3622 Q68.7467 37.3622 71.8022 41.9686 Q74.8809 46.5519 74.8809 55.3019 Q74.8809 64.0287 71.8022 68.6351 Q68.7467 73.2184 62.9365 73.2184 Q57.1264 73.2184 54.0477 68.6351 Q50.9921 64.0287 50.9921 55.3019 Q50.9921 46.5519 54.0477 41.9686 Q57.1264 37.3622 62.9365 37.3622 Z" fill="#000000" fill-rule="nonzero" fill-opacity="1" /><path clip-path="url(#clip170)" d="M83.0984 66.6675 L87.9827 66.6675 L87.9827 72.5471 L83.0984 72.5471 L83.0984 66.6675 Z" fill="#000000" fill-rule="nonzero" fill-opacity="1" /><path clip-path="url(#clip170)" d="M112.334 53.913 Q115.691 54.6306 117.566 56.8991 Q119.464 59.1676 119.464 62.5009 Q119.464 67.6166 115.945 70.4175 Q112.427 73.2184 105.946 73.2184 Q103.77 73.2184 101.455 72.7786 Q99.1632 72.362 96.7095 71.5055 L96.7095 66.9916 Q98.6539 68.1259 100.969 68.7046 Q103.284 69.2833 105.807 69.2833 Q110.205 69.2833 112.496 67.5472 Q114.811 65.8111 114.811 62.5009 Q114.811 59.4454 112.658 57.7324 Q110.529 55.9963 106.709 55.9963 L102.682 55.9963 L102.682 52.1537 L106.895 52.1537 Q110.344 52.1537 112.172 50.788 Q114.001 49.3991 114.001 46.8065 Q114.001 44.1445 112.103 42.7325 Q110.228 41.2973 106.709 41.2973 Q104.788 41.2973 102.589 41.714 Q100.39 42.1306 97.7511 43.0103 L97.7511 38.8436 Q100.413 38.1029 102.728 37.7325 Q105.066 37.3622 107.126 37.3622 Q112.45 37.3622 115.552 39.7927 Q118.654 42.2001 118.654 46.3204 Q118.654 49.1908 117.01 51.1815 Q115.367 53.1491 112.334 53.913 Z" fill="#000000" fill-rule="nonzero" fill-opacity="1" /><path clip-path="url(#clip170)" d="M138.33 41.0658 Q134.719 41.0658 132.89 44.6306 Q131.084 48.1723 131.084 55.3019 Q131.084 62.4083 132.89 65.9731 Q134.719 69.5148 138.33 69.5148 Q141.964 69.5148 143.769 65.9731 Q145.598 62.4083 145.598 55.3019 Q145.598 48.1723 143.769 44.6306 Q141.964 41.0658 138.33 41.0658 M138.33 37.3622 Q144.14 37.3622 147.195 41.9686 Q150.274 46.5519 150.274 55.3019 Q150.274 64.0287 147.195 68.6351 Q144.14 73.2184 138.33 73.2184 Q132.519 73.2184 129.441 68.6351 Q126.385 64.0287 126.385 55.3019 Q126.385 46.5519 129.441 41.9686 Q132.519 37.3622 138.33 37.3622 Z" fill="#000000" fill-rule="nonzero" fill-opacity="1" /><polyline clip-path="url(#clip172)" style="stroke:#009af9; stroke-linecap:round; stroke-linejoin:round; stroke-width:4; stroke-opacity:1; fill:none" points="247.59,1445.72 349.782,1343.25 451.975,1110.64 554.167,595.042 656.36,87.9763 758.552,389.837 860.745,768.267 962.937,944.044 1065.13,974.7 1167.32,835.877 1269.51,583.116 1371.71,835.877 1473.9,974.7 1576.09,944.044 1678.29,768.267 1780.48,389.837 1882.67,87.9763 1984.86,595.042 2087.06,1110.64 2189.25,1343.25 2291.44,1445.72 "/>
<path clip-path="url(#clip170)" d="M2011.46 198.898 L2280.54 198.898 L2280.54 95.2176 L2011.46 95.2176  Z" fill="#ffffff" fill-rule="evenodd" fill-opacity="1"/>
<polyline clip-path="url(#clip170)" style="stroke:#000000; stroke-linecap:round; stroke-linejoin:round; stroke-width:4; stroke-opacity:1; fill:none" points="2011.46,198.898 2280.54,198.898 2280.54,95.2176 2011.46,95.2176 2011.46,198.898 "/>
<polyline clip-path="url(#clip170)" style="stroke:#009af9; stroke-linecap:round; stroke-linejoin:round; stroke-width:4; stroke-opacity:1; fill:none" points="2035.53,147.058 2179.97,147.058 "/>
<path clip-path="url(#clip170)" d="M2217.88 166.745 Q2216.07 171.375 2214.36 172.787 Q2212.65 174.199 2209.78 174.199 L2206.38 174.199 L2206.38 170.634 L2208.88 170.634 Q2210.63 170.634 2211.61 169.8 Q2212.58 168.967 2213.76 165.865 L2214.52 163.921 L2204.04 138.412 L2208.55 138.412 L2216.65 158.689 L2224.76 138.412 L2229.27 138.412 L2217.88 166.745 Z" fill="#000000" fill-rule="nonzero" fill-opacity="1" /><path clip-path="url(#clip170)" d="M2236.56 160.402 L2244.2 160.402 L2244.2 134.037 L2235.89 135.703 L2235.89 131.444 L2244.15 129.778 L2248.83 129.778 L2248.83 160.402 L2256.47 160.402 L2256.47 164.338 L2236.56 164.338 L2236.56 160.402 Z" fill="#000000" fill-rule="nonzero" fill-opacity="1" /></svg>
