<?xml version="1.0" encoding="utf-8"?>
<svg xmlns="http://www.w3.org/2000/svg" xmlns:xlink="http://www.w3.org/1999/xlink" width="600" height="400" viewBox="0 0 2400 1600">
<defs>
  <clipPath id="clip640">
    <rect x="0" y="0" width="2400" height="1600"/>
  </clipPath>
</defs>
<path clip-path="url(#clip640)" d="
M0 1600 L2400 1600 L2400 0 L0 0  Z
  " fill="#ffffff" fill-rule="evenodd" fill-opacity="1"/>
<defs>
  <clipPath id="clip641">
    <rect x="480" y="0" width="1681" height="1600"/>
  </clipPath>
</defs>
<path clip-path="url(#clip640)" d="
M300.775 1384.3 L2352.76 1384.3 L2352.76 47.2441 L300.775 47.2441  Z
  " fill="#ffffff" fill-rule="evenodd" fill-opacity="1"/>
<defs>
  <clipPath id="clip642">
    <rect x="300" y="47" width="2053" height="1338"/>
  </clipPath>
</defs>
<polyline clip-path="url(#clip640)" style="stroke:#000000; stroke-linecap:round; stroke-linejoin:round; stroke-width:4; stroke-opacity:1; fill:none" points="
  300.775,1384.3 2352.76,1384.3 
  "/>
<polyline clip-path="url(#clip640)" style="stroke:#000000; stroke-linecap:round; stroke-linejoin:round; stroke-width:4; stroke-opacity:1; fill:none" points="
  358.85,1384.3 358.85,1365.4 
  "/>
<polyline clip-path="url(#clip640)" style="stroke:#000000; stroke-linecap:round; stroke-linejoin:round; stroke-width:4; stroke-opacity:1; fill:none" points="
  746.016,1384.3 746.016,1365.4 
  "/>
<polyline clip-path="url(#clip640)" style="stroke:#000000; stroke-linecap:round; stroke-linejoin:round; stroke-width:4; stroke-opacity:1; fill:none" points="
  1133.18,1384.3 1133.18,1365.4 
  "/>
<polyline clip-path="url(#clip640)" style="stroke:#000000; stroke-linecap:round; stroke-linejoin:round; stroke-width:4; stroke-opacity:1; fill:none" points="
  1520.35,1384.3 1520.35,1365.4 
  "/>
<polyline clip-path="url(#clip640)" style="stroke:#000000; stroke-linecap:round; stroke-linejoin:round; stroke-width:4; stroke-opacity:1; fill:none" points="
  1907.51,1384.3 1907.51,1365.4 
  "/>
<polyline clip-path="url(#clip640)" style="stroke:#000000; stroke-linecap:round; stroke-linejoin:round; stroke-width:4; stroke-opacity:1; fill:none" points="
  2294.68,1384.3 2294.68,1365.4 
  "/>
<path clip-path="url(#clip640)" d="M342.879 1444.03 Q342.879 1432.88 345.695 1426.8 Q349.623 1417.76 358.887 1417.76 Q360.851 1417.76 362.889 1418.31 Q364.964 1418.83 367.558 1420.87 Q370.188 1422.91 371.782 1426.24 Q374.82 1432.69 374.82 1444.03 Q374.82 1455.11 372.004 1461.15 Q367.891 1469.97 358.813 1469.97 Q355.403 1469.97 351.92 1468.23 Q348.474 1466.48 346.288 1462.3 Q342.879 1456.03 342.879 1444.03 M349.178 1443.1 Q349.178 1454.55 349.993 1459.11 Q350.92 1464.04 353.44 1466.19 Q355.996 1468.3 358.813 1468.3 Q361.851 1468.3 364.371 1466.04 Q366.928 1463.74 367.706 1458.81 Q368.558 1453.96 368.521 1443.1 Q368.521 1432.54 367.78 1428.32 Q366.779 1423.39 364.111 1421.43 Q361.48 1419.42 358.813 1419.42 Q357.812 1419.42 356.737 1419.72 Q355.7 1420.02 354.181 1420.87 Q352.661 1421.72 351.476 1423.83 Q350.327 1425.95 349.771 1429.13 Q349.178 1433.25 349.178 1443.1 Z" fill="#000000" fill-rule="evenodd" fill-opacity="1" /><path clip-path="url(#clip640)" d="M733.491 1424.98 L733.491 1422.61 Q742.607 1422.61 747.313 1417.76 Q748.61 1417.76 748.832 1418.05 Q749.054 1418.35 749.054 1419.72 L749.054 1462.3 Q749.054 1464.56 750.166 1465.26 Q751.278 1465.97 756.132 1465.97 L758.54 1465.97 L758.54 1468.3 Q755.872 1468.08 746.238 1468.08 Q736.604 1468.08 733.973 1468.3 L733.973 1465.97 L736.382 1465.97 Q741.162 1465.97 742.31 1465.3 Q743.459 1464.59 743.459 1462.3 L743.459 1422.98 Q739.494 1424.98 733.491 1424.98 Z" fill="#000000" fill-rule="evenodd" fill-opacity="1" /><path clip-path="url(#clip640)" d="M1118.03 1468.3 Q1118.03 1466.93 1118.14 1466.52 Q1118.29 1466.11 1118.88 1465.48 L1133.44 1449.25 Q1141.41 1440.29 1141.41 1432.47 Q1141.41 1427.39 1138.74 1423.76 Q1136.11 1420.13 1131.26 1420.13 Q1127.92 1420.13 1125.1 1422.17 Q1122.29 1424.2 1120.99 1427.84 Q1121.21 1427.76 1121.99 1427.76 Q1123.88 1427.76 1124.92 1428.95 Q1125.99 1430.13 1125.99 1431.73 Q1125.99 1433.76 1124.66 1434.77 Q1123.36 1435.73 1122.07 1435.73 Q1121.55 1435.73 1120.84 1435.62 Q1120.18 1435.51 1119.1 1434.47 Q1118.03 1433.39 1118.03 1431.5 Q1118.03 1426.21 1122.03 1421.98 Q1126.07 1417.76 1132.22 1417.76 Q1139.19 1417.76 1143.74 1421.91 Q1148.34 1426.02 1148.34 1432.47 Q1148.34 1434.73 1147.63 1436.8 Q1146.97 1438.84 1146.04 1440.43 Q1145.15 1442.03 1142.71 1444.58 Q1140.26 1447.14 1138.3 1448.96 Q1136.33 1450.77 1131.92 1454.63 L1123.88 1462.45 L1137.55 1462.45 Q1144.22 1462.45 1144.74 1461.85 Q1145.48 1460.78 1146.41 1455.11 L1148.34 1455.11 L1146.19 1468.3 L1118.03 1468.3 Z" fill="#000000" fill-rule="evenodd" fill-opacity="1" /><path clip-path="url(#clip640)" d="M1504.6 1458.07 Q1504.6 1455.81 1505.9 1454.74 Q1507.19 1453.66 1508.86 1453.66 Q1510.6 1453.66 1511.83 1454.81 Q1513.09 1455.92 1513.09 1457.89 Q1513.09 1460 1511.6 1461.19 Q1510.16 1462.37 1508.08 1462.07 Q1509.9 1465.11 1513.23 1466.48 Q1516.61 1467.86 1519.72 1467.86 Q1522.98 1467.86 1525.61 1465.04 Q1528.28 1462.22 1528.28 1455.33 Q1528.28 1449.48 1525.98 1446.1 Q1523.72 1442.73 1519.24 1442.73 L1515.9 1442.73 Q1514.75 1442.73 1514.42 1442.62 Q1514.09 1442.51 1514.09 1441.88 Q1514.09 1441.14 1515.23 1440.99 Q1516.38 1440.99 1518.2 1440.77 Q1522.61 1440.62 1524.94 1436.8 Q1527.06 1433.25 1527.06 1428.17 Q1527.06 1423.54 1524.83 1421.61 Q1522.65 1419.65 1519.79 1419.65 Q1517.12 1419.65 1514.2 1420.76 Q1511.27 1421.87 1509.68 1424.35 Q1514.38 1424.35 1514.38 1428.17 Q1514.38 1429.84 1513.31 1430.95 Q1512.27 1432.02 1510.53 1432.02 Q1508.86 1432.02 1507.75 1430.99 Q1506.64 1429.91 1506.64 1428.1 Q1506.64 1423.76 1510.49 1420.76 Q1514.38 1417.76 1520.09 1417.76 Q1525.72 1417.76 1529.87 1420.72 Q1534.06 1423.69 1534.06 1428.24 Q1534.06 1432.73 1531.09 1436.4 Q1528.13 1440.06 1523.42 1441.58 Q1529.2 1442.73 1532.65 1446.66 Q1536.1 1450.55 1536.1 1455.33 Q1536.1 1461.26 1531.43 1465.63 Q1526.76 1469.97 1519.94 1469.97 Q1513.64 1469.97 1509.12 1466.56 Q1504.6 1463.15 1504.6 1458.07 Z" fill="#000000" fill-rule="evenodd" fill-opacity="1" /><path clip-path="url(#clip640)" d="M1890.69 1455.78 L1890.69 1453.44 L1914 1417.83 Q1914.59 1416.9 1915.52 1416.94 Q1916.37 1416.94 1916.56 1417.28 Q1916.74 1417.61 1916.74 1418.91 L1916.74 1453.44 L1924.34 1453.44 L1924.34 1455.78 L1916.74 1455.78 L1916.74 1462.37 Q1916.74 1464.56 1917.63 1465.26 Q1918.56 1465.97 1922.48 1465.97 L1924.08 1465.97 L1924.08 1468.3 Q1920.97 1468.08 1913.78 1468.08 Q1906.63 1468.08 1903.51 1468.3 L1903.51 1465.97 L1905.11 1465.97 Q1909.03 1465.97 1909.96 1465.3 Q1910.89 1464.59 1910.89 1462.37 L1910.89 1455.78 L1890.69 1455.78 M1892.84 1453.44 L1911.33 1453.44 L1911.33 1425.13 L1892.84 1453.44 Z" fill="#000000" fill-rule="evenodd" fill-opacity="1" /><path clip-path="url(#clip640)" d="M2279.53 1456.07 Q2279.53 1453.81 2280.75 1452.96 Q2281.97 1452.07 2283.27 1452.07 Q2285.01 1452.07 2286.01 1453.18 Q2287.05 1454.26 2287.05 1455.78 Q2287.05 1457.29 2286.01 1458.41 Q2285.01 1459.48 2283.27 1459.48 Q2282.42 1459.48 2281.97 1459.33 Q2282.97 1462.82 2286.01 1465.34 Q2289.09 1467.86 2293.12 1467.86 Q2298.2 1467.86 2301.24 1462.93 Q2303.06 1459.74 2303.06 1452.51 Q2303.06 1446.14 2301.68 1442.95 Q2299.57 1438.1 2295.24 1438.1 Q2289.09 1438.1 2285.45 1443.4 Q2285.01 1444.07 2284.49 1444.1 Q2283.75 1444.1 2283.56 1443.7 Q2283.42 1443.25 2283.42 1442.1 L2283.42 1419.65 Q2283.42 1417.83 2284.16 1417.83 Q2284.45 1417.83 2285.08 1418.05 Q2289.86 1420.17 2295.16 1420.2 Q2300.61 1420.2 2305.5 1417.98 Q2305.87 1417.76 2306.09 1417.76 Q2306.84 1417.76 2306.87 1418.61 Q2306.87 1418.91 2306.24 1419.79 Q2305.65 1420.65 2304.35 1421.8 Q2303.06 1422.91 2301.39 1423.98 Q2299.72 1425.06 2297.27 1425.8 Q2294.87 1426.5 2292.2 1426.5 Q2289.01 1426.5 2285.75 1425.5 L2285.75 1440.29 Q2289.68 1436.43 2295.39 1436.43 Q2301.46 1436.43 2305.65 1441.32 Q2309.84 1446.22 2309.84 1453.03 Q2309.84 1460.18 2304.87 1465.08 Q2299.94 1469.97 2293.27 1469.97 Q2287.2 1469.97 2283.34 1465.63 Q2279.53 1461.3 2279.53 1456.07 Z" fill="#000000" fill-rule="evenodd" fill-opacity="1" /><path clip-path="url(#clip640)" d="M1230.99 1540.54 L1230.99 1538.32 Q1235.63 1538.12 1238.7 1534.86 Q1241.81 1531.55 1242.85 1527.5 Q1243.93 1523.45 1244.03 1518.75 L1246.55 1518.75 L1246.55 1537.38 L1261.03 1537.38 L1261.03 1540.54 L1246.55 1540.54 L1246.55 1568.65 Q1246.55 1579.57 1253.37 1579.57 Q1256.29 1579.57 1258.21 1576.61 Q1260.14 1573.59 1260.14 1568.26 L1260.14 1562.67 L1262.66 1562.67 L1262.66 1568.45 Q1262.66 1573.94 1260.14 1578.04 Q1257.62 1582.14 1252.63 1582.14 Q1250.8 1582.14 1248.97 1581.65 Q1247.2 1581.2 1244.82 1580.02 Q1242.5 1578.78 1241.02 1575.82 Q1239.59 1572.8 1239.59 1568.45 L1239.59 1540.54 L1230.99 1540.54 Z" fill="#000000" fill-rule="evenodd" fill-opacity="1" /><path clip-path="url(#clip640)" d="M1271.65 1581 L1271.65 1577.89 Q1277.04 1577.89 1278.27 1577.25 Q1279.51 1576.56 1279.51 1573.3 L1279.51 1546.07 Q1279.51 1542.32 1278.22 1541.43 Q1276.99 1540.54 1272.05 1540.54 L1272.05 1537.38 L1286.18 1536.29 L1286.18 1573.4 Q1286.18 1576.41 1287.26 1577.15 Q1288.35 1577.89 1293.29 1577.89 L1293.29 1581 Q1282.97 1580.71 1282.77 1580.71 Q1281.39 1580.71 1271.65 1581 M1275.9 1518.65 Q1275.9 1516.63 1277.43 1515 Q1279.01 1513.32 1281.24 1513.32 Q1283.46 1513.32 1285.04 1514.85 Q1286.62 1516.33 1286.62 1518.7 Q1286.62 1521.02 1285.04 1522.56 Q1283.46 1524.04 1281.24 1524.04 Q1278.91 1524.04 1277.38 1522.41 Q1275.9 1520.78 1275.9 1518.65 Z" fill="#000000" fill-rule="evenodd" fill-opacity="1" /><path clip-path="url(#clip640)" d="M1299.57 1581 L1299.57 1577.89 Q1304.95 1577.89 1306.19 1577.25 Q1307.42 1576.56 1307.42 1573.3 L1307.42 1546.17 Q1307.42 1542.42 1306.09 1541.48 Q1304.8 1540.54 1299.57 1540.54 L1299.57 1537.38 L1313.8 1536.29 L1313.8 1546.91 Q1318.54 1536.29 1328.77 1536.29 Q1340.62 1536.29 1342.25 1546.17 Q1343.98 1542.32 1347.59 1539.3 Q1351.25 1536.29 1356.93 1536.29 Q1364.54 1536.29 1367.55 1540.05 Q1369.77 1542.57 1370.22 1545.38 Q1370.66 1548.2 1370.66 1555.51 L1370.66 1574.83 Q1370.76 1576.95 1372.39 1577.45 Q1374.02 1577.89 1378.57 1577.89 L1378.57 1581 Q1368.24 1580.71 1367.25 1580.71 Q1366.46 1580.71 1355.79 1581 L1355.79 1577.89 Q1361.18 1577.89 1362.41 1577.25 Q1363.7 1576.56 1363.7 1573.3 L1363.7 1549.73 Q1363.7 1544.59 1362.12 1541.58 Q1360.53 1538.51 1356.19 1538.51 Q1350.95 1538.51 1346.75 1542.91 Q1342.55 1547.31 1342.55 1554.72 L1342.55 1573.3 Q1342.55 1576.56 1343.79 1577.25 Q1345.07 1577.89 1350.46 1577.89 L1350.46 1581 Q1340.13 1580.71 1339.09 1580.71 Q1338.3 1580.71 1327.68 1581 L1327.68 1577.89 Q1333.06 1577.89 1334.3 1577.25 Q1335.58 1576.56 1335.58 1573.3 L1335.58 1549.73 Q1335.58 1544.59 1334 1541.58 Q1332.42 1538.51 1328.07 1538.51 Q1322.84 1538.51 1318.64 1542.91 Q1314.44 1547.31 1314.44 1554.72 L1314.44 1573.3 Q1314.44 1576.56 1315.67 1577.25 Q1316.96 1577.89 1322.29 1577.89 L1322.29 1581 Q1311.97 1580.71 1310.98 1580.71 Q1310.19 1580.71 1299.57 1581 Z" fill="#000000" fill-rule="evenodd" fill-opacity="1" /><path clip-path="url(#clip640)" d="M1383.36 1558.72 Q1383.36 1549.19 1389.49 1542.42 Q1395.61 1535.65 1404.41 1535.65 Q1413.3 1535.65 1417.9 1541.43 Q1422.54 1547.21 1422.54 1555.51 Q1422.54 1557.04 1422.14 1557.34 Q1421.75 1557.63 1420.02 1557.63 L1391.76 1557.63 Q1391.76 1567.96 1394.82 1572.8 Q1399.07 1579.57 1406.24 1579.57 Q1407.22 1579.57 1408.41 1579.37 Q1409.6 1579.18 1412.02 1578.34 Q1414.44 1577.45 1416.56 1575.12 Q1418.69 1572.8 1419.92 1569.15 Q1420.22 1567.71 1421.21 1567.76 Q1422.54 1567.76 1422.54 1568.95 Q1422.54 1569.84 1421.55 1571.86 Q1420.61 1573.84 1418.79 1576.21 Q1416.96 1578.58 1413.4 1580.36 Q1409.89 1582.14 1405.64 1582.14 Q1396.75 1582.14 1390.03 1575.42 Q1383.36 1568.65 1383.36 1558.72 M1391.86 1555.51 L1415.87 1555.51 Q1415.87 1553.39 1415.48 1551.01 Q1415.13 1548.64 1414.04 1545.38 Q1413 1542.07 1410.53 1540 Q1408.06 1537.92 1404.41 1537.92 Q1402.78 1537.92 1401 1538.61 Q1399.27 1539.3 1397.15 1540.98 Q1395.02 1542.66 1393.54 1546.47 Q1392.06 1550.27 1391.86 1555.51 Z" fill="#000000" fill-rule="evenodd" fill-opacity="1" /><polyline clip-path="url(#clip640)" style="stroke:#000000; stroke-linecap:round; stroke-linejoin:round; stroke-width:4; stroke-opacity:1; fill:none" points="
  300.775,1384.3 300.775,47.2441 
  "/>
<polyline clip-path="url(#clip640)" style="stroke:#000000; stroke-linecap:round; stroke-linejoin:round; stroke-width:4; stroke-opacity:1; fill:none" points="
  300.775,1346.46 319.672,1346.46 
  "/>
<polyline clip-path="url(#clip640)" style="stroke:#000000; stroke-linecap:round; stroke-linejoin:round; stroke-width:4; stroke-opacity:1; fill:none" points="
  300.775,1031.12 319.672,1031.12 
  "/>
<polyline clip-path="url(#clip640)" style="stroke:#000000; stroke-linecap:round; stroke-linejoin:round; stroke-width:4; stroke-opacity:1; fill:none" points="
  300.775,715.772 319.672,715.772 
  "/>
<polyline clip-path="url(#clip640)" style="stroke:#000000; stroke-linecap:round; stroke-linejoin:round; stroke-width:4; stroke-opacity:1; fill:none" points="
  300.775,400.429 319.672,400.429 
  "/>
<polyline clip-path="url(#clip640)" style="stroke:#000000; stroke-linecap:round; stroke-linejoin:round; stroke-width:4; stroke-opacity:1; fill:none" points="
  300.775,85.0853 319.672,85.0853 
  "/>
<path clip-path="url(#clip640)" d="M135.86 1348.11 Q135.86 1336.95 138.676 1330.88 Q142.604 1321.84 151.868 1321.84 Q153.832 1321.84 155.87 1322.39 Q157.945 1322.91 160.539 1324.95 Q163.17 1326.99 164.763 1330.32 Q167.802 1336.77 167.802 1348.11 Q167.802 1359.19 164.985 1365.23 Q160.872 1374.05 151.794 1374.05 Q148.385 1374.05 144.902 1372.3 Q141.455 1370.56 139.269 1366.38 Q135.86 1360.11 135.86 1348.11 M142.16 1347.18 Q142.16 1358.63 142.975 1363.19 Q143.901 1368.12 146.421 1370.27 Q148.978 1372.38 151.794 1372.38 Q154.832 1372.38 157.352 1370.12 Q159.909 1367.82 160.687 1362.89 Q161.539 1358.04 161.502 1347.18 Q161.502 1336.62 160.761 1332.4 Q159.761 1327.47 157.093 1325.5 Q154.462 1323.5 151.794 1323.5 Q150.793 1323.5 149.719 1323.8 Q148.681 1324.1 147.162 1324.95 Q145.643 1325.8 144.457 1327.91 Q143.308 1330.02 142.752 1333.21 Q142.16 1337.32 142.16 1347.18 Z" fill="#000000" fill-rule="evenodd" fill-opacity="1" /><path clip-path="url(#clip640)" d="M178.436 1371.16 Q177.288 1369.93 177.288 1368.34 Q177.288 1366.75 178.436 1365.6 Q179.585 1364.41 181.327 1364.41 Q182.994 1364.41 184.106 1365.52 Q185.255 1366.6 185.255 1368.38 Q185.255 1370.12 184.032 1371.27 Q182.846 1372.38 181.327 1372.38 Q179.585 1372.38 178.436 1371.16 Z" fill="#000000" fill-rule="evenodd" fill-opacity="1" /><path clip-path="url(#clip640)" d="M194.889 1348.11 Q194.889 1336.95 197.705 1330.88 Q201.633 1321.84 210.897 1321.84 Q212.861 1321.84 214.899 1322.39 Q216.974 1322.91 219.567 1324.95 Q222.198 1326.99 223.792 1330.32 Q226.83 1336.77 226.83 1348.11 Q226.83 1359.19 224.014 1365.23 Q219.901 1374.05 210.823 1374.05 Q207.413 1374.05 203.93 1372.3 Q200.484 1370.56 198.298 1366.38 Q194.889 1360.11 194.889 1348.11 M201.188 1347.18 Q201.188 1358.63 202.003 1363.19 Q202.93 1368.12 205.45 1370.27 Q208.006 1372.38 210.823 1372.38 Q213.861 1372.38 216.381 1370.12 Q218.938 1367.82 219.716 1362.89 Q220.568 1358.04 220.531 1347.18 Q220.531 1336.62 219.79 1332.4 Q218.789 1327.47 216.121 1325.5 Q213.49 1323.5 210.823 1323.5 Q209.822 1323.5 208.747 1323.8 Q207.71 1324.1 206.191 1324.95 Q204.671 1325.8 203.486 1327.91 Q202.337 1330.02 201.781 1333.21 Q201.188 1337.32 201.188 1347.18 Z" fill="#000000" fill-rule="evenodd" fill-opacity="1" /><path clip-path="url(#clip640)" d="M232.833 1348.11 Q232.833 1336.95 235.649 1330.88 Q239.577 1321.84 248.841 1321.84 Q250.805 1321.84 252.843 1322.39 Q254.918 1322.91 257.512 1324.95 Q260.143 1326.99 261.736 1330.32 Q264.775 1336.77 264.775 1348.11 Q264.775 1359.19 261.958 1365.23 Q257.845 1374.05 248.767 1374.05 Q245.358 1374.05 241.875 1372.3 Q238.429 1370.56 236.242 1366.38 Q232.833 1360.11 232.833 1348.11 M239.133 1347.18 Q239.133 1358.63 239.948 1363.19 Q240.874 1368.12 243.394 1370.27 Q245.951 1372.38 248.767 1372.38 Q251.805 1372.38 254.325 1370.12 Q256.882 1367.82 257.66 1362.89 Q258.512 1358.04 258.475 1347.18 Q258.475 1336.62 257.734 1332.4 Q256.734 1327.47 254.066 1325.5 Q251.435 1323.5 248.767 1323.5 Q247.766 1323.5 246.692 1323.8 Q245.654 1324.1 244.135 1324.95 Q242.616 1325.8 241.43 1327.91 Q240.281 1330.02 239.725 1333.21 Q239.133 1337.32 239.133 1347.18 Z" fill="#000000" fill-rule="evenodd" fill-opacity="1" /><path clip-path="url(#clip640)" d="M136.675 1032.76 Q136.675 1021.61 139.492 1015.53 Q143.419 1006.49 152.683 1006.49 Q154.647 1006.49 156.685 1007.05 Q158.76 1007.57 161.354 1009.6 Q163.985 1011.64 165.578 1014.98 Q168.617 1021.43 168.617 1032.76 Q168.617 1043.84 165.801 1049.88 Q161.688 1058.7 152.609 1058.7 Q149.2 1058.7 145.717 1056.96 Q142.271 1055.22 140.084 1051.03 Q136.675 1044.77 136.675 1032.76 M142.975 1031.84 Q142.975 1043.29 143.79 1047.85 Q144.716 1052.77 147.236 1054.92 Q149.793 1057.04 152.609 1057.04 Q155.648 1057.04 158.167 1054.77 Q160.724 1052.48 161.502 1047.55 Q162.355 1042.7 162.317 1031.84 Q162.317 1021.28 161.576 1017.05 Q160.576 1012.12 157.908 1010.16 Q155.277 1008.16 152.609 1008.16 Q151.609 1008.16 150.534 1008.46 Q149.496 1008.75 147.977 1009.6 Q146.458 1010.46 145.272 1012.57 Q144.123 1014.68 143.568 1017.87 Q142.975 1021.98 142.975 1031.84 Z" fill="#000000" fill-rule="evenodd" fill-opacity="1" /><path clip-path="url(#clip640)" d="M179.252 1055.81 Q178.103 1054.59 178.103 1053 Q178.103 1051.4 179.252 1050.25 Q180.4 1049.07 182.142 1049.07 Q183.809 1049.07 184.921 1050.18 Q186.07 1051.25 186.07 1053.03 Q186.07 1054.77 184.847 1055.92 Q183.661 1057.04 182.142 1057.04 Q180.4 1057.04 179.252 1055.81 Z" fill="#000000" fill-rule="evenodd" fill-opacity="1" /><path clip-path="url(#clip640)" d="M196.519 1057.04 Q196.519 1055.66 196.63 1055.26 Q196.779 1054.85 197.372 1054.22 L211.934 1037.99 Q219.901 1029.02 219.901 1021.2 Q219.901 1016.13 217.233 1012.5 Q214.602 1008.86 209.748 1008.86 Q206.413 1008.86 203.597 1010.9 Q200.781 1012.94 199.484 1016.57 Q199.706 1016.5 200.484 1016.5 Q202.374 1016.5 203.411 1017.68 Q204.486 1018.87 204.486 1020.46 Q204.486 1022.5 203.152 1023.5 Q201.855 1024.46 200.558 1024.46 Q200.039 1024.46 199.335 1024.35 Q198.668 1024.24 197.594 1023.2 Q196.519 1022.13 196.519 1020.24 Q196.519 1014.94 200.521 1010.72 Q204.56 1006.49 210.711 1006.49 Q217.678 1006.49 222.235 1010.64 Q226.83 1014.76 226.83 1021.2 Q226.83 1023.46 226.126 1025.54 Q225.459 1027.58 224.533 1029.17 Q223.644 1030.76 221.198 1033.32 Q218.752 1035.88 216.788 1037.69 Q214.824 1039.51 210.415 1043.36 L202.374 1051.18 L216.047 1051.18 Q222.717 1051.18 223.236 1050.59 Q223.977 1049.51 224.903 1043.84 L226.83 1043.84 L224.681 1057.04 L196.519 1057.04 Z" fill="#000000" fill-rule="evenodd" fill-opacity="1" /><path clip-path="url(#clip640)" d="M234.464 1044.81 Q234.464 1042.55 235.686 1041.69 Q236.909 1040.81 238.206 1040.81 Q239.948 1040.81 240.948 1041.92 Q241.986 1042.99 241.986 1044.51 Q241.986 1046.03 240.948 1047.14 Q239.948 1048.22 238.206 1048.22 Q237.354 1048.22 236.909 1048.07 Q237.91 1051.55 240.948 1054.07 Q244.024 1056.59 248.063 1056.59 Q253.139 1056.59 256.178 1051.66 Q257.994 1048.48 257.994 1041.25 Q257.994 1034.88 256.623 1031.69 Q254.51 1026.84 250.175 1026.84 Q244.024 1026.84 240.392 1032.13 Q239.948 1032.8 239.429 1032.84 Q238.688 1032.84 238.503 1032.43 Q238.354 1031.99 238.354 1030.84 L238.354 1008.38 Q238.354 1006.57 239.095 1006.57 Q239.392 1006.57 240.022 1006.79 Q244.802 1008.9 250.101 1008.94 Q255.548 1008.94 260.439 1006.71 Q260.81 1006.49 261.032 1006.49 Q261.773 1006.49 261.81 1007.34 Q261.81 1007.64 261.18 1008.53 Q260.587 1009.38 259.29 1010.53 Q257.994 1011.64 256.326 1012.72 Q254.659 1013.79 252.213 1014.53 Q249.804 1015.24 247.136 1015.24 Q243.95 1015.24 240.689 1014.24 L240.689 1029.02 Q244.617 1025.17 250.323 1025.17 Q256.4 1025.17 260.587 1030.06 Q264.775 1034.95 264.775 1041.77 Q264.775 1048.92 259.809 1053.81 Q254.881 1058.7 248.211 1058.7 Q242.134 1058.7 238.28 1054.37 Q234.464 1050.03 234.464 1044.81 Z" fill="#000000" fill-rule="evenodd" fill-opacity="1" /><path clip-path="url(#clip640)" d="M135.86 717.421 Q135.86 706.267 138.676 700.19 Q142.604 691.149 151.868 691.149 Q153.832 691.149 155.87 691.705 Q157.945 692.223 160.539 694.262 Q163.17 696.3 164.763 699.634 Q167.802 706.082 167.802 717.421 Q167.802 728.5 164.985 734.54 Q160.872 743.359 151.794 743.359 Q148.385 743.359 144.902 741.618 Q141.455 739.876 139.269 735.689 Q135.86 729.427 135.86 717.421 M142.16 716.495 Q142.16 727.945 142.975 732.502 Q143.901 737.431 146.421 739.58 Q148.978 741.692 151.794 741.692 Q154.832 741.692 157.352 739.432 Q159.909 737.134 160.687 732.206 Q161.539 727.352 161.502 716.495 Q161.502 705.934 160.761 701.71 Q159.761 696.781 157.093 694.817 Q154.462 692.816 151.794 692.816 Q150.793 692.816 149.719 693.113 Q148.681 693.409 147.162 694.262 Q145.643 695.114 144.457 697.226 Q143.308 699.338 142.752 702.525 Q142.16 706.638 142.16 716.495 Z" fill="#000000" fill-rule="evenodd" fill-opacity="1" /><path clip-path="url(#clip640)" d="M178.436 740.469 Q177.288 739.246 177.288 737.653 Q177.288 736.06 178.436 734.911 Q179.585 733.725 181.327 733.725 Q182.994 733.725 184.106 734.837 Q185.255 735.911 185.255 737.69 Q185.255 739.432 184.032 740.58 Q182.846 741.692 181.327 741.692 Q179.585 741.692 178.436 740.469 Z" fill="#000000" fill-rule="evenodd" fill-opacity="1" /><path clip-path="url(#clip640)" d="M195.704 729.464 Q195.704 727.203 196.927 726.351 Q198.15 725.462 199.447 725.462 Q201.188 725.462 202.189 726.574 Q203.226 727.648 203.226 729.167 Q203.226 730.687 202.189 731.798 Q201.188 732.873 199.447 732.873 Q198.594 732.873 198.15 732.725 Q199.15 736.208 202.189 738.728 Q205.264 741.247 209.303 741.247 Q214.38 741.247 217.418 736.319 Q219.234 733.132 219.234 725.907 Q219.234 719.533 217.863 716.346 Q215.751 711.492 211.415 711.492 Q205.264 711.492 201.633 716.791 Q201.188 717.458 200.669 717.495 Q199.928 717.495 199.743 717.087 Q199.595 716.643 199.595 715.494 L199.595 693.039 Q199.595 691.223 200.336 691.223 Q200.632 691.223 201.262 691.445 Q206.042 693.557 211.341 693.595 Q216.788 693.595 221.68 691.371 Q222.05 691.149 222.273 691.149 Q223.014 691.149 223.051 692.001 Q223.051 692.298 222.421 693.187 Q221.828 694.039 220.531 695.188 Q219.234 696.3 217.567 697.374 Q215.899 698.449 213.453 699.19 Q211.045 699.894 208.377 699.894 Q205.19 699.894 201.929 698.893 L201.929 713.678 Q205.857 709.825 211.564 709.825 Q217.641 709.825 221.828 714.716 Q226.015 719.607 226.015 726.425 Q226.015 733.577 221.05 738.468 Q216.121 743.359 209.451 743.359 Q203.374 743.359 199.521 739.024 Q195.704 734.689 195.704 729.464 Z" fill="#000000" fill-rule="evenodd" fill-opacity="1" /><path clip-path="url(#clip640)" d="M232.833 717.421 Q232.833 706.267 235.649 700.19 Q239.577 691.149 248.841 691.149 Q250.805 691.149 252.843 691.705 Q254.918 692.223 257.512 694.262 Q260.143 696.3 261.736 699.634 Q264.775 706.082 264.775 717.421 Q264.775 728.5 261.958 734.54 Q257.845 743.359 248.767 743.359 Q245.358 743.359 241.875 741.618 Q238.429 739.876 236.242 735.689 Q232.833 729.427 232.833 717.421 M239.133 716.495 Q239.133 727.945 239.948 732.502 Q240.874 737.431 243.394 739.58 Q245.951 741.692 248.767 741.692 Q251.805 741.692 254.325 739.432 Q256.882 737.134 257.66 732.206 Q258.512 727.352 258.475 716.495 Q258.475 705.934 257.734 701.71 Q256.734 696.781 254.066 694.817 Q251.435 692.816 248.767 692.816 Q247.766 692.816 246.692 693.113 Q245.654 693.409 244.135 694.262 Q242.616 695.114 241.43 697.226 Q240.281 699.338 239.725 702.525 Q239.133 706.638 239.133 716.495 Z" fill="#000000" fill-rule="evenodd" fill-opacity="1" /><path clip-path="url(#clip640)" d="M136.675 402.078 Q136.675 390.924 139.492 384.847 Q143.419 375.806 152.683 375.806 Q154.647 375.806 156.685 376.361 Q158.76 376.88 161.354 378.918 Q163.985 380.956 165.578 384.291 Q168.617 390.739 168.617 402.078 Q168.617 413.157 165.801 419.197 Q161.688 428.016 152.609 428.016 Q149.2 428.016 145.717 426.275 Q142.271 424.533 140.084 420.346 Q136.675 414.083 136.675 402.078 M142.975 401.151 Q142.975 412.601 143.79 417.159 Q144.716 422.087 147.236 424.236 Q149.793 426.349 152.609 426.349 Q155.648 426.349 158.167 424.088 Q160.724 421.791 161.502 416.863 Q162.355 412.008 162.317 401.151 Q162.317 390.591 161.576 386.366 Q160.576 381.438 157.908 379.474 Q155.277 377.473 152.609 377.473 Q151.609 377.473 150.534 377.769 Q149.496 378.066 147.977 378.918 Q146.458 379.77 145.272 381.883 Q144.123 383.995 143.568 387.181 Q142.975 391.295 142.975 401.151 Z" fill="#000000" fill-rule="evenodd" fill-opacity="1" /><path clip-path="url(#clip640)" d="M179.252 425.126 Q178.103 423.903 178.103 422.31 Q178.103 420.716 179.252 419.568 Q180.4 418.382 182.142 418.382 Q183.809 418.382 184.921 419.493 Q186.07 420.568 186.07 422.347 Q186.07 424.088 184.847 425.237 Q183.661 426.349 182.142 426.349 Q180.4 426.349 179.252 425.126 Z" fill="#000000" fill-rule="evenodd" fill-opacity="1" /><path clip-path="url(#clip640)" d="M197.001 390.665 L199.484 375.064 L201.373 375.064 Q201.596 375.991 201.966 376.398 Q202.374 376.806 204.523 377.14 Q206.709 377.473 211.119 377.473 L229.535 377.473 Q229.535 379.215 228.868 380.141 L218.604 394.555 Q215.343 399.113 213.898 407.525 Q213.046 413.157 213.083 419.975 L213.083 423.829 Q213.083 428.016 209.563 428.016 Q206.079 428.016 206.079 423.829 Q206.079 409.34 215.417 395.297 Q216.418 393.851 220.086 388.701 Q223.792 383.55 223.94 383.328 L208.229 383.328 Q201.336 383.328 200.781 383.772 Q200.039 384.439 198.891 390.665 L197.001 390.665 Z" fill="#000000" fill-rule="evenodd" fill-opacity="1" /><path clip-path="url(#clip640)" d="M234.464 414.12 Q234.464 411.86 235.686 411.008 Q236.909 410.119 238.206 410.119 Q239.948 410.119 240.948 411.23 Q241.986 412.305 241.986 413.824 Q241.986 415.343 240.948 416.455 Q239.948 417.53 238.206 417.53 Q237.354 417.53 236.909 417.381 Q237.91 420.864 240.948 423.384 Q244.024 425.904 248.063 425.904 Q253.139 425.904 256.178 420.976 Q257.994 417.789 257.994 410.563 Q257.994 404.19 256.623 401.003 Q254.51 396.149 250.175 396.149 Q244.024 396.149 240.392 401.448 Q239.948 402.115 239.429 402.152 Q238.688 402.152 238.503 401.744 Q238.354 401.299 238.354 400.151 L238.354 377.695 Q238.354 375.88 239.095 375.88 Q239.392 375.88 240.022 376.102 Q244.802 378.214 250.101 378.251 Q255.548 378.251 260.439 376.028 Q260.81 375.806 261.032 375.806 Q261.773 375.806 261.81 376.658 Q261.81 376.954 261.18 377.844 Q260.587 378.696 259.29 379.845 Q257.994 380.956 256.326 382.031 Q254.659 383.105 252.213 383.847 Q249.804 384.551 247.136 384.551 Q243.95 384.551 240.689 383.55 L240.689 398.335 Q244.617 394.481 250.323 394.481 Q256.4 394.481 260.587 399.373 Q264.775 404.264 264.775 411.082 Q264.775 418.234 259.809 423.125 Q254.881 428.016 248.211 428.016 Q242.134 428.016 238.28 423.681 Q234.464 419.345 234.464 414.12 Z" fill="#000000" fill-rule="evenodd" fill-opacity="1" /><path clip-path="url(#clip640)" d="M139.64 67.688 L139.64 65.3164 Q148.755 65.3164 153.461 60.4622 Q154.758 60.4622 154.981 60.7587 Q155.203 61.0551 155.203 62.4261 L155.203 105.002 Q155.203 107.263 156.315 107.967 Q157.426 108.671 162.28 108.671 L164.689 108.671 L164.689 111.005 Q162.021 110.783 152.387 110.783 Q142.752 110.783 140.121 111.005 L140.121 108.671 L142.53 108.671 Q147.31 108.671 148.459 108.004 Q149.608 107.3 149.608 105.002 L149.608 65.687 Q145.643 67.688 139.64 67.688 Z" fill="#000000" fill-rule="evenodd" fill-opacity="1" /><path clip-path="url(#clip640)" d="M178.436 109.782 Q177.288 108.56 177.288 106.966 Q177.288 105.373 178.436 104.224 Q179.585 103.038 181.327 103.038 Q182.994 103.038 184.106 104.15 Q185.255 105.225 185.255 107.003 Q185.255 108.745 184.032 109.894 Q182.846 111.005 181.327 111.005 Q179.585 111.005 178.436 109.782 Z" fill="#000000" fill-rule="evenodd" fill-opacity="1" /><path clip-path="url(#clip640)" d="M194.889 86.7342 Q194.889 75.5807 197.705 69.5037 Q201.633 60.4622 210.897 60.4622 Q212.861 60.4622 214.899 61.018 Q216.974 61.5368 219.567 63.5748 Q222.198 65.6129 223.792 68.9478 Q226.83 75.3954 226.83 86.7342 Q226.83 97.8137 224.014 103.854 Q219.901 112.673 210.823 112.673 Q207.413 112.673 203.93 110.931 Q200.484 109.19 198.298 105.002 Q194.889 98.7401 194.889 86.7342 M201.188 85.8079 Q201.188 97.2579 202.003 101.816 Q202.93 106.744 205.45 108.893 Q208.006 111.005 210.823 111.005 Q213.861 111.005 216.381 108.745 Q218.938 106.448 219.716 101.519 Q220.568 96.665 220.531 85.8079 Q220.531 75.2472 219.79 71.0229 Q218.789 66.0946 216.121 64.1307 Q213.49 62.1297 210.823 62.1297 Q209.822 62.1297 208.747 62.4261 Q207.71 62.7226 206.191 63.5748 Q204.671 64.4271 203.486 66.5392 Q202.337 68.6514 201.781 71.8381 Q201.188 75.9512 201.188 85.8079 Z" fill="#000000" fill-rule="evenodd" fill-opacity="1" /><path clip-path="url(#clip640)" d="M232.833 86.7342 Q232.833 75.5807 235.649 69.5037 Q239.577 60.4622 248.841 60.4622 Q250.805 60.4622 252.843 61.018 Q254.918 61.5368 257.512 63.5748 Q260.143 65.6129 261.736 68.9478 Q264.775 75.3954 264.775 86.7342 Q264.775 97.8137 261.958 103.854 Q257.845 112.673 248.767 112.673 Q245.358 112.673 241.875 110.931 Q238.429 109.19 236.242 105.002 Q232.833 98.7401 232.833 86.7342 M239.133 85.8079 Q239.133 97.2579 239.948 101.816 Q240.874 106.744 243.394 108.893 Q245.951 111.005 248.767 111.005 Q251.805 111.005 254.325 108.745 Q256.882 106.448 257.66 101.519 Q258.512 96.665 258.475 85.8079 Q258.475 75.2472 257.734 71.0229 Q256.734 66.0946 254.066 64.1307 Q251.435 62.1297 248.767 62.1297 Q247.766 62.1297 246.692 62.4261 Q245.654 62.7226 244.135 63.5748 Q242.616 64.4271 241.43 66.5392 Q240.281 68.6514 239.725 71.8381 Q239.133 75.9512 239.133 85.8079 Z" fill="#000000" fill-rule="evenodd" fill-opacity="1" /><path clip-path="url(#clip640)" d="M79.1242 953.69 L76.0115 953.69 L76.0115 951.269 Q76.0115 945.785 75.1222 944.55 Q74.1835 943.265 71.2191 943.265 L17.9092 943.265 Q14.9942 943.265 14.1049 944.55 Q13.1662 945.834 13.1662 951.269 L13.1662 953.69 L10.0042 953.69 L10.0042 917.969 Q10.0042 907.742 15.6365 900.924 Q21.2689 894.106 28.8281 894.106 Q36.3379 894.106 41.7727 901.072 Q47.158 907.989 47.158 917.178 L47.158 934.273 L71.2191 934.273 Q74.1341 934.273 75.0728 933.038 Q76.0115 931.753 76.0115 926.269 L76.0115 923.848 L79.1242 923.848 Q78.8277 927.406 78.8277 938.819 Q78.8277 950.133 79.1242 953.69 M44.5395 934.57 L44.5395 920.637 Q44.5395 916.092 43.2549 912.781 Q41.9703 909.471 40.4387 907.989 Q38.8577 906.457 36.3379 905.617 Q33.7688 904.728 32.3854 904.629 Q30.9526 904.53 28.8281 904.53 Q26.6048 904.53 25.2214 904.629 Q23.7886 904.728 21.2689 905.617 Q18.6997 906.457 17.1681 907.989 Q15.5871 909.471 14.4014 912.781 Q13.1662 916.042 13.1662 920.637 L13.1662 929.629 Q13.1662 933.087 13.8579 933.829 Q14.5496 934.57 17.2175 934.57 L44.5395 934.57 Z" fill="#000000" fill-rule="evenodd" fill-opacity="1" /><path clip-path="url(#clip640)" d="M73.6894 881.803 Q67.0689 888.473 57.484 888.473 Q47.8497 888.473 40.834 881.951 Q33.7688 875.38 33.7688 865.993 Q33.7688 856.803 40.7845 850.232 Q47.7509 843.612 57.484 843.612 Q67.0195 843.612 73.64 850.282 Q80.2605 856.902 80.2605 866.092 Q80.2605 875.084 73.6894 881.803 M56.6441 880.074 Q66.476 880.074 70.9226 877.505 Q77.6914 873.552 77.6914 865.993 Q77.6914 862.238 75.6657 859.126 Q73.64 855.964 70.2309 854.234 Q65.7843 852.011 56.6441 852.011 Q46.911 852.011 42.6126 854.679 Q36.0415 858.631 36.0415 866.092 Q36.0415 869.353 37.7707 872.564 Q39.4506 875.726 42.8102 877.653 Q47.2568 880.074 56.6441 880.074 Z" fill="#000000" fill-rule="evenodd" fill-opacity="1" /><path clip-path="url(#clip640)" d="M95.626 837.881 Q95.626 832.495 94.9343 831.26 Q94.292 829.976 91.0806 829.976 L43.6995 829.976 Q40.3399 829.976 39.5 831.26 Q38.6601 832.495 38.6601 837.881 L35.498 837.881 L34.4111 823.306 L41.081 823.306 Q34.4111 817.229 34.4111 809.126 Q34.4111 800.529 41.081 794.255 Q47.7509 787.98 57.2864 787.98 Q66.9207 787.98 73.5906 794.65 Q80.2605 801.32 80.2605 810.559 Q80.2605 815.598 77.6914 819.007 Q75.0728 822.367 73.1459 823.009 L74.0847 823.009 L91.0806 823.009 Q94.3414 823.009 94.9837 821.725 Q95.626 820.44 95.626 815.104 L98.7386 815.104 Q98.4422 825.727 98.4422 826.517 Q98.4422 827.505 98.7386 837.881 L95.626 837.881 M67.6124 823.009 Q69.144 823.009 69.6875 822.812 Q70.2309 822.565 71.8614 821.576 Q77.9878 817.575 77.9878 811.053 Q77.9878 811.003 77.9878 810.954 Q77.9878 805.173 72.1084 800.776 Q66.1796 796.379 57.2864 796.379 Q48.7884 796.379 42.8596 800.381 Q36.9308 804.383 36.9308 809.916 Q36.9308 813.869 39.0553 817.327 Q41.1798 820.786 45.0335 823.009 L67.6124 823.009 Z" fill="#000000" fill-rule="evenodd" fill-opacity="1" /><path clip-path="url(#clip640)" d="M38.6601 781.31 L35.498 781.31 L34.4111 766.439 L68.0076 766.439 Q70.4286 766.439 71.8614 766.241 Q73.2448 766.043 74.8752 765.253 Q76.5056 764.413 77.2467 762.535 Q77.9878 760.609 77.9878 757.545 Q77.9878 752.061 73.4918 748.702 Q68.9958 745.292 62.3259 745.292 L44.2924 745.292 Q40.5375 745.292 39.5988 746.626 Q38.6601 747.96 38.6601 753.198 L35.498 753.198 L34.4111 738.326 L70.3298 738.326 Q74.0847 738.326 75.0728 737.042 Q76.0115 735.708 76.0115 730.421 L79.1242 730.421 L80.2605 744.996 L71.1203 744.996 Q80.2111 749.245 80.2605 758.039 Q80.2605 762.486 79.1242 765.549 Q77.9878 768.563 76.6044 770.095 Q75.1716 771.626 72.4543 772.466 Q69.7369 773.257 68.0571 773.355 Q66.3772 773.454 63.1164 773.454 L47.9485 773.454 Q41.081 773.454 39.8952 774.442 Q38.6601 775.431 38.6601 781.31 Z" fill="#000000" fill-rule="evenodd" fill-opacity="1" /><path clip-path="url(#clip640)" d="M79.1242 725.085 L76.0115 725.085 Q76.0115 719.7 75.3692 718.465 Q74.6776 717.229 71.4167 717.229 L18.7986 717.229 Q15.0436 717.229 14.1049 718.563 Q13.1662 719.848 13.1662 725.085 L10.0042 725.085 L8.91721 710.56 L71.4167 710.56 Q74.6776 710.56 75.3692 709.275 Q76.0115 707.99 76.0115 702.654 L79.1242 702.654 Q79.1242 703.89 79.0253 706.459 Q78.9265 709.028 78.8771 710.905 Q78.8277 712.783 78.8277 713.87 Q78.8277 715.056 79.1242 725.085 Z" fill="#000000" fill-rule="evenodd" fill-opacity="1" /><path clip-path="url(#clip640)" d="M69.4898 696.182 Q60.8931 696.182 56.3477 686.054 Q53.4327 679.977 52.6916 667.427 L48.9861 667.427 Q42.7114 667.427 39.4012 670.738 Q36.0415 673.999 36.0415 678.149 Q36.0415 685.56 40.6857 689.117 Q40.7845 686.103 42.3162 685.016 Q43.7984 683.929 45.33 683.929 Q47.3556 683.929 48.6896 685.214 Q49.9742 686.449 49.9742 688.574 Q49.9742 690.599 48.739 691.933 Q47.4545 693.267 45.2311 693.267 Q40.2905 693.267 37.0296 688.821 Q33.7688 684.325 33.7688 677.951 Q33.7688 669.651 39.3517 664.117 Q41.081 662.388 43.3043 661.548 Q45.5276 660.659 47.0098 660.56 Q48.4426 660.461 51.3082 660.461 L71.5155 660.461 Q72.1084 660.461 73.0965 660.264 Q74.0847 660.066 75.3692 659.177 Q76.6044 658.238 76.6044 656.706 Q76.6044 653.05 70.1321 653.1 L64.4504 653.1 L64.4504 650.53 L70.1321 650.53 Q75.5175 650.53 77.642 653.396 Q79.717 656.212 79.717 658.831 Q79.717 662.19 77.2467 664.315 Q74.7764 666.439 71.4167 666.736 Q75.2704 668.267 77.7902 671.775 Q80.2605 675.234 80.2605 679.977 Q80.2605 683.633 79.3218 687.091 Q78.4325 690.5 75.9127 693.366 Q73.3436 696.182 69.4898 696.182 M69.391 688.376 Q73.1459 688.376 75.5669 685.708 Q77.9878 683.04 77.9878 679.285 Q77.9878 675.036 74.727 671.232 Q71.4167 667.427 64.9444 667.427 L54.8161 667.427 Q55.2113 678.643 59.7073 683.534 Q64.1539 688.376 69.391 688.376 Z" fill="#000000" fill-rule="evenodd" fill-opacity="1" /><path clip-path="url(#clip640)" d="M38.6601 647.912 L36.4368 647.912 Q36.2391 643.268 32.9783 640.204 Q29.668 637.092 25.6167 636.054 Q21.5653 634.967 16.8717 634.868 L16.8717 632.349 L35.498 632.349 L35.498 617.873 L38.6601 617.873 L38.6601 632.349 L66.7725 632.349 Q77.6914 632.349 77.6914 625.531 Q77.6914 622.616 74.727 620.689 Q71.7131 618.762 66.3772 618.762 L60.7943 618.762 L60.7943 616.242 L66.5749 616.242 Q72.059 616.242 76.1598 618.762 Q80.2605 621.282 80.2605 626.272 Q80.2605 628.1 79.7664 629.928 Q79.3218 631.706 78.136 634.078 Q76.9009 636.4 73.9365 637.882 Q70.9226 639.315 66.5749 639.315 L38.6601 639.315 L38.6601 647.912 Z" fill="#000000" fill-rule="evenodd" fill-opacity="1" /><path clip-path="url(#clip640)" d="M79.1242 607.25 L76.0115 607.25 Q76.0115 601.865 75.3692 600.63 Q74.6776 599.394 71.4167 599.394 L44.1936 599.394 Q40.4387 599.394 39.5494 600.679 Q38.6601 601.914 38.6601 606.855 L35.498 606.855 L34.4111 592.725 L71.5155 592.725 Q74.5293 592.725 75.2704 591.638 Q76.0115 590.551 76.0115 585.61 L79.1242 585.61 Q78.8277 595.936 78.8277 596.134 Q78.8277 597.517 79.1242 607.25 M16.7729 603.001 Q14.7472 603.001 13.1168 601.47 Q11.437 599.889 11.437 597.665 Q11.437 595.442 12.9686 593.861 Q14.4508 592.28 16.8223 592.28 Q19.1444 592.28 20.676 593.861 Q22.1582 595.442 22.1582 597.665 Q22.1582 599.987 20.5278 601.519 Q18.8974 603.001 16.7729 603.001 Z" fill="#000000" fill-rule="evenodd" fill-opacity="1" /><path clip-path="url(#clip640)" d="M73.6894 573.11 Q67.0689 579.78 57.484 579.78 Q47.8497 579.78 40.834 573.258 Q33.7688 566.687 33.7688 557.3 Q33.7688 548.11 40.7845 541.539 Q47.7509 534.919 57.484 534.919 Q67.0195 534.919 73.64 541.589 Q80.2605 548.209 80.2605 557.399 Q80.2605 566.391 73.6894 573.11 M56.6441 571.381 Q66.476 571.381 70.9226 568.812 Q77.6914 564.859 77.6914 557.3 Q77.6914 553.545 75.6657 550.432 Q73.64 547.27 70.2309 545.541 Q65.7843 543.318 56.6441 543.318 Q46.911 543.318 42.6126 545.986 Q36.0415 549.938 36.0415 557.399 Q36.0415 560.66 37.7707 563.871 Q39.4506 567.033 42.8102 568.96 Q47.2568 571.381 56.6441 571.381 Z" fill="#000000" fill-rule="evenodd" fill-opacity="1" /><path clip-path="url(#clip640)" d="M79.1242 528.743 L76.0115 528.743 Q76.0115 523.358 75.3692 522.122 Q74.6776 520.887 71.4167 520.887 L44.2924 520.887 Q40.5375 520.887 39.5988 522.221 Q38.6601 523.506 38.6601 528.743 L35.498 528.743 L34.4111 514.514 L45.0335 514.514 Q34.4111 509.771 34.4111 499.543 Q34.4111 491.935 38.166 488.921 Q40.6857 486.698 43.5019 486.253 Q46.3181 485.759 53.6303 485.759 L72.9483 485.759 Q75.0728 485.66 75.5669 484.03 Q76.0115 482.399 76.0115 477.854 L79.1242 477.854 Q78.8277 488.18 78.8277 489.217 Q78.8277 490.008 79.1242 500.63 L76.0115 500.63 Q76.0115 495.245 75.3692 494.01 Q74.6776 492.725 71.4167 492.725 L47.8497 492.725 Q42.7114 492.725 39.6976 494.306 Q36.6344 495.887 36.6344 500.235 Q36.6344 505.472 41.0316 509.672 Q45.4288 513.871 52.8398 513.871 L71.4167 513.871 Q74.6776 513.871 75.3692 512.636 Q76.0115 511.352 76.0115 506.016 L79.1242 506.016 Q78.8277 516.342 78.8277 517.33 Q78.8277 518.12 79.1242 528.743 Z" fill="#000000" fill-rule="evenodd" fill-opacity="1" /><polyline clip-path="url(#clip642)" style="stroke:#0000ff; stroke-linecap:round; stroke-linejoin:round; stroke-width:8; stroke-opacity:1; fill:none" points="
  358.85,85.0853 368.529,91.7682 378.208,111.6 387.887,143.939 397.566,187.737 407.245,241.581 416.925,303.74 426.604,372.219 436.283,444.837 445.962,519.294 
  455.641,593.251 465.32,664.409 474.999,730.587 484.679,789.791 494.358,840.281 504.037,880.629 513.716,909.758 523.395,926.978 533.074,932.002 542.754,924.954 
  552.433,906.354 562.112,877.098 571.791,838.424 581.47,791.862 591.149,739.18 600.829,682.323 610.508,623.344 620.187,564.335 629.866,507.357 639.545,454.374 
  649.224,407.189 658.903,367.391 668.583,336.306 678.262,314.962 687.941,304.059 697.62,303.956 707.299,314.671 716.978,335.882 726.658,366.95 736.337,406.946 
  746.016,454.689 755.695,508.788 765.374,567.688 775.053,629.728 784.732,693.192 794.412,756.359 804.091,817.562 813.77,875.228 823.449,927.929 833.128,974.413 
  842.807,1013.64 852.487,1044.79 862.166,1067.32 871.845,1080.91 881.524,1085.51 891.203,1081.31 900.882,1068.75 910.562,1048.46 920.241,1021.28 929.92,988.204 
  939.599,950.343 949.278,908.916 958.957,865.198 968.636,820.492 978.316,776.09 987.995,733.248 997.674,693.148 1007.35,656.877 1017.03,625.4 1026.71,599.541 
  1036.39,579.965 1046.07,567.165 1055.75,561.453 1065.43,562.954 1075.11,571.609 1084.79,587.172 1094.47,609.219 1104.14,637.159 1113.82,670.246 1123.5,707.597 
  1133.18,748.208 1142.86,790.986 1152.54,834.761 1162.22,878.327 1171.9,920.458 1181.58,959.95 1191.26,995.642 1200.94,1026.45 1210.62,1051.41 1220.29,1069.67 
  1229.97,1080.55 1239.65,1083.57 1249.33,1078.43 1259.01,1065.05 1268.69,1043.59 1278.37,1014.42 1288.05,978.146 1297.73,935.579 1307.41,887.731 1317.09,835.784 
  1326.77,781.065 1336.44,725.008 1346.12,669.114 1355.8,614.911 1365.48,563.905 1375.16,517.532 1384.84,477.118 1394.52,443.828 1404.2,418.63 1413.88,402.258 
  1423.56,395.183 1433.24,397.593 1442.92,409.38 1452.59,430.139 1462.27,459.17 1471.95,495.5 1481.63,537.909 1491.31,584.963 1500.99,635.057 1510.67,686.47 
  1520.35,737.416 1530.03,786.103 1539.71,830.795 1549.39,869.87 1559.07,901.875 1568.74,925.578 1578.42,940.016 1588.1,944.525 1597.78,938.771 1607.46,922.762 
  1617.14,896.853 1626.82,861.736 1636.5,818.421 1646.18,768.204 1655.86,712.625 1665.54,653.414 1675.21,592.438 1684.89,531.636 1694.57,472.952 1704.25,418.27 
  1713.93,369.349 1723.61,327.761 1733.29,294.841 1742.97,271.637 1752.65,258.876 1762.33,256.941 1772.01,265.855 1781.69,285.284 1791.36,314.548 1801.04,352.649 
  1810.72,398.301 1820.4,449.981 1830.08,505.981 1839.76,564.467 1849.44,623.543 1859.12,681.316 1868.8,735.963 1878.48,785.79 1888.16,829.29 1897.84,865.191 
  1907.51,892.495 1917.19,910.512 1926.87,918.876 1936.55,917.554 1946.23,906.84 1955.91,887.339 1965.59,859.943 1975.27,825.797 1984.95,786.247 1994.63,742.801 
  2004.31,697.066 2013.99,650.695 2023.66,605.333 2033.34,562.555 2043.02,523.821 2052.7,490.427 2062.38,463.466 2072.06,443.798 2081.74,432.026 2091.42,428.486 
  2101.1,433.241 2110.78,446.088 2120.46,466.572 2130.14,494.01 2139.81,527.521 2149.49,566.056 2159.17,608.444 2168.85,653.43 2178.53,699.716 2188.21,746.007 
  2197.89,791.047 2207.57,833.662 2217.25,872.786 2226.93,907.491 2236.61,937.014 2246.29,960.763 2255.96,978.337 2265.64,989.52 2275.32,994.286 2285,992.785 
  2294.68,985.333 
  "/>
<polyline clip-path="url(#clip642)" style="stroke:#ff0000; stroke-linecap:round; stroke-linejoin:round; stroke-width:8; stroke-opacity:1; fill:none" stroke-dasharray="4, 8" points="
  358.85,1346.46 368.529,1344.68 378.208,1339.36 387.887,1330.49 397.566,1318.08 407.245,1302.16 416.925,1282.78 426.604,1260.05 436.283,1234.14 445.962,1205.3 
  455.641,1173.87 465.32,1140.3 474.999,1105.15 484.679,1069.07 494.358,1032.83 504.037,997.282 513.716,963.337 523.395,931.949 533.074,904.077 542.754,880.649 
  552.433,862.518 562.112,850.425 571.791,844.959 581.47,846.513 591.149,855.262 600.829,871.129 610.508,893.775 620.187,922.587 629.866,956.69 639.545,994.956 
  649.224,1036.04 658.903,1078.41 668.583,1120.4 678.262,1160.28 687.941,1196.29 697.62,1226.75 707.299,1250.1 716.978,1264.94 726.658,1270.16 736.337,1264.95 
  746.016,1248.85 755.695,1221.78 765.374,1184.08 775.053,1136.47 784.732,1080.08 794.412,1016.39 804.091,947.209 813.77,874.593 823.449,800.788 833.128,728.141 
  842.807,659.021 852.487,595.725 862.166,540.39 871.845,494.91 881.524,460.856 891.203,439.414 900.882,431.33 910.562,436.879 920.241,455.843 929.92,487.514 
  939.599,530.719 949.278,583.852 958.957,644.935 968.636,711.692 978.316,781.627 987.995,852.122 997.674,920.534 1007.35,984.295 1017.03,1041.01 1026.71,1088.56 
  1036.39,1125.16 1046.07,1149.44 1055.75,1160.51 1065.43,1157.98 1075.11,1141.96 1084.79,1113.1 1094.47,1072.51 1104.14,1021.76 1113.82,962.781 1123.5,897.827 
  1133.18,829.359 1142.86,759.961 1152.54,692.24 1162.22,628.725 1171.9,571.774 1181.58,523.484 1191.26,485.613 1200.94,459.523 1210.62,446.125 1220.29,445.86 
  1229.97,458.682 1239.65,484.073 1249.33,521.067 1259.01,568.297 1268.69,624.055 1278.37,686.362 1288.05,753.05 1297.73,821.848 1307.41,890.471 1317.09,956.706 
  1326.77,1018.49 1336.44,1074.01 1346.12,1121.7 1355.8,1160.37 1365.48,1189.19 1375.16,1207.73 1384.84,1215.94 1394.52,1214.16 1404.2,1203.09 1413.88,1183.72 
  1423.56,1157.32 1433.24,1125.35 1442.92,1089.42 1452.59,1051.17 1462.27,1012.28 1471.95,974.334 1481.63,938.81 1491.31,906.999 1500.99,879.98 1510.67,858.589 
  1520.35,843.396 1530.03,834.703 1539.71,832.551 1549.39,836.736 1559.07,846.832 1568.74,862.231 1578.42,882.176 1588.1,905.809 1597.78,932.212 1607.46,960.449 
  1617.14,989.612 1626.82,1018.85 1636.5,1047.4 1646.18,1074.61 1655.86,1099.96 1665.54,1123.05 1675.21,1143.61 1684.89,1161.51 1694.57,1176.69 1704.25,1189.21 
  1713.93,1199.19 1723.61,1206.77 1733.29,1212.13 1742.97,1215.43 1752.65,1216.82 1762.33,1216.4 1772.01,1214.23 1781.69,1210.32 1791.36,1204.62 1801.04,1197.08 
  1810.72,1187.57 1820.4,1176 1830.08,1162.26 1839.76,1146.3 1849.44,1128.12 1859.12,1107.79 1868.8,1085.47 1878.48,1061.46 1888.16,1036.14 1897.84,1010.01 
  1907.51,983.68 1917.19,957.858 1926.87,933.309 1936.55,910.844 1946.23,891.279 1955.91,875.4 1965.59,863.923 1975.27,857.456 1984.95,856.459 1994.63,861.215 
  2004.31,871.799 2013.99,888.058 2023.66,909.607 2033.34,935.819 2043.02,965.845 2052.7,998.629 2062.38,1032.94 2072.06,1067.42 2081.74,1100.63 2091.42,1131.08 
  2101.1,1157.36 2110.78,1178.1 2120.46,1192.12 2130.14,1198.43 2139.81,1196.3 2149.49,1185.3 2159.17,1165.33 2168.85,1136.62 2178.53,1099.77 2188.21,1055.68 
  2197.89,1005.6 2207.57,951.008 2217.25,893.631 2226.93,835.339 2236.61,778.09 2246.29,723.853 2255.96,674.533 2265.64,631.889 2275.32,597.465 2285,572.526 
  2294.68,558.003 
  "/>
<polyline clip-path="url(#clip642)" style="stroke:#008000; stroke-linecap:round; stroke-linejoin:round; stroke-width:8; stroke-opacity:1; fill:none" stroke-dasharray="32, 20" points="
  358.85,1346.46 368.529,1341.55 378.208,1327.04 387.887,1303.57 397.566,1272.18 407.245,1234.26 416.925,1191.49 426.604,1145.74 436.283,1099.03 445.962,1053.41 
  455.641,1010.88 465.32,973.292 474.999,942.268 484.679,919.142 494.358,904.89 504.037,900.091 513.716,904.908 523.395,919.076 533.074,941.923 542.754,972.4 
  552.433,1009.13 562.112,1050.48 571.791,1094.62 581.47,1139.63 591.149,1183.56 600.829,1224.55 610.508,1260.88 620.187,1291.08 629.866,1313.96 639.545,1328.67 
  649.224,1334.78 658.903,1332.21 668.583,1321.3 678.262,1302.76 687.941,1277.65 697.62,1247.29 707.299,1213.24 716.978,1177.18 726.658,1140.89 736.337,1106.1 
  746.016,1074.46 755.695,1047.43 765.374,1026.24 775.053,1011.81 784.732,1004.73 794.412,1005.25 804.091,1013.23 813.77,1028.18 823.449,1049.29 833.128,1075.45 
  842.807,1105.34 852.487,1137.48 862.166,1170.29 871.845,1202.18 881.524,1231.64 891.203,1257.28 900.882,1277.92 910.562,1292.66 920.241,1300.88 929.92,1302.28 
  939.599,1296.94 949.278,1285.24 958.957,1267.87 968.636,1245.82 978.316,1220.28 987.995,1192.63 997.674,1164.32 1007.35,1136.83 1017.03,1111.59 1026.71,1089.9 
  1036.39,1072.88 1046.07,1061.4 1055.75,1056.04 1065.43,1057.07 1075.11,1064.43 1084.79,1077.73 1094.47,1096.27 1104.14,1119.08 1113.82,1144.97 1123.5,1172.58 
  1133.18,1200.44 1142.86,1227.06 1152.54,1251 1162.22,1270.95 1171.9,1285.77 1181.58,1294.57 1191.26,1296.75 1200.94,1292.03 1210.62,1280.47 1220.29,1262.48 
  1229.97,1238.77 1239.65,1210.36 1249.33,1178.51 1259.01,1144.66 1268.69,1110.36 1278.37,1077.22 1288.05,1046.81 1297.73,1020.58 1307.41,999.801 1317.09,985.513 
  1326.77,978.443 1336.44,978.989 1346.12,987.19 1355.8,1002.72 1365.48,1024.9 1375.16,1052.74 1384.84,1084.94 1394.52,1120.01 1404.2,1156.28 1413.88,1192.02 
  1423.56,1225.5 1433.24,1255.06 1442.92,1279.21 1452.59,1296.69 1462.27,1306.55 1471.95,1308.17 1481.63,1301.28 1491.31,1286.04 1500.99,1262.97 1510.67,1232.94 
  1520.35,1197.19 1530.03,1157.2 1539.71,1114.66 1549.39,1071.4 1559.07,1029.3 1568.74,990.193 1578.42,955.81 1588.1,927.668 1597.78,907.02 1607.46,894.791 
  1617.14,891.538 1626.82,897.417 1636.5,912.18 1646.18,935.184 1655.86,965.416 1665.54,1001.54 1675.21,1041.95 1684.89,1084.86 1694.57,1128.36 1704.25,1170.52 
  1713.93,1209.46 1723.61,1243.47 1733.29,1271.03 1742.97,1290.93 1752.65,1302.31 1762.33,1304.66 1772.01,1297.92 1781.69,1282.4 1791.36,1258.83 1801.04,1228.28 
  1810.72,1192.13 1820.4,1152.02 1830.08,1109.76 1839.76,1067.23 1849.44,1026.34 1859.12,988.901 1868.8,956.566 1878.48,930.752 1888.16,912.576 1897.84,902.806 
  1907.51,901.828 1917.19,909.633 1926.87,925.817 1936.55,949.604 1946.23,979.884 1955.91,1015.26 1965.59,1054.14 1975.27,1094.75 1984.95,1135.3 1994.63,1173.99 
  2004.31,1209.14 2013.99,1239.25 2023.66,1263.06 2033.34,1279.63 2043.02,1288.34 2052.7,1288.95 2062.38,1281.6 2072.06,1266.78 2081.74,1245.35 2091.42,1218.43 
  2101.1,1187.4 2110.78,1153.82 2120.46,1119.31 2130.14,1085.57 2139.81,1054.18 2149.49,1026.65 2159.17,1004.23 2168.85,987.95 2178.53,978.518 2188.21,976.312 
  2197.89,981.357 2207.57,993.332 2217.25,1011.59 2226.93,1035.17 2236.61,1062.9 2246.29,1093.39 2255.96,1125.13 2265.64,1156.59 2275.32,1186.25 2285,1212.69 
  2294.68,1234.67 
  "/>
<path clip-path="url(#clip640)" d="
M1972.54 402.853 L2284.36 402.853 L2284.36 91.8126 L1972.54 91.8126  Z
  " fill="#ffffff" fill-rule="evenodd" fill-opacity="1"/>
<polyline clip-path="url(#clip640)" style="stroke:#000000; stroke-linecap:round; stroke-linejoin:round; stroke-width:4; stroke-opacity:1; fill:none" points="
  1972.54,402.853 2284.36,402.853 2284.36,91.8126 1972.54,91.8126 1972.54,402.853 
  "/>
<polyline clip-path="url(#clip640)" style="stroke:#0000ff; stroke-linecap:round; stroke-linejoin:round; stroke-width:6; stroke-opacity:1; fill:none" points="
  1995.34,169.573 2132.14,169.573 
  "/>
<path clip-path="url(#clip640)" d="M2154.94 195.493 L2154.94 193.158 L2156.75 193.158 Q2160.87 193.158 2161.79 192.491 Q2162.76 191.787 2162.76 189.564 L2162.76 149.581 Q2162.76 147.395 2161.79 146.728 Q2160.83 146.024 2156.75 146.024 L2154.94 146.024 L2154.94 143.653 L2181.73 143.653 Q2189.4 143.653 2194.51 147.877 Q2199.63 152.101 2199.63 157.771 Q2199.63 163.403 2194.4 167.479 Q2189.21 171.518 2182.32 171.518 L2169.5 171.518 L2169.5 189.564 Q2169.5 191.75 2170.43 192.454 Q2171.39 193.158 2175.5 193.158 L2177.32 193.158 L2177.32 195.493 Q2174.65 195.27 2166.09 195.27 Q2157.61 195.27 2154.94 195.493 M2169.28 169.554 L2179.73 169.554 Q2183.14 169.554 2185.62 168.591 Q2188.1 167.627 2189.21 166.479 Q2190.36 165.293 2190.99 163.403 Q2191.66 161.476 2191.73 160.439 Q2191.81 159.364 2191.81 157.771 Q2191.81 156.103 2191.73 155.066 Q2191.66 153.991 2190.99 152.101 Q2190.36 150.174 2189.21 149.026 Q2188.1 147.84 2185.62 146.951 Q2183.17 146.024 2179.73 146.024 L2172.98 146.024 Q2170.39 146.024 2169.83 146.543 Q2169.28 147.062 2169.28 149.063 L2169.28 169.554 Z" fill="#000000" fill-rule="evenodd" fill-opacity="1" /><path clip-path="url(#clip640)" d="M2206.82 171.222 Q2206.82 160.068 2209.63 153.991 Q2213.56 144.95 2222.82 144.95 Q2224.79 144.95 2226.83 145.505 Q2228.9 146.024 2231.49 148.062 Q2234.13 150.1 2235.72 153.435 Q2238.76 159.883 2238.76 171.222 Q2238.76 182.301 2235.94 188.341 Q2231.83 197.16 2222.75 197.16 Q2219.34 197.16 2215.86 195.419 Q2212.41 193.677 2210.22 189.49 Q2206.82 183.227 2206.82 171.222 M2213.11 170.295 Q2213.11 181.745 2213.93 186.303 Q2214.86 191.231 2217.38 193.38 Q2219.93 195.493 2222.75 195.493 Q2225.79 195.493 2228.31 193.232 Q2230.86 190.935 2231.64 186.007 Q2232.49 181.152 2232.46 170.295 Q2232.46 159.735 2231.72 155.51 Q2230.72 150.582 2228.05 148.618 Q2225.42 146.617 2222.75 146.617 Q2221.75 146.617 2220.67 146.913 Q2219.64 147.21 2218.12 148.062 Q2216.6 148.914 2215.41 151.027 Q2214.26 153.139 2213.71 156.325 Q2213.11 160.439 2213.11 170.295 Z" fill="#000000" fill-rule="evenodd" fill-opacity="1" /><polyline clip-path="url(#clip640)" style="stroke:#ff0000; stroke-linecap:round; stroke-linejoin:round; stroke-width:6; stroke-opacity:1; fill:none" stroke-dasharray="3, 6" points="
  1995.34,247.333 2132.14,247.333 
  "/>
<path clip-path="url(#clip640)" d="M2154.94 273.253 L2154.94 270.918 L2156.75 270.918 Q2160.87 270.918 2161.79 270.251 Q2162.76 269.547 2162.76 267.324 L2162.76 227.341 Q2162.76 225.155 2161.79 224.488 Q2160.83 223.784 2156.75 223.784 L2154.94 223.784 L2154.94 221.413 L2181.73 221.413 Q2189.4 221.413 2194.51 225.637 Q2199.63 229.861 2199.63 235.531 Q2199.63 241.163 2194.4 245.239 Q2189.21 249.278 2182.32 249.278 L2169.5 249.278 L2169.5 267.324 Q2169.5 269.51 2170.43 270.214 Q2171.39 270.918 2175.5 270.918 L2177.32 270.918 L2177.32 273.253 Q2174.65 273.03 2166.09 273.03 Q2157.61 273.03 2154.94 273.253 M2169.28 247.314 L2179.73 247.314 Q2183.14 247.314 2185.62 246.351 Q2188.1 245.387 2189.21 244.239 Q2190.36 243.053 2190.99 241.163 Q2191.66 239.236 2191.73 238.199 Q2191.81 237.124 2191.81 235.531 Q2191.81 233.863 2191.73 232.826 Q2191.66 231.751 2190.99 229.861 Q2190.36 227.934 2189.21 226.786 Q2188.1 225.6 2185.62 224.711 Q2183.17 223.784 2179.73 223.784 L2172.98 223.784 Q2170.39 223.784 2169.83 224.303 Q2169.28 224.822 2169.28 226.823 L2169.28 247.314 Z" fill="#000000" fill-rule="evenodd" fill-opacity="1" /><path clip-path="url(#clip640)" d="M2210.6 229.935 L2210.6 227.564 Q2219.71 227.564 2224.42 222.71 Q2225.71 222.71 2225.94 223.006 Q2226.16 223.302 2226.16 224.673 L2226.16 267.25 Q2226.16 269.51 2227.27 270.214 Q2228.38 270.918 2233.24 270.918 L2235.64 270.918 L2235.64 273.253 Q2232.98 273.03 2223.34 273.03 Q2213.71 273.03 2211.08 273.253 L2211.08 270.918 L2213.49 270.918 Q2218.27 270.918 2219.41 270.251 Q2220.56 269.547 2220.56 267.25 L2220.56 227.934 Q2216.6 229.935 2210.6 229.935 Z" fill="#000000" fill-rule="evenodd" fill-opacity="1" /><polyline clip-path="url(#clip640)" style="stroke:#008000; stroke-linecap:round; stroke-linejoin:round; stroke-width:6; stroke-opacity:1; fill:none" stroke-dasharray="24, 15" points="
  1995.34,325.093 2132.14,325.093 
  "/>
<path clip-path="url(#clip640)" d="M2154.94 351.013 L2154.94 348.678 L2156.75 348.678 Q2160.87 348.678 2161.79 348.011 Q2162.76 347.307 2162.76 345.084 L2162.76 305.101 Q2162.76 302.915 2161.79 302.248 Q2160.83 301.544 2156.75 301.544 L2154.94 301.544 L2154.94 299.173 L2181.73 299.173 Q2189.4 299.173 2194.51 303.397 Q2199.63 307.621 2199.63 313.291 Q2199.63 318.923 2194.4 322.999 Q2189.21 327.038 2182.32 327.038 L2169.5 327.038 L2169.5 345.084 Q2169.5 347.27 2170.43 347.974 Q2171.39 348.678 2175.5 348.678 L2177.32 348.678 L2177.32 351.013 Q2174.65 350.79 2166.09 350.79 Q2157.61 350.79 2154.94 351.013 M2169.28 325.074 L2179.73 325.074 Q2183.14 325.074 2185.62 324.111 Q2188.1 323.147 2189.21 321.999 Q2190.36 320.813 2190.99 318.923 Q2191.66 316.996 2191.73 315.959 Q2191.81 314.884 2191.81 313.291 Q2191.81 311.623 2191.73 310.586 Q2191.66 309.511 2190.99 307.621 Q2190.36 305.694 2189.21 304.546 Q2188.1 303.36 2185.62 302.471 Q2183.17 301.544 2179.73 301.544 L2172.98 301.544 Q2170.39 301.544 2169.83 302.063 Q2169.28 302.582 2169.28 304.583 L2169.28 325.074 Z" fill="#000000" fill-rule="evenodd" fill-opacity="1" /><path clip-path="url(#clip640)" d="M2207.63 351.013 Q2207.63 349.642 2207.74 349.234 Q2207.89 348.826 2208.48 348.196 L2223.05 331.966 Q2231.01 322.999 2231.01 315.18 Q2231.01 310.104 2228.34 306.472 Q2225.71 302.841 2220.86 302.841 Q2217.52 302.841 2214.71 304.879 Q2211.89 306.917 2210.6 310.549 Q2210.82 310.474 2211.6 310.474 Q2213.49 310.474 2214.52 311.66 Q2215.6 312.846 2215.6 314.439 Q2215.6 316.477 2214.26 317.478 Q2212.97 318.441 2211.67 318.441 Q2211.15 318.441 2210.45 318.33 Q2209.78 318.219 2208.71 317.181 Q2207.63 316.107 2207.63 314.217 Q2207.63 308.918 2211.63 304.694 Q2215.67 300.47 2221.82 300.47 Q2228.79 300.47 2233.35 304.62 Q2237.94 308.733 2237.94 315.18 Q2237.94 317.441 2237.24 319.516 Q2236.57 321.554 2235.64 323.147 Q2234.76 324.741 2232.31 327.297 Q2229.86 329.854 2227.9 331.67 Q2225.94 333.486 2221.53 337.339 L2213.49 345.158 L2227.16 345.158 Q2233.83 345.158 2234.35 344.565 Q2235.09 343.49 2236.01 337.821 L2237.94 337.821 L2235.79 351.013 L2207.63 351.013 Z" fill="#000000" fill-rule="evenodd" fill-opacity="1" /></svg>
