<?xml version="1.0" encoding="utf-8"?>
<svg xmlns="http://www.w3.org/2000/svg" xmlns:xlink="http://www.w3.org/1999/xlink" width="600" height="400" viewBox="0 0 2400 1600">
<defs>
  <clipPath id="clip600">
    <rect x="0" y="0" width="2400" height="1600"/>
  </clipPath>
</defs>
<path clip-path="url(#clip600)" d="
M0 1600 L2400 1600 L2400 0 L0 0  Z
  " fill="#ffffff" fill-rule="evenodd" fill-opacity="1"/>
<defs>
  <clipPath id="clip601">
    <rect x="480" y="0" width="1681" height="1600"/>
  </clipPath>
</defs>
<path clip-path="url(#clip600)" d="
M319.747 1384.3 L2352.76 1384.3 L2352.76 47.2441 L319.747 47.2441  Z
  " fill="#ffffff" fill-rule="evenodd" fill-opacity="1"/>
<defs>
  <clipPath id="clip602">
    <rect x="319" y="47" width="2034" height="1338"/>
  </clipPath>
</defs>
<polyline clip-path="url(#clip600)" style="stroke:#000000; stroke-linecap:round; stroke-linejoin:round; stroke-width:4; stroke-opacity:1; fill:none" points="
  319.747,1384.3 2352.76,1384.3 
  "/>
<polyline clip-path="url(#clip600)" style="stroke:#000000; stroke-linecap:round; stroke-linejoin:round; stroke-width:4; stroke-opacity:1; fill:none" points="
  377.285,1384.3 377.285,1365.4 
  "/>
<polyline clip-path="url(#clip600)" style="stroke:#000000; stroke-linecap:round; stroke-linejoin:round; stroke-width:4; stroke-opacity:1; fill:none" points="
  760.871,1384.3 760.871,1365.4 
  "/>
<polyline clip-path="url(#clip600)" style="stroke:#000000; stroke-linecap:round; stroke-linejoin:round; stroke-width:4; stroke-opacity:1; fill:none" points="
  1144.46,1384.3 1144.46,1365.4 
  "/>
<polyline clip-path="url(#clip600)" style="stroke:#000000; stroke-linecap:round; stroke-linejoin:round; stroke-width:4; stroke-opacity:1; fill:none" points="
  1528.04,1384.3 1528.04,1365.4 
  "/>
<polyline clip-path="url(#clip600)" style="stroke:#000000; stroke-linecap:round; stroke-linejoin:round; stroke-width:4; stroke-opacity:1; fill:none" points="
  1911.63,1384.3 1911.63,1365.4 
  "/>
<polyline clip-path="url(#clip600)" style="stroke:#000000; stroke-linecap:round; stroke-linejoin:round; stroke-width:4; stroke-opacity:1; fill:none" points="
  2295.22,1384.3 2295.22,1365.4 
  "/>
<path clip-path="url(#clip600)" d="M361.314 1444.03 Q361.314 1432.88 364.13 1426.8 Q368.058 1417.76 377.322 1417.76 Q379.286 1417.76 381.324 1418.31 Q383.399 1418.83 385.993 1420.87 Q388.624 1422.91 390.217 1426.24 Q393.256 1432.69 393.256 1444.03 Q393.256 1455.11 390.439 1461.15 Q386.326 1469.97 377.248 1469.97 Q373.839 1469.97 370.356 1468.23 Q366.909 1466.48 364.723 1462.3 Q361.314 1456.03 361.314 1444.03 M367.613 1443.1 Q367.613 1454.55 368.429 1459.11 Q369.355 1464.04 371.875 1466.19 Q374.432 1468.3 377.248 1468.3 Q380.286 1468.3 382.806 1466.04 Q385.363 1463.74 386.141 1458.81 Q386.993 1453.96 386.956 1443.1 Q386.956 1432.54 386.215 1428.32 Q385.215 1423.39 382.547 1421.43 Q379.916 1419.42 377.248 1419.42 Q376.247 1419.42 375.173 1419.72 Q374.135 1420.02 372.616 1420.87 Q371.097 1421.72 369.911 1423.83 Q368.762 1425.95 368.206 1429.13 Q367.613 1433.25 367.613 1443.1 Z" fill="#000000" fill-rule="evenodd" fill-opacity="1" /><path clip-path="url(#clip600)" d="M727.818 1424.98 L727.818 1422.61 Q736.934 1422.61 741.64 1417.76 Q742.937 1417.76 743.159 1418.05 Q743.381 1418.35 743.381 1419.72 L743.381 1462.3 Q743.381 1464.56 744.493 1465.26 Q745.605 1465.97 750.459 1465.97 L752.868 1465.97 L752.868 1468.3 Q750.2 1468.08 740.565 1468.08 Q730.931 1468.08 728.3 1468.3 L728.3 1465.97 L730.709 1465.97 Q735.489 1465.97 736.637 1465.3 Q737.786 1464.59 737.786 1462.3 L737.786 1422.98 Q733.821 1424.98 727.818 1424.98 Z" fill="#000000" fill-rule="evenodd" fill-opacity="1" /><path clip-path="url(#clip600)" d="M761.983 1444.03 Q761.983 1432.88 764.799 1426.8 Q768.727 1417.76 777.991 1417.76 Q779.955 1417.76 781.993 1418.31 Q784.068 1418.83 786.662 1420.87 Q789.293 1422.91 790.886 1426.24 Q793.925 1432.69 793.925 1444.03 Q793.925 1455.11 791.108 1461.15 Q786.995 1469.97 777.917 1469.97 Q774.508 1469.97 771.025 1468.23 Q767.578 1466.48 765.392 1462.3 Q761.983 1456.03 761.983 1444.03 M768.282 1443.1 Q768.282 1454.55 769.098 1459.11 Q770.024 1464.04 772.544 1466.19 Q775.101 1468.3 777.917 1468.3 Q780.955 1468.3 783.475 1466.04 Q786.032 1463.74 786.81 1458.81 Q787.662 1453.96 787.625 1443.1 Q787.625 1432.54 786.884 1428.32 Q785.884 1423.39 783.216 1421.43 Q780.585 1419.42 777.917 1419.42 Q776.916 1419.42 775.842 1419.72 Q774.804 1420.02 773.285 1420.87 Q771.766 1421.72 770.58 1423.83 Q769.431 1425.95 768.875 1429.13 Q768.282 1433.25 768.282 1443.1 Z" fill="#000000" fill-rule="evenodd" fill-opacity="1" /><path clip-path="url(#clip600)" d="M1109.92 1468.3 Q1109.92 1466.93 1110.03 1466.52 Q1110.18 1466.11 1110.78 1465.48 L1125.34 1449.25 Q1133.3 1440.29 1133.3 1432.47 Q1133.3 1427.39 1130.64 1423.76 Q1128.01 1420.13 1123.15 1420.13 Q1119.82 1420.13 1117 1422.17 Q1114.18 1424.2 1112.89 1427.84 Q1113.11 1427.76 1113.89 1427.76 Q1115.78 1427.76 1116.81 1428.95 Q1117.89 1430.13 1117.89 1431.73 Q1117.89 1433.76 1116.56 1434.77 Q1115.26 1435.73 1113.96 1435.73 Q1113.44 1435.73 1112.74 1435.62 Q1112.07 1435.51 1111 1434.47 Q1109.92 1433.39 1109.92 1431.5 Q1109.92 1426.21 1113.92 1421.98 Q1117.96 1417.76 1124.11 1417.76 Q1131.08 1417.76 1135.64 1421.91 Q1140.23 1426.02 1140.23 1432.47 Q1140.23 1434.73 1139.53 1436.8 Q1138.86 1438.84 1137.94 1440.43 Q1137.05 1442.03 1134.6 1444.58 Q1132.16 1447.14 1130.19 1448.96 Q1128.23 1450.77 1123.82 1454.63 L1115.78 1462.45 L1129.45 1462.45 Q1136.12 1462.45 1136.64 1461.85 Q1137.38 1460.78 1138.31 1455.11 L1140.23 1455.11 L1138.08 1468.3 L1109.92 1468.3 Z" fill="#000000" fill-rule="evenodd" fill-opacity="1" /><path clip-path="url(#clip600)" d="M1147.05 1444.03 Q1147.05 1432.88 1149.87 1426.8 Q1153.8 1417.76 1163.06 1417.76 Q1165.02 1417.76 1167.06 1418.31 Q1169.14 1418.83 1171.73 1420.87 Q1174.36 1422.91 1175.95 1426.24 Q1178.99 1432.69 1178.99 1444.03 Q1178.99 1455.11 1176.18 1461.15 Q1172.06 1469.97 1162.99 1469.97 Q1159.58 1469.97 1156.09 1468.23 Q1152.65 1466.48 1150.46 1462.3 Q1147.05 1456.03 1147.05 1444.03 M1153.35 1443.1 Q1153.35 1454.55 1154.17 1459.11 Q1155.09 1464.04 1157.61 1466.19 Q1160.17 1468.3 1162.99 1468.3 Q1166.02 1468.3 1168.54 1466.04 Q1171.1 1463.74 1171.88 1458.81 Q1172.73 1453.96 1172.69 1443.1 Q1172.69 1432.54 1171.95 1428.32 Q1170.95 1423.39 1168.28 1421.43 Q1165.65 1419.42 1162.99 1419.42 Q1161.99 1419.42 1160.91 1419.72 Q1159.87 1420.02 1158.35 1420.87 Q1156.83 1421.72 1155.65 1423.83 Q1154.5 1425.95 1153.94 1429.13 Q1153.35 1433.25 1153.35 1443.1 Z" fill="#000000" fill-rule="evenodd" fill-opacity="1" /><path clip-path="url(#clip600)" d="M1493.21 1458.07 Q1493.21 1455.81 1494.51 1454.74 Q1495.81 1453.66 1497.47 1453.66 Q1499.22 1453.66 1500.44 1454.81 Q1501.7 1455.92 1501.7 1457.89 Q1501.7 1460 1500.22 1461.19 Q1498.77 1462.37 1496.7 1462.07 Q1498.51 1465.11 1501.85 1466.48 Q1505.22 1467.86 1508.33 1467.86 Q1511.59 1467.86 1514.22 1465.04 Q1516.89 1462.22 1516.89 1455.33 Q1516.89 1449.48 1514.59 1446.1 Q1512.33 1442.73 1507.85 1442.73 L1504.51 1442.73 Q1503.37 1442.73 1503.03 1442.62 Q1502.7 1442.51 1502.7 1441.88 Q1502.7 1441.14 1503.85 1440.99 Q1505 1440.99 1506.81 1440.77 Q1511.22 1440.62 1513.56 1436.8 Q1515.67 1433.25 1515.67 1428.17 Q1515.67 1423.54 1513.44 1421.61 Q1511.26 1419.65 1508.41 1419.65 Q1505.74 1419.65 1502.81 1420.76 Q1499.88 1421.87 1498.29 1424.35 Q1503 1424.35 1503 1428.17 Q1503 1429.84 1501.92 1430.95 Q1500.88 1432.02 1499.14 1432.02 Q1497.47 1432.02 1496.36 1430.99 Q1495.25 1429.91 1495.25 1428.1 Q1495.25 1423.76 1499.1 1420.76 Q1503 1417.76 1508.7 1417.76 Q1514.33 1417.76 1518.48 1420.72 Q1522.67 1423.69 1522.67 1428.24 Q1522.67 1432.73 1519.71 1436.4 Q1516.74 1440.06 1512.04 1441.58 Q1517.82 1442.73 1521.26 1446.66 Q1524.71 1450.55 1524.71 1455.33 Q1524.71 1461.26 1520.04 1465.63 Q1515.37 1469.97 1508.55 1469.97 Q1502.25 1469.97 1497.73 1466.56 Q1493.21 1463.15 1493.21 1458.07 Z" fill="#000000" fill-rule="evenodd" fill-opacity="1" /><path clip-path="url(#clip600)" d="M1530.93 1444.03 Q1530.93 1432.88 1533.75 1426.8 Q1537.68 1417.76 1546.94 1417.76 Q1548.91 1417.76 1550.94 1418.31 Q1553.02 1418.83 1555.61 1420.87 Q1558.24 1422.91 1559.84 1426.24 Q1562.88 1432.69 1562.88 1444.03 Q1562.88 1455.11 1560.06 1461.15 Q1555.95 1469.97 1546.87 1469.97 Q1543.46 1469.97 1539.98 1468.23 Q1536.53 1466.48 1534.34 1462.3 Q1530.93 1456.03 1530.93 1444.03 M1537.23 1443.1 Q1537.23 1454.55 1538.05 1459.11 Q1538.98 1464.04 1541.5 1466.19 Q1544.05 1468.3 1546.87 1468.3 Q1549.91 1468.3 1552.43 1466.04 Q1554.98 1463.74 1555.76 1458.81 Q1556.61 1453.96 1556.58 1443.1 Q1556.58 1432.54 1555.84 1428.32 Q1554.84 1423.39 1552.17 1421.43 Q1549.54 1419.42 1546.87 1419.42 Q1545.87 1419.42 1544.79 1419.72 Q1543.76 1420.02 1542.24 1420.87 Q1540.72 1421.72 1539.53 1423.83 Q1538.38 1425.95 1537.83 1429.13 Q1537.23 1433.25 1537.23 1443.1 Z" fill="#000000" fill-rule="evenodd" fill-opacity="1" /><path clip-path="url(#clip600)" d="M1876.26 1455.78 L1876.26 1453.44 L1899.57 1417.83 Q1900.16 1416.9 1901.09 1416.94 Q1901.94 1416.94 1902.13 1417.28 Q1902.31 1417.61 1902.31 1418.91 L1902.31 1453.44 L1909.91 1453.44 L1909.91 1455.78 L1902.31 1455.78 L1902.31 1462.37 Q1902.31 1464.56 1903.2 1465.26 Q1904.13 1465.97 1908.06 1465.97 L1909.65 1465.97 L1909.65 1468.3 Q1906.54 1468.08 1899.35 1468.08 Q1892.2 1468.08 1889.08 1468.3 L1889.08 1465.97 L1890.68 1465.97 Q1894.6 1465.97 1895.53 1465.3 Q1896.46 1464.59 1896.46 1462.37 L1896.46 1455.78 L1876.26 1455.78 M1878.41 1453.44 L1896.9 1453.44 L1896.9 1425.13 L1878.41 1453.44 Z" fill="#000000" fill-rule="evenodd" fill-opacity="1" /><path clip-path="url(#clip600)" d="M1915.06 1444.03 Q1915.06 1432.88 1917.88 1426.8 Q1921.8 1417.76 1931.07 1417.76 Q1933.03 1417.76 1935.07 1418.31 Q1937.14 1418.83 1939.74 1420.87 Q1942.37 1422.91 1943.96 1426.24 Q1947 1432.69 1947 1444.03 Q1947 1455.11 1944.18 1461.15 Q1940.07 1469.97 1930.99 1469.97 Q1927.58 1469.97 1924.1 1468.23 Q1920.65 1466.48 1918.47 1462.3 Q1915.06 1456.03 1915.06 1444.03 M1921.36 1443.1 Q1921.36 1454.55 1922.17 1459.11 Q1923.1 1464.04 1925.62 1466.19 Q1928.18 1468.3 1930.99 1468.3 Q1934.03 1468.3 1936.55 1466.04 Q1939.11 1463.74 1939.89 1458.81 Q1940.74 1453.96 1940.7 1443.1 Q1940.7 1432.54 1939.96 1428.32 Q1938.96 1423.39 1936.29 1421.43 Q1933.66 1419.42 1930.99 1419.42 Q1929.99 1419.42 1928.92 1419.72 Q1927.88 1420.02 1926.36 1420.87 Q1924.84 1421.72 1923.66 1423.83 Q1922.51 1425.95 1921.95 1429.13 Q1921.36 1433.25 1921.36 1443.1 Z" fill="#000000" fill-rule="evenodd" fill-opacity="1" /><path clip-path="url(#clip600)" d="M2260.68 1456.07 Q2260.68 1453.81 2261.91 1452.96 Q2263.13 1452.07 2264.43 1452.07 Q2266.17 1452.07 2267.17 1453.18 Q2268.2 1454.26 2268.2 1455.78 Q2268.2 1457.29 2267.17 1458.41 Q2266.17 1459.48 2264.43 1459.48 Q2263.57 1459.48 2263.13 1459.33 Q2264.13 1462.82 2267.17 1465.34 Q2270.24 1467.86 2274.28 1467.86 Q2279.36 1467.86 2282.4 1462.93 Q2284.21 1459.74 2284.21 1452.51 Q2284.21 1446.14 2282.84 1442.95 Q2280.73 1438.1 2276.39 1438.1 Q2270.24 1438.1 2266.61 1443.4 Q2266.17 1444.07 2265.65 1444.1 Q2264.91 1444.1 2264.72 1443.7 Q2264.57 1443.25 2264.57 1442.1 L2264.57 1419.65 Q2264.57 1417.83 2265.31 1417.83 Q2265.61 1417.83 2266.24 1418.05 Q2271.02 1420.17 2276.32 1420.2 Q2281.77 1420.2 2286.66 1417.98 Q2287.03 1417.76 2287.25 1417.76 Q2287.99 1417.76 2288.03 1418.61 Q2288.03 1418.91 2287.4 1419.79 Q2286.81 1420.65 2285.51 1421.8 Q2284.21 1422.91 2282.55 1423.98 Q2280.88 1425.06 2278.43 1425.8 Q2276.02 1426.5 2273.36 1426.5 Q2270.17 1426.5 2266.91 1425.5 L2266.91 1440.29 Q2270.84 1436.43 2276.54 1436.43 Q2282.62 1436.43 2286.81 1441.32 Q2290.99 1446.22 2290.99 1453.03 Q2290.99 1460.18 2286.03 1465.08 Q2281.1 1469.97 2274.43 1469.97 Q2268.35 1469.97 2264.5 1465.63 Q2260.68 1461.3 2260.68 1456.07 Z" fill="#000000" fill-rule="evenodd" fill-opacity="1" /><path clip-path="url(#clip600)" d="M2297.81 1444.03 Q2297.81 1432.88 2300.63 1426.8 Q2304.56 1417.76 2313.82 1417.76 Q2315.78 1417.76 2317.82 1418.31 Q2319.9 1418.83 2322.49 1420.87 Q2325.12 1422.91 2326.71 1426.24 Q2329.75 1432.69 2329.75 1444.03 Q2329.75 1455.11 2326.94 1461.15 Q2322.82 1469.97 2313.75 1469.97 Q2310.34 1469.97 2306.85 1468.23 Q2303.41 1466.48 2301.22 1462.3 Q2297.81 1456.03 2297.81 1444.03 M2304.11 1443.1 Q2304.11 1454.55 2304.93 1459.11 Q2305.85 1464.04 2308.37 1466.19 Q2310.93 1468.3 2313.75 1468.3 Q2316.78 1468.3 2319.3 1466.04 Q2321.86 1463.74 2322.64 1458.81 Q2323.49 1453.96 2323.45 1443.1 Q2323.45 1432.54 2322.71 1428.32 Q2321.71 1423.39 2319.04 1421.43 Q2316.41 1419.42 2313.75 1419.42 Q2312.74 1419.42 2311.67 1419.72 Q2310.63 1420.02 2309.11 1420.87 Q2307.59 1421.72 2306.41 1423.83 Q2305.26 1425.95 2304.7 1429.13 Q2304.11 1433.25 2304.11 1443.1 Z" fill="#000000" fill-rule="evenodd" fill-opacity="1" /><path clip-path="url(#clip600)" d="M1240.48 1540.54 L1240.48 1538.32 Q1245.12 1538.12 1248.18 1534.86 Q1251.3 1531.55 1252.33 1527.5 Q1253.42 1523.45 1253.52 1518.75 L1256.04 1518.75 L1256.04 1537.38 L1270.52 1537.38 L1270.52 1540.54 L1256.04 1540.54 L1256.04 1568.65 Q1256.04 1579.57 1262.86 1579.57 Q1265.77 1579.57 1267.7 1576.61 Q1269.63 1573.59 1269.63 1568.26 L1269.63 1562.67 L1272.15 1562.67 L1272.15 1568.45 Q1272.15 1573.94 1269.63 1578.04 Q1267.11 1582.14 1262.12 1582.14 Q1260.29 1582.14 1258.46 1581.65 Q1256.68 1581.2 1254.31 1580.02 Q1251.99 1578.78 1250.51 1575.82 Q1249.07 1572.8 1249.07 1568.45 L1249.07 1540.54 L1240.48 1540.54 Z" fill="#000000" fill-rule="evenodd" fill-opacity="1" /><path clip-path="url(#clip600)" d="M1281.14 1581 L1281.14 1577.89 Q1286.52 1577.89 1287.76 1577.25 Q1288.99 1576.56 1288.99 1573.3 L1288.99 1546.07 Q1288.99 1542.32 1287.71 1541.43 Q1286.47 1540.54 1281.53 1540.54 L1281.53 1537.38 L1295.66 1536.29 L1295.66 1573.4 Q1295.66 1576.41 1296.75 1577.15 Q1297.84 1577.89 1302.78 1577.89 L1302.78 1581 Q1292.45 1580.71 1292.25 1580.71 Q1290.87 1580.71 1281.14 1581 M1285.39 1518.65 Q1285.39 1516.63 1286.92 1515 Q1288.5 1513.32 1290.72 1513.32 Q1292.95 1513.32 1294.53 1514.85 Q1296.11 1516.33 1296.11 1518.7 Q1296.11 1521.02 1294.53 1522.56 Q1292.95 1524.04 1290.72 1524.04 Q1288.4 1524.04 1286.87 1522.41 Q1285.39 1520.78 1285.39 1518.65 Z" fill="#000000" fill-rule="evenodd" fill-opacity="1" /><path clip-path="url(#clip600)" d="M1309.05 1581 L1309.05 1577.89 Q1314.44 1577.89 1315.67 1577.25 Q1316.91 1576.56 1316.91 1573.3 L1316.91 1546.17 Q1316.91 1542.42 1315.57 1541.48 Q1314.29 1540.54 1309.05 1540.54 L1309.05 1537.38 L1323.28 1536.29 L1323.28 1546.91 Q1328.03 1536.29 1338.25 1536.29 Q1350.11 1536.29 1351.74 1546.17 Q1353.47 1542.32 1357.08 1539.3 Q1360.73 1536.29 1366.41 1536.29 Q1374.02 1536.29 1377.04 1540.05 Q1379.26 1542.57 1379.7 1545.38 Q1380.15 1548.2 1380.15 1555.51 L1380.15 1574.83 Q1380.25 1576.95 1381.88 1577.45 Q1383.51 1577.89 1388.05 1577.89 L1388.05 1581 Q1377.73 1580.71 1376.74 1580.71 Q1375.95 1580.71 1365.28 1581 L1365.28 1577.89 Q1370.66 1577.89 1371.9 1577.25 Q1373.18 1576.56 1373.18 1573.3 L1373.18 1549.73 Q1373.18 1544.59 1371.6 1541.58 Q1370.02 1538.51 1365.67 1538.51 Q1360.44 1538.51 1356.24 1542.91 Q1352.04 1547.31 1352.04 1554.72 L1352.04 1573.3 Q1352.04 1576.56 1353.27 1577.25 Q1354.56 1577.89 1359.94 1577.89 L1359.94 1581 Q1349.62 1580.71 1348.58 1580.71 Q1347.79 1580.71 1337.17 1581 L1337.17 1577.89 Q1342.55 1577.89 1343.79 1577.25 Q1345.07 1576.56 1345.07 1573.3 L1345.07 1549.73 Q1345.07 1544.59 1343.49 1541.58 Q1341.91 1538.51 1337.56 1538.51 Q1332.32 1538.51 1328.12 1542.91 Q1323.92 1547.31 1323.92 1554.72 L1323.92 1573.3 Q1323.92 1576.56 1325.16 1577.25 Q1326.44 1577.89 1331.78 1577.89 L1331.78 1581 Q1321.45 1580.71 1320.47 1580.71 Q1319.68 1580.71 1309.05 1581 Z" fill="#000000" fill-rule="evenodd" fill-opacity="1" /><path clip-path="url(#clip600)" d="M1392.85 1558.72 Q1392.85 1549.19 1398.97 1542.42 Q1405.1 1535.65 1413.89 1535.65 Q1422.79 1535.65 1427.38 1541.43 Q1432.03 1547.21 1432.03 1555.51 Q1432.03 1557.04 1431.63 1557.34 Q1431.24 1557.63 1429.51 1557.63 L1401.25 1557.63 Q1401.25 1567.96 1404.31 1572.8 Q1408.56 1579.57 1415.72 1579.57 Q1416.71 1579.57 1417.9 1579.37 Q1419.08 1579.18 1421.5 1578.34 Q1423.92 1577.45 1426.05 1575.12 Q1428.17 1572.8 1429.41 1569.15 Q1429.7 1567.71 1430.69 1567.76 Q1432.03 1567.76 1432.03 1568.95 Q1432.03 1569.84 1431.04 1571.86 Q1430.1 1573.84 1428.27 1576.21 Q1426.44 1578.58 1422.89 1580.36 Q1419.38 1582.14 1415.13 1582.14 Q1406.24 1582.14 1399.52 1575.42 Q1392.85 1568.65 1392.85 1558.72 M1401.34 1555.51 L1425.36 1555.51 Q1425.36 1553.39 1424.96 1551.01 Q1424.62 1548.64 1423.53 1545.38 Q1422.49 1542.07 1420.02 1540 Q1417.55 1537.92 1413.89 1537.92 Q1412.26 1537.92 1410.48 1538.61 Q1408.76 1539.3 1406.63 1540.98 Q1404.51 1542.66 1403.02 1546.47 Q1401.54 1550.27 1401.34 1555.51 Z" fill="#000000" fill-rule="evenodd" fill-opacity="1" /><polyline clip-path="url(#clip600)" style="stroke:#000000; stroke-linecap:round; stroke-linejoin:round; stroke-width:4; stroke-opacity:1; fill:none" points="
  319.747,1384.3 319.747,47.2441 
  "/>
<polyline clip-path="url(#clip600)" style="stroke:#000000; stroke-linecap:round; stroke-linejoin:round; stroke-width:4; stroke-opacity:1; fill:none" points="
  319.747,1221.2 338.644,1221.2 
  "/>
<polyline clip-path="url(#clip600)" style="stroke:#000000; stroke-linecap:round; stroke-linejoin:round; stroke-width:4; stroke-opacity:1; fill:none" points="
  319.747,1031.85 338.644,1031.85 
  "/>
<polyline clip-path="url(#clip600)" style="stroke:#000000; stroke-linecap:round; stroke-linejoin:round; stroke-width:4; stroke-opacity:1; fill:none" points="
  319.747,842.495 338.644,842.495 
  "/>
<polyline clip-path="url(#clip600)" style="stroke:#000000; stroke-linecap:round; stroke-linejoin:round; stroke-width:4; stroke-opacity:1; fill:none" points="
  319.747,653.142 338.644,653.142 
  "/>
<polyline clip-path="url(#clip600)" style="stroke:#000000; stroke-linecap:round; stroke-linejoin:round; stroke-width:4; stroke-opacity:1; fill:none" points="
  319.747,463.79 338.644,463.79 
  "/>
<polyline clip-path="url(#clip600)" style="stroke:#000000; stroke-linecap:round; stroke-linejoin:round; stroke-width:4; stroke-opacity:1; fill:none" points="
  319.747,274.438 338.644,274.438 
  "/>
<polyline clip-path="url(#clip600)" style="stroke:#000000; stroke-linecap:round; stroke-linejoin:round; stroke-width:4; stroke-opacity:1; fill:none" points="
  319.747,85.0853 338.644,85.0853 
  "/>
<path clip-path="url(#clip600)" d="M185.959 1227.07 Q186.403 1227.52 186.403 1228.15 Q186.403 1228.78 185.959 1229.22 Q185.514 1229.67 184.884 1229.67 L137.379 1229.67 Q136.749 1229.67 136.305 1229.22 Q135.86 1228.78 135.86 1228.15 Q135.86 1227.52 136.305 1227.07 Q136.749 1226.63 137.379 1226.63 L184.884 1226.63 Q185.514 1226.63 185.959 1227.07 Z" fill="#000000" fill-rule="evenodd" fill-opacity="1" /><path clip-path="url(#clip600)" d="M193.592 1222.85 Q193.592 1211.69 196.408 1205.62 Q200.336 1196.58 209.6 1196.58 Q211.564 1196.58 213.602 1197.13 Q215.677 1197.65 218.271 1199.69 Q220.901 1201.73 222.495 1205.06 Q225.533 1211.51 225.533 1222.85 Q225.533 1233.93 222.717 1239.97 Q218.604 1248.79 209.526 1248.79 Q206.117 1248.79 202.633 1247.05 Q199.187 1245.3 197.001 1241.12 Q193.592 1234.85 193.592 1222.85 M199.891 1221.92 Q199.891 1233.37 200.706 1237.93 Q201.633 1242.86 204.153 1245.01 Q206.709 1247.12 209.526 1247.12 Q212.564 1247.12 215.084 1244.86 Q217.641 1242.56 218.419 1237.63 Q219.271 1232.78 219.234 1221.92 Q219.234 1211.36 218.493 1207.14 Q217.492 1202.21 214.824 1200.24 Q212.194 1198.24 209.526 1198.24 Q208.525 1198.24 207.45 1198.54 Q206.413 1198.84 204.894 1199.69 Q203.374 1200.54 202.189 1202.65 Q201.04 1204.77 200.484 1207.95 Q199.891 1212.07 199.891 1221.92 Z" fill="#000000" fill-rule="evenodd" fill-opacity="1" /><path clip-path="url(#clip600)" d="M236.168 1245.9 Q235.019 1244.67 235.019 1243.08 Q235.019 1241.49 236.168 1240.34 Q237.317 1239.15 239.058 1239.15 Q240.726 1239.15 241.838 1240.26 Q242.986 1241.34 242.986 1243.12 Q242.986 1244.86 241.763 1246.01 Q240.578 1247.12 239.058 1247.12 Q237.317 1247.12 236.168 1245.9 Z" fill="#000000" fill-rule="evenodd" fill-opacity="1" /><path clip-path="url(#clip600)" d="M253.436 1247.12 Q253.436 1245.75 253.547 1245.34 Q253.695 1244.93 254.288 1244.3 L268.851 1228.07 Q276.818 1219.11 276.818 1211.29 Q276.818 1206.21 274.15 1202.58 Q271.519 1198.95 266.664 1198.95 Q263.329 1198.95 260.513 1200.99 Q257.697 1203.02 256.4 1206.66 Q256.623 1206.58 257.401 1206.58 Q259.29 1206.58 260.328 1207.77 Q261.403 1208.95 261.403 1210.55 Q261.403 1212.58 260.069 1213.58 Q258.772 1214.55 257.475 1214.55 Q256.956 1214.55 256.252 1214.44 Q255.585 1214.33 254.51 1213.29 Q253.436 1212.21 253.436 1210.32 Q253.436 1205.03 257.438 1200.8 Q261.477 1196.58 267.628 1196.58 Q274.594 1196.58 279.152 1200.73 Q283.747 1204.84 283.747 1211.29 Q283.747 1213.55 283.043 1215.62 Q282.376 1217.66 281.449 1219.25 Q280.56 1220.85 278.114 1223.4 Q275.669 1225.96 273.705 1227.78 Q271.741 1229.59 267.331 1233.45 L259.29 1241.26 L272.964 1241.26 Q279.634 1241.26 280.152 1240.67 Q280.894 1239.6 281.82 1233.93 L283.747 1233.93 L281.598 1247.12 L253.436 1247.12 Z" fill="#000000" fill-rule="evenodd" fill-opacity="1" /><path clip-path="url(#clip600)" d="M192.777 1033.5 Q192.777 1022.34 195.593 1016.27 Q199.521 1007.22 208.784 1007.22 Q210.748 1007.22 212.786 1007.78 Q214.862 1008.3 217.455 1010.34 Q220.086 1012.37 221.68 1015.71 Q224.718 1022.16 224.718 1033.5 Q224.718 1044.58 221.902 1050.62 Q217.789 1059.43 208.71 1059.43 Q205.301 1059.43 201.818 1057.69 Q198.372 1055.95 196.186 1051.76 Q192.777 1045.5 192.777 1033.5 M199.076 1032.57 Q199.076 1044.02 199.891 1048.58 Q200.818 1053.51 203.337 1055.66 Q205.894 1057.77 208.71 1057.77 Q211.749 1057.77 214.269 1055.51 Q216.825 1053.21 217.604 1048.28 Q218.456 1043.43 218.419 1032.57 Q218.419 1022.01 217.678 1017.78 Q216.677 1012.86 214.009 1010.89 Q211.378 1008.89 208.71 1008.89 Q207.71 1008.89 206.635 1009.19 Q205.598 1009.48 204.078 1010.34 Q202.559 1011.19 201.373 1013.3 Q200.225 1015.41 199.669 1018.6 Q199.076 1022.71 199.076 1032.57 Z" fill="#000000" fill-rule="evenodd" fill-opacity="1" /><path clip-path="url(#clip600)" d="M235.353 1056.54 Q234.204 1055.32 234.204 1053.73 Q234.204 1052.13 235.353 1050.99 Q236.502 1049.8 238.243 1049.8 Q239.911 1049.8 241.022 1050.91 Q242.171 1051.99 242.171 1053.77 Q242.171 1055.51 240.948 1056.66 Q239.762 1057.77 238.243 1057.77 Q236.502 1057.77 235.353 1056.54 Z" fill="#000000" fill-rule="evenodd" fill-opacity="1" /><path clip-path="url(#clip600)" d="M251.805 1033.5 Q251.805 1022.34 254.622 1016.27 Q258.549 1007.22 267.813 1007.22 Q269.777 1007.22 271.815 1007.78 Q273.89 1008.3 276.484 1010.34 Q279.115 1012.37 280.708 1015.71 Q283.747 1022.16 283.747 1033.5 Q283.747 1044.58 280.931 1050.62 Q276.818 1059.43 267.739 1059.43 Q264.33 1059.43 260.847 1057.69 Q257.401 1055.95 255.214 1051.76 Q251.805 1045.5 251.805 1033.5 M258.105 1032.57 Q258.105 1044.02 258.92 1048.58 Q259.846 1053.51 262.366 1055.66 Q264.923 1057.77 267.739 1057.77 Q270.778 1057.77 273.297 1055.51 Q275.854 1053.21 276.632 1048.28 Q277.485 1043.43 277.447 1032.57 Q277.447 1022.01 276.706 1017.78 Q275.706 1012.86 273.038 1010.89 Q270.407 1008.89 267.739 1008.89 Q266.739 1008.89 265.664 1009.19 Q264.626 1009.48 263.107 1010.34 Q261.588 1011.19 260.402 1013.3 Q259.253 1015.41 258.698 1018.6 Q258.105 1022.71 258.105 1032.57 Z" fill="#000000" fill-rule="evenodd" fill-opacity="1" /><path clip-path="url(#clip600)" d="M193.592 844.144 Q193.592 832.99 196.408 826.913 Q200.336 817.872 209.6 817.872 Q211.564 817.872 213.602 818.428 Q215.677 818.946 218.271 820.984 Q220.901 823.022 222.495 826.357 Q225.533 832.805 225.533 844.144 Q225.533 855.223 222.717 861.263 Q218.604 870.082 209.526 870.082 Q206.117 870.082 202.633 868.341 Q199.187 866.599 197.001 862.412 Q193.592 856.15 193.592 844.144 M199.891 843.217 Q199.891 854.667 200.706 859.225 Q201.633 864.153 204.153 866.303 Q206.709 868.415 209.526 868.415 Q212.564 868.415 215.084 866.154 Q217.641 863.857 218.419 858.929 Q219.271 854.075 219.234 843.217 Q219.234 832.657 218.493 828.432 Q217.492 823.504 214.824 821.54 Q212.194 819.539 209.526 819.539 Q208.525 819.539 207.45 819.836 Q206.413 820.132 204.894 820.984 Q203.374 821.837 202.189 823.949 Q201.04 826.061 200.484 829.248 Q199.891 833.361 199.891 843.217 Z" fill="#000000" fill-rule="evenodd" fill-opacity="1" /><path clip-path="url(#clip600)" d="M236.168 867.192 Q235.019 865.969 235.019 864.376 Q235.019 862.782 236.168 861.634 Q237.317 860.448 239.058 860.448 Q240.726 860.448 241.838 861.56 Q242.986 862.634 242.986 864.413 Q242.986 866.154 241.763 867.303 Q240.578 868.415 239.058 868.415 Q237.317 868.415 236.168 867.192 Z" fill="#000000" fill-rule="evenodd" fill-opacity="1" /><path clip-path="url(#clip600)" d="M253.436 868.415 Q253.436 867.044 253.547 866.636 Q253.695 866.229 254.288 865.599 L268.851 849.369 Q276.818 840.401 276.818 832.583 Q276.818 827.506 274.15 823.875 Q271.519 820.243 266.664 820.243 Q263.329 820.243 260.513 822.281 Q257.697 824.319 256.4 827.951 Q256.623 827.877 257.401 827.877 Q259.29 827.877 260.328 829.062 Q261.403 830.248 261.403 831.841 Q261.403 833.88 260.069 834.88 Q258.772 835.843 257.475 835.843 Q256.956 835.843 256.252 835.732 Q255.585 835.621 254.51 834.584 Q253.436 833.509 253.436 831.619 Q253.436 826.32 257.438 822.096 Q261.477 817.872 267.628 817.872 Q274.594 817.872 279.152 822.022 Q283.747 826.135 283.747 832.583 Q283.747 834.843 283.043 836.918 Q282.376 838.956 281.449 840.549 Q280.56 842.143 278.114 844.7 Q275.669 847.256 273.705 849.072 Q271.741 850.888 267.331 854.741 L259.29 862.56 L272.964 862.56 Q279.634 862.56 280.152 861.967 Q280.894 860.893 281.82 855.223 L283.747 855.223 L281.598 868.415 L253.436 868.415 Z" fill="#000000" fill-rule="evenodd" fill-opacity="1" /><path clip-path="url(#clip600)" d="M191.924 654.791 Q191.924 643.638 194.741 637.561 Q198.668 628.519 207.932 628.519 Q209.896 628.519 211.934 629.075 Q214.009 629.594 216.603 631.632 Q219.234 633.67 220.827 637.005 Q223.866 643.453 223.866 654.791 Q223.866 665.871 221.05 671.911 Q216.937 680.73 207.858 680.73 Q204.449 680.73 200.966 678.988 Q197.52 677.247 195.333 673.06 Q191.924 666.797 191.924 654.791 M198.224 653.865 Q198.224 665.315 199.039 669.873 Q199.965 674.801 202.485 676.95 Q205.042 679.062 207.858 679.062 Q210.897 679.062 213.416 676.802 Q215.973 674.505 216.751 669.576 Q217.604 664.722 217.567 653.865 Q217.567 643.304 216.825 639.08 Q215.825 634.152 213.157 632.188 Q210.526 630.187 207.858 630.187 Q206.858 630.187 205.783 630.483 Q204.745 630.78 203.226 631.632 Q201.707 632.484 200.521 634.596 Q199.372 636.709 198.817 639.895 Q198.224 644.008 198.224 653.865 Z" fill="#000000" fill-rule="evenodd" fill-opacity="1" /><path clip-path="url(#clip600)" d="M234.501 677.84 Q233.352 676.617 233.352 675.023 Q233.352 673.43 234.501 672.281 Q235.649 671.096 237.391 671.096 Q239.058 671.096 240.17 672.207 Q241.319 673.282 241.319 675.06 Q241.319 676.802 240.096 677.951 Q238.91 679.062 237.391 679.062 Q235.649 679.062 234.501 677.84 Z" fill="#000000" fill-rule="evenodd" fill-opacity="1" /><path clip-path="url(#clip600)" d="M250.101 666.538 L250.101 664.203 L273.408 628.593 Q274.001 627.667 274.928 627.704 Q275.78 627.704 275.965 628.038 Q276.151 628.371 276.151 629.668 L276.151 664.203 L283.747 664.203 L283.747 666.538 L276.151 666.538 L276.151 673.134 Q276.151 675.32 277.04 676.024 Q277.966 676.728 281.894 676.728 L283.487 676.728 L283.487 679.062 Q280.375 678.84 273.186 678.84 Q266.035 678.84 262.922 679.062 L262.922 676.728 L264.515 676.728 Q268.443 676.728 269.369 676.061 Q270.296 675.357 270.296 673.134 L270.296 666.538 L250.101 666.538 M252.25 664.203 L270.741 664.203 L270.741 635.893 L252.25 664.203 Z" fill="#000000" fill-rule="evenodd" fill-opacity="1" /><path clip-path="url(#clip600)" d="M192.999 465.439 Q192.999 454.285 195.815 448.208 Q199.743 439.167 209.007 439.167 Q210.971 439.167 213.009 439.723 Q215.084 440.242 217.678 442.28 Q220.309 444.318 221.902 447.653 Q224.94 454.1 224.94 465.439 Q224.94 476.518 222.124 482.558 Q218.011 491.378 208.933 491.378 Q205.524 491.378 202.04 489.636 Q198.594 487.894 196.408 483.707 Q192.999 477.445 192.999 465.439 M199.298 464.513 Q199.298 475.963 200.114 480.52 Q201.04 485.449 203.56 487.598 Q206.117 489.71 208.933 489.71 Q211.971 489.71 214.491 487.45 Q217.048 485.152 217.826 480.224 Q218.678 475.37 218.641 464.513 Q218.641 453.952 217.9 449.728 Q216.9 444.799 214.232 442.835 Q211.601 440.834 208.933 440.834 Q207.932 440.834 206.858 441.131 Q205.82 441.427 204.301 442.28 Q202.782 443.132 201.596 445.244 Q200.447 447.356 199.891 450.543 Q199.298 454.656 199.298 464.513 Z" fill="#000000" fill-rule="evenodd" fill-opacity="1" /><path clip-path="url(#clip600)" d="M235.575 488.487 Q234.427 487.264 234.427 485.671 Q234.427 484.078 235.575 482.929 Q236.724 481.743 238.466 481.743 Q240.133 481.743 241.245 482.855 Q242.393 483.929 242.393 485.708 Q242.393 487.45 241.171 488.598 Q239.985 489.71 238.466 489.71 Q236.724 489.71 235.575 488.487 Z" fill="#000000" fill-rule="evenodd" fill-opacity="1" /><path clip-path="url(#clip600)" d="M252.25 465.735 Q252.25 453.804 258.327 446.504 Q264.404 439.167 272.223 439.167 Q276.78 439.167 279.3 441.501 Q281.857 443.799 281.857 447.356 Q281.857 449.32 280.708 450.172 Q279.56 451.025 278.374 451.025 Q277.003 451.025 275.928 450.098 Q274.854 449.172 274.854 447.504 Q274.854 444.095 279.041 444.095 Q277.077 441.057 272.371 441.057 Q270.926 441.057 269.444 441.501 Q267.961 441.909 266.035 443.317 Q264.108 444.725 262.625 446.949 Q261.143 449.172 260.106 453.359 Q259.068 457.546 259.068 462.993 L259.068 464.809 Q262.181 457.287 268.554 457.324 Q274.928 457.324 279.337 462.178 Q283.747 467.032 283.747 474.221 Q283.747 481.595 279.152 486.486 Q274.557 491.378 268.11 491.378 Q265.219 491.378 262.588 490.155 Q259.995 488.969 257.549 486.227 Q255.14 483.485 253.695 478.223 Q252.25 472.961 252.25 465.735 M259.216 472.554 Q259.216 480.002 260.587 483.559 Q260.81 484.152 261.291 484.967 Q261.81 485.782 262.663 486.857 Q263.552 487.894 264.997 488.598 Q266.442 489.265 268.11 489.265 Q273.186 489.265 275.632 484.337 Q276.929 481.595 276.929 474.147 Q276.929 466.551 275.558 463.772 Q273.223 459.066 268.48 459.066 Q265.293 459.066 263.07 461.252 Q260.884 463.438 260.032 466.365 Q259.216 469.293 259.216 472.554 Z" fill="#000000" fill-rule="evenodd" fill-opacity="1" /><path clip-path="url(#clip600)" d="M192.999 276.087 Q192.999 264.933 195.815 258.856 Q199.743 249.815 209.007 249.815 Q210.971 249.815 213.009 250.37 Q215.084 250.889 217.678 252.927 Q220.309 254.965 221.902 258.3 Q224.94 264.748 224.94 276.087 Q224.94 287.166 222.124 293.206 Q218.011 302.025 208.933 302.025 Q205.524 302.025 202.04 300.284 Q198.594 298.542 196.408 294.355 Q192.999 288.092 192.999 276.087 M199.298 275.16 Q199.298 286.61 200.114 291.168 Q201.04 296.096 203.56 298.246 Q206.117 300.358 208.933 300.358 Q211.971 300.358 214.491 298.097 Q217.048 295.8 217.826 290.872 Q218.678 286.017 218.641 275.16 Q218.641 264.6 217.9 260.375 Q216.9 255.447 214.232 253.483 Q211.601 251.482 208.933 251.482 Q207.932 251.482 206.858 251.779 Q205.82 252.075 204.301 252.927 Q202.782 253.779 201.596 255.892 Q200.447 258.004 199.891 261.19 Q199.298 265.304 199.298 275.16 Z" fill="#000000" fill-rule="evenodd" fill-opacity="1" /><path clip-path="url(#clip600)" d="M235.575 299.135 Q234.427 297.912 234.427 296.319 Q234.427 294.725 235.575 293.577 Q236.724 292.391 238.466 292.391 Q240.133 292.391 241.245 293.502 Q242.393 294.577 242.393 296.356 Q242.393 298.097 241.171 299.246 Q239.985 300.358 238.466 300.358 Q236.724 300.358 235.575 299.135 Z" fill="#000000" fill-rule="evenodd" fill-opacity="1" /><path clip-path="url(#clip600)" d="M252.25 288.908 Q252.25 280.422 263.181 274.938 Q258.475 271.751 257.623 270.825 Q254.288 267.119 254.288 262.487 Q254.288 257.189 258.29 253.52 Q262.329 249.815 268.035 249.815 Q273.483 249.815 277.596 252.964 Q281.709 256.114 281.709 261.116 Q281.709 268.157 272.519 272.9 Q278.596 276.68 280.041 278.273 Q283.747 282.386 283.747 287.611 Q283.747 293.688 279.078 297.875 Q274.409 302.025 267.961 302.025 Q261.662 302.025 256.956 298.357 Q252.25 294.688 252.25 288.908 M256.03 288.908 Q256.03 293.614 259.55 296.763 Q263.107 299.913 268.035 299.913 Q272.816 299.913 276.373 297.171 Q279.967 294.429 279.967 290.353 Q279.967 288.759 279.411 287.388 Q278.893 286.017 277.818 284.943 Q276.78 283.831 276.113 283.349 Q275.484 282.831 274.261 281.978 L264.923 276.087 Q256.03 281.015 256.03 288.908 M257.623 259.523 Q257.623 263.154 261.44 265.674 L270.852 271.751 Q278.374 267.342 278.374 261.116 Q278.374 257.077 275.298 254.409 Q272.223 251.704 267.961 251.704 Q263.774 251.704 260.699 253.928 Q257.623 256.114 257.623 259.523 Z" fill="#000000" fill-rule="evenodd" fill-opacity="1" /><path clip-path="url(#clip600)" d="M196.556 67.688 L196.556 65.3164 Q205.672 65.3164 210.378 60.4622 Q211.675 60.4622 211.897 60.7587 Q212.119 61.0551 212.119 62.4261 L212.119 105.002 Q212.119 107.263 213.231 107.967 Q214.343 108.671 219.197 108.671 L221.606 108.671 L221.606 111.005 Q218.938 110.783 209.303 110.783 Q199.669 110.783 197.038 111.005 L197.038 108.671 L199.447 108.671 Q204.227 108.671 205.375 108.004 Q206.524 107.3 206.524 105.002 L206.524 65.687 Q202.559 67.688 196.556 67.688 Z" fill="#000000" fill-rule="evenodd" fill-opacity="1" /><path clip-path="url(#clip600)" d="M235.353 109.782 Q234.204 108.56 234.204 106.966 Q234.204 105.373 235.353 104.224 Q236.502 103.038 238.243 103.038 Q239.911 103.038 241.022 104.15 Q242.171 105.225 242.171 107.003 Q242.171 108.745 240.948 109.894 Q239.762 111.005 238.243 111.005 Q236.502 111.005 235.353 109.782 Z" fill="#000000" fill-rule="evenodd" fill-opacity="1" /><path clip-path="url(#clip600)" d="M251.805 86.7342 Q251.805 75.5807 254.622 69.5037 Q258.549 60.4622 267.813 60.4622 Q269.777 60.4622 271.815 61.018 Q273.89 61.5368 276.484 63.5748 Q279.115 65.6129 280.708 68.9478 Q283.747 75.3954 283.747 86.7342 Q283.747 97.8137 280.931 103.854 Q276.818 112.673 267.739 112.673 Q264.33 112.673 260.847 110.931 Q257.401 109.19 255.214 105.002 Q251.805 98.7401 251.805 86.7342 M258.105 85.8079 Q258.105 97.2579 258.92 101.816 Q259.846 106.744 262.366 108.893 Q264.923 111.005 267.739 111.005 Q270.778 111.005 273.297 108.745 Q275.854 106.448 276.632 101.519 Q277.485 96.665 277.447 85.8079 Q277.447 75.2472 276.706 71.0229 Q275.706 66.0946 273.038 64.1307 Q270.407 62.1297 267.739 62.1297 Q266.739 62.1297 265.664 62.4261 Q264.626 62.7226 263.107 63.5748 Q261.588 64.4271 260.402 66.5392 Q259.253 68.6514 258.698 71.8381 Q258.105 75.9512 258.105 85.8079 Z" fill="#000000" fill-rule="evenodd" fill-opacity="1" /><path clip-path="url(#clip600)" d="M79.1242 953.69 L76.0115 953.69 L76.0115 951.269 Q76.0115 945.785 75.1222 944.55 Q74.1835 943.265 71.2191 943.265 L17.9092 943.265 Q14.9942 943.265 14.1049 944.55 Q13.1662 945.834 13.1662 951.269 L13.1662 953.69 L10.0042 953.69 L10.0042 917.969 Q10.0042 907.742 15.6365 900.924 Q21.2689 894.106 28.8281 894.106 Q36.3379 894.106 41.7727 901.072 Q47.158 907.989 47.158 917.178 L47.158 934.273 L71.2191 934.273 Q74.1341 934.273 75.0728 933.038 Q76.0115 931.753 76.0115 926.269 L76.0115 923.848 L79.1242 923.848 Q78.8277 927.406 78.8277 938.819 Q78.8277 950.133 79.1242 953.69 M44.5395 934.57 L44.5395 920.637 Q44.5395 916.092 43.2549 912.781 Q41.9703 909.471 40.4387 907.989 Q38.8577 906.457 36.3379 905.617 Q33.7688 904.728 32.3854 904.629 Q30.9526 904.53 28.8281 904.53 Q26.6048 904.53 25.2214 904.629 Q23.7886 904.728 21.2689 905.617 Q18.6997 906.457 17.1681 907.989 Q15.5871 909.471 14.4014 912.781 Q13.1662 916.042 13.1662 920.637 L13.1662 929.629 Q13.1662 933.087 13.8579 933.829 Q14.5496 934.57 17.2175 934.57 L44.5395 934.57 Z" fill="#000000" fill-rule="evenodd" fill-opacity="1" /><path clip-path="url(#clip600)" d="M73.6894 881.803 Q67.0689 888.473 57.484 888.473 Q47.8497 888.473 40.834 881.951 Q33.7688 875.38 33.7688 865.993 Q33.7688 856.803 40.7845 850.232 Q47.7509 843.612 57.484 843.612 Q67.0195 843.612 73.64 850.282 Q80.2605 856.902 80.2605 866.092 Q80.2605 875.084 73.6894 881.803 M56.6441 880.074 Q66.476 880.074 70.9226 877.505 Q77.6914 873.552 77.6914 865.993 Q77.6914 862.238 75.6657 859.126 Q73.64 855.964 70.2309 854.234 Q65.7843 852.011 56.6441 852.011 Q46.911 852.011 42.6126 854.679 Q36.0415 858.631 36.0415 866.092 Q36.0415 869.353 37.7707 872.564 Q39.4506 875.726 42.8102 877.653 Q47.2568 880.074 56.6441 880.074 Z" fill="#000000" fill-rule="evenodd" fill-opacity="1" /><path clip-path="url(#clip600)" d="M95.626 837.881 Q95.626 832.495 94.9343 831.26 Q94.292 829.976 91.0806 829.976 L43.6995 829.976 Q40.3399 829.976 39.5 831.26 Q38.6601 832.495 38.6601 837.881 L35.498 837.881 L34.4111 823.306 L41.081 823.306 Q34.4111 817.229 34.4111 809.126 Q34.4111 800.529 41.081 794.255 Q47.7509 787.98 57.2864 787.98 Q66.9207 787.98 73.5906 794.65 Q80.2605 801.32 80.2605 810.559 Q80.2605 815.598 77.6914 819.007 Q75.0728 822.367 73.1459 823.009 L74.0847 823.009 L91.0806 823.009 Q94.3414 823.009 94.9837 821.725 Q95.626 820.44 95.626 815.104 L98.7386 815.104 Q98.4422 825.727 98.4422 826.517 Q98.4422 827.505 98.7386 837.881 L95.626 837.881 M67.6124 823.009 Q69.144 823.009 69.6875 822.812 Q70.2309 822.565 71.8614 821.576 Q77.9878 817.575 77.9878 811.053 Q77.9878 811.003 77.9878 810.954 Q77.9878 805.173 72.1084 800.776 Q66.1796 796.379 57.2864 796.379 Q48.7884 796.379 42.8596 800.381 Q36.9308 804.383 36.9308 809.916 Q36.9308 813.869 39.0553 817.327 Q41.1798 820.786 45.0335 823.009 L67.6124 823.009 Z" fill="#000000" fill-rule="evenodd" fill-opacity="1" /><path clip-path="url(#clip600)" d="M38.6601 781.31 L35.498 781.31 L34.4111 766.439 L68.0076 766.439 Q70.4286 766.439 71.8614 766.241 Q73.2448 766.043 74.8752 765.253 Q76.5056 764.413 77.2467 762.535 Q77.9878 760.609 77.9878 757.545 Q77.9878 752.061 73.4918 748.702 Q68.9958 745.292 62.3259 745.292 L44.2924 745.292 Q40.5375 745.292 39.5988 746.626 Q38.6601 747.96 38.6601 753.198 L35.498 753.198 L34.4111 738.326 L70.3298 738.326 Q74.0847 738.326 75.0728 737.042 Q76.0115 735.708 76.0115 730.421 L79.1242 730.421 L80.2605 744.996 L71.1203 744.996 Q80.2111 749.245 80.2605 758.039 Q80.2605 762.486 79.1242 765.549 Q77.9878 768.563 76.6044 770.095 Q75.1716 771.626 72.4543 772.466 Q69.7369 773.257 68.0571 773.355 Q66.3772 773.454 63.1164 773.454 L47.9485 773.454 Q41.081 773.454 39.8952 774.442 Q38.6601 775.431 38.6601 781.31 Z" fill="#000000" fill-rule="evenodd" fill-opacity="1" /><path clip-path="url(#clip600)" d="M79.1242 725.085 L76.0115 725.085 Q76.0115 719.7 75.3692 718.465 Q74.6776 717.229 71.4167 717.229 L18.7986 717.229 Q15.0436 717.229 14.1049 718.563 Q13.1662 719.848 13.1662 725.085 L10.0042 725.085 L8.91721 710.56 L71.4167 710.56 Q74.6776 710.56 75.3692 709.275 Q76.0115 707.99 76.0115 702.654 L79.1242 702.654 Q79.1242 703.89 79.0253 706.459 Q78.9265 709.028 78.8771 710.905 Q78.8277 712.783 78.8277 713.87 Q78.8277 715.056 79.1242 725.085 Z" fill="#000000" fill-rule="evenodd" fill-opacity="1" /><path clip-path="url(#clip600)" d="M69.4898 696.182 Q60.8931 696.182 56.3477 686.054 Q53.4327 679.977 52.6916 667.427 L48.9861 667.427 Q42.7114 667.427 39.4012 670.738 Q36.0415 673.999 36.0415 678.149 Q36.0415 685.56 40.6857 689.117 Q40.7845 686.103 42.3162 685.016 Q43.7984 683.929 45.33 683.929 Q47.3556 683.929 48.6896 685.214 Q49.9742 686.449 49.9742 688.574 Q49.9742 690.599 48.739 691.933 Q47.4545 693.267 45.2311 693.267 Q40.2905 693.267 37.0296 688.821 Q33.7688 684.325 33.7688 677.951 Q33.7688 669.651 39.3517 664.117 Q41.081 662.388 43.3043 661.548 Q45.5276 660.659 47.0098 660.56 Q48.4426 660.461 51.3082 660.461 L71.5155 660.461 Q72.1084 660.461 73.0965 660.264 Q74.0847 660.066 75.3692 659.177 Q76.6044 658.238 76.6044 656.706 Q76.6044 653.05 70.1321 653.1 L64.4504 653.1 L64.4504 650.53 L70.1321 650.53 Q75.5175 650.53 77.642 653.396 Q79.717 656.212 79.717 658.831 Q79.717 662.19 77.2467 664.315 Q74.7764 666.439 71.4167 666.736 Q75.2704 668.267 77.7902 671.775 Q80.2605 675.234 80.2605 679.977 Q80.2605 683.633 79.3218 687.091 Q78.4325 690.5 75.9127 693.366 Q73.3436 696.182 69.4898 696.182 M69.391 688.376 Q73.1459 688.376 75.5669 685.708 Q77.9878 683.04 77.9878 679.285 Q77.9878 675.036 74.727 671.232 Q71.4167 667.427 64.9444 667.427 L54.8161 667.427 Q55.2113 678.643 59.7073 683.534 Q64.1539 688.376 69.391 688.376 Z" fill="#000000" fill-rule="evenodd" fill-opacity="1" /><path clip-path="url(#clip600)" d="M38.6601 647.912 L36.4368 647.912 Q36.2391 643.268 32.9783 640.204 Q29.668 637.092 25.6167 636.054 Q21.5653 634.967 16.8717 634.868 L16.8717 632.349 L35.498 632.349 L35.498 617.873 L38.6601 617.873 L38.6601 632.349 L66.7725 632.349 Q77.6914 632.349 77.6914 625.531 Q77.6914 622.616 74.727 620.689 Q71.7131 618.762 66.3772 618.762 L60.7943 618.762 L60.7943 616.242 L66.5749 616.242 Q72.059 616.242 76.1598 618.762 Q80.2605 621.282 80.2605 626.272 Q80.2605 628.1 79.7664 629.928 Q79.3218 631.706 78.136 634.078 Q76.9009 636.4 73.9365 637.882 Q70.9226 639.315 66.5749 639.315 L38.6601 639.315 L38.6601 647.912 Z" fill="#000000" fill-rule="evenodd" fill-opacity="1" /><path clip-path="url(#clip600)" d="M79.1242 607.25 L76.0115 607.25 Q76.0115 601.865 75.3692 600.63 Q74.6776 599.394 71.4167 599.394 L44.1936 599.394 Q40.4387 599.394 39.5494 600.679 Q38.6601 601.914 38.6601 606.855 L35.498 606.855 L34.4111 592.725 L71.5155 592.725 Q74.5293 592.725 75.2704 591.638 Q76.0115 590.551 76.0115 585.61 L79.1242 585.61 Q78.8277 595.936 78.8277 596.134 Q78.8277 597.517 79.1242 607.25 M16.7729 603.001 Q14.7472 603.001 13.1168 601.47 Q11.437 599.889 11.437 597.665 Q11.437 595.442 12.9686 593.861 Q14.4508 592.28 16.8223 592.28 Q19.1444 592.28 20.676 593.861 Q22.1582 595.442 22.1582 597.665 Q22.1582 599.987 20.5278 601.519 Q18.8974 603.001 16.7729 603.001 Z" fill="#000000" fill-rule="evenodd" fill-opacity="1" /><path clip-path="url(#clip600)" d="M73.6894 573.11 Q67.0689 579.78 57.484 579.78 Q47.8497 579.78 40.834 573.258 Q33.7688 566.687 33.7688 557.3 Q33.7688 548.11 40.7845 541.539 Q47.7509 534.919 57.484 534.919 Q67.0195 534.919 73.64 541.589 Q80.2605 548.209 80.2605 557.399 Q80.2605 566.391 73.6894 573.11 M56.6441 571.381 Q66.476 571.381 70.9226 568.812 Q77.6914 564.859 77.6914 557.3 Q77.6914 553.545 75.6657 550.432 Q73.64 547.27 70.2309 545.541 Q65.7843 543.318 56.6441 543.318 Q46.911 543.318 42.6126 545.986 Q36.0415 549.938 36.0415 557.399 Q36.0415 560.66 37.7707 563.871 Q39.4506 567.033 42.8102 568.96 Q47.2568 571.381 56.6441 571.381 Z" fill="#000000" fill-rule="evenodd" fill-opacity="1" /><path clip-path="url(#clip600)" d="M79.1242 528.743 L76.0115 528.743 Q76.0115 523.358 75.3692 522.122 Q74.6776 520.887 71.4167 520.887 L44.2924 520.887 Q40.5375 520.887 39.5988 522.221 Q38.6601 523.506 38.6601 528.743 L35.498 528.743 L34.4111 514.514 L45.0335 514.514 Q34.4111 509.771 34.4111 499.543 Q34.4111 491.935 38.166 488.921 Q40.6857 486.698 43.5019 486.253 Q46.3181 485.759 53.6303 485.759 L72.9483 485.759 Q75.0728 485.66 75.5669 484.03 Q76.0115 482.399 76.0115 477.854 L79.1242 477.854 Q78.8277 488.18 78.8277 489.217 Q78.8277 490.008 79.1242 500.63 L76.0115 500.63 Q76.0115 495.245 75.3692 494.01 Q74.6776 492.725 71.4167 492.725 L47.8497 492.725 Q42.7114 492.725 39.6976 494.306 Q36.6344 495.887 36.6344 500.235 Q36.6344 505.472 41.0316 509.672 Q45.4288 513.871 52.8398 513.871 L71.4167 513.871 Q74.6776 513.871 75.3692 512.636 Q76.0115 511.352 76.0115 506.016 L79.1242 506.016 Q78.8277 516.342 78.8277 517.33 Q78.8277 518.12 79.1242 528.743 Z" fill="#000000" fill-rule="evenodd" fill-opacity="1" /><polyline clip-path="url(#clip602)" style="stroke:#0000ff; stroke-linecap:round; stroke-linejoin:round; stroke-width:12; stroke-opacity:1; fill:none" points="
  377.285,85.0853 384.957,94.4933 392.628,122.046 400.3,165.879 407.972,223.193 415.643,290.508 423.315,363.941 430.987,439.475 438.659,513.219 446.33,581.625 
  454.002,641.674 461.674,691.016 469.346,728.049 477.017,751.956 484.689,762.695 492.361,760.941 500.033,747.995 507.704,725.666 515.376,696.137 523.048,661.812 
  530.719,625.175 538.391,588.647 546.063,554.457 553.735,524.539 561.406,500.446 569.078,483.297 576.75,473.743 584.422,471.973 592.093,477.73 599.765,490.36 
  607.437,508.878 615.109,532.041 622.78,558.439 630.452,586.576 638.124,614.965 645.795,642.204 653.467,667.046 661.139,688.457 668.811,705.657 676.482,718.147 
  684.154,725.71 691.826,728.411 699.498,726.569 707.169,720.725 714.841,711.595 722.513,700.02 730.185,686.914 737.856,673.206 745.528,659.79 753.2,647.48 
  760.871,636.971 768.543,628.807 776.215,623.369 783.887,620.856 791.558,621.295 799.23,624.549 806.902,630.332 814.574,638.241 822.245,647.783 829.917,658.407 
  837.589,669.54 845.26,680.62 852.932,691.122 860.604,700.59 868.276,708.652 875.947,715.035 883.619,719.577 891.291,722.224 898.963,723.025 906.634,722.128 
  914.306,719.758 921.978,716.204 929.65,711.798 937.321,706.894 944.993,701.846 952.665,696.99 960.336,692.628 968.008,689.012 975.68,686.334 983.352,684.724 
  991.023,684.239 998.695,684.873 1006.37,686.557 1014.04,689.169 1021.71,692.545 1029.38,696.488 1037.05,700.784 1044.73,705.213 1052.4,709.562 1060.07,713.636 
  1067.74,717.269 1075.41,720.328 1083.08,722.719 1090.76,724.39 1098.43,725.333 1106.1,725.577 1113.77,725.187 1121.44,724.257 1129.11,722.902 1136.79,721.253 
  1144.46,719.447 1152.13,717.618 1159.8,715.893 1167.47,714.382 1175.14,713.177 1182.82,712.344 1190.49,711.927 1198.16,711.941 1205.83,712.376 1213.5,713.202 
  1221.18,714.366 1228.85,715.801 1236.52,717.43 1244.19,719.17 1251.86,720.937 1259.53,722.651 1267.21,724.24 1274.88,725.642 1282.55,726.812 1290.22,727.717 
  1297.89,728.342 1305.56,728.688 1313.24,728.77 1320.91,728.615 1328.58,728.264 1336.25,727.761 1343.92,727.157 1351.59,726.506 1359.27,725.859 1366.94,725.261 
  1374.61,724.755 1382.28,724.373 1389.95,724.137 1397.63,724.063 1405.3,724.152 1412.97,724.4 1420.64,724.791 1428.31,725.305 1435.98,725.914 1443.66,726.588 
  1451.33,727.295 1459,728.004 1466.67,728.683 1474.34,729.307 1482.01,729.853 1489.69,730.305 1497.36,730.653 1505.03,730.892 1512.7,731.024 1520.37,731.057 
  1528.04,731.002 1535.72,730.875 1543.39,730.695 1551.06,730.481 1558.73,730.253 1566.4,730.031 1574.08,729.832 1581.75,729.671 1589.42,729.56 1597.09,729.506 
  1604.76,729.514 1612.43,729.584 1620.11,729.713 1627.78,729.895 1635.45,730.121 1643.12,730.379 1650.79,730.659 1658.46,730.948 1666.14,731.234 1673.81,731.505 
  1681.48,731.752 1689.15,731.967 1696.82,732.144 1704.49,732.281 1712.17,732.375 1719.84,732.428 1727.51,732.444 1735.18,732.428 1742.85,732.385 1750.52,732.324 
  1758.2,732.251 1765.87,732.175 1773.54,732.102 1781.21,732.04 1788.88,731.993 1796.56,731.967 1804.23,731.962 1811.9,731.981 1819.57,732.023 1827.24,732.087 
  1834.91,732.171 1842.59,732.27 1850.26,732.38 1857.93,732.497 1865.6,732.615 1873.27,732.731 1880.94,732.841 1888.62,732.94 1896.29,733.026 1903.96,733.096 
  1911.63,733.151 1919.3,733.189 1926.97,733.212 1934.65,733.221 1942.32,733.218 1949.99,733.205 1957.66,733.186 1965.33,733.163 1973.01,733.139 1980.68,733.117 
  1988.35,733.1 1996.02,733.089 2003.69,733.086 2011.36,733.091 2019.04,733.105 2026.71,733.128 2034.38,733.159 2042.05,733.197 2049.72,733.241 2057.39,733.288 
  2065.07,733.337 2072.74,733.386 2080.41,733.434 2088.08,733.478 2095.75,733.518 2103.42,733.553 2111.1,733.582 2118.77,733.605 2126.44,733.621 2134.11,733.631 
  2141.78,733.636 2149.45,733.637 2157.13,733.634 2164.8,733.629 2172.47,733.622 2180.14,733.616 2187.81,733.611 2195.49,733.607 2203.16,733.606 2210.83,733.608 
  2218.5,733.613 2226.17,733.622 2233.84,733.633 2241.52,733.648 2249.19,733.665 2256.86,733.684 2264.53,733.705 2272.2,733.725 2279.87,733.746 2287.55,733.766 
  2295.22,733.784 
  "/>
<polyline clip-path="url(#clip602)" style="stroke:#ff0000; stroke-linecap:round; stroke-linejoin:round; stroke-width:12; stroke-opacity:1; fill:none" points="
  377.285,1031.85 384.957,1027.28 392.628,1014.53 400.3,995.427 407.972,972.205 415.643,947.217 423.315,922.762 430.987,900.913 438.659,883.393 446.33,871.496 
  454.002,866.039 461.674,867.365 469.346,875.367 477.017,889.54 484.689,909.055 492.361,932.837 500.033,959.654 507.704,988.199 515.376,1017.18 523.048,1045.37 
  530.719,1071.69 538.391,1095.25 546.063,1115.38 553.735,1131.64 561.406,1143.81 569.078,1151.93 576.75,1156.24 584.422,1157.15 592.093,1155.22 599.765,1151.11 
  607.437,1145.55 615.109,1139.26 622.78,1132.97 630.452,1127.33 638.124,1122.9 645.795,1120.12 653.467,1119.32 661.139,1120.68 668.811,1124.24 676.482,1129.92 
  684.154,1137.53 691.826,1146.75 699.498,1157.24 707.169,1168.56 714.841,1180.28 722.513,1191.97 730.185,1203.2 737.856,1213.63 745.528,1222.94 753.2,1230.92 
  760.871,1237.43 768.543,1242.4 776.215,1245.86 783.887,1247.91 791.558,1248.71 799.23,1248.49 806.902,1247.48 814.574,1245.97 822.245,1244.23 829.917,1242.53 
  837.589,1241.1 845.26,1240.15 852.932,1239.85 860.604,1240.3 868.276,1241.56 875.947,1243.64 883.619,1246.5 891.291,1250.05 898.963,1254.18 906.634,1258.74 
  914.306,1263.56 921.978,1268.48 929.65,1273.34 937.321,1277.98 944.993,1282.26 952.665,1286.09 960.336,1289.37 968.008,1292.08 975.68,1294.18 983.352,1295.7 
  991.023,1296.69 998.695,1297.21 1006.37,1297.36 1014.04,1297.22 1021.71,1296.91 1029.38,1296.52 1037.05,1296.17 1044.73,1295.94 1052.4,1295.91 1060.07,1296.12 
  1067.74,1296.63 1075.41,1297.44 1083.08,1298.56 1090.76,1299.97 1098.43,1301.62 1106.1,1303.47 1113.77,1305.47 1121.44,1307.55 1129.11,1309.64 1136.79,1311.68 
  1144.46,1313.62 1152.13,1315.41 1159.8,1317.01 1167.47,1318.39 1175.14,1319.54 1182.82,1320.45 1190.49,1321.14 1198.16,1321.63 1205.83,1321.95 1213.5,1322.12 
  1221.18,1322.19 1228.85,1322.2 1236.52,1322.2 1244.19,1322.21 1251.86,1322.27 1259.53,1322.41 1267.21,1322.64 1274.88,1322.99 1282.55,1323.45 1290.22,1324.03 
  1297.89,1324.71 1305.56,1325.47 1313.24,1326.31 1320.91,1327.19 1328.58,1328.09 1336.25,1328.98 1343.92,1329.86 1351.59,1330.68 1359.27,1331.44 1366.94,1332.12 
  1374.61,1332.71 1382.28,1333.21 1389.95,1333.62 1397.63,1333.94 1405.3,1334.18 1412.97,1334.36 1420.64,1334.49 1428.31,1334.58 1435.98,1334.65 1443.66,1334.72 
  1451.33,1334.79 1459,1334.88 1466.67,1335.01 1474.34,1335.17 1482.01,1335.37 1489.69,1335.62 1497.36,1335.91 1505.03,1336.23 1512.7,1336.58 1520.37,1336.96 
  1528.04,1337.35 1535.72,1337.75 1543.39,1338.14 1551.06,1338.51 1558.73,1338.86 1566.4,1339.19 1574.08,1339.49 1581.75,1339.74 1589.42,1339.97 1597.09,1340.15 
  1604.76,1340.31 1612.43,1340.43 1620.11,1340.53 1627.78,1340.61 1635.45,1340.68 1643.12,1340.73 1650.79,1340.79 1658.46,1340.85 1666.14,1340.92 1673.81,1341 
  1681.48,1341.1 1689.15,1341.21 1696.82,1341.34 1704.49,1341.48 1712.17,1341.63 1719.84,1341.79 1727.51,1341.96 1735.18,1342.14 1742.85,1342.31 1750.52,1342.48 
  1758.2,1342.65 1765.87,1342.8 1773.54,1342.94 1781.21,1343.07 1788.88,1343.19 1796.56,1343.29 1804.23,1343.38 1811.9,1343.45 1819.57,1343.51 1827.24,1343.57 
  1834.91,1343.61 1842.59,1343.65 1850.26,1343.69 1857.93,1343.73 1865.6,1343.77 1873.27,1343.81 1880.94,1343.86 1888.62,1343.91 1896.29,1343.97 1903.96,1344.03 
  1911.63,1344.1 1919.3,1344.17 1926.97,1344.25 1934.65,1344.32 1942.32,1344.4 1949.99,1344.48 1957.66,1344.56 1965.33,1344.63 1973.01,1344.7 1980.68,1344.76 
  1988.35,1344.82 1996.02,1344.87 2003.69,1344.92 2011.36,1344.96 2019.04,1344.99 2026.71,1345.03 2034.38,1345.05 2042.05,1345.08 2049.72,1345.1 2057.39,1345.12 
  2065.07,1345.15 2072.74,1345.17 2080.41,1345.19 2088.08,1345.22 2095.75,1345.24 2103.42,1345.27 2111.1,1345.3 2118.77,1345.34 2126.44,1345.37 2134.11,1345.41 
  2141.78,1345.44 2149.45,1345.48 2157.13,1345.51 2164.8,1345.55 2172.47,1345.58 2180.14,1345.61 2187.81,1345.64 2195.49,1345.66 2203.16,1345.69 2210.83,1345.71 
  2218.5,1345.73 2226.17,1345.75 2233.84,1345.76 2241.52,1345.78 2249.19,1345.79 2256.86,1345.8 2264.53,1345.82 2272.2,1345.83 2279.87,1345.84 2287.55,1345.85 
  2295.22,1345.87 
  "/>
<polyline clip-path="url(#clip602)" style="stroke:#0000ff; stroke-linecap:round; stroke-linejoin:round; stroke-width:12; stroke-opacity:1; fill:none" stroke-dasharray="48, 30" points="
  377.285,734.069 384.957,734.069 392.628,734.069 400.3,734.069 407.972,734.069 415.643,734.069 423.315,734.069 430.987,734.069 438.659,734.069 446.33,734.069 
  454.002,734.069 461.674,734.069 469.346,734.069 477.017,734.069 484.689,734.069 492.361,734.069 500.033,734.069 507.704,734.069 515.376,734.069 523.048,734.069 
  530.719,734.069 538.391,734.069 546.063,734.069 553.735,734.069 561.406,734.069 569.078,734.069 576.75,734.069 584.422,734.069 592.093,734.069 599.765,734.069 
  607.437,734.069 615.109,734.069 622.78,734.069 630.452,734.069 638.124,734.069 645.795,734.069 653.467,734.069 661.139,734.069 668.811,734.069 676.482,734.069 
  684.154,734.069 691.826,734.069 699.498,734.069 707.169,734.069 714.841,734.069 722.513,734.069 730.185,734.069 737.856,734.069 745.528,734.069 753.2,734.069 
  760.871,734.069 768.543,734.069 776.215,734.069 783.887,734.069 791.558,734.069 799.23,734.069 806.902,734.069 814.574,734.069 822.245,734.069 829.917,734.069 
  837.589,734.069 845.26,734.069 852.932,734.069 860.604,734.069 868.276,734.069 875.947,734.069 883.619,734.069 891.291,734.069 898.963,734.069 906.634,734.069 
  914.306,734.069 921.978,734.069 929.65,734.069 937.321,734.069 944.993,734.069 952.665,734.069 960.336,734.069 968.008,734.069 975.68,734.069 983.352,734.069 
  991.023,734.069 998.695,734.069 1006.37,734.069 1014.04,734.069 1021.71,734.069 1029.38,734.069 1037.05,734.069 1044.73,734.069 1052.4,734.069 1060.07,734.069 
  1067.74,734.069 1075.41,734.069 1083.08,734.069 1090.76,734.069 1098.43,734.069 1106.1,734.069 1113.77,734.069 1121.44,734.069 1129.11,734.069 1136.79,734.069 
  1144.46,734.069 1152.13,734.069 1159.8,734.069 1167.47,734.069 1175.14,734.069 1182.82,734.069 1190.49,734.069 1198.16,734.069 1205.83,734.069 1213.5,734.069 
  1221.18,734.069 1228.85,734.069 1236.52,734.069 1244.19,734.069 1251.86,734.069 1259.53,734.069 1267.21,734.069 1274.88,734.069 1282.55,734.069 1290.22,734.069 
  1297.89,734.069 1305.56,734.069 1313.24,734.069 1320.91,734.069 1328.58,734.069 1336.25,734.069 1343.92,734.069 1351.59,734.069 1359.27,734.069 1366.94,734.069 
  1374.61,734.069 1382.28,734.069 1389.95,734.069 1397.63,734.069 1405.3,734.069 1412.97,734.069 1420.64,734.069 1428.31,734.069 1435.98,734.069 1443.66,734.069 
  1451.33,734.069 1459,734.069 1466.67,734.069 1474.34,734.069 1482.01,734.069 1489.69,734.069 1497.36,734.069 1505.03,734.069 1512.7,734.069 1520.37,734.069 
  1528.04,734.069 1535.72,734.069 1543.39,734.069 1551.06,734.069 1558.73,734.069 1566.4,734.069 1574.08,734.069 1581.75,734.069 1589.42,734.069 1597.09,734.069 
  1604.76,734.069 1612.43,734.069 1620.11,734.069 1627.78,734.069 1635.45,734.069 1643.12,734.069 1650.79,734.069 1658.46,734.069 1666.14,734.069 1673.81,734.069 
  1681.48,734.069 1689.15,734.069 1696.82,734.069 1704.49,734.069 1712.17,734.069 1719.84,734.069 1727.51,734.069 1735.18,734.069 1742.85,734.069 1750.52,734.069 
  1758.2,734.069 1765.87,734.069 1773.54,734.069 1781.21,734.069 1788.88,734.069 1796.56,734.069 1804.23,734.069 1811.9,734.069 1819.57,734.069 1827.24,734.069 
  1834.91,734.069 1842.59,734.069 1850.26,734.069 1857.93,734.069 1865.6,734.069 1873.27,734.069 1880.94,734.069 1888.62,734.069 1896.29,734.069 1903.96,734.069 
  1911.63,734.069 1919.3,734.069 1926.97,734.069 1934.65,734.069 1942.32,734.069 1949.99,734.069 1957.66,734.069 1965.33,734.069 1973.01,734.069 1980.68,734.069 
  1988.35,734.069 1996.02,734.069 2003.69,734.069 2011.36,734.069 2019.04,734.069 2026.71,734.069 2034.38,734.069 2042.05,734.069 2049.72,734.069 2057.39,734.069 
  2065.07,734.069 2072.74,734.069 2080.41,734.069 2088.08,734.069 2095.75,734.069 2103.42,734.069 2111.1,734.069 2118.77,734.069 2126.44,734.069 2134.11,734.069 
  2141.78,734.069 2149.45,734.069 2157.13,734.069 2164.8,734.069 2172.47,734.069 2180.14,734.069 2187.81,734.069 2195.49,734.069 2203.16,734.069 2210.83,734.069 
  2218.5,734.069 2226.17,734.069 2233.84,734.069 2241.52,734.069 2249.19,734.069 2256.86,734.069 2264.53,734.069 2272.2,734.069 2279.87,734.069 2287.55,734.069 
  2295.22,734.069 
  "/>
<polyline clip-path="url(#clip602)" style="stroke:#ff0000; stroke-linecap:round; stroke-linejoin:round; stroke-width:12; stroke-opacity:1; fill:none" stroke-dasharray="48, 30" points="
  377.285,1346.46 384.957,1346.46 392.628,1346.46 400.3,1346.46 407.972,1346.46 415.643,1346.46 423.315,1346.46 430.987,1346.46 438.659,1346.46 446.33,1346.46 
  454.002,1346.46 461.674,1346.46 469.346,1346.46 477.017,1346.46 484.689,1346.46 492.361,1346.46 500.033,1346.46 507.704,1346.46 515.376,1346.46 523.048,1346.46 
  530.719,1346.46 538.391,1346.46 546.063,1346.46 553.735,1346.46 561.406,1346.46 569.078,1346.46 576.75,1346.46 584.422,1346.46 592.093,1346.46 599.765,1346.46 
  607.437,1346.46 615.109,1346.46 622.78,1346.46 630.452,1346.46 638.124,1346.46 645.795,1346.46 653.467,1346.46 661.139,1346.46 668.811,1346.46 676.482,1346.46 
  684.154,1346.46 691.826,1346.46 699.498,1346.46 707.169,1346.46 714.841,1346.46 722.513,1346.46 730.185,1346.46 737.856,1346.46 745.528,1346.46 753.2,1346.46 
  760.871,1346.46 768.543,1346.46 776.215,1346.46 783.887,1346.46 791.558,1346.46 799.23,1346.46 806.902,1346.46 814.574,1346.46 822.245,1346.46 829.917,1346.46 
  837.589,1346.46 845.26,1346.46 852.932,1346.46 860.604,1346.46 868.276,1346.46 875.947,1346.46 883.619,1346.46 891.291,1346.46 898.963,1346.46 906.634,1346.46 
  914.306,1346.46 921.978,1346.46 929.65,1346.46 937.321,1346.46 944.993,1346.46 952.665,1346.46 960.336,1346.46 968.008,1346.46 975.68,1346.46 983.352,1346.46 
  991.023,1346.46 998.695,1346.46 1006.37,1346.46 1014.04,1346.46 1021.71,1346.46 1029.38,1346.46 1037.05,1346.46 1044.73,1346.46 1052.4,1346.46 1060.07,1346.46 
  1067.74,1346.46 1075.41,1346.46 1083.08,1346.46 1090.76,1346.46 1098.43,1346.46 1106.1,1346.46 1113.77,1346.46 1121.44,1346.46 1129.11,1346.46 1136.79,1346.46 
  1144.46,1346.46 1152.13,1346.46 1159.8,1346.46 1167.47,1346.46 1175.14,1346.46 1182.82,1346.46 1190.49,1346.46 1198.16,1346.46 1205.83,1346.46 1213.5,1346.46 
  1221.18,1346.46 1228.85,1346.46 1236.52,1346.46 1244.19,1346.46 1251.86,1346.46 1259.53,1346.46 1267.21,1346.46 1274.88,1346.46 1282.55,1346.46 1290.22,1346.46 
  1297.89,1346.46 1305.56,1346.46 1313.24,1346.46 1320.91,1346.46 1328.58,1346.46 1336.25,1346.46 1343.92,1346.46 1351.59,1346.46 1359.27,1346.46 1366.94,1346.46 
  1374.61,1346.46 1382.28,1346.46 1389.95,1346.46 1397.63,1346.46 1405.3,1346.46 1412.97,1346.46 1420.64,1346.46 1428.31,1346.46 1435.98,1346.46 1443.66,1346.46 
  1451.33,1346.46 1459,1346.46 1466.67,1346.46 1474.34,1346.46 1482.01,1346.46 1489.69,1346.46 1497.36,1346.46 1505.03,1346.46 1512.7,1346.46 1520.37,1346.46 
  1528.04,1346.46 1535.72,1346.46 1543.39,1346.46 1551.06,1346.46 1558.73,1346.46 1566.4,1346.46 1574.08,1346.46 1581.75,1346.46 1589.42,1346.46 1597.09,1346.46 
  1604.76,1346.46 1612.43,1346.46 1620.11,1346.46 1627.78,1346.46 1635.45,1346.46 1643.12,1346.46 1650.79,1346.46 1658.46,1346.46 1666.14,1346.46 1673.81,1346.46 
  1681.48,1346.46 1689.15,1346.46 1696.82,1346.46 1704.49,1346.46 1712.17,1346.46 1719.84,1346.46 1727.51,1346.46 1735.18,1346.46 1742.85,1346.46 1750.52,1346.46 
  1758.2,1346.46 1765.87,1346.46 1773.54,1346.46 1781.21,1346.46 1788.88,1346.46 1796.56,1346.46 1804.23,1346.46 1811.9,1346.46 1819.57,1346.46 1827.24,1346.46 
  1834.91,1346.46 1842.59,1346.46 1850.26,1346.46 1857.93,1346.46 1865.6,1346.46 1873.27,1346.46 1880.94,1346.46 1888.62,1346.46 1896.29,1346.46 1903.96,1346.46 
  1911.63,1346.46 1919.3,1346.46 1926.97,1346.46 1934.65,1346.46 1942.32,1346.46 1949.99,1346.46 1957.66,1346.46 1965.33,1346.46 1973.01,1346.46 1980.68,1346.46 
  1988.35,1346.46 1996.02,1346.46 2003.69,1346.46 2011.36,1346.46 2019.04,1346.46 2026.71,1346.46 2034.38,1346.46 2042.05,1346.46 2049.72,1346.46 2057.39,1346.46 
  2065.07,1346.46 2072.74,1346.46 2080.41,1346.46 2088.08,1346.46 2095.75,1346.46 2103.42,1346.46 2111.1,1346.46 2118.77,1346.46 2126.44,1346.46 2134.11,1346.46 
  2141.78,1346.46 2149.45,1346.46 2157.13,1346.46 2164.8,1346.46 2172.47,1346.46 2180.14,1346.46 2187.81,1346.46 2195.49,1346.46 2203.16,1346.46 2210.83,1346.46 
  2218.5,1346.46 2226.17,1346.46 2233.84,1346.46 2241.52,1346.46 2249.19,1346.46 2256.86,1346.46 2264.53,1346.46 2272.2,1346.46 2279.87,1346.46 2287.55,1346.46 
  2295.22,1346.46 
  "/>
<path clip-path="url(#clip600)" d="
M1434.68 480.613 L2284.99 480.613 L2284.99 91.8126 L1434.68 91.8126  Z
  " fill="#ffffff" fill-rule="evenodd" fill-opacity="1"/>
<polyline clip-path="url(#clip600)" style="stroke:#000000; stroke-linecap:round; stroke-linejoin:round; stroke-width:4; stroke-opacity:1; fill:none" points="
  1434.68,480.613 2284.99,480.613 2284.99,91.8126 1434.68,91.8126 1434.68,480.613 
  "/>
<polyline clip-path="url(#clip600)" style="stroke:#0000ff; stroke-linecap:round; stroke-linejoin:round; stroke-width:6; stroke-opacity:1; fill:none" points="
  1457.27,169.573 1592.81,169.573 
  "/>
<path clip-path="url(#clip600)" d="M1615.4 195.493 L1615.4 193.158 L1617.21 193.158 Q1621.33 193.158 1622.25 192.491 Q1623.22 191.787 1623.22 189.564 L1623.22 149.581 Q1623.22 147.395 1622.25 146.728 Q1621.29 146.024 1617.21 146.024 L1615.4 146.024 L1615.4 143.653 L1642.19 143.653 Q1649.86 143.653 1654.97 147.877 Q1660.08 152.101 1660.08 157.771 Q1660.08 163.403 1654.86 167.479 Q1649.67 171.518 1642.78 171.518 L1629.96 171.518 L1629.96 189.564 Q1629.96 191.75 1630.89 192.454 Q1631.85 193.158 1635.96 193.158 L1637.78 193.158 L1637.78 195.493 Q1635.11 195.27 1626.55 195.27 Q1618.06 195.27 1615.4 195.493 M1629.74 169.554 L1640.19 169.554 Q1643.6 169.554 1646.08 168.591 Q1648.56 167.627 1649.67 166.479 Q1650.82 165.293 1651.45 163.403 Q1652.12 161.476 1652.19 160.439 Q1652.27 159.364 1652.27 157.771 Q1652.27 156.103 1652.19 155.066 Q1652.12 153.991 1651.45 152.101 Q1650.82 150.174 1649.67 149.026 Q1648.56 147.84 1646.08 146.951 Q1643.63 146.024 1640.19 146.024 L1633.44 146.024 Q1630.85 146.024 1630.29 146.543 Q1629.74 147.062 1629.74 149.063 L1629.74 169.554 Z" fill="#000000" fill-rule="evenodd" fill-opacity="1" /><path clip-path="url(#clip600)" d="M1667.27 171.222 Q1667.27 160.068 1670.09 153.991 Q1674.02 144.95 1683.28 144.95 Q1685.25 144.95 1687.28 145.505 Q1689.36 146.024 1691.95 148.062 Q1694.58 150.1 1696.18 153.435 Q1699.21 159.883 1699.21 171.222 Q1699.21 182.301 1696.4 188.341 Q1692.29 197.16 1683.21 197.16 Q1679.8 197.16 1676.31 195.419 Q1672.87 193.677 1670.68 189.49 Q1667.27 183.227 1667.27 171.222 M1673.57 170.295 Q1673.57 181.745 1674.39 186.303 Q1675.31 191.231 1677.83 193.38 Q1680.39 195.493 1683.21 195.493 Q1686.25 195.493 1688.77 193.232 Q1691.32 190.935 1692.1 186.007 Q1692.95 181.152 1692.92 170.295 Q1692.92 159.735 1692.17 155.51 Q1691.17 150.582 1688.51 148.618 Q1685.88 146.617 1683.21 146.617 Q1682.21 146.617 1681.13 146.913 Q1680.09 147.21 1678.58 148.062 Q1677.06 148.914 1675.87 151.027 Q1674.72 153.139 1674.17 156.325 Q1673.57 160.439 1673.57 170.295 Z" fill="#000000" fill-rule="evenodd" fill-opacity="1" /><path clip-path="url(#clip600)" d="M1705.22 171.222 Q1705.22 160.068 1708.03 153.991 Q1711.96 144.95 1721.23 144.95 Q1723.19 144.95 1725.23 145.505 Q1727.3 146.024 1729.9 148.062 Q1732.53 150.1 1734.12 153.435 Q1737.16 159.883 1737.16 171.222 Q1737.16 182.301 1734.34 188.341 Q1730.23 197.16 1721.15 197.16 Q1717.74 197.16 1714.26 195.419 Q1710.81 193.677 1708.63 189.49 Q1705.22 183.227 1705.22 171.222 M1711.52 170.295 Q1711.52 181.745 1712.33 186.303 Q1713.26 191.231 1715.78 193.38 Q1718.34 195.493 1721.15 195.493 Q1724.19 195.493 1726.71 193.232 Q1729.27 190.935 1730.04 186.007 Q1730.9 181.152 1730.86 170.295 Q1730.86 159.735 1730.12 155.51 Q1729.12 150.582 1726.45 148.618 Q1723.82 146.617 1721.15 146.617 Q1720.15 146.617 1719.08 146.913 Q1718.04 147.21 1716.52 148.062 Q1715 148.914 1713.81 151.027 Q1712.67 153.139 1712.11 156.325 Q1711.52 160.439 1711.52 170.295 Z" fill="#000000" fill-rule="evenodd" fill-opacity="1" /><polyline clip-path="url(#clip600)" style="stroke:#ff0000; stroke-linecap:round; stroke-linejoin:round; stroke-width:6; stroke-opacity:1; fill:none" points="
  1457.27,247.333 1592.81,247.333 
  "/>
<path clip-path="url(#clip600)" d="M1615.4 273.253 L1615.4 270.918 L1617.21 270.918 Q1621.33 270.918 1622.25 270.251 Q1623.22 269.547 1623.22 267.324 L1623.22 227.341 Q1623.22 225.155 1622.25 224.488 Q1621.29 223.784 1617.21 223.784 L1615.4 223.784 L1615.4 221.413 L1642.19 221.413 Q1649.86 221.413 1654.97 225.637 Q1660.08 229.861 1660.08 235.531 Q1660.08 241.163 1654.86 245.239 Q1649.67 249.278 1642.78 249.278 L1629.96 249.278 L1629.96 267.324 Q1629.96 269.51 1630.89 270.214 Q1631.85 270.918 1635.96 270.918 L1637.78 270.918 L1637.78 273.253 Q1635.11 273.03 1626.55 273.03 Q1618.06 273.03 1615.4 273.253 M1629.74 247.314 L1640.19 247.314 Q1643.6 247.314 1646.08 246.351 Q1648.56 245.387 1649.67 244.239 Q1650.82 243.053 1651.45 241.163 Q1652.12 239.236 1652.19 238.199 Q1652.27 237.124 1652.27 235.531 Q1652.27 233.863 1652.19 232.826 Q1652.12 231.751 1651.45 229.861 Q1650.82 227.934 1649.67 226.786 Q1648.56 225.6 1646.08 224.711 Q1643.63 223.784 1640.19 223.784 L1633.44 223.784 Q1630.85 223.784 1630.29 224.303 Q1629.74 224.822 1629.74 226.823 L1629.74 247.314 Z" fill="#000000" fill-rule="evenodd" fill-opacity="1" /><path clip-path="url(#clip600)" d="M1667.27 248.982 Q1667.27 237.828 1670.09 231.751 Q1674.02 222.71 1683.28 222.71 Q1685.25 222.71 1687.28 223.265 Q1689.36 223.784 1691.95 225.822 Q1694.58 227.86 1696.18 231.195 Q1699.21 237.643 1699.21 248.982 Q1699.21 260.061 1696.4 266.101 Q1692.29 274.92 1683.21 274.92 Q1679.8 274.92 1676.31 273.179 Q1672.87 271.437 1670.68 267.25 Q1667.27 260.987 1667.27 248.982 M1673.57 248.055 Q1673.57 259.505 1674.39 264.063 Q1675.31 268.991 1677.83 271.14 Q1680.39 273.253 1683.21 273.253 Q1686.25 273.253 1688.77 270.992 Q1691.32 268.695 1692.1 263.767 Q1692.95 258.912 1692.92 248.055 Q1692.92 237.495 1692.17 233.27 Q1691.17 228.342 1688.51 226.378 Q1685.88 224.377 1683.21 224.377 Q1682.21 224.377 1681.13 224.673 Q1680.09 224.97 1678.58 225.822 Q1677.06 226.674 1675.87 228.787 Q1674.72 230.899 1674.17 234.085 Q1673.57 238.199 1673.57 248.055 Z" fill="#000000" fill-rule="evenodd" fill-opacity="1" /><path clip-path="url(#clip600)" d="M1709 229.935 L1709 227.564 Q1718.11 227.564 1722.82 222.71 Q1724.12 222.71 1724.34 223.006 Q1724.56 223.302 1724.56 224.673 L1724.56 267.25 Q1724.56 269.51 1725.67 270.214 Q1726.78 270.918 1731.64 270.918 L1734.05 270.918 L1734.05 273.253 Q1731.38 273.03 1721.74 273.03 Q1712.11 273.03 1709.48 273.253 L1709.48 270.918 L1711.89 270.918 Q1716.67 270.918 1717.82 270.251 Q1718.97 269.547 1718.97 267.25 L1718.97 227.934 Q1715 229.935 1709 229.935 Z" fill="#000000" fill-rule="evenodd" fill-opacity="1" /><polyline clip-path="url(#clip600)" style="stroke:#0000ff; stroke-linecap:round; stroke-linejoin:round; stroke-width:6; stroke-opacity:1; fill:none" stroke-dasharray="24, 15" points="
  1457.27,325.093 1592.81,325.093 
  "/>
<path clip-path="url(#clip600)" d="M1615.4 351.013 L1615.4 348.678 L1617.21 348.678 Q1621.33 348.678 1622.25 348.011 Q1623.22 347.307 1623.22 345.084 L1623.22 305.101 Q1623.22 302.915 1622.25 302.248 Q1621.29 301.544 1617.21 301.544 L1615.4 301.544 L1615.4 299.173 L1642.19 299.173 Q1649.86 299.173 1654.97 303.397 Q1660.08 307.621 1660.08 313.291 Q1660.08 318.923 1654.86 322.999 Q1649.67 327.038 1642.78 327.038 L1629.96 327.038 L1629.96 345.084 Q1629.96 347.27 1630.89 347.974 Q1631.85 348.678 1635.96 348.678 L1637.78 348.678 L1637.78 351.013 Q1635.11 350.79 1626.55 350.79 Q1618.06 350.79 1615.4 351.013 M1629.74 325.074 L1640.19 325.074 Q1643.6 325.074 1646.08 324.111 Q1648.56 323.147 1649.67 321.999 Q1650.82 320.813 1651.45 318.923 Q1652.12 316.996 1652.19 315.959 Q1652.27 314.884 1652.27 313.291 Q1652.27 311.623 1652.19 310.586 Q1652.12 309.511 1651.45 307.621 Q1650.82 305.694 1649.67 304.546 Q1648.56 303.36 1646.08 302.471 Q1643.63 301.544 1640.19 301.544 L1633.44 301.544 Q1630.85 301.544 1630.29 302.063 Q1629.74 302.582 1629.74 304.583 L1629.74 325.074 Z" fill="#000000" fill-rule="evenodd" fill-opacity="1" /><path clip-path="url(#clip600)" d="M1667.27 326.742 Q1667.27 315.588 1670.09 309.511 Q1674.02 300.47 1683.28 300.47 Q1685.25 300.47 1687.28 301.025 Q1689.36 301.544 1691.95 303.582 Q1694.58 305.62 1696.18 308.955 Q1699.21 315.403 1699.21 326.742 Q1699.21 337.821 1696.4 343.861 Q1692.29 352.68 1683.21 352.68 Q1679.8 352.68 1676.31 350.939 Q1672.87 349.197 1670.68 345.01 Q1667.27 338.747 1667.27 326.742 M1673.57 325.815 Q1673.57 337.265 1674.39 341.823 Q1675.31 346.751 1677.83 348.9 Q1680.39 351.013 1683.21 351.013 Q1686.25 351.013 1688.77 348.752 Q1691.32 346.455 1692.1 341.527 Q1692.95 336.672 1692.92 325.815 Q1692.92 315.255 1692.17 311.03 Q1691.17 306.102 1688.51 304.138 Q1685.88 302.137 1683.21 302.137 Q1682.21 302.137 1681.13 302.433 Q1680.09 302.73 1678.58 303.582 Q1677.06 304.434 1675.87 306.547 Q1674.72 308.659 1674.17 311.845 Q1673.57 315.959 1673.57 325.815 Z" fill="#000000" fill-rule="evenodd" fill-opacity="1" /><path clip-path="url(#clip600)" d="M1705.22 326.742 Q1705.22 315.588 1708.03 309.511 Q1711.96 300.47 1721.23 300.47 Q1723.19 300.47 1725.23 301.025 Q1727.3 301.544 1729.9 303.582 Q1732.53 305.62 1734.12 308.955 Q1737.16 315.403 1737.16 326.742 Q1737.16 337.821 1734.34 343.861 Q1730.23 352.68 1721.15 352.68 Q1717.74 352.68 1714.26 350.939 Q1710.81 349.197 1708.63 345.01 Q1705.22 338.747 1705.22 326.742 M1711.52 325.815 Q1711.52 337.265 1712.33 341.823 Q1713.26 346.751 1715.78 348.9 Q1718.34 351.013 1721.15 351.013 Q1724.19 351.013 1726.71 348.752 Q1729.27 346.455 1730.04 341.527 Q1730.9 336.672 1730.86 325.815 Q1730.86 315.255 1730.12 311.03 Q1729.12 306.102 1726.45 304.138 Q1723.82 302.137 1721.15 302.137 Q1720.15 302.137 1719.08 302.433 Q1718.04 302.73 1716.52 303.582 Q1715 304.434 1713.81 306.547 Q1712.67 308.659 1712.11 311.845 Q1711.52 315.959 1711.52 325.815 Z" fill="#000000" fill-rule="evenodd" fill-opacity="1" /><path clip-path="url(#clip600)" d="M1772.95 332.04 Q1772.95 319.219 1777.73 308.881 Q1779.77 304.546 1782.63 300.914 Q1785.48 297.283 1787.37 295.689 Q1789.26 294.096 1789.78 294.096 Q1790.52 294.096 1790.56 294.837 Q1790.56 295.208 1789.56 296.134 Q1777.33 308.585 1777.36 332.04 Q1777.36 355.57 1789.26 367.539 Q1790.56 368.836 1790.56 369.244 Q1790.56 369.985 1789.78 369.985 Q1789.26 369.985 1787.44 368.466 Q1785.63 366.946 1782.81 363.463 Q1779.99 359.98 1777.96 355.719 Q1772.95 345.38 1772.95 332.04 Z" fill="#000000" fill-rule="evenodd" fill-opacity="1" /><path clip-path="url(#clip600)" d="M1799.12 350.864 L1799.12 335.672 Q1799.12 334.82 1799.15 334.523 Q1799.19 334.227 1799.41 334.004 Q1799.63 333.782 1800.08 333.782 Q1800.93 333.782 1801.01 334.56 Q1801.23 342.082 1805.71 346.233 Q1810.12 350.346 1817.68 350.346 Q1822.24 350.346 1825.05 347.085 Q1827.87 343.787 1827.87 339.489 Q1827.87 335.375 1825.5 332.485 Q1824.5 331.188 1823.24 330.373 Q1822.02 329.521 1821.24 329.261 Q1820.5 329.002 1819.05 328.631 Q1809.64 326.371 1809.05 326.112 Q1804.56 324.592 1801.82 320.776 Q1799.12 316.922 1799.12 312.216 Q1799.12 306.139 1803.38 301.841 Q1807.68 297.505 1813.9 297.505 Q1817.01 297.505 1819.61 298.506 Q1822.24 299.469 1823.31 300.358 Q1824.39 301.248 1826.05 302.841 L1828.69 298.506 Q1829.28 297.505 1829.83 297.505 Q1830.43 297.505 1830.54 297.876 Q1830.69 298.209 1830.69 299.321 L1830.69 314.588 Q1830.69 315.44 1830.65 315.736 Q1830.61 316.033 1830.35 316.218 Q1830.13 316.403 1829.69 316.403 Q1828.94 316.403 1828.76 315.514 Q1826.65 299.654 1813.97 299.654 Q1809.64 299.654 1806.79 302.582 Q1803.97 305.472 1803.97 309.585 Q1803.97 312.92 1806.04 315.662 Q1808.12 318.367 1811.64 319.219 L1821.35 321.554 Q1826.2 322.703 1829.46 327.001 Q1832.72 331.299 1832.72 336.895 Q1832.72 343.342 1828.5 348.011 Q1824.31 352.68 1817.75 352.68 Q1813.05 352.68 1809.42 351.124 Q1805.79 349.567 1803.82 347.381 Q1802.3 349.901 1801.3 351.309 L1801.08 351.68 Q1800.49 352.68 1799.93 352.68 Q1799.34 352.68 1799.23 352.31 Q1799.12 351.939 1799.12 350.864 Z" fill="#000000" fill-rule="evenodd" fill-opacity="1" /><path clip-path="url(#clip600)" d="M1838.39 320.665 L1838.39 318.997 Q1841.88 318.849 1844.17 316.403 Q1846.51 313.921 1847.29 310.882 Q1848.1 307.843 1848.18 304.323 L1850.07 304.323 L1850.07 318.293 L1860.92 318.293 L1860.92 320.665 L1850.07 320.665 L1850.07 341.749 Q1850.07 349.938 1855.18 349.938 Q1857.37 349.938 1858.81 347.715 Q1860.26 345.454 1860.26 341.452 L1860.26 337.265 L1862.15 337.265 L1862.15 341.601 Q1862.15 345.714 1860.26 348.789 Q1858.37 351.865 1854.62 351.865 Q1853.25 351.865 1851.88 351.494 Q1850.55 351.161 1848.77 350.272 Q1847.03 349.345 1845.92 347.122 Q1844.84 344.861 1844.84 341.601 L1844.84 320.665 L1838.39 320.665 Z" fill="#000000" fill-rule="evenodd" fill-opacity="1" /><path clip-path="url(#clip600)" d="M1868.48 334.301 Q1868.48 327.149 1873.08 322.073 Q1877.67 316.996 1884.27 316.996 Q1890.94 316.996 1894.38 321.332 Q1897.87 325.667 1897.87 331.892 Q1897.87 333.041 1897.57 333.263 Q1897.27 333.486 1895.98 333.486 L1874.78 333.486 Q1874.78 341.23 1877.08 344.861 Q1880.27 349.938 1885.64 349.938 Q1886.38 349.938 1887.27 349.79 Q1888.16 349.642 1889.97 349.012 Q1891.79 348.345 1893.38 346.603 Q1894.98 344.861 1895.9 342.119 Q1896.13 341.045 1896.87 341.082 Q1897.87 341.082 1897.87 341.971 Q1897.87 342.638 1897.13 344.157 Q1896.42 345.64 1895.05 347.418 Q1893.68 349.197 1891.01 350.531 Q1888.38 351.865 1885.19 351.865 Q1878.52 351.865 1873.48 346.825 Q1868.48 341.749 1868.48 334.301 M1874.86 331.892 L1892.86 331.892 Q1892.86 330.299 1892.57 328.52 Q1892.31 326.742 1891.49 324.296 Q1890.72 321.813 1888.86 320.257 Q1887.01 318.701 1884.27 318.701 Q1883.05 318.701 1881.71 319.219 Q1880.41 319.738 1878.82 320.998 Q1877.23 322.258 1876.12 325.111 Q1875 327.964 1874.86 331.892 Z" fill="#000000" fill-rule="evenodd" fill-opacity="1" /><path clip-path="url(#clip600)" d="M1903.24 343.787 Q1903.24 337.339 1910.84 333.93 Q1915.39 331.744 1924.81 331.188 L1924.81 328.409 Q1924.81 323.703 1922.32 321.22 Q1919.88 318.701 1916.77 318.701 Q1911.21 318.701 1908.54 322.184 Q1910.8 322.258 1911.61 323.407 Q1912.43 324.518 1912.43 325.667 Q1912.43 327.186 1911.47 328.187 Q1910.54 329.15 1908.95 329.15 Q1907.43 329.15 1906.43 328.224 Q1905.43 327.26 1905.43 325.593 Q1905.43 321.887 1908.76 319.442 Q1912.13 316.996 1916.91 316.996 Q1923.14 316.996 1927.29 321.183 Q1928.59 322.48 1929.22 324.148 Q1929.88 325.815 1929.96 326.927 Q1930.03 328.001 1930.03 330.151 L1930.03 345.306 Q1930.03 345.751 1930.18 346.492 Q1930.33 347.233 1930.99 348.196 Q1931.7 349.123 1932.85 349.123 Q1935.59 349.123 1935.55 344.269 L1935.55 340.007 L1937.48 340.007 L1937.48 344.269 Q1937.48 348.308 1935.33 349.901 Q1933.22 351.457 1931.25 351.457 Q1928.73 351.457 1927.14 349.605 Q1925.55 347.752 1925.32 345.232 Q1924.18 348.122 1921.55 350.012 Q1918.95 351.865 1915.39 351.865 Q1912.65 351.865 1910.06 351.161 Q1907.5 350.494 1905.35 348.604 Q1903.24 346.677 1903.24 343.787 M1909.09 343.713 Q1909.09 346.529 1911.1 348.345 Q1913.1 350.16 1915.91 350.16 Q1919.1 350.16 1921.95 347.715 Q1924.81 345.232 1924.81 340.378 L1924.81 332.782 Q1916.39 333.078 1912.73 336.45 Q1909.09 339.785 1909.09 343.713 Z" fill="#000000" fill-rule="evenodd" fill-opacity="1" /><path clip-path="url(#clip600)" d="M1940.59 334.708 Q1940.59 327.483 1945.63 322.48 Q1950.67 317.478 1957.49 317.478 Q1963.27 317.478 1967.05 322.184 L1967.05 305.768 Q1967.05 302.952 1966.05 302.248 Q1965.08 301.544 1961.16 301.544 L1961.16 299.173 L1972.09 298.357 L1972.09 344.417 Q1972.09 347.233 1973.05 347.974 Q1974.05 348.678 1977.98 348.678 L1977.98 351.013 L1966.83 351.865 L1966.83 346.825 Q1962.9 351.828 1956.67 351.865 Q1950.15 351.865 1945.37 346.862 Q1940.59 341.86 1940.59 334.708 M1946.89 334.783 Q1946.89 341.823 1949.08 345.306 Q1952.12 350.16 1957.04 350.16 Q1962.68 350.16 1966.01 344.861 Q1966.86 343.565 1966.83 342.045 L1966.83 326.482 Q1966.83 324.963 1966.01 323.703 Q1962.9 319.145 1957.82 319.145 Q1952.52 319.145 1949.23 323.999 Q1946.89 327.631 1946.89 334.783 Z" fill="#000000" fill-rule="evenodd" fill-opacity="1" /><path clip-path="url(#clip600)" d="M1981.54 360.425 Q1981.54 358.831 1982.46 357.979 Q1983.43 357.164 1984.72 357.164 Q1986.1 357.164 1986.98 358.016 Q1987.91 358.905 1987.91 360.35 Q1987.91 363.167 1984.95 363.537 Q1986.39 364.908 1988.5 364.908 Q1990.76 364.908 1992.58 363.241 Q1994.43 361.573 1995.21 359.98 Q1996.03 358.387 1997.17 355.496 Q1998.25 353.236 1999.06 351.013 L1987.69 323.295 Q1986.95 321.48 1985.8 321.072 Q1984.65 320.665 1981.54 320.665 L1981.54 318.293 Q1984.95 318.515 1988.91 318.515 Q1991.25 318.515 1997.17 318.293 L1997.17 320.665 Q1992.91 320.665 1992.91 322.628 Q1992.91 322.851 1993.36 323.999 L2001.81 344.417 L2009.48 325.741 Q2009.92 324.666 2009.92 323.925 Q2009.92 320.813 2006.36 320.665 L2006.36 318.293 Q2011.37 318.515 2012.96 318.515 Q2016.07 318.515 2018.63 318.293 L2018.63 320.665 Q2013.55 320.665 2011.59 325.519 L1998.21 357.905 Q1994.58 366.539 1988.5 366.576 Q1985.61 366.576 1983.58 364.797 Q1981.54 363.018 1981.54 360.425 Z" fill="#000000" fill-rule="evenodd" fill-opacity="1" /><path clip-path="url(#clip600)" d="M2049.57 350.864 L2049.57 335.672 Q2049.57 334.82 2049.61 334.523 Q2049.64 334.227 2049.87 334.004 Q2050.09 333.782 2050.53 333.782 Q2051.39 333.782 2051.46 334.56 Q2051.68 342.082 2056.17 346.233 Q2060.58 350.346 2068.13 350.346 Q2072.69 350.346 2075.51 347.085 Q2078.33 343.787 2078.33 339.489 Q2078.33 335.375 2075.95 332.485 Q2074.95 331.188 2073.69 330.373 Q2072.47 329.521 2071.69 329.261 Q2070.95 329.002 2069.51 328.631 Q2060.09 326.371 2059.5 326.112 Q2055.02 324.592 2052.28 320.776 Q2049.57 316.922 2049.57 312.216 Q2049.57 306.139 2053.83 301.841 Q2058.13 297.505 2064.36 297.505 Q2067.47 297.505 2070.06 298.506 Q2072.69 299.469 2073.77 300.358 Q2074.84 301.248 2076.51 302.841 L2079.14 298.506 Q2079.73 297.505 2080.29 297.505 Q2080.88 297.505 2080.99 297.876 Q2081.14 298.209 2081.14 299.321 L2081.14 314.588 Q2081.14 315.44 2081.1 315.736 Q2081.07 316.033 2080.81 316.218 Q2080.59 316.403 2080.14 316.403 Q2079.4 316.403 2079.21 315.514 Q2077.1 299.654 2064.43 299.654 Q2060.09 299.654 2057.24 302.582 Q2054.42 305.472 2054.42 309.585 Q2054.42 312.92 2056.5 315.662 Q2058.57 318.367 2062.09 319.219 L2071.8 321.554 Q2076.66 322.703 2079.92 327.001 Q2083.18 331.299 2083.18 336.895 Q2083.18 343.342 2078.96 348.011 Q2074.77 352.68 2068.21 352.68 Q2063.5 352.68 2059.87 351.124 Q2056.24 349.567 2054.28 347.381 Q2052.76 349.901 2051.76 351.309 L2051.53 351.68 Q2050.94 352.68 2050.39 352.68 Q2049.79 352.68 2049.68 352.31 Q2049.57 351.939 2049.57 350.864 Z" fill="#000000" fill-rule="evenodd" fill-opacity="1" /><path clip-path="url(#clip600)" d="M2088.85 320.665 L2088.85 318.997 Q2092.33 318.849 2094.63 316.403 Q2096.96 313.921 2097.74 310.882 Q2098.56 307.843 2098.63 304.323 L2100.52 304.323 L2100.52 318.293 L2111.38 318.293 L2111.38 320.665 L2100.52 320.665 L2100.52 341.749 Q2100.52 349.938 2105.63 349.938 Q2107.82 349.938 2109.27 347.715 Q2110.71 345.454 2110.71 341.452 L2110.71 337.265 L2112.6 337.265 L2112.6 341.601 Q2112.6 345.714 2110.71 348.789 Q2108.82 351.865 2105.08 351.865 Q2103.71 351.865 2102.34 351.494 Q2101 351.161 2099.22 350.272 Q2097.48 349.345 2096.37 347.122 Q2095.3 344.861 2095.3 341.601 L2095.3 320.665 L2088.85 320.665 Z" fill="#000000" fill-rule="evenodd" fill-opacity="1" /><path clip-path="url(#clip600)" d="M2120.01 343.787 Q2120.01 337.339 2127.61 333.93 Q2132.17 331.744 2141.58 331.188 L2141.58 328.409 Q2141.58 323.703 2139.1 321.22 Q2136.65 318.701 2133.54 318.701 Q2127.98 318.701 2125.31 322.184 Q2127.57 322.258 2128.39 323.407 Q2129.2 324.518 2129.2 325.667 Q2129.2 327.186 2128.24 328.187 Q2127.31 329.15 2125.72 329.15 Q2124.2 329.15 2123.2 328.224 Q2122.2 327.26 2122.2 325.593 Q2122.2 321.887 2125.53 319.442 Q2128.91 316.996 2133.69 316.996 Q2139.91 316.996 2144.06 321.183 Q2145.36 322.48 2145.99 324.148 Q2146.65 325.815 2146.73 326.927 Q2146.8 328.001 2146.8 330.151 L2146.8 345.306 Q2146.8 345.751 2146.95 346.492 Q2147.1 347.233 2147.77 348.196 Q2148.47 349.123 2149.62 349.123 Q2152.36 349.123 2152.32 344.269 L2152.32 340.007 L2154.25 340.007 L2154.25 344.269 Q2154.25 348.308 2152.1 349.901 Q2149.99 351.457 2148.03 351.457 Q2145.51 351.457 2143.91 349.605 Q2142.32 347.752 2142.1 345.232 Q2140.95 348.122 2138.32 350.012 Q2135.72 351.865 2132.17 351.865 Q2129.42 351.865 2126.83 351.161 Q2124.27 350.494 2122.12 348.604 Q2120.01 346.677 2120.01 343.787 M2125.87 343.713 Q2125.87 346.529 2127.87 348.345 Q2129.87 350.16 2132.68 350.16 Q2135.87 350.16 2138.72 347.715 Q2141.58 345.232 2141.58 340.378 L2141.58 332.782 Q2133.17 333.078 2129.5 336.45 Q2125.87 339.785 2125.87 343.713 Z" fill="#000000" fill-rule="evenodd" fill-opacity="1" /><path clip-path="url(#clip600)" d="M2156.21 320.665 L2156.21 318.997 Q2159.7 318.849 2162 316.403 Q2164.33 313.921 2165.11 310.882 Q2165.92 307.843 2166 304.323 L2167.89 304.323 L2167.89 318.293 L2178.74 318.293 L2178.74 320.665 L2167.89 320.665 L2167.89 341.749 Q2167.89 349.938 2173 349.938 Q2175.19 349.938 2176.63 347.715 Q2178.08 345.454 2178.08 341.452 L2178.08 337.265 L2179.97 337.265 L2179.97 341.601 Q2179.97 345.714 2178.08 348.789 Q2176.19 351.865 2172.44 351.865 Q2171.07 351.865 2169.7 351.494 Q2168.37 351.161 2166.59 350.272 Q2164.85 349.345 2163.74 347.122 Q2162.66 344.861 2162.66 341.601 L2162.66 320.665 L2156.21 320.665 Z" fill="#000000" fill-rule="evenodd" fill-opacity="1" /><path clip-path="url(#clip600)" d="M2186.3 334.301 Q2186.3 327.149 2190.9 322.073 Q2195.49 316.996 2202.09 316.996 Q2208.76 316.996 2212.2 321.332 Q2215.69 325.667 2215.69 331.892 Q2215.69 333.041 2215.39 333.263 Q2215.1 333.486 2213.8 333.486 L2192.6 333.486 Q2192.6 341.23 2194.9 344.861 Q2198.09 349.938 2203.46 349.938 Q2204.2 349.938 2205.09 349.79 Q2205.98 349.642 2207.8 349.012 Q2209.61 348.345 2211.2 346.603 Q2212.8 344.861 2213.72 342.119 Q2213.95 341.045 2214.69 341.082 Q2215.69 341.082 2215.69 341.971 Q2215.69 342.638 2214.95 344.157 Q2214.24 345.64 2212.87 347.418 Q2211.5 349.197 2208.83 350.531 Q2206.2 351.865 2203.02 351.865 Q2196.35 351.865 2191.31 346.825 Q2186.3 341.749 2186.3 334.301 M2192.68 331.892 L2210.69 331.892 Q2210.69 330.299 2210.39 328.52 Q2210.13 326.742 2209.31 324.296 Q2208.54 321.813 2206.68 320.257 Q2204.83 318.701 2202.09 318.701 Q2200.87 318.701 2199.53 319.219 Q2198.24 319.738 2196.64 320.998 Q2195.05 322.258 2193.94 325.111 Q2192.83 327.964 2192.68 331.892 Z" fill="#000000" fill-rule="evenodd" fill-opacity="1" /><path clip-path="url(#clip600)" d="M2222.21 369.244 Q2222.21 368.873 2223.17 367.947 Q2235.4 355.496 2235.4 332.04 Q2235.4 308.51 2223.65 296.616 Q2222.21 295.245 2222.21 294.837 Q2222.21 294.096 2222.95 294.096 Q2223.47 294.096 2225.29 295.615 Q2227.14 297.135 2229.92 300.618 Q2232.73 304.101 2234.81 308.362 Q2239.81 318.701 2239.81 332.04 Q2239.81 344.861 2235.03 355.2 Q2232.99 359.535 2230.14 363.167 Q2227.29 366.798 2225.4 368.391 Q2223.51 369.985 2222.95 369.985 Q2222.21 369.985 2222.21 369.244 Z" fill="#000000" fill-rule="evenodd" fill-opacity="1" /><polyline clip-path="url(#clip600)" style="stroke:#ff0000; stroke-linecap:round; stroke-linejoin:round; stroke-width:6; stroke-opacity:1; fill:none" stroke-dasharray="24, 15" points="
  1457.27,402.853 1592.81,402.853 
  "/>
<path clip-path="url(#clip600)" d="M1615.4 428.773 L1615.4 426.438 L1617.21 426.438 Q1621.33 426.438 1622.25 425.771 Q1623.22 425.067 1623.22 422.844 L1623.22 382.861 Q1623.22 380.675 1622.25 380.008 Q1621.29 379.304 1617.21 379.304 L1615.4 379.304 L1615.4 376.933 L1642.19 376.933 Q1649.86 376.933 1654.97 381.157 Q1660.08 385.381 1660.08 391.051 Q1660.08 396.683 1654.86 400.759 Q1649.67 404.798 1642.78 404.798 L1629.96 404.798 L1629.96 422.844 Q1629.96 425.03 1630.89 425.734 Q1631.85 426.438 1635.96 426.438 L1637.78 426.438 L1637.78 428.773 Q1635.11 428.55 1626.55 428.55 Q1618.06 428.55 1615.4 428.773 M1629.74 402.834 L1640.19 402.834 Q1643.6 402.834 1646.08 401.871 Q1648.56 400.907 1649.67 399.759 Q1650.82 398.573 1651.45 396.683 Q1652.12 394.756 1652.19 393.719 Q1652.27 392.644 1652.27 391.051 Q1652.27 389.383 1652.19 388.346 Q1652.12 387.271 1651.45 385.381 Q1650.82 383.454 1649.67 382.306 Q1648.56 381.12 1646.08 380.231 Q1643.63 379.304 1640.19 379.304 L1633.44 379.304 Q1630.85 379.304 1630.29 379.823 Q1629.74 380.342 1629.74 382.343 L1629.74 402.834 Z" fill="#000000" fill-rule="evenodd" fill-opacity="1" /><path clip-path="url(#clip600)" d="M1667.27 404.502 Q1667.27 393.348 1670.09 387.271 Q1674.02 378.23 1683.28 378.23 Q1685.25 378.23 1687.28 378.785 Q1689.36 379.304 1691.95 381.342 Q1694.58 383.38 1696.18 386.715 Q1699.21 393.163 1699.21 404.502 Q1699.21 415.581 1696.4 421.621 Q1692.29 430.44 1683.21 430.44 Q1679.8 430.44 1676.31 428.699 Q1672.87 426.957 1670.68 422.77 Q1667.27 416.507 1667.27 404.502 M1673.57 403.575 Q1673.57 415.025 1674.39 419.583 Q1675.31 424.511 1677.83 426.66 Q1680.39 428.773 1683.21 428.773 Q1686.25 428.773 1688.77 426.512 Q1691.32 424.215 1692.1 419.287 Q1692.95 414.432 1692.92 403.575 Q1692.92 393.015 1692.17 388.79 Q1691.17 383.862 1688.51 381.898 Q1685.88 379.897 1683.21 379.897 Q1682.21 379.897 1681.13 380.193 Q1680.09 380.49 1678.58 381.342 Q1677.06 382.194 1675.87 384.307 Q1674.72 386.419 1674.17 389.605 Q1673.57 393.719 1673.57 403.575 Z" fill="#000000" fill-rule="evenodd" fill-opacity="1" /><path clip-path="url(#clip600)" d="M1709 385.455 L1709 383.084 Q1718.11 383.084 1722.82 378.23 Q1724.12 378.23 1724.34 378.526 Q1724.56 378.822 1724.56 380.193 L1724.56 422.77 Q1724.56 425.03 1725.67 425.734 Q1726.78 426.438 1731.64 426.438 L1734.05 426.438 L1734.05 428.773 Q1731.38 428.55 1721.74 428.55 Q1712.11 428.55 1709.48 428.773 L1709.48 426.438 L1711.89 426.438 Q1716.67 426.438 1717.82 425.771 Q1718.97 425.067 1718.97 422.77 L1718.97 383.454 Q1715 385.455 1709 385.455 Z" fill="#000000" fill-rule="evenodd" fill-opacity="1" /><path clip-path="url(#clip600)" d="M1772.95 409.8 Q1772.95 396.979 1777.73 386.641 Q1779.77 382.306 1782.63 378.674 Q1785.48 375.043 1787.37 373.449 Q1789.26 371.856 1789.78 371.856 Q1790.52 371.856 1790.56 372.597 Q1790.56 372.968 1789.56 373.894 Q1777.33 386.345 1777.36 409.8 Q1777.36 433.33 1789.26 445.299 Q1790.56 446.596 1790.56 447.004 Q1790.56 447.745 1789.78 447.745 Q1789.26 447.745 1787.44 446.226 Q1785.63 444.706 1782.81 441.223 Q1779.99 437.74 1777.96 433.479 Q1772.95 423.14 1772.95 409.8 Z" fill="#000000" fill-rule="evenodd" fill-opacity="1" /><path clip-path="url(#clip600)" d="M1799.12 428.624 L1799.12 413.432 Q1799.12 412.58 1799.15 412.283 Q1799.19 411.987 1799.41 411.764 Q1799.63 411.542 1800.08 411.542 Q1800.93 411.542 1801.01 412.32 Q1801.23 419.842 1805.71 423.993 Q1810.12 428.106 1817.68 428.106 Q1822.24 428.106 1825.05 424.845 Q1827.87 421.547 1827.87 417.249 Q1827.87 413.135 1825.5 410.245 Q1824.5 408.948 1823.24 408.133 Q1822.02 407.281 1821.24 407.021 Q1820.5 406.762 1819.05 406.391 Q1809.64 404.131 1809.05 403.872 Q1804.56 402.352 1801.82 398.536 Q1799.12 394.682 1799.12 389.976 Q1799.12 383.899 1803.38 379.601 Q1807.68 375.265 1813.9 375.265 Q1817.01 375.265 1819.61 376.266 Q1822.24 377.229 1823.31 378.118 Q1824.39 379.008 1826.05 380.601 L1828.69 376.266 Q1829.28 375.265 1829.83 375.265 Q1830.43 375.265 1830.54 375.636 Q1830.69 375.969 1830.69 377.081 L1830.69 392.348 Q1830.69 393.2 1830.65 393.496 Q1830.61 393.793 1830.35 393.978 Q1830.13 394.163 1829.69 394.163 Q1828.94 394.163 1828.76 393.274 Q1826.65 377.414 1813.97 377.414 Q1809.64 377.414 1806.79 380.342 Q1803.97 383.232 1803.97 387.345 Q1803.97 390.68 1806.04 393.422 Q1808.12 396.127 1811.64 396.979 L1821.35 399.314 Q1826.2 400.463 1829.46 404.761 Q1832.72 409.059 1832.72 414.655 Q1832.72 421.102 1828.5 425.771 Q1824.31 430.44 1817.75 430.44 Q1813.05 430.44 1809.42 428.884 Q1805.79 427.327 1803.82 425.141 Q1802.3 427.661 1801.3 429.069 L1801.08 429.44 Q1800.49 430.44 1799.93 430.44 Q1799.34 430.44 1799.23 430.07 Q1799.12 429.699 1799.12 428.624 Z" fill="#000000" fill-rule="evenodd" fill-opacity="1" /><path clip-path="url(#clip600)" d="M1838.39 398.425 L1838.39 396.757 Q1841.88 396.609 1844.17 394.163 Q1846.51 391.681 1847.29 388.642 Q1848.1 385.603 1848.18 382.083 L1850.07 382.083 L1850.07 396.053 L1860.92 396.053 L1860.92 398.425 L1850.07 398.425 L1850.07 419.509 Q1850.07 427.698 1855.18 427.698 Q1857.37 427.698 1858.81 425.475 Q1860.26 423.214 1860.26 419.212 L1860.26 415.025 L1862.15 415.025 L1862.15 419.361 Q1862.15 423.474 1860.26 426.549 Q1858.37 429.625 1854.62 429.625 Q1853.25 429.625 1851.88 429.254 Q1850.55 428.921 1848.77 428.032 Q1847.03 427.105 1845.92 424.882 Q1844.84 422.621 1844.84 419.361 L1844.84 398.425 L1838.39 398.425 Z" fill="#000000" fill-rule="evenodd" fill-opacity="1" /><path clip-path="url(#clip600)" d="M1868.48 412.061 Q1868.48 404.909 1873.08 399.833 Q1877.67 394.756 1884.27 394.756 Q1890.94 394.756 1894.38 399.092 Q1897.87 403.427 1897.87 409.652 Q1897.87 410.801 1897.57 411.023 Q1897.27 411.246 1895.98 411.246 L1874.78 411.246 Q1874.78 418.99 1877.08 422.621 Q1880.27 427.698 1885.64 427.698 Q1886.38 427.698 1887.27 427.55 Q1888.16 427.402 1889.97 426.772 Q1891.79 426.105 1893.38 424.363 Q1894.98 422.621 1895.9 419.879 Q1896.13 418.805 1896.87 418.842 Q1897.87 418.842 1897.87 419.731 Q1897.87 420.398 1897.13 421.917 Q1896.42 423.4 1895.05 425.178 Q1893.68 426.957 1891.01 428.291 Q1888.38 429.625 1885.19 429.625 Q1878.52 429.625 1873.48 424.585 Q1868.48 419.509 1868.48 412.061 M1874.86 409.652 L1892.86 409.652 Q1892.86 408.059 1892.57 406.28 Q1892.31 404.502 1891.49 402.056 Q1890.72 399.573 1888.86 398.017 Q1887.01 396.461 1884.27 396.461 Q1883.05 396.461 1881.71 396.979 Q1880.41 397.498 1878.82 398.758 Q1877.23 400.018 1876.12 402.871 Q1875 405.724 1874.86 409.652 Z" fill="#000000" fill-rule="evenodd" fill-opacity="1" /><path clip-path="url(#clip600)" d="M1903.24 421.547 Q1903.24 415.099 1910.84 411.69 Q1915.39 409.504 1924.81 408.948 L1924.81 406.169 Q1924.81 401.463 1922.32 398.98 Q1919.88 396.461 1916.77 396.461 Q1911.21 396.461 1908.54 399.944 Q1910.8 400.018 1911.61 401.167 Q1912.43 402.278 1912.43 403.427 Q1912.43 404.946 1911.47 405.947 Q1910.54 406.91 1908.95 406.91 Q1907.43 406.91 1906.43 405.984 Q1905.43 405.02 1905.43 403.353 Q1905.43 399.647 1908.76 397.202 Q1912.13 394.756 1916.91 394.756 Q1923.14 394.756 1927.29 398.943 Q1928.59 400.24 1929.22 401.908 Q1929.88 403.575 1929.96 404.687 Q1930.03 405.761 1930.03 407.911 L1930.03 423.066 Q1930.03 423.511 1930.18 424.252 Q1930.33 424.993 1930.99 425.956 Q1931.7 426.883 1932.85 426.883 Q1935.59 426.883 1935.55 422.029 L1935.55 417.767 L1937.48 417.767 L1937.48 422.029 Q1937.48 426.068 1935.33 427.661 Q1933.22 429.217 1931.25 429.217 Q1928.73 429.217 1927.14 427.365 Q1925.55 425.512 1925.32 422.992 Q1924.18 425.882 1921.55 427.772 Q1918.95 429.625 1915.39 429.625 Q1912.65 429.625 1910.06 428.921 Q1907.5 428.254 1905.35 426.364 Q1903.24 424.437 1903.24 421.547 M1909.09 421.473 Q1909.09 424.289 1911.1 426.105 Q1913.1 427.92 1915.91 427.92 Q1919.1 427.92 1921.95 425.475 Q1924.81 422.992 1924.81 418.138 L1924.81 410.542 Q1916.39 410.838 1912.73 414.21 Q1909.09 417.545 1909.09 421.473 Z" fill="#000000" fill-rule="evenodd" fill-opacity="1" /><path clip-path="url(#clip600)" d="M1940.59 412.468 Q1940.59 405.243 1945.63 400.24 Q1950.67 395.238 1957.49 395.238 Q1963.27 395.238 1967.05 399.944 L1967.05 383.528 Q1967.05 380.712 1966.05 380.008 Q1965.08 379.304 1961.16 379.304 L1961.16 376.933 L1972.09 376.117 L1972.09 422.177 Q1972.09 424.993 1973.05 425.734 Q1974.05 426.438 1977.98 426.438 L1977.98 428.773 L1966.83 429.625 L1966.83 424.585 Q1962.9 429.588 1956.67 429.625 Q1950.15 429.625 1945.37 424.622 Q1940.59 419.62 1940.59 412.468 M1946.89 412.543 Q1946.89 419.583 1949.08 423.066 Q1952.12 427.92 1957.04 427.92 Q1962.68 427.92 1966.01 422.621 Q1966.86 421.325 1966.83 419.805 L1966.83 404.242 Q1966.83 402.723 1966.01 401.463 Q1962.9 396.905 1957.82 396.905 Q1952.52 396.905 1949.23 401.759 Q1946.89 405.391 1946.89 412.543 Z" fill="#000000" fill-rule="evenodd" fill-opacity="1" /><path clip-path="url(#clip600)" d="M1981.54 438.185 Q1981.54 436.591 1982.46 435.739 Q1983.43 434.924 1984.72 434.924 Q1986.1 434.924 1986.98 435.776 Q1987.91 436.665 1987.91 438.11 Q1987.91 440.927 1984.95 441.297 Q1986.39 442.668 1988.5 442.668 Q1990.76 442.668 1992.58 441.001 Q1994.43 439.333 1995.21 437.74 Q1996.03 436.147 1997.17 433.256 Q1998.25 430.996 1999.06 428.773 L1987.69 401.055 Q1986.95 399.24 1985.8 398.832 Q1984.65 398.425 1981.54 398.425 L1981.54 396.053 Q1984.95 396.275 1988.91 396.275 Q1991.25 396.275 1997.17 396.053 L1997.17 398.425 Q1992.91 398.425 1992.91 400.388 Q1992.91 400.611 1993.36 401.759 L2001.81 422.177 L2009.48 403.501 Q2009.92 402.426 2009.92 401.685 Q2009.92 398.573 2006.36 398.425 L2006.36 396.053 Q2011.37 396.275 2012.96 396.275 Q2016.07 396.275 2018.63 396.053 L2018.63 398.425 Q2013.55 398.425 2011.59 403.279 L1998.21 435.665 Q1994.58 444.299 1988.5 444.336 Q1985.61 444.336 1983.58 442.557 Q1981.54 440.778 1981.54 438.185 Z" fill="#000000" fill-rule="evenodd" fill-opacity="1" /><path clip-path="url(#clip600)" d="M2049.57 428.624 L2049.57 413.432 Q2049.57 412.58 2049.61 412.283 Q2049.64 411.987 2049.87 411.764 Q2050.09 411.542 2050.53 411.542 Q2051.39 411.542 2051.46 412.32 Q2051.68 419.842 2056.17 423.993 Q2060.58 428.106 2068.13 428.106 Q2072.69 428.106 2075.51 424.845 Q2078.33 421.547 2078.33 417.249 Q2078.33 413.135 2075.95 410.245 Q2074.95 408.948 2073.69 408.133 Q2072.47 407.281 2071.69 407.021 Q2070.95 406.762 2069.51 406.391 Q2060.09 404.131 2059.5 403.872 Q2055.02 402.352 2052.28 398.536 Q2049.57 394.682 2049.57 389.976 Q2049.57 383.899 2053.83 379.601 Q2058.13 375.265 2064.36 375.265 Q2067.47 375.265 2070.06 376.266 Q2072.69 377.229 2073.77 378.118 Q2074.84 379.008 2076.51 380.601 L2079.14 376.266 Q2079.73 375.265 2080.29 375.265 Q2080.88 375.265 2080.99 375.636 Q2081.14 375.969 2081.14 377.081 L2081.14 392.348 Q2081.14 393.2 2081.1 393.496 Q2081.07 393.793 2080.81 393.978 Q2080.59 394.163 2080.14 394.163 Q2079.4 394.163 2079.21 393.274 Q2077.1 377.414 2064.43 377.414 Q2060.09 377.414 2057.24 380.342 Q2054.42 383.232 2054.42 387.345 Q2054.42 390.68 2056.5 393.422 Q2058.57 396.127 2062.09 396.979 L2071.8 399.314 Q2076.66 400.463 2079.92 404.761 Q2083.18 409.059 2083.18 414.655 Q2083.18 421.102 2078.96 425.771 Q2074.77 430.44 2068.21 430.44 Q2063.5 430.44 2059.87 428.884 Q2056.24 427.327 2054.28 425.141 Q2052.76 427.661 2051.76 429.069 L2051.53 429.44 Q2050.94 430.44 2050.39 430.44 Q2049.79 430.44 2049.68 430.07 Q2049.57 429.699 2049.57 428.624 Z" fill="#000000" fill-rule="evenodd" fill-opacity="1" /><path clip-path="url(#clip600)" d="M2088.85 398.425 L2088.85 396.757 Q2092.33 396.609 2094.63 394.163 Q2096.96 391.681 2097.74 388.642 Q2098.56 385.603 2098.63 382.083 L2100.52 382.083 L2100.52 396.053 L2111.38 396.053 L2111.38 398.425 L2100.52 398.425 L2100.52 419.509 Q2100.52 427.698 2105.63 427.698 Q2107.82 427.698 2109.27 425.475 Q2110.71 423.214 2110.71 419.212 L2110.71 415.025 L2112.6 415.025 L2112.6 419.361 Q2112.6 423.474 2110.71 426.549 Q2108.82 429.625 2105.08 429.625 Q2103.71 429.625 2102.34 429.254 Q2101 428.921 2099.22 428.032 Q2097.48 427.105 2096.37 424.882 Q2095.3 422.621 2095.3 419.361 L2095.3 398.425 L2088.85 398.425 Z" fill="#000000" fill-rule="evenodd" fill-opacity="1" /><path clip-path="url(#clip600)" d="M2120.01 421.547 Q2120.01 415.099 2127.61 411.69 Q2132.17 409.504 2141.58 408.948 L2141.58 406.169 Q2141.58 401.463 2139.1 398.98 Q2136.65 396.461 2133.54 396.461 Q2127.98 396.461 2125.31 399.944 Q2127.57 400.018 2128.39 401.167 Q2129.2 402.278 2129.2 403.427 Q2129.2 404.946 2128.24 405.947 Q2127.31 406.91 2125.72 406.91 Q2124.2 406.91 2123.2 405.984 Q2122.2 405.02 2122.2 403.353 Q2122.2 399.647 2125.53 397.202 Q2128.91 394.756 2133.69 394.756 Q2139.91 394.756 2144.06 398.943 Q2145.36 400.24 2145.99 401.908 Q2146.65 403.575 2146.73 404.687 Q2146.8 405.761 2146.8 407.911 L2146.8 423.066 Q2146.8 423.511 2146.95 424.252 Q2147.1 424.993 2147.77 425.956 Q2148.47 426.883 2149.62 426.883 Q2152.36 426.883 2152.32 422.029 L2152.32 417.767 L2154.25 417.767 L2154.25 422.029 Q2154.25 426.068 2152.1 427.661 Q2149.99 429.217 2148.03 429.217 Q2145.51 429.217 2143.91 427.365 Q2142.32 425.512 2142.1 422.992 Q2140.95 425.882 2138.32 427.772 Q2135.72 429.625 2132.17 429.625 Q2129.42 429.625 2126.83 428.921 Q2124.27 428.254 2122.12 426.364 Q2120.01 424.437 2120.01 421.547 M2125.87 421.473 Q2125.87 424.289 2127.87 426.105 Q2129.87 427.92 2132.68 427.92 Q2135.87 427.92 2138.72 425.475 Q2141.58 422.992 2141.58 418.138 L2141.58 410.542 Q2133.17 410.838 2129.5 414.21 Q2125.87 417.545 2125.87 421.473 Z" fill="#000000" fill-rule="evenodd" fill-opacity="1" /><path clip-path="url(#clip600)" d="M2156.21 398.425 L2156.21 396.757 Q2159.7 396.609 2162 394.163 Q2164.33 391.681 2165.11 388.642 Q2165.92 385.603 2166 382.083 L2167.89 382.083 L2167.89 396.053 L2178.74 396.053 L2178.74 398.425 L2167.89 398.425 L2167.89 419.509 Q2167.89 427.698 2173 427.698 Q2175.19 427.698 2176.63 425.475 Q2178.08 423.214 2178.08 419.212 L2178.08 415.025 L2179.97 415.025 L2179.97 419.361 Q2179.97 423.474 2178.08 426.549 Q2176.19 429.625 2172.44 429.625 Q2171.07 429.625 2169.7 429.254 Q2168.37 428.921 2166.59 428.032 Q2164.85 427.105 2163.74 424.882 Q2162.66 422.621 2162.66 419.361 L2162.66 398.425 L2156.21 398.425 Z" fill="#000000" fill-rule="evenodd" fill-opacity="1" /><path clip-path="url(#clip600)" d="M2186.3 412.061 Q2186.3 404.909 2190.9 399.833 Q2195.49 394.756 2202.09 394.756 Q2208.76 394.756 2212.2 399.092 Q2215.69 403.427 2215.69 409.652 Q2215.69 410.801 2215.39 411.023 Q2215.1 411.246 2213.8 411.246 L2192.6 411.246 Q2192.6 418.99 2194.9 422.621 Q2198.09 427.698 2203.46 427.698 Q2204.2 427.698 2205.09 427.55 Q2205.98 427.402 2207.8 426.772 Q2209.61 426.105 2211.2 424.363 Q2212.8 422.621 2213.72 419.879 Q2213.95 418.805 2214.69 418.842 Q2215.69 418.842 2215.69 419.731 Q2215.69 420.398 2214.95 421.917 Q2214.24 423.4 2212.87 425.178 Q2211.5 426.957 2208.83 428.291 Q2206.2 429.625 2203.02 429.625 Q2196.35 429.625 2191.31 424.585 Q2186.3 419.509 2186.3 412.061 M2192.68 409.652 L2210.69 409.652 Q2210.69 408.059 2210.39 406.28 Q2210.13 404.502 2209.31 402.056 Q2208.54 399.573 2206.68 398.017 Q2204.83 396.461 2202.09 396.461 Q2200.87 396.461 2199.53 396.979 Q2198.24 397.498 2196.64 398.758 Q2195.05 400.018 2193.94 402.871 Q2192.83 405.724 2192.68 409.652 Z" fill="#000000" fill-rule="evenodd" fill-opacity="1" /><path clip-path="url(#clip600)" d="M2222.21 447.004 Q2222.21 446.633 2223.17 445.707 Q2235.4 433.256 2235.4 409.8 Q2235.4 386.27 2223.65 374.376 Q2222.21 373.005 2222.21 372.597 Q2222.21 371.856 2222.95 371.856 Q2223.47 371.856 2225.29 373.375 Q2227.14 374.895 2229.92 378.378 Q2232.73 381.861 2234.81 386.122 Q2239.81 396.461 2239.81 409.8 Q2239.81 422.621 2235.03 432.96 Q2232.99 437.295 2230.14 440.927 Q2227.29 444.558 2225.4 446.151 Q2223.51 447.745 2222.95 447.745 Q2222.21 447.745 2222.21 447.004 Z" fill="#000000" fill-rule="evenodd" fill-opacity="1" /></svg>
